<svg width="643" height="433" viewBox="0 0 643 433" fill="none" xmlns="http://www.w3.org/2000/svg">
<path d="M307.904 429.6C297.318 426.5 288.18 419.5 272.133 402.1C261.657 390.9 240.484 365 235.024 356.9C229.229 348.2 221.874 329.3 218.531 314.5L216.525 305.5L212.067 305C202.149 303.7 198.695 298.9 197.135 283.7C196.132 275.1 195.463 272.7 192.454 268C181.31 251 177.187 234.3 180.642 220.2C181.199 217.4 182.425 214.4 183.316 213.4C185.545 210.6 193.234 211.1 200.366 214.3L206.273 217L205.715 213.7C204.824 208.9 203.152 198.5 199.921 177.5C196.132 152.9 196.466 141.7 201.592 128.3C203.487 123.2 206.161 116.9 207.721 114.3C211.956 106.6 220.091 97.4 226.109 93.3L231.681 89.5V82.4C231.903 64.3 244.83 45.9 265.892 33.7C275.253 28.3 291.189 21 293.752 21C295.423 21 295.423 21.2 293.64 23.6C292.637 25.1 292.192 26.1 292.749 25.9C293.195 25.6 298.432 23.4 304.227 20.8C316.708 15.4 331.864 10.9 347.465 8.00002C359.612 5.80002 375.548 4.30002 375.548 5.40002C375.548 5.70002 371.647 9.50002 366.855 13.8C359.723 20.2 352.146 29.2 352.146 31.4C352.146 31.6 357.383 29.7 363.624 26.9C369.976 24.2 379.114 21.1 383.794 20C392.821 17.9 413.437 16.2 413.437 17.4C413.437 17.9 409.648 21.8 405.079 26.2C397.167 33.9 378.891 54.2 378.891 55.3C378.891 55.6 383.46 53.6 389.032 50.8C400.621 45 417.114 39.5 417.783 41.1C418.006 41.7 415.888 44.1 413.214 46.3C405.636 52.6 393.601 65.5 396.164 64.6C405.302 61.2 409.091 60.1 413.771 59.5C416.668 59.1 419.009 59.1 419.009 59.6C419.009 60 417.226 63.2 415.108 66.6L411.319 72.9L417.114 70.9C426.364 67.5 431.49 66 433.05 66C435.724 66 434.721 68.3 430.487 72.2L426.252 76.1L429.93 74.9C431.935 74.3 433.941 74.1 434.276 74.4C434.721 74.8 430.598 79.1 425.138 84L415.331 92.9L419.9 99.2C426.364 108.1 431.713 119 434.721 129.5C437.396 138.3 437.396 139.2 437.062 177.3C436.839 198.6 437.062 216 437.619 216C438.065 216 439.513 215.3 440.739 214.4C443.971 212.2 451.214 210.8 455.449 211.5C460.352 212.3 462.247 216.2 463.25 226.8C464.141 238.3 461.355 248.8 453.443 262.8C447.537 273.1 446.98 274.9 445.865 284.1C445.197 289.7 443.748 295.8 442.745 297.7C440.739 301.6 435.501 305 431.601 305C429.93 305 428.927 305.7 428.592 307.3C428.258 308.5 427.144 313.3 426.141 317.9C423.689 329.7 419.9 339.4 413.882 350.2C407.53 361.6 404.076 366.2 383.014 391.3C362.844 415.5 354.04 424 345.682 427.7C340.11 430.1 338.104 430.5 326.069 430.7C316.82 430.9 311.136 430.5 307.904 429.6ZM337.547 366C340.556 364.8 344.233 362.7 345.682 361.3L348.245 358.7L345.459 360C337.659 363.7 317.822 365.2 305.341 363C302.555 362.6 300.104 362.3 299.992 362.5C299.212 363.2 309.019 367.2 313.476 368C320.386 369.3 331.195 368.4 337.547 366ZM237.364 231.9C235.804 230.9 234.021 229.6 233.352 229.1C232.683 228.6 231.458 228.6 230.678 229C229.229 229.8 230.789 231 236.807 233.8C240.15 235.4 240.484 234.1 237.364 231.9Z" fill="#472A18"/>
<path d="M342.116 401.5C339.999 400.8 336.767 399.5 334.873 398.6C329.412 396 317.042 396.4 310.69 399.5C307.793 400.9 303.781 402 301.664 402C297.095 402 289.963 397.4 283.611 390.4C281.271 387.7 275.142 381.8 270.015 377.3C261.769 369.9 260.209 369 256.531 369C253.188 369 251.962 368.4 249.845 365.7C233.464 344.7 228.226 334.3 222.208 310.8C220.091 302.4 218.085 295.1 217.751 294.5C217.194 293.4 218.308 306.2 219.088 310C219.311 311.5 218.977 311.2 218.085 309C216.748 306 215.968 305.4 212.067 305C202.149 303.7 198.695 298.9 197.135 283.7C196.132 275.1 195.463 272.7 192.454 268C181.31 251 177.187 234.3 180.642 220.2C181.199 217.4 182.425 214.4 183.316 213.4C185.545 210.6 193.234 211.1 200.478 214.3L206.384 217L205.715 214.2C205.381 212.7 204.378 205.9 203.375 199C202.372 192.1 200.924 182.9 200.255 178.5C199.475 174.1 199.029 169.3 199.252 167.7L199.586 165H211.064H222.431L223.768 154.6C226.889 131.3 233.018 120.1 246.168 114L250.625 112L255.417 114.9C258.091 116.5 263.218 118.9 267.007 120.3C279.711 124.9 284.502 125.5 308.127 125.5C328.521 125.4 331.529 125.2 343.788 122.6C356.714 119.9 373.096 114.7 377.553 111.8C379.559 110.6 379.002 110.1 369.307 105C363.624 102 358.832 99.2 358.832 98.8C358.832 98.4 366.855 91.5 376.773 83.5C386.58 75.4 394.381 68.6 394.046 68.3C392.04 66.5 364.627 82.9 355.6 91.4C352.703 94 351.143 94.8 349.36 94.4C347.354 94 345.571 95.2 340.11 100.7C336.433 104.4 331.864 109.1 329.858 111L326.292 114.5L329.635 109C331.418 106 334.65 100.8 336.878 97.6C341.113 91.5 341.893 89 339.776 89C339.107 89 336.321 87.6 333.535 86C328.966 83.2 328.298 83 326.626 84.5C323.84 86.7 323.171 86.4 323.952 83C325.512 75.5 319.828 82 310.356 98.5C306.01 106.2 305.341 106.9 305.899 103.5C306.456 100.3 311.359 87.7 315.928 77.8C316.485 76.6 315.705 75.7 313.253 74.5L309.799 72.9L307.013 78.5C303.558 85.6 297.764 101.7 296.872 107C296.426 109.2 295.758 111 295.2 111C293.417 111 292.637 105.6 292.637 94.5C292.749 85.3 293.195 82.1 295.758 75.1C298.098 68.7 298.544 66.5 297.429 66C296.649 65.5 295.423 65.4 294.532 65.7C293.752 66 293.083 65.7 293.083 65.2C293.083 64.6 289.629 62.2 285.282 59.9C281.048 57.6 277.482 55.2 277.482 54.5C277.482 52.6 281.382 42.9 283.945 38.3C285.282 36 287.065 32.2 287.957 29.8L289.629 25.5L284.057 30.9C281.048 33.8 276.367 39.5 273.693 43.6L268.901 50.9L263.998 48.3C261.323 46.9 258.314 45.1 257.311 44.4C255.974 43.3 255.305 43.3 254.191 44.3C253.077 45.2 253.077 45 253.745 43.2C254.303 42 257.646 39 261.323 36.5C268.79 31.5 290.631 21 293.64 21C295.423 21 295.423 21.1 293.64 23.6C292.637 25.1 292.192 26.1 292.749 25.9C293.195 25.6 298.432 23.4 304.227 20.8C316.708 15.4 331.864 10.9 347.465 8.00002C359.612 5.80002 375.548 4.30002 375.548 5.40002C375.548 5.70002 371.647 9.50002 366.855 13.8C359.723 20.2 352.146 29.2 352.146 31.4C352.146 31.6 357.383 29.7 363.624 26.9C369.976 24.2 379.114 21.1 383.794 20C392.821 17.9 413.437 16.2 413.437 17.4C413.437 17.9 409.648 21.8 405.079 26.2C397.167 33.9 378.891 54.2 378.891 55.3C378.891 55.6 383.46 53.6 389.032 50.8C400.621 45 417.114 39.5 417.783 41.1C418.006 41.7 415.888 44.1 413.214 46.3C405.636 52.6 393.601 65.5 396.164 64.6C405.302 61.2 409.091 60.1 413.771 59.5C416.668 59.1 419.009 59.1 419.009 59.6C419.009 60 417.226 63.2 415.108 66.6L411.319 72.9L417.114 70.9C426.364 67.5 431.49 66 433.05 66C435.724 66 434.721 68.3 430.487 72.2L426.252 76.1L429.93 74.9C431.935 74.3 433.941 74.1 434.276 74.4C434.721 74.8 430.375 79.3 424.581 84.5C418.786 89.7 413.882 93.8 413.66 93.5C413.437 93.3 410.651 94.9 407.642 97.1C404.633 99.2 398.838 102.7 394.826 104.7L387.471 108.3L392.486 110.6C395.272 111.9 399.061 114.5 400.956 116.5C408.199 123.8 410.651 130.6 414.105 152.5C416.78 169.9 416.111 169 426.809 169H435.724V164.3C435.724 161.8 436.059 160 436.504 160.4C436.95 160.8 437.173 173.5 436.95 188.6C436.839 203.7 437.062 216 437.619 216C438.065 216 439.513 215.3 440.739 214.4C443.971 212.2 451.214 210.8 455.449 211.5C460.352 212.3 462.247 216.2 463.25 226.8C464.141 238.3 461.355 248.8 453.443 262.8C447.537 273.1 446.98 274.9 445.865 284.1C445.197 289.7 443.748 295.8 442.745 297.7C440.628 301.8 435.39 305 431.044 305C428.258 305 427.924 304.7 427.812 301.3C427.812 298.6 427.032 300.3 425.138 307.5C418.563 333.2 412.211 345.6 394.826 366.8C389.589 373.1 388.363 374.1 385.8 373.8C383.237 373.5 381.008 375.2 370.533 385.3C354.374 400.9 349.248 403.8 342.116 401.5ZM337.547 366C340.556 364.8 344.233 362.7 345.682 361.3L348.245 358.7L345.459 360C337.659 363.7 317.822 365.2 305.341 363C302.555 362.6 300.104 362.3 299.992 362.5C299.212 363.2 309.019 367.2 313.476 368C320.386 369.3 331.195 368.4 337.547 366ZM295.423 347.8C288.514 338.4 287.065 330.1 292.303 329.9C301.998 329.6 309.799 330.4 314.145 332.1C319.94 334.4 322.28 334.5 326.292 332.6C328.521 331.6 332.309 331.4 340.779 331.8L352.368 332.3L351.588 335.9C351.031 338.8 348.468 344.4 344.568 351.3C344.345 351.7 346.462 352 349.248 352H354.263L358.163 344.8C363.066 335.5 364.181 329.8 361.729 326.4C359.946 324 359.5 324 349.582 324.3C343.899 324.5 338.327 325.1 337.101 325.7C334.315 327.1 312.808 326.6 297.206 324.9C286.508 323.8 286.285 323.8 283.611 326C279.711 329.2 279.822 336.5 283.722 344C287.623 351.5 288.18 352 293.752 352H298.544L295.423 347.8ZM275.699 239.6C280.825 237.7 283.945 230.6 282.162 225.3C281.494 223.2 281.159 221.4 281.382 221.1C282.385 220.3 287.957 223.5 292.972 227.8C295.758 230.1 298.655 231.8 299.547 231.5C302.89 230.4 294.643 222.8 285.171 218.5C271.464 212.2 255.974 211.5 244.496 216.5C238.59 219.1 227.334 227.4 227.334 229.2C227.334 229.7 227.78 229.9 228.337 229.5C228.895 229.2 229.675 229.4 230.12 230C230.455 230.6 232.795 231.9 235.247 233C240.261 235.4 241.264 233.7 236.25 231.2C234.466 230.3 232.906 229.2 232.906 228.8C232.906 228.4 232.126 228.4 231.012 228.7C228.003 229.7 230.343 227.2 235.358 223.9C237.921 222.3 240.373 221 240.818 221C241.264 221 241.487 223.1 241.041 225.8C240.707 228.9 241.041 231.8 242.156 234.2C243.604 237.3 244.719 238.1 249.288 239.4C256.197 241.3 270.907 241.4 275.699 239.6ZM381.565 240.1C377.108 239.1 375.548 238.2 375.548 236.6C375.548 235.6 376.885 235.4 380.451 235.7C384.686 236.2 385.8 235.9 388.029 233.8C389.477 232.5 391.149 230.5 391.818 229.4C392.821 228 393.489 227.8 394.492 228.7C396.609 230.5 394.269 235.2 389.923 237.9L386.134 240.3L390.257 239.7C400.064 238.4 403.964 233.8 402.739 225.3C402.404 222.9 402.627 221 403.184 221C403.742 221 407.085 222.9 410.762 225.2C416.78 229.1 417.114 229.2 414.774 226.5C410.985 222.1 400.733 216.2 393.601 214.4C383.905 211.8 370.199 212.8 361.061 216.7C353.371 219.9 343.23 227.2 343.23 229.5C343.23 232.4 345.348 231.8 350.251 227.5C353.148 225.1 356.937 222.4 358.832 221.5L362.175 220L361.506 225.7C360.392 236.4 365.741 240.9 379.448 240.8C384.24 240.8 384.574 240.7 381.565 240.1ZM299.658 202.6C303.001 201 306.456 197 306.456 194.6C306.456 193.4 305.564 193.5 301.218 195.2C294.086 198 288.18 197.3 267.341 191C252.631 186.5 249.399 185.8 243.827 186.2C236.472 186.7 233.129 188.5 227.669 194.9C223.211 200 222.765 202.8 227.112 198.3C231.346 193.9 237.252 191 242.156 191C244.607 191 250.959 192.8 257.757 195.4C268.344 199.4 277.147 202.3 282.496 203.3C287.511 204.3 296.761 203.9 299.658 202.6ZM366.075 193.1C388.697 183.1 396.832 182 408.533 187.6C414.328 190.4 414.105 189.8 407.419 183.2C398.281 174.3 389.255 175 364.961 186.6C360.058 188.9 353.148 191.6 349.582 192.6C343.453 194.3 342.785 194.3 339.776 192.8C336.656 191.2 336.544 191.2 336.544 193.1C336.544 194.2 337.77 196.2 339.33 197.5C343.899 201.7 348.357 200.9 366.075 193.1ZM402.293 93.1C415.443 84.3 426.364 75.5 422.909 76.5C418.563 77.7 408.645 83.6 400.733 89.6C393.266 95.3 387.694 101 389.7 101C390.257 101 395.829 97.4 402.293 93.1Z" fill="#784F39"/>
<path d="M256.643 239.3C255.863 239.1 255.194 238.1 255.194 237.3C255.194 236.1 256.086 235.9 258.76 236.2C263.998 236.9 268.344 235.2 270.35 231.8C271.241 230.2 272.69 229.1 273.359 229.3C275.699 230 274.25 234.4 270.795 237.3C268.121 239.4 266.338 240 262.66 239.9C260.097 239.9 257.311 239.6 256.643 239.3Z" fill="#784F39"/>
<path d="M250.068 228.6C249.065 226.3 249.956 223.8 252.185 222.6C254.971 221 257.98 223 257.98 226.6C257.98 229.1 257.534 229.5 254.303 229.8C251.851 230 250.514 229.6 250.068 228.6Z" fill="#784F39"/>
<path d="M370.199 228.8C367.19 226.1 369.53 222 374.099 222C377.553 222 379.894 226.2 377.776 228.5C376.105 230.3 372.093 230.5 370.199 228.8Z" fill="#784F39"/>
<path d="M236.918 61.5C237.364 60.7 238.033 60 238.701 60C239.258 60 239.481 59.6 239.147 59.1C238.813 58.6 239.258 57.9 240.261 57.6C241.71 57.1 241.599 57.5 239.927 60C237.921 63.1 235.804 64.1 236.918 61.5Z" fill="#784F39"/>
<path d="M296.761 399.9C292.303 397.9 266.784 373.8 244.05 350C227.223 332.3 223.1 321.1 218.308 279C216.971 266.6 215.411 256.1 214.853 255.5C213.628 254.3 213.739 259.5 215.076 273.8C215.633 280.2 216.302 289.7 216.525 294.7L216.971 304L213.293 304.6C208.39 305.4 203.152 302.7 200.366 297.8C198.918 295.4 197.803 290.2 197.023 283.4C196.02 274.1 195.352 272 192.343 267.6C181.645 252.4 177.187 234.3 180.642 220.2C181.199 217.4 182.425 214.4 183.316 213.4C185.545 210.7 193.234 211.1 200.366 214.3L206.05 216.9L205.381 212.2C205.047 209.6 204.378 205.5 203.932 203C203.375 200.5 203.487 197.8 204.044 197C204.712 195.9 204.935 196.6 205.047 199.3V203H210.507H215.968L218.308 194.2C220.982 183.9 222.431 175.2 223.991 158C226.22 134.1 232.126 122 244.719 115.4L249.622 112.8L259.986 117.4C277.928 125.5 296.983 128.2 320.943 126C343.453 124 360.615 119.9 378.556 112.3C386.357 109 386.58 108.9 390.815 110.5C396.052 112.5 402.85 118.3 405.636 123.1C408.645 128.2 410.762 136.5 413.325 152.5C415.22 164.2 416.668 169 421.906 181.5C425.361 189.8 428.815 199.1 429.484 202.3C430.375 206.7 431.155 208 432.604 208C434.387 208 434.61 206.8 434.721 196.8C434.833 190.6 435.279 184.4 435.724 183C436.282 181.5 436.616 187.8 436.727 198.3C436.839 208 437.173 216 437.73 216C438.176 216 439.513 215.3 440.739 214.4C443.971 212.2 451.214 210.8 455.449 211.5C460.352 212.3 462.247 216.2 463.25 226.8C464.141 238.3 461.355 248.8 453.443 262.8C447.648 273.1 446.98 274.9 445.865 284.1C444.082 298.7 439.29 305.4 431.49 304.2L428.927 303.8L429.484 287C429.818 277.7 430.375 268.9 430.821 267.5C431.267 266.1 431.044 265 430.375 265C429.038 265 428.592 267.5 426.252 287.5C423.912 306.5 420.123 322.2 415.443 331.3C412.991 336.2 406.082 344.9 394.158 358.5C371.647 384 358.163 397.1 351.588 400C346.574 402.2 346.351 402.2 341.559 400.5C338.773 399.6 336.098 398.1 335.541 397.2C334.761 395.9 332.532 395.6 323.617 395.6C316.151 395.6 312.585 396 312.251 396.8C311.805 398.1 307.682 400.3 303.67 401.4C302.333 401.7 299.435 401.1 296.761 399.9ZM329.301 390.9C331.641 390.3 335.207 388.7 337.101 387.4C340.779 384.9 345.236 378.5 344.122 377.5C343.788 377.1 341.336 377.8 338.773 379C335.764 380.4 331.084 381.4 326.069 381.7C318.714 382.1 316.039 381.7 304.338 378.4L301.664 377.7L304.227 381.8C309.353 390 318.937 393.5 329.301 390.9ZM332.644 367.5C340.333 365.7 347.688 361 352.703 354.5C361.283 343.7 365.741 329.1 361.618 325C359.946 323.3 358.498 323.1 349.917 323.4C344.568 323.6 339.107 324.3 337.881 324.9C336.656 325.5 333.981 326 331.864 326C329.858 326 323.84 326 318.38 326C313.031 326.1 308.016 325.7 307.236 325.3C306.567 324.9 303.893 324.4 301.441 324.3C298.989 324.3 294.532 323.9 291.412 323.5C286.285 322.9 285.617 323 283.054 325.5C276.813 331.5 281.494 347.4 292.415 357.2C303.67 367.3 317.822 370.9 332.644 367.5ZM275.922 337.2C275.922 325.8 277.37 322.5 284.391 318C293.863 311.8 315.148 308.2 331.307 310C348.134 311.9 362.064 317.3 365.741 323.3C366.41 324.4 367.301 329.9 367.635 335.4L368.304 345.5L370.867 339.1C374.545 329.5 374.21 322.3 369.864 314.9C364.181 305.4 355.6 299.6 341.002 295.6C337.659 294.6 334.204 293.6 333.312 293.4C332.087 293 332.198 292.6 333.87 291.5C335.207 290.6 335.43 290.1 334.538 290C333.758 290 331.641 291 329.746 292.2C325.177 295.3 320.051 295 314.702 291.5C311.47 289.3 310.913 289.1 312.473 290.8C314.145 292.5 314.256 293 313.031 293.4C312.139 293.6 309.13 294.4 306.233 295.2C292.749 299 275.142 311.2 271.13 319.7C269.012 324.3 269.347 332.8 271.91 339.4C273.804 344.6 275.03 347 275.587 347C275.699 347 275.81 342.6 275.922 337.2ZM274.25 241C280.156 239.5 283.611 233.6 282.608 226.3L281.939 220.9L285.394 222.7C287.288 223.7 290.854 226.2 293.195 228.3C297.764 232.2 300.884 233.1 300.884 230.3C300.884 227.6 291.969 221 283.054 217.1C275.03 213.6 274.25 213.5 262.438 213.5C251.294 213.5 249.622 213.8 243.827 216.3C240.373 217.8 234.912 221.4 231.569 224.2C226.331 228.7 225.886 229.4 227.892 229.9C229.117 230.2 232.238 231.5 234.912 232.8C240.038 235.3 241.376 234.1 236.584 231.3C234.801 230.3 233.129 229.1 232.572 228.5C231.792 227.5 237.587 222 239.37 222C239.927 222 240.373 224.6 240.373 227.8C240.373 235.4 242.379 238 249.956 240.2C256.531 242.1 268.232 242.5 274.25 241ZM388.363 240.9C396.164 239.6 400.621 237.8 401.736 235.3C402.181 234.3 402.85 230.7 403.296 227.3L403.964 221L409.982 225.1C413.214 227.3 416.223 228.9 416.557 228.5C417.894 227.4 408.199 219.8 401.736 216.9C387.806 210.8 373.319 210.8 359.389 216.9C352.257 220.1 343.23 227.1 343.23 229.6C343.23 232.8 346.462 232.1 350.585 228C353.929 224.7 359.5 221 361.283 221C361.506 221 361.395 223.7 361.283 227C360.726 235.4 363.512 239.4 370.867 240.8C378.111 242.1 380.785 242.2 388.363 240.9ZM301.441 201.8C304.227 199.9 308.239 193.3 307.236 192.4C307.013 192.2 304.896 193 302.444 194.1C295.869 197.2 286.954 196.3 268.121 190.6C244.83 183.5 236.361 184 228.337 193C226.666 194.9 224.883 197.9 224.548 199.5L223.768 202.5L225.663 200.2C226.666 198.9 229.563 196.5 232.126 194.9C238.255 190.9 244.83 191 255.528 195.1C278.373 204 294.866 206.5 301.441 201.8ZM366.633 193.5C390.257 183.5 396.275 182.8 408.311 188.4C416.891 192.4 416.78 191.2 407.976 183.1C398.393 174.3 391.26 174.3 371.647 183.2C350.92 192.6 342.673 194.6 338.55 191.3C336.656 189.8 336.544 189.8 336.544 192.3C336.544 196.3 337.77 198.1 341.447 199.6C346.239 201.5 349.471 200.7 366.633 193.5Z" fill="#A66A51"/>
<path d="M311.916 357.6C305.341 355.5 296.203 348.8 297.875 347.4C298.544 346.8 342.227 348.8 343.008 349.4C343.899 350.3 337.993 355.1 333.981 356.9C328.409 359.3 318.268 359.7 311.916 357.6Z" fill="#A66A51"/>
<path d="M265.224 237.6C265.224 237.3 266.672 236.2 268.567 235C271.13 233.4 271.687 233.2 271.241 234.5C270.35 236.4 265.224 239.1 265.224 237.6Z" fill="#A66A51"/>
<path d="M385.688 236.8C385.911 236.6 387.471 235.4 389.254 234.1C390.926 232.7 392.263 232.1 392.263 232.8C392.263 234.4 389.032 237 387.026 237C386.023 237 385.466 236.9 385.688 236.8Z" fill="#A66A51"/>
<path d="M336.544 100.9C336.656 98.2 351.477 80.9 362.064 71.3C367.858 66 372.762 61.1 372.762 60.6C372.873 60 373.319 58.7 373.876 57.6C374.433 56.3 374.322 55.5 373.207 54.9C372.316 54.4 369.641 52.9 367.078 51.6L362.509 49.1L353.706 57.3C348.914 61.8 342.116 68.2 338.661 71.5C335.207 74.8 330.972 78.6 329.189 80L326.069 82.5L329.301 77.5C334.427 69.4 342.227 60 349.694 52.8C356.937 46 357.606 42.9 350.808 47.8C342.116 54 326.738 71 317.154 85.1C310.69 94.5 310.913 90.5 317.377 78.4C324.063 66.1 329.858 58.2 339.664 48.2C343.565 44.2 346.574 40.7 346.351 40.5C344.456 38.9 337.213 36.1 336.544 36.7C322.391 51.3 309.91 69.6 303.001 85.6C300.438 91.6 300.327 91.7 297.318 90.8C295.089 90.1 294.198 89.1 294.198 87.5C294.198 75.5 306.01 53.9 321.5 37.5C327.518 31.1 327.852 30.6 325.957 29.3C324.732 28.6 323.506 28 323.06 28C321.5 28 309.019 41 303.781 48C300.884 51.8 298.209 55 297.986 55C297.652 55 297.764 53.5 298.098 51.8C299.435 46.3 305.23 37.4 311.693 31C317.6 25.2 317.822 24.8 315.817 23.5C312.251 21 308.685 20.6 304.673 22.4C298.209 25.1 298.878 24.1 305.899 20.5C318.268 14.1 347.465 6.80003 367.078 5.30003C371.759 5.00003 375.548 5.00003 375.548 5.40003C375.548 5.70003 371.424 9.70003 366.41 14.3C361.283 18.8 355.934 24.7 354.374 27.5C352.814 30.3 351.143 32.8 350.474 33.2C349.805 33.7 349.917 34 350.808 34C351.588 34 352.48 33.4 352.814 32.6C353.706 30.6 374.21 22.2 384.017 20C392.932 17.9 413.437 16.2 413.437 17.4C413.437 17.9 409.648 21.8 405.079 26.2C397.39 33.7 378.891 54.2 378.891 55.3C378.891 55.8 392.598 49.8 393.378 48.8C394.269 47.8 406.416 43.2 412.434 41.6C419.343 39.7 419.454 40.9 412.657 46.9C409.648 49.5 403.964 54.9 399.841 58.8L392.263 66.1L389.812 64C388.474 62.9 386.691 62 385.8 62C382.791 62 363.512 77 349.917 89.8C342.562 96.7 336.544 101.7 336.544 100.9Z" fill="#A66A51"/>
<path d="M421.126 85.8C422.686 83.5 423.132 81.9 422.352 81.5C420.569 80.5 424.803 76.1 427.589 76C428.927 76 430.375 75.6 430.71 75C431.044 74.5 432.158 74 433.05 74C433.941 74 434.61 74.5 434.61 75C434.61 75.6 433.941 76 433.161 76C432.381 76 430.933 77.2 429.93 78.8C428.927 80.3 425.918 83.3 423.355 85.5L418.674 89.5L421.126 85.8Z" fill="#A66A51"/>
<path d="M411.765 76.1C409.982 75.2 408.199 74.3 407.865 73.9C407.53 73.6 405.413 72.4 403.184 71.1C398.281 68.5 398.281 68.4 400.956 65.7C401.959 64.6 402.181 64 401.513 64.4C400.733 64.8 400.064 64.6 400.064 64C400.064 63.4 401.401 62.5 403.184 61.9C407.53 60.4 417.894 58.6 418.563 59.3C419.454 60.1 416.111 65.5 412.099 69.5C410.205 71.5 408.979 73.4 409.425 73.7C409.871 74.1 412.768 73.2 416 71.7C422.575 68.7 430.71 66 433.05 66C435.39 66 434.944 68.4 432.158 70.7C429.595 72.8 421.46 76.4 417.337 77.3C416.111 77.6 413.66 77.1 411.765 76.1Z" fill="#A66A51"/>
<path d="M341.113 400C337.547 398.5 336.321 397.4 335.876 395C335.318 392.6 334.538 392 332.198 392H329.301L332.644 390.4C334.538 389.6 337.213 387.9 338.55 386.7C341.447 384.3 345.905 377.1 345.013 376.3C344.791 376 341.67 377 338.104 378.6C328.632 382.8 316.708 382.4 304.004 377.5C298.544 375.5 306.01 386.6 312.362 390C314.702 391.3 315.259 392 314.034 392C312.696 392 312.028 392.8 312.028 394.3C312.028 398.4 308.127 401 301.664 401C296.761 401 293.195 398.2 272.244 377.8C233.464 340.1 228.783 334 223.88 314C222.208 306.9 217.528 271.6 214.519 242.3C214.073 238.3 213.293 235 212.736 235C211.287 235 211.51 244.9 213.405 265C214.296 274.6 215.411 287.4 215.856 293.4L216.525 304.2L212.179 303.7C209.839 303.4 206.941 303 205.715 302.8C202.818 302.2 199.475 298 199.475 294.9C199.475 293.5 199.141 292 198.695 291.6C198.138 291.2 197.692 289.4 197.692 287.7C197.135 278 195.909 271.6 194.237 270.1C190.783 267.1 182.759 250.3 180.976 242.4C178.859 233.3 179.304 221.5 181.979 215.8C183.205 213.2 184.542 212 186.882 211.6C191.117 210.7 200.255 213.4 204.044 216.6C205.604 217.9 207.053 218.8 207.387 218.6C207.61 218.4 207.944 220.1 207.944 222.4C208.056 224.7 209.059 228.1 210.173 230L212.29 233.5L212.959 222.5C213.516 215.4 214.965 207.3 217.082 199.8C220.982 186.3 222.32 178.6 223.991 160.3C226.331 133.9 232.572 121.3 246.168 115L250.514 113L257.089 116.6C284.948 131.6 340.556 129.7 379.671 112.2L386.469 109.2L391.26 111.2C404.187 116.4 408.756 125.1 413.325 153.5C415.108 164.8 416.446 169.8 420.68 179.3C427.255 194.5 429.595 202.9 431.267 217C432.381 227.4 432.27 231 429.595 254.5C423.02 313.8 420.569 324.9 411.319 337.7C400.621 352.4 362.732 393 355.6 397.4C348.802 401.6 346.351 402.1 341.113 400ZM328.186 368.6C328.855 368.4 331.307 368 333.758 367.5C340.667 366.3 345.794 363.5 350.92 358.3C358.163 350.8 362.509 341.9 363.066 333.2C363.735 323.2 363.289 322.9 350.474 323.4C344.902 323.6 339.219 324.3 337.881 324.9C336.656 325.5 333.981 326 331.864 326C329.858 326 323.729 326 318.38 326C312.919 326.1 307.904 325.7 307.124 325.1C306.456 324.6 304.116 324.1 301.998 324.2C299.881 324.2 295.2 323.9 291.634 323.5C285.84 322.8 284.948 322.9 282.496 325C280.045 327 279.711 328.2 279.711 333.9C279.711 339.1 280.379 341.8 283.054 346.8C286.731 353.8 295.2 361.9 302.11 365.1C310.245 368.8 321.166 370.3 328.186 368.6ZM276.033 342.3C275.81 334.3 277.482 326.3 280.045 322.8C287.846 312.5 318.603 307 340.556 312C351.254 314.5 360.838 318.6 363.512 322C364.738 323.5 365.741 326.6 365.852 329.3C365.964 331.9 366.41 334 366.967 334C367.413 334 367.747 336.8 367.858 340.3V346.5L370.533 340.5C372.539 336.1 373.207 332.5 373.207 327C373.319 320.5 372.873 318.8 370.087 314.4C365.072 306.7 356.937 300.6 346.574 297.1C341.67 295.4 337.101 294 336.21 294C332.755 294 333.424 292.5 338.216 289.4C341.002 287.7 344.902 285.9 347.019 285.6C358.832 283.6 357.383 271.5 345.125 270.1C341.113 269.6 340.222 269 338.439 265.8C337.324 263.7 335.876 262 335.318 262C333.312 262 334.315 269 336.544 271C337.881 272.2 340.222 273 342.673 273C346.796 273 351.031 275.8 351.031 278.5C351.031 280.3 346.685 282 342.339 282C340.333 282 337.993 283.4 334.427 286.9C324.732 296.1 321.834 296.2 312.585 287.5C307.013 282.3 304.896 281 302.221 281C297.429 281 295.312 280.1 295.312 278C295.312 275.4 299.101 272.9 304.227 272.3C309.465 271.6 311.47 269.3 310.356 264.9C309.353 261.1 308.239 261.2 307.013 265.2C306.121 268 305.23 268.6 301.775 269.1C295.981 269.9 292.415 272.4 290.854 276.5C289.74 279.6 289.74 280.4 291.523 282.1C292.526 283.1 295.423 284.5 297.764 285.1C302.778 286.3 312.251 291.1 312.473 292.5C312.585 293 311.136 293.7 309.242 294C304.673 294.9 292.749 300.4 284.948 305.3C277.259 310.1 270.238 319 269.235 325.2C268.79 327.9 269.124 331.7 270.238 335.3C271.798 340.7 274.807 347 275.699 347C275.922 347 276.144 344.9 276.033 342.3ZM274.919 241C277.036 240.3 279.153 238.4 280.825 235.8C282.942 232.4 283.165 230.9 282.608 226.3C281.828 220.2 281.494 220.2 290.074 225.7C292.972 227.6 295.312 229.8 295.312 230.5C295.312 232.3 296.983 233.1 299.101 232.4C302.221 231.3 300.995 228.3 295.646 223.9C284.948 215.4 268.009 210.8 255.083 212.9C251.294 213.5 246.056 214.9 243.27 216.1C238.59 218.1 226.22 227.4 226.22 228.9C226.22 229.6 238.033 234.4 239.816 234.5C240.261 234.5 241.487 235.5 242.379 236.7C243.382 238 246.502 239.6 249.399 240.4C255.64 242.1 270.238 242.4 274.919 241ZM395.718 239.5C400.176 238.1 401.067 237.4 402.181 234.1C402.85 232 403.407 228.2 403.407 225.6V220.9L407.085 223.1C408.979 224.3 411.988 226.5 413.771 227.8C416.111 229.8 416.78 230 416.78 228.8C416.78 226.1 404.967 217.3 398.058 214.9C384.574 210.3 368.081 211.6 355.712 218.3C349.025 221.9 341.782 228.5 342.45 230.3C343.342 232.9 346.685 231.9 350.585 228C353.929 224.7 359.5 221 361.283 221C361.506 221 361.395 223.7 361.283 227C360.726 234.7 363.624 239.3 369.753 240.9C375.213 242.3 389.366 241.5 395.718 239.5ZM301.33 202.2C304.561 200.5 308.685 193.7 307.236 192.4C306.902 192.1 305.007 192.7 302.89 193.6C296.315 196.8 286.954 196 269.681 190.7C252.408 185.4 245.387 184.3 238.813 185.9C233.686 187.1 227 193 224.437 198.6C222.208 203.4 222.543 203.9 225.997 200.4C230.9 195.3 237.141 192 241.933 192C244.496 192 251.851 194 260.209 197.1C282.274 205.1 293.195 206.5 301.33 202.2ZM365.852 194C379.448 188.1 389.812 185 396.164 185C397.947 185 402.739 186.4 406.75 188.2C410.762 190 414.44 191.6 414.885 191.8C416.78 192.6 413.214 187.7 408.868 183.5C406.527 181.2 402.516 178.5 399.953 177.5C395.941 175.8 394.715 175.8 389.143 176.8C385.689 177.5 375.993 180.9 367.747 184.5C348.691 192.7 343.453 194 339.442 191.7L336.544 190V193.3C336.544 196.6 338.55 199 342.116 200.3C345.682 201.6 352.926 199.7 365.852 194Z" fill="#C77A4C"/>
<path d="M429.484 293.9C430.487 280.1 433.273 245.4 434.053 236C434.499 231.9 434.833 226.1 434.944 223.3C435.056 220.4 435.501 218 435.947 218C436.393 218 437.953 216.9 439.402 215.6C442.745 212.6 450.434 210.6 455.449 211.5C458.458 212 459.684 212.9 460.909 215.6C463.695 221.5 464.141 233.6 461.912 242.6C459.907 251.1 453.109 265.3 448.428 270.7C446.422 273.1 445.754 274.8 446.2 276.5C446.534 277.8 446.422 279.2 445.754 279.5C445.197 279.8 444.974 282.3 445.197 285.1C445.642 288.8 445.42 289.9 444.528 289.4C443.637 288.9 443.414 289.6 443.748 291.9C444.305 295.4 440.739 302.1 437.953 302.7C437.062 302.9 434.61 303.3 432.493 303.6L428.815 304.3L429.484 293.9Z" fill="#C77A4C"/>
<path d="M294.643 398.2C289.629 394.9 253.745 359.9 241.933 346.7C225.663 328.6 223.768 322.2 217.194 263.5C213.07 226.9 212.959 216.5 216.748 203.1C220.648 189.1 222.654 177.9 223.434 165.5C224.326 151.7 226.666 139.8 229.675 132.3C232.461 125.7 240.15 117.8 246.613 114.8C250.402 113.1 251.182 113 252.742 114.3C253.857 115.1 257.757 117.2 261.658 118.9C289.629 131.5 342.562 128.7 378.779 112.6L386.469 109.2L391.929 111.5C404.187 116.6 409.091 126 412.991 152.5C414.44 163 416 168.2 420.792 180.2C427.812 197.4 428.927 201.5 430.598 217C431.713 226.6 431.601 231.5 429.93 247C423.912 304.4 421.46 318.4 415.22 330.5C409.536 341.4 374.656 381.1 359.501 393.8C351.254 400.7 348.245 401.8 342.116 400.1C336.879 398.7 336.21 397.9 336.21 392.9C336.21 390 337.101 388.2 339.887 385.4C341.893 383.3 344.233 380.2 345.014 378.4C345.905 376.6 348.245 373.4 350.474 371.3C355.489 366.4 361.284 355.7 364.85 345L367.636 336.5L367.747 341.5L367.97 346.5L369.753 342.9C370.867 340.9 372.205 339.5 372.873 339.7C374.99 340.3 379.448 326.2 379.337 319C379.337 311.4 377.665 307.9 368.304 296.9C361.729 289.2 355.489 279.2 355.489 276.5C355.489 273.4 349.248 269 345.125 269C343.008 269 340.779 268.4 339.999 267.7C339.33 267 337.77 260.3 336.433 252.9C335.207 245.5 333.647 238.8 333.09 238C332.198 236.5 332.087 236.6 331.752 242.3C331.418 245.7 333.424 265 334.315 268.1C335.541 272 338.884 274 344.233 274C347.911 274 350.251 276.1 349.694 278.7C349.471 279.9 347.799 280.7 344.456 281.2C340.667 281.8 338.216 283.2 333.09 287.5C327.629 292.1 326.069 293 322.503 293C319.16 293 317.823 292.3 314.925 289.4C307.682 281.7 306.679 281 302.778 281C300.772 281 298.098 280.4 296.872 279.6C294.755 278.2 294.755 278.1 297.429 275.6C299.324 273.8 301.33 273 303.781 273C309.13 273 310.579 271 311.471 262.8C313.922 237.6 311.693 225.2 308.907 248.6C306.79 266.8 306.567 267.3 302.11 268.1C295.089 269.4 292.972 271.1 288.626 279.5C286.397 283.9 281.605 290.9 278.15 295C268.678 306.1 266.338 310.7 266.338 318.3C266.338 324.8 270.573 339.9 273.916 345.5L275.81 348.5L276.145 345.5C276.59 342.8 276.813 343 279.042 348.5C282.608 357.5 288.18 365.5 294.978 371.7C298.209 374.8 301.775 378.7 302.778 380.4C303.67 382.1 305.899 384.9 307.57 386.5C313.254 392 313.254 396.9 307.57 399.5C302.89 401.7 299.547 401.3 294.643 398.2ZM278.708 243C282.942 241.8 288.626 239.1 292.526 236.5C296.203 234 299.547 232 299.992 232C300.55 232 300.884 231.1 300.884 230.1C300.884 227.3 291.412 220.2 283.499 216.9C269.681 211.2 255.083 210.9 243.27 216.1C237.253 218.7 226.22 227.6 226.22 229.9C226.22 233 244.942 242.7 254.08 244.3C261.1 245.4 272.021 244.9 278.708 243ZM399.507 241.6C407.308 238.4 417.894 231.5 417.894 229.6C417.894 226.9 404.856 217.2 398.17 215C380.34 208.9 358.052 213.3 345.905 225.3C341.67 229.5 341.225 230.8 344.122 231.7C345.125 232.1 348.022 233.8 350.474 235.6C360.615 242.8 368.527 245.1 382.234 244.7C390.815 244.4 394.046 243.8 399.507 241.6ZM245.165 213.3C251.74 211 253.523 210.8 264.666 211.3C275.587 211.7 279.488 212.4 288.068 215.6C292.972 217.3 287.288 213 281.382 210.4C276.367 208.3 273.359 207.8 262.772 207.3C252.185 206.8 249.399 207 246.168 208.4C241.71 210.4 232.349 217.6 235.692 216.5C236.918 216.1 241.153 214.7 245.165 213.3ZM406.639 214C397.39 207.1 396.61 206.8 383.906 206.9C377.442 207 370.756 207.3 369.084 207.6C364.738 208.6 356.157 212.6 354.374 214.4C353.26 215.8 353.929 215.7 358.163 214C364.627 211.5 382.234 209.5 389.032 210.4C391.706 210.8 397.167 212.3 401.179 213.9C405.19 215.4 408.645 216.5 408.868 216.4C409.091 216.2 408.088 215.1 406.639 214ZM299.212 203.6C303.336 202 307.57 196.8 307.57 193.3V191L303.001 193.2C295.646 196.6 288.18 196 270.684 190.5C251.74 184.6 241.376 183.6 234.578 187.2C231.792 188.7 228.783 191.6 226.554 195C221.317 202.7 221.985 204 228.226 198.8C234.244 193.7 240.15 191.5 245.165 192.5C246.948 192.9 253.3 194.9 259.206 197.1C279.376 204.5 291.523 206.4 299.212 203.6ZM366.298 194.1C384.351 186.4 392.821 184.4 399.953 186C402.739 186.6 407.419 188.5 410.428 190.1C416.891 193.7 417.449 192 411.654 185.9C399.953 173.3 393.601 173.1 366.41 184.6C349.36 191.9 341.782 193.5 338.439 190.6C336.879 189.1 336.656 189.1 335.987 190.9C335.095 193.5 336.99 197.5 340.11 199.5C344.233 202.2 350.808 200.8 366.298 194.1Z" fill="#B08B6E"/>
<path d="M278.596 239.6C278.596 239.3 279.711 237.5 280.936 235.5C282.942 232.5 283.277 231 282.608 226.4C281.828 220.2 281.494 220.2 290.074 225.7C292.972 227.6 295.312 229.8 295.312 230.6C295.312 231.3 293.195 233.2 290.632 234.6C285.728 237.4 278.596 240.3 278.596 239.6Z" fill="#B08B6E"/>
<path d="M238.701 236C236.25 234.1 236.25 234.1 238.478 234.3C239.816 234.4 241.376 235.2 241.933 236.2C243.27 238.5 241.933 238.4 238.701 236Z" fill="#B08B6E"/>
<path d="M236.25 231.2C231.681 228.5 231.569 227.6 235.358 224.8C237.364 223.2 239.258 222 239.704 222C240.038 222 240.373 224.5 240.261 227.5C240.261 230.5 239.927 233 239.593 232.9C239.258 232.9 237.81 232.1 236.25 231.2Z" fill="#B08B6E"/>
<path d="M250.737 228.5C248.508 226.1 249.845 223.5 253.411 223.5C257.423 223.5 259.652 226.1 257.534 228.4C255.64 230.4 252.52 230.5 250.737 228.5Z" fill="#B08B6E"/>
<path d="M356.715 236C347.019 231.2 347.019 231.2 351.254 227.3C354.263 224.5 359.835 221 361.284 221C361.506 221 361.395 223.7 361.284 227C360.949 231.3 361.395 233.8 362.621 235.5C365.853 240 364.961 240 356.715 236Z" fill="#B08B6E"/>
<path d="M401.736 235.3C402.293 234.3 402.85 230.7 403.184 227.3L403.63 221L407.196 223.2C414.105 227.4 415.777 229.2 414.328 230.7C413.102 232.1 403.184 237 401.624 237C401.29 237 401.29 236.2 401.736 235.3Z" fill="#B08B6E"/>
<path d="M370.756 229.3C369.084 227.9 370.087 224 372.316 223C375.213 221.6 377.776 223.3 377.776 226.5C377.776 229.3 372.873 231.3 370.756 229.3Z" fill="#B08B6E"/>
<path d="M304.784 367.1C302.333 366 300.884 365.2 301.441 365.2C303.001 365.1 311.805 368.8 310.356 368.9C309.799 368.9 307.236 368.1 304.784 367.1Z" fill="#B08B6E"/>
<path d="M327.072 326C325.846 325.6 321.5 325.5 317.377 325.8C313.365 326 309.019 325.9 307.905 325.4C306.79 325 303.893 324.5 301.441 324.4C298.989 324.3 294.532 323.8 291.412 323.3L285.84 322.5L289.852 320.7C298.321 317.1 307.793 315.5 320.943 315.5C332.421 315.5 335.096 315.9 346.574 319L359.389 322.5L352.703 323.3C349.025 323.7 344.791 323.9 343.342 323.6C341.782 323.4 339.553 323.8 338.327 324.5C335.207 326.2 329.746 326.9 327.072 326Z" fill="#B08B6E"/>
<path d="M369.641 313.1C364.627 305.4 353.706 298.5 340.11 294.6L334.204 292.8L338.216 290C340.333 288.5 344.345 286.7 347.019 286.1C349.805 285.5 352.368 284.6 352.703 284C354.04 282.1 355.043 283 356.492 287.5C357.272 290 361.172 296.6 365.072 302.3C368.973 307.9 372.205 313.3 372.205 314.3C372.205 316.6 371.87 316.5 369.641 313.1Z" fill="#B08B6E"/>
<path d="M273.024 313.9C273.024 313.1 275.03 309.5 277.482 305.9C283.5 297.2 289.74 286.4 289.74 284.5C289.74 282.7 290.632 282.7 294.198 284.5C295.758 285.3 297.987 286 299.212 286C300.438 286 303.893 287.4 307.013 289.2C312.474 292.3 312.474 292.3 309.799 293.3C295.758 298.1 282.051 305.6 276.59 311.6C274.473 313.9 273.024 314.8 273.024 313.9Z" fill="#B08B6E"/>
<path d="M209.727 298.3C206.941 297.3 204.935 291.8 203.821 281.3C202.818 272.3 202.038 269.7 199.363 266C191.228 254.3 187.217 242.6 187.217 230.5C187.217 221.5 187.997 218 189.891 218C193.68 218 203.041 223.5 206.496 227.8C210.173 232.3 210.396 233 211.065 244C211.51 250.3 212.848 264.7 213.962 275.9C216.414 298.7 215.968 300.6 209.727 298.3Z" fill="#B08B6E"/>
<path d="M429.595 294.8C430.487 287.7 433.384 255.3 434.164 243C434.944 229.3 437.285 224.6 445.085 220.5C454.335 215.6 455.783 217 455.783 230.5C455.783 242.6 451.772 254.3 443.637 266C440.962 269.7 440.182 272.3 439.179 281.3C437.953 292.3 436.059 297.3 432.938 298.4C429.595 299.5 429.038 299 429.595 294.8Z" fill="#B08B6E"/>
<path d="M434.721 209.3C434.833 207.2 435.279 202.8 435.724 199.5C436.505 193.8 436.505 194 436.727 203.3C436.727 209.2 436.393 213 435.724 213C435.167 213 434.61 211.3 434.721 209.3Z" fill="#B08B6E"/>
<path d="M449.654 212C449.32 211.5 449.989 211 451.214 211C452.44 211 453.777 211.5 454.112 212C454.446 212.6 453.777 213 452.552 213C451.326 213 449.989 212.6 449.654 212Z" fill="#B08B6E"/>
<path d="M342.116 94.1C342.116 92 355.935 76.9 364.85 69.2C373.319 61.9 390.035 51 392.598 51C394.269 51 396.61 48.3 395.83 47.4C395.384 46.9 395.941 47.2 397.055 47.9C398.058 48.6 398.95 48.8 398.95 48.3C398.95 47.3 413.214 41 415.443 41C418.563 41 417.449 43.1 412.322 46.5C408.979 48.7 407.085 50.7 407.531 51.3C407.865 52 407.753 52.2 407.308 51.7C406.751 51.3 405.302 51.8 404.076 52.7C401.736 54.5 401.736 54.5 403.853 52.2C405.079 51 405.748 49.8 405.525 49.6C403.296 47.6 377.999 65 358.832 81.6C350.363 89 343.119 95 342.785 95C342.451 95 342.116 94.6 342.116 94.1Z" fill="#B08B6E"/>
<path d="M299.992 81.6C296.426 80.7 296.315 80.5 296.984 77.1C300.215 61.7 316.708 40.3 337.993 24.1C342.673 20.5 346.239 17.4 346.016 17C345.794 16.7 343.453 15.4 340.667 14.2L335.764 12L325.289 15C316.262 17.5 312.585 18.1 314.368 16.6C315.594 15.5 337.659 9.79997 347.465 7.99997C360.949 5.59997 375.548 4.29997 375.548 5.59997C375.548 6.09997 371.87 9.39997 367.524 13C363.067 16.5 359.501 19.8 359.723 20.2C359.835 20.7 359.501 20.9 358.832 20.5C358.275 20.2 357.383 20.6 357.049 21.5C356.492 22.6 355.934 22.8 354.932 22C353.817 21.2 351.588 22.6 345.794 27.7C330.749 40.9 318.491 56.2 308.796 73.5L303.67 82.6L299.992 81.6Z" fill="#B08B6E"/>
<path d="M316.82 80.3C326.515 60.8 341.225 44.6 358.832 34.2C363.958 31.1 367.524 28.4 366.744 28.2C364.404 27.5 378.668 21.1 386.134 19.5C394.938 17.6 413.437 16.4 413.437 17.7C413.437 18.2 412.322 19.5 411.097 20.6C409.759 21.6 405.079 26.1 400.844 30.5C392.598 38.9 387.36 43.2 388.363 40.8C388.809 39.9 387.137 38.6 383.794 37.2L378.668 34.9L373.653 38.6C370.979 40.6 360.392 50.3 350.14 60.1C339.999 70 331.195 78 330.638 78C328.966 78 335.541 68.6 343.231 59.9C347.242 55.4 354.932 48.1 360.503 43.7C375.325 31.9 375.993 31.3 370.199 34.1C356.38 41 338.327 57 324.063 74.9C317.823 82.8 314.257 85.4 316.82 80.3Z" fill="#B08B6E"/>
<path d="M419.009 71.4C419.009 70.7 427.255 67.9 428.704 68.2C429.484 68.4 427.589 69.2 424.581 70.2C421.46 71.1 419.009 71.6 419.009 71.4Z" fill="#B08B6E"/>
<path d="M430.487 68.5C430.487 65.8 431.267 65.4 433.161 67.1C434.164 68 434.053 68.6 432.938 69.6C430.821 71.5 430.487 71.4 430.487 68.5Z" fill="#B08B6E"/>
<path d="M407.865 61C407.865 60.5 408.645 60 409.536 60C410.428 60 411.208 60.5 411.208 61C411.208 61.6 410.428 62 409.536 62C408.645 62 407.865 61.6 407.865 61Z" fill="#B08B6E"/>
<path d="M414.885 59.9C416.111 59.2 417.449 59.2 418.006 59.7C418.563 60.2 417.671 60.6 415.888 60.8C413.214 60.9 413.102 60.8 414.885 59.9Z" fill="#B08B6E"/>
<path d="M300.438 49.1999C299.324 47.4999 306.233 36.6 312.028 31.2C318.157 25.4999 327.629 19.5999 332.087 18.5999C334.204 18.0999 333.424 18.9999 328.744 22.6999C320.497 29.0999 314.034 35.2999 307.905 42.5C301.107 50.5 301.218 50.2999 300.438 49.1999Z" fill="#B08B6E"/>
<path d="M294.643 398.1C290.854 395.5 278.039 383.4 253.634 359C241.599 347.1 232.015 335.1 228.895 328C224.437 318 221.985 304.6 217.862 267.1C212.959 224.1 212.959 217.5 217.194 201.6C221.651 185.1 222.543 179.9 223.991 162.7C226.332 134.5 233.352 120.2 247.282 115.1C250.514 113.8 251.294 113.9 253.968 115.4C255.528 116.3 259.429 118.2 262.549 119.6C290.186 131.5 344.902 128.3 379.114 112.9C387.137 109.3 388.475 109.3 394.715 113C404.856 119 408.645 127.1 412.434 150.8C413.771 158.9 415.777 168 417.003 171C432.27 208.6 433.05 215.1 428.592 258.5C423.578 306.4 421.126 319.3 414.663 331.5C409.648 341.2 372.316 383.2 358.832 394.3C351.031 400.9 347.911 401.9 341.67 399.9C337.213 398.5 337.101 398.3 336.767 393.6C336.433 389.3 336.767 388.3 339.776 385.6C341.559 383.9 343.899 380.9 344.791 378.8C345.794 376.8 348.022 373.7 349.917 371.8C355.266 366.6 359.612 359.1 363.847 347.9C367.524 337.9 367.636 337.7 367.747 342L367.97 346.5L369.753 342.9C370.867 340.9 372.204 339.5 372.873 339.7C374.99 340.3 379.448 326.2 379.337 319C379.337 311.4 377.665 307.9 368.304 296.9C361.729 289.2 355.489 279.2 355.489 276.5C355.489 273.4 349.248 269 345.125 269C343.008 269 340.779 268.4 340.11 267.8C339.553 267.1 337.659 258.9 335.987 249.5C334.204 240.2 332.421 232.1 331.975 231.6C329.969 229.6 331.975 260.3 334.427 268.3C335.653 272.3 338.439 274 344.233 274C347.688 274 349.917 275.6 349.917 278.2C349.917 280.2 349.248 280.5 343.008 281.5C339.887 281.9 337.213 283.5 332.867 287.5C327.741 292.1 326.18 293 322.837 293C319.828 293 318.157 292.3 315.705 289.9C314.034 288.2 311.248 285.5 309.576 283.9C307.459 281.8 305.564 281 302.89 281C300.772 281 298.098 280.4 296.984 279.6C294.978 278.3 294.978 278.2 297.875 275.6C299.547 274.1 301.998 273 303.893 273C308.462 273 309.91 271.7 310.913 266.9C312.585 259.3 313.588 231 312.362 231C311.136 231 309.465 240.3 307.57 256.7C306.456 267.1 306.121 268 303.001 268C301.775 268 299.101 268.6 296.984 269.4C293.752 270.7 292.415 272.2 288.849 279.2C286.508 283.8 281.605 290.9 278.15 295C268.678 306.1 266.338 310.7 266.338 318.3C266.338 324.8 270.573 339.9 273.916 345.5L275.81 348.5L276.145 345.5C276.59 342.8 276.813 343 279.042 348.5C282.608 357.5 288.18 365.5 294.978 371.7C298.209 374.8 301.775 378.7 302.778 380.4C303.67 382.1 305.899 384.9 307.57 386.5C312.473 391.2 312.585 397.2 307.57 399.5C302.778 401.7 299.658 401.4 294.643 398.1ZM278.708 243C282.719 241.9 288.403 239.2 291.746 237C294.978 234.8 297.986 233 298.544 233C299.101 233 300.104 232.3 300.884 231.5C301.887 230.4 301.218 229.2 297.095 225.2C284.391 213 261.1 208.5 244.83 215.2C237.921 218.1 226.22 227.3 226.22 229.9C226.22 233 245.053 242.7 254.08 244.3C261.1 245.4 272.021 244.9 278.708 243ZM399.507 241.6C407.642 238.3 417.894 231.5 417.894 229.4C417.894 226.9 407.308 218.4 400.844 215.6C383.237 208.2 362.955 211.1 348.245 223.2C341.893 228.4 340.779 230.6 344.122 231.7C345.125 232.1 348.022 233.8 350.474 235.6C360.615 242.8 368.527 245.1 382.234 244.7C390.815 244.4 394.046 243.8 399.507 241.6ZM245.165 213.3C251.739 211 253.523 210.8 264.666 211.3C275.587 211.7 279.488 212.4 288.068 215.6C292.972 217.3 287.288 213 281.382 210.4C276.367 208.3 273.359 207.8 262.772 207.3C252.185 206.8 249.399 207 246.168 208.4C241.71 210.4 232.349 217.6 235.692 216.5C236.918 216.1 241.153 214.7 245.165 213.3ZM406.639 214C397.39 207.1 396.61 206.8 383.906 206.9C377.442 207 370.756 207.3 369.084 207.6C364.738 208.6 356.157 212.6 354.374 214.4C353.26 215.8 353.929 215.7 358.163 214C364.627 211.5 382.234 209.5 389.032 210.4C391.706 210.8 397.167 212.3 401.179 213.9C405.19 215.4 408.645 216.5 408.868 216.4C409.091 216.2 408.088 215.1 406.639 214ZM299.212 203.6C303.336 202 307.57 196.8 307.57 193.3V191L303.001 193.2C295.646 196.6 288.291 195.9 268.567 190C253.3 185.4 250.625 184.8 244.05 185.2C234.912 185.6 229.786 188.6 225.663 196C221.651 203.1 222.208 204 227.669 199.3C233.464 194.1 239.704 191.7 244.496 192.5C246.39 192.9 252.854 195 258.983 197.2C279.042 204.5 291.523 206.4 299.212 203.6ZM353.929 199.4C356.38 198.5 363.289 195.6 369.419 192.9C384.24 186.4 392.932 184.5 399.953 186C402.85 186.6 407.419 188.4 410.094 190C412.768 191.6 415.22 192.7 415.443 192.5C416.557 191.5 413.994 187.7 408.868 183.1C398.393 173.6 391.929 173.8 366.41 184.6C349.248 191.9 341.67 193.5 338.439 190.6C336.879 189.1 336.656 189.1 335.987 190.9C335.095 193.5 336.99 197.5 340.11 199.4C343.342 201.4 348.468 201.4 353.929 199.4Z" fill="#E8A678"/>
<path d="M280.936 235.8C282.831 232.5 283.165 230.5 282.719 226.3L282.051 221.1L285.06 222.7C288.849 224.8 295.312 230.1 295.312 231.2C295.312 232.2 287.288 236.8 282.274 238.7L278.485 240.1L280.936 235.8Z" fill="#E8A678"/>
<path d="M236.027 231C232.015 229 232.126 226.7 236.361 224C238.144 222.8 239.816 221.9 240.039 222.1C240.261 222.3 240.039 224.8 239.704 227.5L239.036 232.6L236.027 231Z" fill="#E8A678"/>
<path d="M250.625 228.4C248.731 226.3 250.625 223.5 254.08 223.5C257.534 223.5 259.429 226.3 257.534 228.4C256.643 229.3 255.194 230 254.08 230C252.965 230 251.517 229.3 250.625 228.4Z" fill="#E8A678"/>
<path d="M356.715 236C349.248 232.3 347.577 231 348.357 229.8C349.248 228.6 359.946 221 360.838 221C361.284 221 361.395 223.7 361.284 227C360.949 231.3 361.395 233.8 362.621 235.5C365.852 240 364.961 240 356.715 236Z" fill="#E8A678"/>
<path d="M401.179 236.1C401.179 235.5 401.736 234.8 402.293 234.5C402.962 234.2 403.407 231.2 403.407 227.9C403.407 224.7 403.742 222 404.076 222C404.522 222 407.196 223.6 410.205 225.6C416.557 229.8 416.334 230.6 407.642 234.6C401.736 237.3 401.179 237.4 401.179 236.1Z" fill="#E8A678"/>
<path d="M371.313 228.8C367.97 225.8 372.539 220.3 376.216 223.1C379.002 225.2 377.442 230 373.876 230C373.207 230 372.093 229.5 371.313 228.8Z" fill="#E8A678"/>
<path d="M307.57 325.1C306.679 324.6 301.441 323.9 295.869 323.5L285.84 322.7L290.743 320.7C299.435 317.3 316.04 314.7 325.4 315.4C332.198 315.9 355.935 321.1 357.383 322.4C358.163 323.1 344.679 324.1 343.008 323.5C342.005 323.1 339.776 323.5 337.993 324.3C334.538 325.9 310.579 326.5 307.57 325.1Z" fill="#E8A678"/>
<path d="M368.527 311.5C363.401 304.3 353.594 298.4 340.11 294.5L334.315 292.8L338.216 290C340.333 288.5 344.345 286.7 347.019 286.1C349.805 285.5 352.368 284.6 352.703 284C354.04 282.1 355.043 283 356.492 287.5C357.272 290 361.172 296.6 365.072 302.3C370.979 310.7 373.542 316 371.982 316C371.759 316 370.199 314 368.527 311.5Z" fill="#E8A678"/>
<path d="M273.024 313.6C273.024 312.9 275.03 309.5 277.482 305.9C283.5 297.2 289.74 286.4 289.74 284.5C289.74 282.7 290.632 282.7 294.198 284.5C295.758 285.3 297.987 286 299.212 286C300.438 286 303.893 287.4 307.013 289.2C312.474 292.2 312.474 292.3 309.799 293.2C299.435 296.6 285.283 304 279.488 309.1C275.922 312.3 273.024 314.2 273.024 313.6Z" fill="#E8A678"/>
<path d="M209.727 298.3C206.941 297.3 204.935 291.8 203.821 281.3C202.818 272.3 202.038 269.7 199.363 266C191.228 254.3 187.217 242.6 187.217 230.5C187.217 221.5 187.997 218 189.891 218C193.792 218 203.041 223.5 206.718 228C209.95 232 210.619 233.6 210.619 238.1C210.73 241.1 211.845 255.4 213.293 270C216.079 299 215.856 300.5 209.727 298.3ZM212.959 288.4C212.29 287.1 211.287 286 210.619 286C209.17 286 209.17 287.7 210.619 288.5C211.287 288.8 211.733 290.3 211.733 291.8C211.845 294.2 211.956 294.3 212.959 292.6C213.85 291.3 213.85 290.1 212.959 288.4Z" fill="#E8A678"/>
<path d="M429.707 296.8C430.153 295.5 430.598 293.4 430.821 292.1C430.933 290.8 431.601 289.3 432.27 288.7C434.053 287.1 433.719 285.7 431.713 286.4C430.264 286.9 430.153 286.3 430.71 282.7C431.824 274.7 434.61 243.5 434.61 237.6C434.61 230 438.288 224.1 445.085 220.5C454.335 215.6 455.783 217 455.783 230.5C455.783 242.6 451.772 254.3 443.637 266C440.962 269.7 440.182 272.3 439.179 281.3C437.953 292.3 436.059 297.3 432.939 298.4C429.707 299.5 428.815 299.1 429.707 296.8Z" fill="#E8A678"/>
<path d="M352.814 83.1C351.254 81 366.633 67 379.448 58.8C387.026 54 404.522 46.1 404.522 47.5C404.522 47.7 401.401 49.8 397.613 52.1C387.583 58.2 377.554 65.4 366.633 74.3C356.269 82.9 353.706 84.5 352.814 83.1Z" fill="#E8A678"/>
<path d="M327.183 64.3C335.653 51.1 347.019 41.1 362.732 33.1C371.87 28.4 391.038 22 395.607 22.1C397.39 22.1 395.83 23 391.149 24.4C370.199 31 348.802 45.5 332.421 64.2C330.081 66.8 327.295 68.9 326.18 69C324.286 69 324.397 68.5 327.183 64.3Z" fill="#E8A678"/>
<path d="M306.121 66.8C303.336 65.9 303.001 65.4 303.67 63.1C306.233 53.9 325.846 33 342.673 21.5C351.254 15.7 368.638 6.40002 369.419 7.20002C369.753 7.50002 366.855 9.90002 363.067 12.6C347.354 23.6 327.629 43.7 315.817 60.5C313.031 64.6 310.356 68 309.91 67.9C309.576 67.9 307.793 67.4 306.121 66.8Z" fill="#E8A678"/>
<path d="M338.773 67.1C338.773 64.1 355.266 47.8 366.075 40.1C383.125 27.9 380.562 31 351.031 58.3C341.002 67.6 338.773 69.1 338.773 67.1Z" fill="#E8A678"/>
<path d="M305.341 40.6C305.341 38.3 313.588 29.6 319.383 25.8C331.864 17.6 331.752 19.2 319.048 30.5C311.916 36.8 306.01 42 305.787 42C305.564 42 305.341 41.4 305.341 40.6Z" fill="#E8A678"/>
<path d="M308.127 324.8C306.902 324.2 303.447 323.5 300.327 323.3C287.511 322.7 288.18 322.8 290.409 321.7C294.42 319.7 308.239 316.9 317.042 316.4C323.172 316 328.409 316.3 333.758 317.4C352.703 321.3 356.38 323 345.459 323C342.562 323 338.55 323.7 336.656 324.6C334.093 325.8 331.641 326 328.409 325.6C322.949 324.8 323.172 324.8 315.928 325.5C312.473 325.8 309.465 325.6 308.127 324.8Z" fill="#FAF8F7"/>
<path d="M207.944 292.4C206.83 289.8 207.164 288 208.836 288C209.616 288 210.619 288.8 210.842 289.8C211.845 293.3 209.281 295.7 207.944 292.4Z" fill="#FAF8F7"/>
<path d="M432.047 292.8C431.378 290.7 432.493 288 434.164 288C435.836 288 436.17 289.8 435.056 292.4C434.276 294.3 432.716 294.5 432.047 292.8Z" fill="#FAF8F7"/>
<path d="M280.825 236.7C280.825 236 281.382 234.9 282.051 234.3C283.388 233.1 283.722 224.7 282.497 222.9C281.382 221.3 285.951 223.6 291.189 227.2C293.417 228.9 295.089 230.6 294.643 231.1C293.975 232.2 282.942 238 281.716 238C281.159 238 280.825 237.4 280.825 236.7Z" fill="#FAF8F7"/>
<path d="M360.504 236.8C359.278 236.2 356.046 234.6 353.483 233.3L348.58 230.8L351.7 227.9C353.483 226.3 356.492 224.1 358.498 223L362.064 221.1L361.172 223.3C359.946 226.1 360.504 232.2 362.175 235C363.735 237.7 363.401 238.2 360.504 236.8Z" fill="#FAF8F7"/>
<path d="M403.184 233.9C403.742 232.6 404.187 229.4 404.076 226.8C403.853 221.5 404.299 221.5 411.208 226.8L414.997 229.7L410.205 232.4C403.073 236.5 402.07 236.7 403.184 233.9Z" fill="#FAF8F7"/>
<path d="M235.804 228.1C234.021 226.3 234.021 226.1 237.475 223.9C240.596 222 241.041 221.9 240.373 223.4C239.927 224.4 239.593 226.3 239.593 227.6C239.593 230.5 238.367 230.7 235.804 228.1Z" fill="#FAF8F7"/>
<path d="M251.182 228.6C249.957 225.7 251.294 223.5 254.08 223.5C256.197 223.5 256.977 224.1 257.2 225.9C257.757 229.4 252.52 231.7 251.182 228.6Z" fill="#FAF8F7"/>
<path d="M371.313 228.8C369.53 227.2 369.641 225.4 371.759 223.6C373.653 221.8 374.991 222.2 376.662 225C377.442 226.4 377.331 227.3 375.993 228.4C373.876 230.3 373.096 230.4 371.313 228.8Z" fill="#FAF8F7"/>
</svg>
