<svg width="329" height="504" viewBox="0 0 329 504" fill="none" xmlns="http://www.w3.org/2000/svg">
<path d="M143.116 501.85C123.243 496.02 109.232 486.302 89.3586 464.625C72.345 446.237 49.8985 409.311 41.1773 385.69C36.8882 374.329 31.1693 351.156 31.1693 345.775C31.1693 343.831 29.7396 342.635 26.4513 342.037C16.5862 340.094 13.1549 332.918 11.1533 309.895C10.4385 300.626 7.865 286.125 5.29151 275.959C-0.141393 255.329 -1.28516 233.203 2.57506 225.28C5.57746 219.15 13.7268 213.619 18.8738 214.516L23.0199 215.114L22.0191 198.52C21.0184 181.626 18.3019 164.733 14.5846 149.783C13.1549 144.551 12.4401 134.983 12.4401 123.621C12.583 103.589 15.2995 90.4329 22.0191 78.3236C24.1637 74.4366 26.5942 69.9517 27.3091 68.3072C29.5966 63.8223 43.1789 52.012 50.7564 47.9756C58.3338 43.9391 58.9057 43.4906 69.3426 34.2218C73.7747 30.4844 80.3514 26.4479 85.0695 24.8034C89.6445 23.3085 96.0783 19.571 99.3666 16.5811C106.229 10.6012 113.807 7.76074 126.245 6.71425C131.106 6.26576 137.254 4.62129 140.542 2.82732C145.117 0.285861 147.977 -0.312129 155.554 0.136364C166.706 0.883851 186.007 1.03335 192.298 0.285861C195.157 -0.0131339 198.017 0.883851 200.59 3.12631C203.307 5.21928 206.595 6.26576 210.598 6.26576C218.319 6.26576 230.042 11.1992 239.192 18.2256C243.196 21.2155 249.343 25.2519 253.204 27.0459C257.779 29.4379 266.929 37.8097 282.37 53.806C306.246 78.9215 310.249 84.9014 314.967 104.037C319.828 124.07 318.97 150.381 312.68 173.404C311.25 178.935 309.963 187.158 309.963 191.643C309.963 196.128 308.962 202.705 307.819 206.144C306.675 209.582 306.103 214.366 306.532 216.758C307.247 220.645 308.248 221.243 313.109 221.991C330.265 224.383 333.125 245.91 321.544 285.079C318.399 295.842 315.11 310.792 314.252 318.566C313.395 326.19 311.822 334.712 310.821 337.253C308.677 342.785 302.243 348.615 298.526 348.615C296.524 348.615 295.666 350.857 294.236 358.781C290.09 381.803 278.367 409.909 263.784 430.839C236.905 470.007 215.03 490.937 192.155 499.309C179.43 504.092 154.839 505.288 143.116 501.85Z" fill="#412312"/>
<path d="M134.966 484.658C114.522 479.276 86.6421 450.572 63.3378 411.254C47.7539 384.793 43.8937 374.927 40.1765 350.11C37.317 331.572 37.317 332.469 39.3186 264.896C41.0343 211.376 41.4632 206.891 47.7539 187.457C49.0407 183.271 49.7555 174.45 49.7555 160.547C49.6126 132.89 53.6158 118.688 64.9105 107.326C69.3426 102.841 82.6389 95.9643 86.9281 95.9643C87.6429 95.9643 92.075 99.5522 96.7931 104.037C106.372 112.857 120.669 121.379 132.679 124.967C156.555 132.442 195.729 127.807 222.751 114.203C235.332 107.924 237.191 107.326 247.771 107.326C256.778 107.177 260.209 107.775 263.926 110.167C274.506 116.894 277.795 130.05 276.365 159.501C275.364 179.234 275.364 179.533 279.796 192.988C283.656 204.649 284.371 209.582 285.515 230.363C286.23 243.518 287.231 255.03 287.803 255.927C289.661 259.066 290.948 302.719 289.804 328.433C288.66 359.08 286.23 371.189 277.366 391.072C270.932 405.275 263.355 417.533 250.773 433.829C240.336 447.283 227.04 462.233 225.467 462.233C224.752 462.233 223.037 463.28 221.464 464.625C217.175 468.512 200.161 475.688 184.149 480.322C167.564 485.106 144.545 487.199 134.966 484.658ZM153.982 465.373C155.268 464.476 154.696 463.878 151.837 463.429C149.549 462.981 146.547 462.084 145.26 461.486C143.688 460.888 142.687 461.037 142.687 462.084C142.687 462.981 143.688 463.728 144.974 463.728C146.118 463.728 146.69 464.476 146.261 465.223C145.117 467.017 151.265 467.167 153.982 465.373ZM176.142 464.476C180.145 461.187 178.001 460.14 171.71 462.233C160.844 465.971 160.129 466.569 166.992 466.569C170.566 466.569 174.712 465.672 176.142 464.476ZM169.137 400.192C177 397.351 193.299 397.202 196.158 400.192C197.302 401.388 198.589 402.434 199.018 402.434C201.305 402.434 205.737 384.793 205.308 377.169C204.879 367.9 204.593 367.751 193.442 371.04C190.296 371.937 185.149 373.432 182.004 374.329C173.14 377.02 142.83 376.571 137.683 373.88C135.252 372.535 131.249 370.442 128.676 369.096C125.959 367.751 121.956 366.555 119.526 366.555C115.665 366.555 115.379 366.854 116.094 370.741C116.523 372.983 117.238 378.365 117.81 382.85C118.811 391.521 121.956 400.939 123.958 400.939C124.53 400.939 127.103 399.893 129.676 398.547C134.823 395.856 145.832 396.604 155.268 400.192C161.988 402.733 162.274 402.733 169.137 400.192ZM224.18 347.868C222.322 345.625 212.6 340.542 202.306 336.805C190.868 332.469 184.006 332.768 174.855 338.001C170.709 340.393 165.705 342.187 163.847 341.888C156.984 340.991 151.837 339.047 147.548 335.609C142.115 331.423 136.825 331.572 126.245 336.506C113.378 342.336 104.085 347.718 105.371 348.615C106.086 349.064 133.394 349.363 166.134 349.512C211.027 349.512 225.181 349.213 224.18 347.868ZM109.089 249.199C111.09 247.256 112.663 244.864 112.663 243.967C112.663 240.977 115.665 242.472 116.952 246.209C118.954 251.591 122.671 249.498 122.671 242.92C122.671 234.399 120.24 233.203 101.368 232.306C84.9265 231.558 84.2116 231.708 77.063 235.744C73.0599 238.136 68.9137 240.977 67.9129 242.173C67.0551 243.518 69.1996 242.621 73.0599 240.379C76.7771 238.136 79.9225 236.791 79.9225 237.538C80.0654 238.136 80.2084 239.482 80.4944 240.229C80.6373 241.126 80.9233 243.219 80.9233 245.163C81.2092 248.003 82.067 248.452 87.357 248.452C90.6453 248.452 94.6485 249.498 96.0782 250.694C100.224 253.983 105.228 253.385 109.089 249.199ZM232.473 250.844C234.617 249.648 238.906 248.452 242.052 247.854C245.197 247.405 247.914 247.106 248.2 246.957C248.343 246.957 248.486 245.013 248.486 242.472C248.486 237.09 250.63 236.791 257.636 241.126C264.641 245.312 264.212 243.817 257.064 238.884C248.343 232.904 237.191 230.363 222.894 231.409C207.31 232.455 200.447 234.997 193.442 242.472C185.864 250.545 188.152 251.741 196.444 244.116C203.307 237.837 207.596 236.043 206.166 240.229C204.879 243.518 206.881 250.246 208.883 249.648C209.883 249.199 211.885 246.359 213.601 243.07C216.889 236.342 221.75 234.997 222.465 240.678C222.894 243.219 222.179 244.415 219.891 245.013L216.889 245.91L220.034 249.349C223.752 253.385 226.897 253.834 232.473 250.844ZM138.112 245.462C137.111 243.817 135.395 242.472 134.252 242.472C132.679 242.472 132.822 243.219 134.823 245.462C136.253 247.106 137.969 248.452 138.684 248.452C139.256 248.452 139.113 247.106 138.112 245.462Z" fill="#653417"/>
<path d="M32.3131 350.708C31.5982 350.11 31.1693 348.167 31.1693 346.223C31.1693 343.682 30.1685 342.785 26.4512 342.037C16.5862 340.094 13.1549 332.918 11.1533 309.895C10.4385 300.626 7.86499 286.125 5.29151 275.959C-0.141393 255.329 -1.28516 233.203 2.57506 225.28C5.43448 219.3 13.7268 213.768 18.5878 214.366C21.5902 214.964 22.591 214.366 23.0199 211.974C23.5918 209.134 23.5918 209.283 23.8778 212.273C23.8778 214.217 25.1645 217.655 26.7372 219.748C31.7412 227.223 33.3139 239.93 33.1709 273.119C33.1709 290.461 32.742 307.503 32.1701 311.241C31.7412 314.978 32.0271 323.35 32.8849 330.077C34.3147 342.785 34.0287 352.652 32.3131 350.708Z" fill="#653417"/>
<path d="M293.522 347.12C292.95 346.223 292.95 343.682 293.522 341.439C293.95 339.197 294.808 316.174 295.523 290.311C296.81 240.379 297.525 235.445 304.387 226.177C307.39 222.14 308.534 221.542 313.252 222.14C330.122 224.084 332.982 246.209 321.544 285.079C318.399 295.842 315.11 310.792 314.252 318.566C312.394 334.861 310.392 340.991 304.959 345.326C300.813 348.765 294.951 349.661 293.522 347.12Z" fill="#653417"/>
<path d="M134.966 484.658C114.521 479.276 86.6421 450.572 63.3378 411.254C39.1756 370.292 37.174 358.93 39.4616 270.129C41.0343 210.778 41.3202 207.489 47.7539 187.457C49.0406 183.121 49.7555 174.301 49.7555 160.398C49.7555 132.591 53.7587 118.688 64.9105 107.326C69.3426 102.841 82.6389 95.9643 86.928 95.9643C87.6429 95.9643 92.075 99.5522 96.793 104.037C106.372 112.857 120.669 121.379 132.679 124.967C156.555 132.442 195.729 127.807 222.751 114.203C235.332 107.924 237.191 107.326 247.771 107.326C256.778 107.177 260.209 107.775 263.926 110.167C274.506 116.894 277.795 130.05 276.365 159.501C275.364 179.234 275.364 179.533 279.796 192.988C283.656 204.649 284.371 209.582 285.515 230.363C286.23 243.518 287.231 255.03 287.803 255.927C289.661 259.066 290.948 302.719 289.804 328.433C288.66 359.08 286.23 371.189 277.366 391.072C270.932 405.275 263.355 417.533 250.773 433.829C240.336 447.283 227.04 462.233 225.467 462.233C224.752 462.233 223.037 463.28 221.464 464.625C217.175 468.512 200.161 475.688 184.148 480.322C167.564 485.106 144.545 487.199 134.966 484.658ZM176.714 464.326C182.004 460.738 180.288 459.393 173.14 461.785C165.562 464.177 149.263 463.579 143.974 460.738C140.828 458.944 140.971 459.991 144.26 464.625C146.261 467.167 172.711 467.017 176.714 464.326ZM202.592 395.258C205.88 384.943 206.881 371.787 204.45 369.246C203.307 368.05 201.734 368.05 198.875 369.096C196.73 369.993 192.155 371.488 188.867 372.385C185.435 373.282 180.288 374.777 177.429 375.525C169.994 377.767 142.687 376.422 137.54 373.731C135.252 372.535 131.249 370.442 128.676 369.096C125.959 367.751 121.956 366.555 119.525 366.555H115.379L116.237 375.226C117.524 387.783 122.671 405.424 124.958 405.424C126.102 405.424 126.96 404.378 126.96 403.182C126.96 397.8 137.969 396.454 151.98 400.341C157.27 401.687 162.846 402.285 166.277 401.687C185.864 398.547 195.443 399.295 196.587 404.079C197.731 408.265 199.16 406.172 202.592 395.258ZM223.894 347.569C219.891 342.486 197.016 333.665 188.152 333.665C185.006 333.665 179.43 335.31 175.284 337.552C165.991 342.486 156.984 342.037 148.406 336.057C141.686 331.423 136.825 331.124 129.105 335.011C125.959 336.655 120.526 339.047 116.952 340.542C109.517 343.682 103.37 348.167 105.514 348.914C106.229 349.064 133.68 349.363 166.277 349.512C216.746 349.512 225.324 349.213 223.894 347.569ZM109.089 249.199C111.09 247.256 112.663 244.864 112.663 243.967C112.663 240.977 115.665 242.472 116.952 246.209C119.097 251.89 122.385 249.349 122.957 241.425C123.243 237.837 122.814 234.249 121.956 233.801C121.241 233.203 112.377 232.455 102.512 232.306C85.6413 231.708 84.0686 232.007 77.349 235.445C73.4887 237.538 69.3426 240.379 68.1988 241.874C66.9121 243.668 68.4847 243.07 73.0598 240.379C76.7771 238.136 79.9224 236.791 79.9224 237.538C80.0654 238.136 80.2084 239.482 80.4943 240.229C80.6373 241.126 80.9232 243.219 80.9232 245.163C81.2092 248.003 82.067 248.452 87.3569 248.452C90.6453 248.452 94.6485 249.498 96.0782 250.694C100.224 253.983 105.228 253.385 109.089 249.199ZM232.473 250.844C234.617 249.648 238.906 248.452 242.052 247.854C245.197 247.405 247.914 247.106 248.2 246.957C248.343 246.957 248.486 245.013 248.486 242.472C248.486 237.09 250.487 236.791 258.065 241.126L263.498 244.266L259.923 240.977C250.63 232.605 238.906 230.064 218.319 231.857C206.023 232.904 203.879 233.502 198.446 237.688C192.012 242.621 187.58 248.153 189.01 249.498C189.438 249.947 192.727 247.555 196.444 244.116C203.307 237.837 207.596 236.043 206.166 240.229C204.879 243.518 206.881 250.246 208.883 249.648C209.883 249.199 211.885 246.359 213.601 243.07C216.889 236.342 221.75 234.997 222.465 240.678C222.894 243.219 222.179 244.415 219.891 245.013L216.889 245.91L220.034 249.349C223.752 253.385 226.897 253.834 232.473 250.844ZM136.253 242.92C128.676 236.043 126.674 236.641 133.394 243.967C136.396 247.106 139.541 249.349 140.256 248.9C141.114 248.302 139.398 245.761 136.253 242.92ZM142.115 227.223C147.691 221.692 147.977 220.346 144.545 219.001C143.116 218.552 140.971 217.207 139.827 216.16C135.967 212.722 113.664 204.2 97.6509 199.865C78.4927 194.782 73.4887 195.38 65.1964 203.303L59.6205 208.835L69.3426 208.984C77.206 208.984 82.7819 210.33 98.0798 216.011C108.517 219.898 120.383 225.13 124.529 227.522C133.966 233.203 136.11 233.053 142.115 227.223ZM205.88 226.924C210.884 224.084 223.894 218.702 234.903 214.815C250.773 209.134 256.206 207.938 261.639 208.386C267.787 209.134 268.216 208.835 267.072 206.443C264.784 202.107 258.494 197.772 252.918 196.726C244.339 194.932 217.604 202.705 198.16 212.572L181.432 221.094L186.722 226.476C189.581 229.466 193.013 232.007 194.442 232.007C195.872 232.007 201.019 229.765 205.88 226.924Z" fill="#7B4A31"/>
<path d="M90.3593 243.369C89.0726 239.781 90.9312 236.193 93.6477 236.791C95.3633 237.09 96.2212 238.585 96.2212 240.977C96.2212 245.312 91.6461 247.106 90.3593 243.369Z" fill="#7B4A31"/>
<path d="M32.17 350.708C31.5982 350.11 31.1692 348.167 31.1692 346.223C31.1692 343.682 30.1684 342.785 26.4512 342.037C16.5862 340.094 13.1549 332.918 11.1533 309.895C10.4384 300.925 7.86495 286.125 5.57741 276.707C-2.28599 245.91 -1.85708 227.223 7.1501 219.3C25.8793 202.705 35.6013 225.878 33.4568 282.836C33.0279 296.44 32.313 309.895 32.0271 312.736C31.7411 315.576 32.17 324.845 32.8849 333.366C34.3146 348.765 34.1716 352.651 32.17 350.708Z" fill="#7B4A31"/>
<path d="M294.951 304.214C296.095 247.854 297.239 236.94 303.386 228.569C307.533 223.037 308.676 222.29 313.394 222.439C329.979 223.037 332.982 246.209 321.544 285.079C318.398 295.842 315.11 310.792 314.252 318.566C313.394 326.19 311.822 334.712 310.821 337.253C308.39 343.233 302.1 348.615 297.525 348.615H294.093L294.951 304.214Z" fill="#7B4A31"/>
<path d="M153.839 478.678C139.113 476.136 124.815 466.419 114.807 452.516C111.662 448.031 105.085 441.453 100.367 437.716C85.4984 426.354 74.0607 409.909 68.9137 392.119C67.7699 388.381 66.9121 383.747 66.9121 381.953C66.9121 379.86 63.7667 375.226 58.9057 369.993C47.325 357.435 44.6086 353.399 41.3202 343.233C38.4608 334.263 38.4608 333.366 40.3194 270.727L42.321 207.34L46.7531 192.39C50.8993 178.337 51.1853 176.543 50.3274 161.743C48.6118 130.648 57.476 109.12 75.4904 100.599C85.0695 96.1138 87.6429 96.5623 96.5072 104.934C106.515 114.053 120.24 121.678 134.109 125.714C158.128 132.741 196.587 127.807 223.895 114.352C236.047 108.223 238.907 107.476 247.771 107.326C264.641 107.177 271.218 113.156 275.078 131.844C277.08 141.412 277.08 145.448 275.65 159.501L273.935 175.945L278.51 190.148C282.37 202.107 283.371 207.639 284.228 225.28C284.943 236.791 286.373 252.937 287.66 261.159C290.233 278.052 290.662 315.277 288.518 331.423C286.23 347.569 280.654 357.884 263.498 377.02C255.205 386.288 248.486 394.361 248.486 394.959C248.486 396.903 232.759 417.533 228.327 421.57C226.039 423.513 220.892 430.988 216.889 438.014C206.881 455.655 203.307 460.29 193.728 467.615C181.575 477.033 167.421 480.92 153.839 478.678ZM173.712 468.362C176.857 465.971 179.859 462.532 180.288 460.888C180.717 459.094 180.86 457.748 180.574 457.748C180.431 457.748 177.429 458.795 174.141 459.991C166.42 462.831 152.695 462.831 146.261 460.14C138.398 456.702 140.542 464.476 148.835 469.708C155.983 474.342 166.563 473.744 173.712 468.362ZM180.574 430.839C183.863 429.194 188.295 425.158 190.725 421.869C193.013 418.58 195.3 415.889 195.872 415.889C197.016 415.889 203.736 397.501 205.451 388.979C208.74 373.88 206.452 364.462 200.304 367.751C197.159 369.545 189.867 371.937 179.573 374.777C167.564 377.917 142.687 376.123 136.253 371.638C134.68 370.442 132.393 369.545 131.106 369.545C129.819 369.545 126.96 368.498 124.672 367.302C122.385 366.106 118.954 365.508 117.238 366.106C114.236 366.854 114.093 367.601 114.95 373.88C116.38 384.644 119.669 399.145 122.528 406.919C125.387 414.693 133.251 423.214 143.831 429.643C149.692 433.231 151.98 433.829 162.56 433.829C171.71 433.829 176.142 433.081 180.574 430.839ZM241.051 393.763C246.341 386.886 238.907 362.668 227.326 349.811C222.179 343.981 218.891 341.888 208.168 338.001C195.586 333.217 195.443 333.067 199.018 331.124C203.593 328.582 204.022 325.443 199.589 326.788C197.731 327.237 193.442 327.685 189.867 327.685C184.863 327.685 181.575 328.881 175.57 332.918C171.281 335.758 165.991 338.15 163.704 338.15C159.557 338.15 149.264 333.366 147.691 330.675C147.262 329.928 143.831 329.18 140.113 329.18C135.109 329.18 132.965 329.928 131.678 332.021C130.82 333.516 126.674 335.908 122.385 337.253C99.0806 345.177 85.6413 362.07 85.0695 384.644C84.7835 395.258 84.7835 395.557 88.3578 395.408C96.3642 395.258 96.5072 395.109 98.0798 386.737C102.941 361.621 116.237 351.007 142.687 351.007C191.726 351.156 195.729 351.455 202.02 354.595C214.03 360.724 224.038 374.777 226.468 388.979C227.04 391.82 228.041 395.109 228.899 396.155C230.757 398.697 238.478 397.052 241.051 393.763ZM94.0766 254.432C94.0766 253.684 96.9361 252.937 100.367 252.937C104.514 252.937 107.802 251.89 110.375 249.797C114.236 246.658 115.236 248.003 112.663 253.086C111.376 255.478 111.662 255.927 114.665 255.927C119.097 255.927 122.671 250.844 122.671 244.415C122.671 241.874 123.243 239.332 123.958 238.884C124.672 238.435 128.104 240.678 131.678 243.967C135.252 247.256 138.827 249.947 139.684 249.947C142.83 249.947 141.114 245.611 136.253 241.126C127.103 232.754 123.243 231.559 105.085 230.811C86.3562 230.064 80.4944 231.559 69.7715 239.631C62.0511 245.462 63.3378 246.957 71.6302 241.874C75.0615 239.781 78.2068 237.987 78.6357 237.987C79.0647 237.987 79.7795 240.827 80.2084 244.266C80.7803 248.302 82.21 251.591 84.0687 253.236C87.5 256.076 94.0766 256.824 94.0766 254.432ZM217.318 254.133C216.317 253.086 215.602 250.993 215.602 249.349C215.602 246.658 215.745 246.658 219.177 249.947C221.75 252.488 224.18 253.385 228.47 253.236C231.901 253.086 234.188 253.684 234.188 254.581C234.188 257.272 244.625 255.03 246.627 251.89C247.628 250.545 248.486 247.704 248.486 245.611C248.486 237.987 250.487 237.09 257.064 241.575C264.069 246.359 266.643 245.462 260.638 240.229C252.632 233.352 242.624 230.512 226.611 230.512C207.596 230.512 202.449 232.156 193.585 240.977C187.437 247.106 186.722 248.452 188.867 249.199C190.582 249.947 192.155 249.199 194.014 246.807C195.443 244.864 198.732 242.023 201.162 240.528L205.594 237.837V241.724C205.594 243.967 206.595 248.003 207.882 250.844C209.74 255.03 211.027 255.927 214.601 255.927C218.033 255.927 218.605 255.478 217.318 254.133ZM147.548 230.213C149.549 228.27 152.123 224.233 153.41 221.243L155.554 215.712L151.837 217.805C147.691 220.047 145.403 219.449 139.684 215.263C134.252 211.526 116.094 204.499 97.6509 199.267C76.9201 193.287 69.0567 194.932 61.0503 206.742C58.0479 211.227 58.0479 211.526 60.6214 210.479C68.1988 207.34 72.345 207.938 94.0766 215.562C106.229 219.898 119.097 225.13 122.671 227.223C131.821 232.904 132.822 233.352 138.684 233.352C142.258 233.502 145.117 232.455 147.548 230.213ZM206.023 227.672C211.742 224.532 225.753 218.702 237.477 214.665C256.492 208.237 259.065 207.639 264.212 209.134C267.358 209.881 269.931 210.33 269.931 210.031C269.931 209.582 268.645 207.34 266.929 204.948C262.926 198.968 257.064 196.128 248.915 196.128C238.621 196.128 212.171 204.2 199.303 211.227C184.434 219.3 180.86 220.346 177.143 217.506C173.569 214.964 173.426 215.562 176.142 222.14C178.859 228.718 184.863 233.502 190.868 233.502C193.728 233.502 199.732 231.26 206.023 227.672Z" fill="#B56D55"/>
<path d="M148.978 424.709C145.117 423.214 139.97 419.925 137.683 417.384L133.68 412.899L147.834 413.796C155.554 414.244 165.562 414.842 169.851 414.992C174.141 415.291 180.288 415.59 183.434 415.739L189.153 416.038L184.149 420.523C175.427 428.297 161.988 429.942 148.978 424.709Z" fill="#B56D55"/>
<path d="M90.3593 243.219C89.0726 239.781 90.9312 236.193 93.6477 236.791C96.793 237.389 97.9368 242.472 95.2203 244.116C92.5039 246.06 91.2172 245.761 90.3593 243.219Z" fill="#B56D55"/>
<path d="M216.603 244.415C215.03 242.92 215.459 238.286 217.175 237.09C218.033 236.641 219.748 237.239 221.035 238.435C222.894 240.379 222.894 241.276 221.321 243.07C219.319 245.611 218.033 246.06 216.603 244.415Z" fill="#B56D55"/>
<path d="M295.952 346.821C295.094 345.775 294.665 340.542 294.951 335.16C295.237 329.778 295.809 307.653 296.238 285.826C297.096 239.93 298.24 233.801 307.533 224.831C312.108 220.197 318.398 221.393 323.402 227.672C330.837 236.791 330.122 255.628 321.544 285.079C318.398 295.842 315.11 310.792 314.252 318.566C312.394 334.861 310.392 340.991 304.959 345.326C300.384 349.064 298.097 349.363 295.952 346.821Z" fill="#B56D55"/>
<path d="M23.3058 341.29C15.5854 337.851 13.0119 330.974 11.1533 309.895C10.4384 300.925 7.86491 286.125 5.57737 276.707C-2.28605 246.06 -1.85713 227.074 7.00708 219.449C13.0119 214.067 16.3002 213.469 21.5902 216.609C24.7355 218.552 26.8801 221.692 28.7387 226.775C32.7419 238.286 34.3146 265.943 32.5989 295.543C31.7411 309.596 30.8833 325.592 30.7403 331.423C30.4544 342.486 29.3106 343.831 23.3058 341.29Z" fill="#B56D55"/>
<path d="M150.264 477.183C132.25 472.698 118.668 459.542 107.23 435.623L99.0806 418.58V400.491C99.0806 383.448 99.3665 381.654 103.227 373.282L107.373 364.312L109.946 382.252C111.233 392.119 113.521 404.527 114.807 409.909C117.953 423.214 126.96 442.2 133.823 450.273C136.968 454.011 140.542 459.692 141.829 462.682C144.402 469.11 152.838 474.043 161.416 474.193C168.279 474.193 179.43 466.718 180.717 461.187C181.289 458.944 184.434 454.459 187.723 451.469C198.732 441.303 208.597 412.301 211.742 380.757L213.458 362.817L217.604 369.993C224.037 381.205 225.467 387.185 225.61 401.388C225.61 413.347 225.038 415.889 220.749 426.503C213.743 443.247 203.736 458.496 194.442 465.971C181.718 476.435 164.561 480.771 150.264 477.183Z" fill="#EBB088"/>
<path d="M147.691 439.659C141.686 438.164 134.394 431.736 129.533 423.663C125.387 416.636 127.246 416.188 133.394 422.467C142.401 432.035 148.835 434.427 163.418 434.427C178.573 434.427 182.576 432.633 191.297 422.317L197.159 415.141L194.871 420.972C190.868 431.437 186.293 435.922 176.428 439.061C168.565 441.602 156.555 441.752 147.691 439.659Z" fill="#EBB088"/>
<path d="M243.339 384.644C243.196 373.731 237.048 359.229 228.47 349.512C223.752 344.13 219.891 341.738 210.312 338.001C199.732 333.815 198.446 332.918 201.019 331.722C206.881 328.881 207.882 319.314 202.878 311.39C200.733 307.952 200.876 307.802 203.593 309.447C207.739 311.839 216.031 321.705 220.606 329.778C222.751 333.516 224.609 336.655 224.895 336.655C225.181 336.655 224.466 333.665 223.323 330.077C217.747 312.885 205.165 298.683 194.156 296.889C189.438 295.992 188.295 295.244 187.008 290.909C184.863 284.032 182.719 284.481 182.719 291.806C182.719 297.038 183.72 298.982 190.725 306.905C197.302 314.53 198.589 316.623 198.16 320.659C197.731 325.293 197.445 325.443 189.724 326.19C184.291 326.639 180.002 328.283 176.142 330.825C165.562 338.449 159.272 338.15 149.692 329.778C144.688 325.443 142.83 324.695 136.253 324.695C129.819 324.695 128.39 324.247 127.675 321.705C126.531 317.669 129.819 312.287 138.684 304.065C143.831 299.131 145.546 296.44 145.546 293.151C145.546 287.77 143.688 287.62 141.543 292.553C140.542 294.945 138.684 296.291 136.682 296.291C126.674 296.44 114.521 307.503 107.802 322.303C103.084 332.619 103.513 336.655 108.374 328.283C116.094 314.978 127.246 303.467 121.813 314.38C118.811 320.659 120.383 327.237 125.816 330.675L130.105 333.366L121.67 336.655C99.2236 345.326 87.9288 358.332 83.6397 379.86L81.924 389.428L73.3458 381.953C56.9041 367.601 46.1812 354.595 42.7499 344.878C39.0327 334.562 38.8897 327.984 41.1772 253.684C42.321 211.825 42.464 209.881 46.6101 195.38C51.4712 178.337 52.0431 173.852 50.6133 160.248C48.6117 141.561 55.3314 118.837 65.7683 108.373C70.9153 103.14 81.6381 97.4592 86.2132 97.6087C87.7859 97.6087 91.3602 100.001 94.0766 102.841C109.803 119.585 135.967 130.349 160.987 130.349C177.715 130.349 205.594 123.621 223.609 115.249C236.476 109.419 241.194 107.924 247.485 107.924C260.495 107.924 267.787 112.259 272.505 122.874C274.363 127.06 274.935 133.339 274.935 155.763C274.935 182.374 275.078 183.869 279.081 194.633C282.513 204.35 283.228 208.984 284.371 229.765C284.943 242.92 286.23 256.375 286.945 259.664C289.661 271.175 290.376 312.287 288.089 327.835C284.943 349.363 281.512 355.791 262.64 376.123C253.633 385.69 245.769 393.464 244.911 393.464C244.196 393.464 243.482 389.428 243.339 384.644ZM128.533 256.226C133.394 253.535 138.255 251.442 139.256 251.442C142.544 251.442 142.83 248.751 139.827 243.668C136.11 237.239 136.253 234.997 140.399 234.997C145.546 234.997 152.123 228.419 154.696 220.645C155.84 216.908 156.412 214.067 155.84 214.366C155.268 214.665 153.124 215.712 151.122 216.908C147.834 218.552 146.547 218.253 138.255 213.768C130.105 209.283 115.093 203.602 93.0758 196.875C78.2068 192.39 68.6277 194.932 61.1932 205.546C56.6181 212.124 56.4752 213.768 60.9073 211.227C66.3402 208.237 74.9185 209.582 95.0774 216.908C118.382 225.429 123.529 227.971 114.807 226.775C93.3618 223.934 80.6373 225.13 76.7771 230.064C74.9185 232.306 75.2044 232.455 78.3498 231.409C85.7843 229.017 88.7867 229.167 82.6389 231.409C74.3466 234.698 64.0526 242.023 64.0526 244.714C64.0526 247.854 74.3466 254.581 85.3554 258.468C93.0758 261.308 97.079 261.906 107.23 261.458C117.81 261.009 120.955 260.262 128.533 256.226ZM242.767 258.917C252.632 255.478 265.642 247.555 265.642 245.013C265.642 242.472 252.632 233.651 245.483 231.259C242.052 230.064 240.336 229.167 241.766 229.167C243.196 229.017 246.627 230.064 249.486 231.259C254.633 233.502 254.633 233.502 252.06 230.512C246.913 224.682 240.05 223.934 214.172 226.924C204.879 227.971 209.168 225.579 231.758 217.506C252.203 210.18 262.068 208.237 267.072 211.077C271.647 213.619 272.219 211.825 268.359 205.994C264.069 199.417 256.063 194.633 249.343 194.633C240.05 194.633 212.457 203.453 197.731 211.077C189.867 215.263 182.576 218.552 181.432 218.552C180.288 218.552 178.144 217.506 176.714 216.011C173.283 212.722 172.568 213.918 174.283 220.346C175.999 226.924 184.291 234.997 189.295 234.997C192.441 234.997 192.727 235.445 191.869 238.435C191.44 240.229 190.01 242.92 188.867 244.266C186.15 247.405 187.437 251.442 191.011 251.442C192.441 251.442 194.299 252.189 195.157 253.086C195.872 253.834 200.447 256.226 205.022 258.169C216.031 262.953 230.614 263.252 242.767 258.917Z" fill="#EBB088"/>
<path d="M119.811 255.329C119.811 255.03 120.812 252.787 121.956 250.545C123.1 248.153 124.101 244.714 124.101 242.92C124.101 240.977 124.529 239.482 125.101 239.482C126.674 239.482 135.538 247.106 135.538 248.452C135.538 250.246 125.101 255.927 121.956 255.927C120.812 255.927 119.811 255.628 119.811 255.329Z" fill="#EBB088"/>
<path d="M73.6316 251.143C69.9144 249.349 67.0549 247.256 67.3409 246.359C67.6268 245.462 70.4863 243.219 73.7746 241.276L79.7794 237.837V242.322C79.7794 244.714 80.3513 248.452 81.2091 250.545C82.7818 255.179 82.6388 255.179 73.6316 251.143Z" fill="#EBB088"/>
<path d="M90.5023 242.472C89.9304 241.425 90.0734 240.08 90.9312 239.183C92.9328 237.09 97.3649 238.884 96.6501 241.425C95.7922 243.817 91.7891 244.565 90.5023 242.472Z" fill="#EBB088"/>
<path d="M198.588 252.638L192.155 249.648L197.445 244.565C203.735 238.435 205.594 238.136 205.594 243.219C205.594 245.462 206.595 249.05 207.739 251.442C209.74 255.628 209.74 255.927 207.453 255.777C206.023 255.777 202.02 254.282 198.588 252.638Z" fill="#EBB088"/>
<path d="M247.914 251.143C248.486 249.199 249.343 245.462 249.772 242.92L250.63 237.987L256.778 241.874C260.066 243.967 262.497 246.209 262.068 246.957C261.353 248.153 249.343 254.432 247.628 254.432C247.199 254.432 247.342 252.937 247.914 251.143Z" fill="#EBB088"/>
<path d="M215.602 241.724C215.602 238.585 219.891 237.09 221.321 239.631C222.894 242.173 221.75 243.967 218.319 243.967C216.889 243.967 215.602 242.92 215.602 241.724Z" fill="#EBB088"/>
<path d="M149.692 375.375C148.549 374.628 145.975 374.03 143.974 374.03C141.972 374.03 139.113 372.983 137.54 371.787C136.11 370.591 133.823 369.545 132.536 369.545C131.249 369.545 128.39 368.648 126.245 367.452C120.812 364.462 123.815 363.116 136.968 362.817C142.973 362.668 149.121 361.771 150.693 360.874C152.838 359.678 154.696 359.827 157.985 361.621C161.988 363.565 162.846 363.565 165.562 361.621C167.993 359.827 169.708 359.678 173.14 360.874C175.713 361.621 181.289 362.369 185.578 362.369C198.017 362.518 205.88 366.555 198.16 368.797C196.301 369.246 192.298 370.292 189.152 371.189C186.007 372.086 181.146 373.432 178.43 374.329C171.996 376.571 152.409 377.169 149.692 375.375Z" fill="#EBB088"/>
<path d="M296.524 297.487C297.382 243.518 297.382 243.817 304.101 236.492C310.249 229.765 312.68 229.167 316.54 233.651C318.827 236.342 319.256 238.884 318.97 249.797C318.827 260.262 317.827 266.092 312.966 281.64C309.677 292.553 306.532 306.606 305.531 314.53C304.101 328.283 300.813 338.3 297.525 339.346C296.238 339.645 295.952 329.928 296.524 297.487Z" fill="#EBB088"/>
<path d="M24.3066 330.227C22.448 327.984 19.7315 311.54 19.7315 302.869C19.7315 299.58 17.444 287.471 14.7275 275.959C6.86409 243.518 7.72192 224.532 17.301 224.532C20.5893 224.532 26.7371 230.213 29.3106 235.744C32.027 241.276 32.7419 262.355 31.7411 297.487C30.8833 329.031 30.4543 332.17 28.3098 332.17C26.8801 332.17 25.1644 331.273 24.3066 330.227Z" fill="#EBB088"/>
<path d="M154.125 439.808C141.543 438.164 134.68 433.081 128.39 420.374C126.96 417.533 127.961 417.982 132.965 422.915C142.115 431.586 147.548 434.128 158.557 435.025C172.568 436.071 181.861 433.231 188.581 425.905C194.585 419.477 195.729 419.925 191.44 427.251C186.865 435.025 180.86 438.015 164.847 440.406C163.275 440.705 158.414 440.406 154.125 439.808Z" fill="#F7F1EF"/>
<path d="M149.835 375.525C148.692 374.777 146.547 374.03 145.117 374.03C143.545 374.03 140.399 373.133 137.969 371.937C135.395 370.89 131.535 369.096 129.105 368.199C125.816 366.704 125.387 366.106 126.96 365.209C130.963 362.967 142.973 362.07 145.117 363.714C146.547 365.06 147.691 364.91 149.549 362.967C152.838 359.977 155.554 359.977 159.129 362.668C161.559 364.462 162.274 364.462 164.704 362.668C168.565 359.827 173.998 359.977 177.286 362.967C179.287 365.06 180.145 365.209 182.004 363.565C183.863 361.92 185.721 361.92 192.012 363.415C196.301 364.462 199.875 365.807 199.875 366.555C199.875 367.9 186.865 372.535 182.719 372.535C181.003 372.535 178.573 373.133 177.286 373.88C173.569 375.824 152.266 377.02 149.835 375.525Z" fill="#F7F1EF"/>
<path d="M201.305 252.937C197.874 251.591 194.728 249.648 194.442 248.751C194.014 247.405 202.592 239.482 204.593 239.482C205.165 239.482 205.594 241.575 205.594 244.116C205.594 246.658 206.309 249.947 207.167 251.741C208.025 253.385 208.454 254.88 208.168 255.179C207.882 255.329 204.879 254.432 201.305 252.937Z" fill="#F7F1EF"/>
<path d="M121.956 251.89C122.528 250.395 123.386 246.957 123.958 244.266L124.815 239.482L130.248 243.369C133.108 245.611 135.538 247.854 135.538 248.601C135.538 249.648 125.101 254.432 122.528 254.432C121.527 254.432 121.384 253.385 121.956 251.89Z" fill="#F7F1EF"/>
<path d="M72.7739 249.648L66.6261 246.508L69.9144 243.817C73.4887 240.977 78.2068 238.734 78.9217 239.781C79.9225 240.827 80.9233 252.937 80.0654 252.937C79.4936 252.787 76.2052 251.292 72.7739 249.648Z" fill="#F7F1EF"/>
<path d="M248.485 250.096C249.2 248.452 249.915 245.462 249.915 243.369C249.915 241.276 250.344 239.482 251.059 239.482C252.489 239.482 261.353 245.163 261.353 246.209C261.353 247.106 250.344 252.937 248.485 252.937C247.485 252.937 247.342 252.04 248.485 250.096Z" fill="#F7F1EF"/>
<path d="M91.2172 240.977C91.2172 238.734 91.932 237.987 93.7906 238.286C95.0774 238.585 96.2212 239.781 96.2212 240.977C96.2212 242.173 95.0774 243.369 93.7906 243.668C91.932 243.967 91.2172 243.219 91.2172 240.977Z" fill="#F7F1EF"/>
<path d="M216.317 242.472C215.173 240.379 216.746 237.987 219.319 237.987C220.463 237.987 221.321 239.332 221.321 240.977C221.321 244.116 217.89 245.163 216.317 242.472Z" fill="#F7F1EF"/>
</svg>
