<svg width="485" height="625" viewBox="0 0 485 625" fill="none" xmlns="http://www.w3.org/2000/svg">
<path d="M205.385 550.822C199.465 548.659 192.406 544.766 189.446 542.171C186.486 539.576 183.298 537.63 182.615 538.062C180.338 538.711 175.556 534.386 162.805 519.464C156.657 512.111 150.509 506.055 149.143 506.055C148.005 506.055 140.718 496.54 133.204 485.294C125.69 474.048 117.265 461.289 114.533 457.18C111.573 453.071 109.296 449.178 109.296 448.529C109.296 447.881 107.93 445.934 106.108 444.204C104.286 442.474 100.643 435.554 97.9109 428.849C95.4062 421.929 92.6738 414.792 91.763 413.062C89.486 407.872 89.0306 404.195 88.3475 387.543C87.8921 372.405 87.6644 371.756 82.655 372.621C71.9531 374.567 69.6761 370.026 68.0822 343.426C67.1714 330.017 65.8052 315.528 64.6667 311.419C63.5282 307.31 62.6174 301.038 62.8451 297.362C63.0728 293.901 62.162 289.792 61.0235 288.279C59.6573 286.548 59.6573 281.358 61.4789 273.789C64.6667 259.083 75.1409 247.405 81.9719 250.865C84.2489 252.163 86.5259 253.028 86.9813 253.028C87.4367 253.028 87.6644 242.647 87.8921 229.671C88.1198 200.476 90.1691 183.175 94.2677 175.389C96.317 171.929 98.1386 166.955 98.8217 164.144C102.009 147.059 126.829 117.214 150.282 101.644C158.934 95.8045 162.35 93.4256 167.359 89.1003C169.181 87.5865 176.467 83.91 183.754 80.8823C191.04 77.8546 198.782 74.3944 201.059 73.3131C207.662 69.8529 243.183 66.609 259.578 67.9065C280.526 69.6366 303.068 77.6384 324.472 90.8304C328.343 93.2093 332.897 95.8045 334.718 96.6695C340.866 99.4809 371.378 130.839 377.526 140.571C380.714 145.977 384.129 150.735 385.04 151.384C387.317 152.898 395.97 186.851 397.791 200.908C398.474 207.612 399.385 214.533 399.613 216.263C399.841 217.993 398.702 225.562 397.336 232.915C395.742 240.484 395.514 247.189 396.425 247.837C397.564 248.27 397.336 251.298 395.97 254.541C394.831 257.569 394.376 260.597 395.059 261.246C395.514 261.894 395.059 263.625 393.465 265.355C391.416 267.95 391.871 268.382 396.425 267.95C408.038 266.868 411.225 268.166 415.324 275.519C418.74 281.791 419.195 285.467 417.829 297.794C416.918 305.796 414.869 315.744 413.047 319.637C409.404 328.287 403.939 355.969 402.118 375C401.434 382.569 392.782 389.922 386.634 387.976C382.535 386.894 382.308 387.759 382.763 396.194C383.218 406.142 380.941 420.631 377.754 426.254C376.843 428.201 375.477 432.093 374.794 435.121C373.655 441.393 350.885 475.13 343.826 481.185C340.866 483.564 334.491 490.917 329.481 497.405C324.472 503.893 311.721 517.517 301.019 527.465C283.031 544.334 280.754 545.848 263.904 550.822C242.5 556.877 222.235 556.877 205.385 550.822ZM250.697 487.457C255.024 484.213 256.39 482.483 253.885 483.564C245.232 487.024 221.552 485.727 208.345 480.969C204.702 479.671 204.93 480.32 209.484 483.78C223.146 494.161 239.312 495.675 250.697 487.457ZM343.826 300.606C346.559 298.875 346.559 298.443 342.916 297.145C340.411 296.28 337.451 297.145 335.174 299.308C331.758 302.552 331.758 302.768 335.857 302.768C338.362 302.768 342.005 301.903 343.826 300.606ZM285.308 293.036C283.486 290.225 282.575 290.225 277.794 293.469L272.101 297.362L278.932 298.443C286.446 299.74 288.268 298.227 285.308 293.036ZM145.728 288.279C145.728 283.088 145.728 283.088 140.263 286.981C135.026 290.874 135.709 293.469 142.312 293.469C144.362 293.469 145.728 291.306 145.728 288.279Z" fill="#0A090B"/>
<path d="M205.385 550.822C199.465 548.659 192.406 544.766 189.446 542.171C186.486 539.576 183.298 537.63 182.615 538.062C180.338 538.711 175.556 534.386 162.805 519.464C156.657 512.111 150.282 506.055 149.143 506.055C147.777 506.055 142.768 499.784 137.986 491.998C133.204 484.213 128.423 477.292 127.284 476.644C126.146 475.995 122.502 471.021 119.542 465.398C112.711 453.287 108.613 447.016 106.791 445.502C99.7325 440.095 89.0306 406.142 88.3475 387.543C87.6644 372.405 87.4367 371.756 82.655 372.621C71.9531 374.567 69.6761 370.026 68.0822 343.426C67.1714 330.017 65.8052 315.528 64.6667 311.419C63.5282 307.31 62.6174 301.038 62.8451 297.362C63.0728 293.901 62.162 289.792 61.0235 288.279C59.6573 286.548 59.6573 281.358 61.4789 273.789C64.6667 259.083 75.1409 247.405 81.9719 250.865C84.2489 252.163 86.5259 253.028 86.9813 253.028C87.4367 253.028 87.6644 242.647 87.8921 229.671C88.1198 200.476 90.1691 183.175 94.2677 175.389C96.317 171.929 98.1386 166.955 98.8217 164.144C102.009 147.059 126.829 117.214 150.282 101.644C158.934 95.8045 162.35 93.4256 167.359 89.1003C169.181 87.5865 176.467 83.91 183.754 80.8823C191.04 77.8546 198.782 74.3944 201.059 73.3131C207.662 69.8529 243.183 66.609 259.578 67.9065C280.526 69.6366 303.068 77.6384 324.472 90.8304C328.343 93.2093 332.897 95.8045 334.718 96.6695C340.866 99.4809 371.378 130.839 377.526 140.571C380.714 145.977 384.129 150.735 385.04 151.384C387.317 152.898 395.97 186.851 397.791 200.908C398.474 207.612 399.385 214.533 399.613 216.263C399.841 217.993 398.702 225.562 397.336 232.915C395.742 240.484 395.514 247.189 396.425 247.837C397.564 248.27 397.336 251.298 395.97 254.541C394.831 257.569 394.376 260.597 395.059 261.246C395.514 261.894 395.059 263.625 393.465 265.355C391.416 267.95 391.871 268.382 396.425 267.95C408.038 266.868 411.225 268.166 415.324 275.519C418.74 281.791 419.195 285.467 417.829 297.794C416.918 305.796 414.869 315.744 413.047 319.637C409.404 328.287 403.939 355.969 402.118 375C401.434 382.353 392.782 389.922 387.089 388.192C383.674 387.111 382.991 389.273 381.852 404.195C381.397 413.495 379.348 423.443 377.754 426.254C376.16 429.066 374.794 433.391 374.338 435.77C373.883 441.176 350.885 475.13 343.826 481.185C340.866 483.564 334.491 490.917 329.481 497.405C324.472 503.893 311.721 517.517 301.019 527.465C283.031 544.334 280.754 545.848 263.904 550.822C242.5 556.877 222.235 556.877 205.385 550.822ZM250.697 487.457C255.024 484.213 256.39 482.483 253.885 483.564C245.232 487.024 221.552 485.727 208.345 480.969C204.702 479.671 204.93 480.32 209.484 483.78C223.146 494.161 239.312 495.675 250.697 487.457ZM343.371 300.822C347.014 298.875 347.014 298.659 343.143 297.362C341.094 296.497 337.679 296.929 335.857 298.443C332.897 300.822 332.669 300.606 333.808 297.145C335.402 292.82 335.174 293.036 330.848 298.443C328.571 301.254 329.026 301.903 333.808 302.336C336.995 302.552 341.322 301.903 343.371 300.822ZM289.179 298.01C289.179 299.524 290.089 300.389 291.456 299.524C294.643 297.794 291.456 291.522 287.812 292.82C286.218 293.469 284.625 293.036 284.169 291.739C283.714 290.657 280.981 291.522 277.794 293.469L272.101 297.362L278.932 298.443C282.803 299.092 286.446 298.659 287.357 297.362C288.495 296.064 289.179 296.28 289.179 298.01ZM316.047 292.604C316.502 289.792 318.324 287.63 320.601 287.63C325.61 287.63 321.284 283.953 315.364 283.088C308.078 282.223 300.563 285.467 300.563 289.576C300.563 298.443 314.681 301.254 316.047 292.604ZM145.728 288.279C145.728 283.088 145.728 283.088 140.263 286.981C135.026 290.874 135.709 293.469 142.312 293.469C144.362 293.469 145.728 291.306 145.728 288.279ZM176.012 290.441C176.923 289.792 176.467 287.846 175.101 286.332C173.507 284.602 173.507 283.304 175.329 282.223C181.477 278.547 173.735 275.952 162.35 278.114C156.202 279.195 155.747 281.791 160.984 287.63C164.855 291.739 173.052 293.469 176.012 290.441Z" fill="#271004"/>
<path d="M218.592 553.633C206.068 551.903 193.545 546.929 189.218 542.171C187.624 540.009 184.892 538.495 183.071 538.495C179.655 538.495 177.606 536.765 162.805 519.247C156.657 512.111 150.282 506.055 149.143 506.055C147.777 506.055 142.768 499.784 137.986 491.998C133.204 484.213 128.423 477.292 127.284 476.644C126.146 475.995 122.502 471.021 119.542 465.398C112.711 453.287 108.613 447.016 106.791 445.502C99.7325 440.095 89.0306 406.142 88.3475 387.543C87.6644 372.405 87.4367 371.756 82.655 372.621C71.9531 374.568 69.6761 370.026 68.0822 343.426C67.1714 330.017 65.8052 315.528 64.6667 311.419C63.5282 307.31 62.6174 301.038 62.8451 297.362C63.0728 293.901 62.162 289.792 61.0235 288.279C59.6573 286.549 59.6573 281.358 61.4789 273.789C64.6667 259.083 75.1409 247.405 81.9719 250.865C84.2489 252.163 86.5259 253.028 86.9813 253.028C87.4367 253.028 87.6644 242.647 87.8921 229.671C88.1198 200.476 90.1691 183.175 94.2677 175.389C96.317 171.929 98.1386 166.955 98.8217 163.927C100.188 155.709 108.157 141.652 110.89 142.085C112.256 142.301 115.216 140.355 117.493 137.76L121.819 133.002L116.81 137.111C113.85 139.49 111.573 140.571 111.573 139.49C111.573 136.895 130.017 116.782 132.521 116.782C133.887 116.782 133.432 118.512 131.838 120.459C128.878 123.919 129.106 124.135 132.521 121.324C134.798 119.81 135.937 117.647 135.254 116.566C134.57 115.485 135.254 114.619 136.62 114.619C137.986 114.619 138.669 113.754 137.758 112.673C137.075 111.376 141.174 107.483 146.639 104.023C157.34 96.8859 160.756 95.8046 158.024 99.9136C157.113 101.427 157.34 101.644 158.934 100.779C160.301 99.9136 160.984 97.9672 160.073 96.2371C159.162 93.8582 160.984 92.5606 166.221 91.6956C170.319 90.8305 172.369 89.5329 170.775 88.6679C169.409 87.8028 173.963 84.7752 181.704 81.5312C196.505 75.0433 201.514 74.1783 199.009 78.5035C198.099 80.0174 198.326 80.4499 199.465 79.3686C200.603 78.2873 201.514 76.3409 201.514 75.0433C201.514 71.1506 213.582 69.2042 241.362 68.3392C265.498 67.4741 269.141 67.9066 286.902 73.5295C297.603 76.9897 306.028 80.8824 305.573 82.18C305.345 83.4776 306.028 84.1264 307.394 83.2613C308.761 82.3963 312.632 83.4776 316.047 85.8565C326.521 92.3444 331.075 94.9395 335.402 96.4534C337.451 97.1021 339.272 98.8323 339.272 99.9136C339.272 100.995 337.906 101.211 336.54 100.346C334.946 99.481 336.54 101.86 340.183 105.536C343.826 109.213 347.47 112.024 348.608 111.808C349.519 111.592 354.756 115.268 359.993 120.026C373.2 131.704 388.683 155.277 379.803 150.087C378.209 149.222 377.981 149.438 378.892 150.952C379.803 152.249 381.852 152.898 383.446 152.249C386.634 151.168 394.831 178.417 397.564 200.043C398.247 206.099 399.157 212.803 399.385 214.965C399.841 217.344 398.702 225.346 397.336 232.915C395.742 240.484 395.514 247.189 396.425 247.837C397.564 248.27 397.336 251.298 395.97 254.542C394.831 257.569 394.376 260.597 395.059 261.246C395.514 261.895 395.059 263.625 393.465 265.355C391.416 267.95 391.871 268.382 396.425 267.95C408.038 266.869 411.225 268.166 415.324 275.519C418.74 281.791 419.195 285.467 417.829 297.794C416.918 305.796 414.869 315.744 413.047 319.637C409.404 328.287 403.939 355.969 402.118 375C401.434 382.353 392.782 389.922 387.089 388.192C383.674 387.111 382.991 389.273 381.852 404.196C381.397 413.495 379.348 423.443 377.754 426.254C376.16 429.066 374.794 433.391 374.338 435.77C373.883 441.177 350.885 475.13 343.826 481.185C340.866 483.564 334.491 490.917 329.481 497.405C324.472 503.893 311.721 517.517 301.019 527.465C283.258 544.118 280.754 545.848 264.587 550.606C246.826 555.796 237.263 556.445 218.592 553.633ZM250.697 487.457C255.024 484.213 256.39 482.483 253.885 483.564C245.232 487.024 221.552 485.727 208.345 480.969C204.702 479.671 204.93 480.32 209.484 483.78C223.146 494.161 239.312 495.675 250.697 487.457ZM301.93 301.687C301.019 299.092 302.613 298.443 308.533 298.443C315.592 298.443 316.502 297.794 316.502 292.82C316.502 287.846 317.186 287.197 322.195 288.062C329.709 289.576 329.481 288.495 321.056 284.386C314.681 281.358 313.087 281.358 302.157 284.818C295.782 286.981 289.179 290.009 287.812 291.739C285.763 294.334 285.08 294.118 283.941 291.306C282.348 287.414 275.289 288.711 276.2 292.604C276.427 294.118 275.289 294.983 273.695 294.55C271.873 294.334 271.19 294.983 271.873 296.064C273.695 298.875 286.902 300.173 286.902 297.578C286.902 296.497 288.268 297.362 290.089 299.524C291.911 301.903 294.416 302.984 296.92 302.119C298.97 301.254 300.563 301.687 300.563 302.768C300.563 304.066 301.247 304.931 301.93 304.931C302.613 304.931 302.84 303.417 301.93 301.687ZM341.549 301.471C346.559 300.173 346.786 291.955 342.005 291.739C335.402 291.306 331.303 292.171 330.392 294.334C330.164 295.632 327.432 298.443 324.7 300.822L319.918 305.363L329.026 303.85C334.035 302.984 339.728 301.903 341.549 301.471ZM159.39 293.036C157.113 290.441 157.796 290.225 164.171 291.955C172.369 294.334 179.655 290.874 175.556 286.981C173.963 285.467 173.963 283.737 175.784 281.791C177.833 279.412 178.972 279.412 181.932 281.574C185.12 284.17 185.12 283.953 182.387 280.709C178.289 275.519 156.43 276.817 149.826 282.656C147.322 284.818 144.589 286.332 143.678 286.332C142.995 286.116 140.263 287.414 137.758 288.927C132.977 292.171 134.57 292.82 145.272 292.388C148.005 292.171 150.282 293.036 150.282 294.118C150.282 295.415 153.014 296.28 156.202 296.28C161.211 296.28 161.667 295.848 159.39 293.036ZM190.812 293.685C194.911 289.792 194.228 283.305 189.674 283.305C186.714 283.305 186.486 283.953 188.535 285.035C190.585 286.332 190.129 288.062 186.714 291.523C181.704 296.497 185.575 298.659 190.812 293.685Z" fill="#2D2D2D"/>
<path d="M218.592 553.633C205.84 551.687 196.049 548.01 190.129 542.82C187.624 540.657 183.526 538.279 181.021 537.63C178.517 536.765 171.002 529.412 164.399 520.977C157.796 512.759 150.965 506.055 149.599 506.055C148.005 506.055 142.768 499.784 137.986 491.998C133.204 484.213 128.423 477.292 127.284 476.644C126.146 475.995 122.502 471.021 119.542 465.398C112.711 453.287 108.613 447.016 106.791 445.502C99.7325 440.095 89.0306 406.142 88.3475 387.543C87.6644 372.405 87.4367 371.756 82.655 372.621C71.9531 374.567 69.6761 370.026 68.0822 343.426C67.1714 330.017 65.8052 315.528 64.6667 311.419C63.5282 307.31 62.6174 301.038 62.8451 297.362C63.0728 293.901 62.162 289.792 61.0235 288.279C59.6573 286.548 59.6573 281.358 61.4789 273.789C64.6667 259.083 75.1409 247.405 81.9719 250.865C84.2489 252.163 86.5259 253.028 86.9813 253.028C87.4367 253.028 87.6644 242.647 87.8921 229.671C88.1198 192.69 92.2184 170.848 99.2771 170.848C101.099 170.848 102.465 169.766 102.465 168.469C102.465 167.388 101.326 166.955 100.188 167.604C96.7724 169.55 98.8217 160.467 104.059 150.303C106.563 145.545 109.524 141.868 110.89 142.085C112.256 142.301 115.216 140.355 117.493 137.76C121.136 133.867 121.136 133.434 117.948 136.029C115.671 137.543 113.85 138.192 113.85 137.327C113.85 134.516 130.017 116.782 132.521 116.782C133.887 116.782 133.66 118.296 131.838 120.458C128.878 123.919 129.106 124.135 132.521 121.324C134.798 119.81 135.937 117.647 135.254 116.566C134.57 115.484 135.254 114.619 136.62 114.619C137.986 114.619 138.669 113.754 137.758 112.673C137.075 111.375 141.174 107.483 146.639 104.022C157.34 96.8858 160.756 95.8045 158.024 99.9135C157.113 101.427 157.34 101.644 158.934 100.779C160.301 99.9135 160.984 97.9671 160.073 96.237C159.162 93.8581 160.984 92.5605 166.221 91.6955C170.092 90.8304 172.369 89.5329 171.002 88.6678C167.359 86.7214 190.129 76.9896 193.772 78.936C195.594 80.0173 196.277 80.0173 195.366 78.936C189.674 73.0969 232.481 65.7439 259.578 67.9066C276.2 69.4204 306.484 78.7197 305.573 82.3962C305.345 83.6938 306.028 84.1263 307.394 83.2612C308.761 82.3962 312.632 83.4775 316.047 85.8564C326.521 92.3443 331.075 94.9394 335.402 96.4533C337.451 97.1021 339.272 98.8322 339.272 99.9135C339.272 100.995 337.906 101.211 336.54 100.346C334.946 99.481 336.54 101.86 340.183 105.536C343.826 109.213 347.47 112.024 348.608 111.808C349.519 111.592 354.756 115.268 359.993 120.026C373.2 131.704 388.683 155.277 379.803 150.086C378.209 149.221 377.981 149.438 378.892 150.952C379.803 152.249 381.852 152.898 383.446 152.249C386.634 151.168 394.831 178.417 397.564 200.043C398.247 206.099 399.157 212.803 399.385 214.965C399.841 217.344 398.702 225.346 397.336 232.915C395.742 240.484 395.514 247.189 396.425 247.837C397.564 248.27 397.336 251.298 395.97 254.542C394.831 257.569 394.376 260.597 395.059 261.246C395.514 261.894 395.059 263.625 393.465 265.355C391.416 267.95 391.871 268.382 396.425 267.95C408.038 266.868 411.225 268.166 415.324 275.519C418.74 281.791 419.195 285.467 417.829 297.794C416.918 305.796 414.869 315.744 413.047 319.637C409.404 328.287 403.939 355.969 402.118 375C401.434 382.353 392.782 389.922 387.089 388.192C383.674 387.111 382.991 389.273 381.852 404.195C381.397 413.495 379.348 423.443 377.754 426.254C376.16 429.066 374.794 433.391 374.338 435.77C373.883 441.176 350.885 475.13 343.826 481.185C340.866 483.564 334.491 490.917 329.481 497.405C324.472 503.893 311.721 517.517 301.019 527.465C283.258 544.118 280.754 545.848 264.587 550.606C246.826 555.796 237.035 556.445 218.592 553.633ZM250.697 487.457C255.024 484.213 256.39 482.483 253.885 483.564C245.232 487.024 221.552 485.727 208.345 480.969C204.702 479.671 204.93 480.32 209.484 483.78C223.146 494.161 239.312 495.675 250.697 487.457ZM302.157 301.903C301.247 299.524 303.068 298.443 309.216 298.01C315.819 297.578 317.641 296.497 317.641 293.036C317.641 290.009 319.007 288.711 322.878 288.927C329.481 289.144 329.254 288.495 320.829 284.386C314.453 281.142 313.087 281.142 304.89 284.17C299.88 286.116 293.732 287.63 291.228 287.63C288.723 287.63 287.129 288.495 288.04 289.576C288.723 290.657 288.268 292.171 287.129 292.82C285.991 293.469 284.625 292.604 283.714 290.874C282.348 287.197 275.289 288.927 276.2 292.604C276.427 294.118 275.289 294.983 273.695 294.55C271.873 294.334 271.19 294.983 271.873 296.064C273.695 298.875 286.902 300.173 286.902 297.578C286.902 296.497 288.268 297.362 290.089 299.524C291.911 301.903 294.416 302.984 296.92 302.119C298.97 301.254 300.563 301.687 300.563 302.768C300.563 304.066 301.247 304.931 301.93 304.931C302.613 304.931 302.84 303.633 302.157 301.903ZM341.549 301.471C346.559 300.173 346.786 291.955 342.005 291.739C335.402 291.306 331.303 292.171 330.392 294.334C330.164 295.631 327.432 298.443 324.7 301.038L319.918 305.363L329.026 304.066C334.035 303.201 339.728 302.119 341.549 301.471ZM159.39 293.036C157.113 290.441 157.796 290.225 164.171 291.955C172.369 294.334 178.289 291.522 176.24 286.548C174.19 281.574 177.378 278.33 181.249 281.358C183.071 282.872 184.437 282.872 184.437 281.574C184.437 280.493 183.071 278.979 181.249 278.33C175.556 276.168 151.648 278.33 150.737 280.926C150.282 282.223 148.916 283.304 147.549 283.304C146.411 283.304 142.768 285.251 139.58 287.63C133.66 291.955 134.57 292.82 145.272 292.388C148.005 292.171 150.282 293.036 150.282 294.118C150.282 295.415 153.014 296.28 156.202 296.28C161.211 296.28 161.667 295.848 159.39 293.036ZM190.585 293.685C195.822 287.197 195.822 283.304 190.585 283.304C187.169 283.304 186.486 283.953 188.535 285.035C190.585 286.332 190.129 288.062 186.714 291.522C183.298 294.983 182.843 296.28 185.12 296.28C186.941 296.28 189.446 294.983 190.585 293.685Z" fill="#4D2D17"/>
<path d="M342.688 105.969C340.411 103.59 339.728 101.644 341.094 101.644C342.46 101.644 344.737 103.59 346.103 105.969C347.47 108.348 348.153 110.294 347.697 110.294C347.242 110.294 344.965 108.348 342.688 105.969Z" fill="#4D2D17"/>
<path d="M229.066 545.415C228.61 544.983 224.74 544.55 220.641 544.55C207.207 544.334 191.268 534.818 172.596 516.22C162.805 506.488 154.153 496.756 153.47 494.81C152.786 492.647 151.42 490.917 150.509 490.917C149.599 490.917 146.866 487.457 144.362 483.348C142.085 479.239 139.352 475.779 138.441 475.779C137.531 475.779 132.521 468.642 127.284 460.208C121.819 451.557 115.899 442.907 113.622 441.176C109.979 438.149 100.643 417.171 102.237 415.441C102.465 415.009 101.782 413.927 100.188 413.062C96.7724 411.116 93.8123 379.974 94.4954 350.346C94.9508 336.721 94.7231 327.855 94.04 330.882C89.7137 354.239 89.486 356.618 91.763 355.32C93.1292 354.455 93.5846 355.32 92.6738 357.699C91.763 359.862 91.0799 363.754 91.0799 366.566C91.0799 370.458 89.486 371.756 84.2489 372.405C71.4977 374.135 69.6761 370.675 68.0822 343.426C67.1714 330.017 65.8052 315.528 64.6667 311.419C63.5282 307.31 62.6174 301.038 62.8451 297.362C63.0728 293.901 62.162 289.792 61.0235 288.279C59.6573 286.548 59.6573 281.358 61.4789 273.789C64.6667 259.083 75.1409 247.405 81.9719 250.865C87.8921 253.893 88.5752 253.676 87.209 248.919C86.5259 246.54 87.209 242.863 88.5752 240.701C90.6245 237.241 90.8522 237.241 91.0799 242.215C91.3076 247.189 91.5353 247.189 93.3569 243.296C94.4954 240.917 95.4062 240.268 95.4062 241.998C95.6339 244.161 96.317 244.377 98.8217 242.431C101.326 240.484 102.465 240.484 103.831 242.431C107.019 247.621 109.751 234.862 110.662 209.775C111.573 187.5 112.256 183.607 118.404 171.713C124.779 159.17 125.69 158.305 137.986 154.628C145.728 152.249 154.38 151.168 160.528 152.033C166.676 152.465 171.002 152.033 171.458 150.735C172.369 147.924 188.308 147.059 245.916 146.626C270.279 146.41 292.366 147.059 294.871 148.14C297.376 149.005 301.474 150.303 303.979 150.519C317.869 152.465 324.244 153.763 326.521 155.277C327.887 156.358 333.125 157.439 338.134 157.656C343.143 157.872 351.568 160.035 357.033 162.63C365.002 166.09 367.963 169.334 372.517 178.633C377.298 188.581 377.981 193.555 378.437 216.047C378.437 230.32 379.575 241.566 380.714 240.917C381.625 240.268 382.535 241.133 382.763 242.647C382.763 244.161 383.674 243.512 384.812 241.133C385.951 238.754 386.862 238.106 386.862 239.619C387.089 241.133 388.911 242.215 391.188 241.782C393.693 241.35 394.831 242.431 394.376 245.026C393.92 246.972 394.831 248.702 395.97 248.702C397.564 248.702 397.564 250.649 395.97 254.325C394.831 257.569 394.376 260.597 395.059 261.246C395.514 261.894 395.059 263.625 393.465 265.355C391.416 267.95 391.871 268.382 396.425 267.95C408.038 266.869 411.225 268.166 415.324 275.519C418.74 281.791 419.195 285.467 417.829 297.794C416.918 305.796 414.869 315.744 413.047 319.637C409.176 328.72 402.345 363.322 402.573 372.837C403.028 382.137 394.148 389.922 385.723 387.976C382.08 387.111 381.397 384.948 381.625 376.298C381.625 370.458 383.218 363.971 385.04 361.808C388 358.348 387.772 358.132 384.585 360.727C381.169 363.106 380.941 361.592 381.625 343.426C382.308 332.612 382.08 324.178 381.397 324.611C380.258 325.692 378.892 341.479 376.843 376.298C376.16 386.462 375.249 399.005 374.794 404.412C373.883 415.009 361.815 443.988 355.439 450.908C350.657 456.099 342.916 467.561 342.688 469.723C342.688 471.67 319.69 495.675 296.01 518.382C277.11 536.548 267.775 542.388 256.162 543.253C252.974 543.469 250.47 544.55 250.47 545.632C250.47 547.362 230.887 547.145 229.066 545.415ZM242.728 527.682C249.331 525.519 257.301 516.869 252.747 516.869C251.608 516.869 250.47 517.95 250.47 519.247C250.47 521.843 229.294 520.761 218.592 517.734C213.355 516.22 213.127 516.436 216.315 520.112C219.275 523.573 230.66 529.412 234.758 529.844C235.441 529.844 239.085 528.763 242.728 527.682ZM238.402 496.107C237.491 495.242 241.817 492.431 247.737 489.836C253.657 487.241 260.261 482.699 262.31 479.888C264.587 477.076 272.556 466.696 279.843 457.18C287.357 447.448 294.643 439.014 296.465 438.581C298.059 437.933 298.514 436.635 297.603 435.554C296.693 434.689 293.96 434.905 291.911 435.986C289.862 437.284 286.218 438.149 284.169 437.716C281.892 437.5 280.071 438.149 280.071 439.23C280.071 440.528 279.16 440.744 277.794 440.095C274.606 438.365 248.193 443.555 248.193 445.934C248.193 447.016 247.054 447.232 245.46 446.367C244.094 445.502 238.857 445.069 234.075 445.069C229.066 445.285 222.918 444.42 220.186 442.907C217.453 441.393 213.127 440.095 210.622 439.663C208.117 439.446 201.059 438.149 194.683 436.635C188.535 435.337 181.477 434.256 179.427 434.256C177.15 434.472 174.873 433.391 174.19 432.31C173.279 431.228 171.686 431.012 170.319 431.661C168.953 432.526 170.775 435.337 174.646 438.798C178.061 441.825 183.526 449.611 186.714 456.099C194 471.237 210.167 487.241 222.69 491.782C227.927 493.728 232.254 494.593 232.254 493.728C232.254 492.863 233.392 493.296 234.986 494.81C236.58 496.324 238.174 497.405 238.857 497.405C239.312 497.405 239.085 496.756 238.402 496.107ZM243.411 403.33C244.094 402.465 242.045 402.465 238.629 403.114C234.986 403.763 231.343 402.898 229.749 400.952C228.383 399.438 226.333 398.573 225.195 399.221C224.056 399.87 223.146 399.005 223.146 397.275C223.146 391.869 215.176 387.111 207.662 387.976C203.791 388.408 200.148 387.76 199.465 386.678C199.009 385.813 198.782 386.029 199.009 387.543C199.465 389.273 202.88 390.138 207.89 390.138C212.444 389.922 215.859 390.571 215.632 391.436C215.404 392.301 216.087 393.166 217.225 393.166C218.364 393.382 220.413 395.545 221.779 398.356C223.146 401.168 225.65 403.33 227.017 403.33C228.383 403.33 230.204 403.979 231.115 404.844C232.709 406.358 241.134 405.277 243.411 403.33ZM250.47 398.789C250.47 400.087 252.519 398.789 255.251 395.978C258.667 392.517 262.082 391.22 267.319 391.652C275.972 392.517 286.674 385.597 288.04 378.46C288.495 376.081 288.04 374.568 286.674 375.216C285.535 376.081 285.08 377.379 285.763 378.244C286.218 379.325 283.941 382.353 280.526 385.164C276.2 388.841 272.329 390.138 267.092 389.706C262.082 389.273 258.439 390.355 255.251 393.382C252.519 395.978 249.786 397.924 248.876 397.708C247.965 397.708 246.826 398.789 246.371 400.519C245.916 402.465 246.371 402.249 247.965 400.087C249.331 398.356 250.47 397.708 250.47 398.789ZM192.862 381.272C190.585 379.109 188.991 378.676 187.852 380.407C187.169 381.92 187.624 382.569 189.218 382.353C190.812 381.92 192.406 383.002 192.634 384.516C193.317 389.706 194 390.355 195.139 387.543C195.822 385.813 194.911 383.002 192.862 381.272ZM285.991 369.161C285.308 365.052 280.298 357.699 280.071 360.727C280.071 362.889 279.16 362.673 276.427 360.078C274.378 358.132 272.101 357.05 271.646 357.699C270.963 358.348 273.695 361.375 277.566 364.619C281.437 367.647 283.941 371.324 283.031 372.405C282.348 373.702 282.803 374.135 284.169 373.486C285.308 372.621 286.218 370.675 285.991 369.161ZM200.376 360.078C201.514 360.727 202.88 360.294 203.791 358.997C204.702 357.699 206.068 357.266 207.207 357.915C208.345 358.564 209.711 358.132 210.394 357.05C211.988 354.888 206.068 355.104 203.563 357.266C202.88 358.132 200.831 358.132 199.009 357.483C197.188 356.834 195.822 357.483 195.822 358.78C195.822 360.078 194 361.159 191.951 361.159C188.535 361.159 188.308 361.592 191.268 363.322C193.545 364.619 195.139 364.403 196.505 362.024C197.643 360.294 199.237 359.429 200.376 360.078ZM326.294 319.637L340.411 319.42L325.61 318.123C317.413 317.474 310.582 317.474 310.127 318.339C309.671 319.204 305.117 318.339 300.108 316.609C287.585 312.5 286.218 313.149 297.148 318.123C302.157 320.285 307.622 321.583 309.216 321.151C311.038 320.502 318.552 319.853 326.294 319.637ZM175.329 313.581C175.329 312.933 178.061 312.067 181.477 311.851C184.664 311.635 188.08 310.77 188.763 310.121C189.446 309.472 183.298 309.472 175.101 310.337C166.904 311.202 156.657 310.986 152.103 309.689C146.866 308.391 142.995 308.391 140.946 309.689C138.214 311.419 138.214 311.635 140.946 310.986C142.768 310.337 147.549 311.202 151.648 312.5C159.162 314.879 175.329 315.744 175.329 313.581ZM326.977 306.445C327.66 305.796 331.303 305.58 334.718 306.228C338.134 307.093 341.777 306.445 342.46 305.147C343.371 303.85 346.103 302.768 348.608 302.768C357.716 302.768 352.024 295.199 336.085 286.765C320.601 278.114 301.93 276.817 288.04 283.088C282.12 285.683 274.833 290.009 271.646 292.82C265.27 298.443 267.319 301.471 278.932 303.417C282.803 304.066 289.406 305.58 293.732 306.661C302.385 308.824 324.7 308.824 326.977 306.445ZM190.129 300.606C201.059 300.173 203.336 299.524 197.416 299.092C192.634 298.659 188.991 297.578 189.446 296.713C189.901 295.848 191.723 292.604 193.545 289.144L196.505 283.305L202.88 288.927C206.296 291.955 210.394 294.118 212.216 293.685C213.81 293.036 207.89 288.279 199.237 282.656C183.526 272.924 182.843 272.708 167.815 273.573C151.648 274.438 144.362 275.952 140.263 279.196C138.897 280.277 135.254 283.305 132.066 285.683L126.373 290.225L131.838 294.334C134.798 296.497 138.214 298.443 139.808 298.443C141.174 298.443 140.718 297.362 138.897 296.28C137.075 295.199 136.62 294.118 137.986 294.118C139.124 294.118 141.174 294.983 142.54 296.064C143.678 297.362 147.322 298.443 150.737 298.875C154.153 299.308 157.34 300.173 158.024 300.822C159.162 301.903 163.716 301.903 190.129 300.606ZM348.38 271.41C344.51 267.085 329.026 260.381 318.779 258.434C313.542 257.569 308.533 258.218 304.207 260.381C300.563 262.111 296.693 263.192 295.554 262.543C292.594 260.813 293.505 263.841 296.693 266.869C298.514 268.599 301.247 269.031 303.979 267.95C311.721 265.138 326.294 266.003 338.134 270.112C344.51 272.275 349.974 274.221 350.43 274.438C350.885 274.438 349.974 273.14 348.38 271.41ZM141.174 258.867C141.174 257.569 145.5 257.353 153.242 258.434C159.617 259.299 168.725 260.381 173.052 260.813C177.378 261.462 182.615 261.894 184.437 262.327C191.04 263.192 190.129 258.434 182.843 254.974C178.061 252.811 170.319 251.73 160.073 251.73C146.411 252.163 143.451 252.811 137.758 257.785C131.838 262.976 131.838 263.625 136.164 262.327C138.897 261.678 141.174 260.164 141.174 258.867Z" fill="#8E2E3F"/>
<path d="M229.066 545.415C228.61 544.983 224.74 544.55 220.641 544.55C207.207 544.334 191.268 534.818 172.596 516.22C162.805 506.488 154.153 496.756 153.47 494.81C152.786 492.647 151.42 490.917 150.509 490.917C149.599 490.917 146.866 487.457 144.362 483.348C142.085 479.239 139.352 475.779 138.441 475.779C137.531 475.779 132.521 468.642 127.284 460.208C121.819 451.557 115.899 442.907 113.622 441.176C109.979 438.149 100.643 417.171 102.237 415.441C102.465 415.009 101.782 413.927 100.188 413.062C96.7724 411.116 93.8123 379.974 94.4954 350.346C94.9508 336.721 94.7231 327.855 94.04 330.882C89.7137 354.239 89.486 356.618 91.763 355.32C93.1292 354.455 93.5846 355.32 92.6738 357.699C91.763 359.862 91.0799 363.754 91.0799 366.566C91.0799 370.458 89.486 371.756 84.2489 372.405C71.4977 374.135 69.6761 370.675 68.0822 343.426C67.1714 330.017 65.8052 315.528 64.6667 311.419C63.5282 307.31 62.6174 301.038 62.8451 297.362C63.0728 293.901 62.162 289.792 61.0235 288.279C59.6573 286.548 59.6573 281.358 61.4789 273.789C64.6667 259.083 75.1409 247.405 81.9719 250.865C87.8921 253.893 88.5752 253.676 87.209 248.919C86.5259 246.54 87.209 242.863 88.5752 240.701C90.6245 237.241 90.8522 237.241 91.0799 242.215C91.3076 247.189 91.5353 247.189 93.3569 243.296C94.4954 240.917 95.4062 240.268 95.4062 241.998C95.6339 244.161 96.317 244.377 98.8217 242.431C101.326 240.484 102.465 240.484 103.831 242.431C107.019 247.621 109.751 234.862 110.662 209.775C111.573 187.5 112.256 183.607 118.404 171.713C124.779 159.17 125.69 158.305 137.986 154.628C145.728 152.249 154.38 151.168 160.528 152.033C166.676 152.465 171.002 152.033 171.458 150.735C172.369 147.924 188.308 147.059 245.916 146.626C270.279 146.41 292.366 147.059 294.871 148.14C297.376 149.005 301.474 150.303 303.979 150.519C317.869 152.465 324.244 153.763 326.521 155.277C327.887 156.358 333.125 157.439 338.134 157.656C343.143 157.872 351.568 160.035 357.033 162.63C365.002 166.09 367.963 169.334 372.517 178.633C377.298 188.581 377.981 193.555 378.437 216.047C378.437 230.32 379.575 241.566 380.714 240.917C381.625 240.268 382.535 241.133 382.763 242.647C382.763 244.161 383.674 243.512 384.812 241.133C385.951 238.754 386.862 238.106 386.862 239.619C387.089 241.133 388.911 242.215 390.96 241.782C394.376 241.133 395.059 242.863 395.287 251.946C395.287 258.002 394.376 264.057 393.01 265.571C391.416 267.734 392.099 268.382 396.425 267.95C408.038 266.869 411.225 268.166 415.324 275.519C418.74 281.791 419.195 285.467 417.829 297.794C416.918 305.796 414.869 315.744 413.047 319.637C409.176 328.72 402.345 363.322 402.573 372.837C403.028 382.137 394.148 389.922 385.723 387.976C382.08 387.111 381.397 384.948 381.625 376.298C381.625 370.458 383.218 363.971 385.04 361.808C388 358.348 387.772 358.132 384.585 360.727C381.169 363.106 380.941 361.592 381.625 343.426C382.308 332.612 382.08 324.178 381.397 324.611C380.258 325.692 378.892 341.479 376.843 376.298C376.16 386.462 375.249 399.005 374.794 404.412C373.883 415.009 361.815 443.988 355.439 450.908C350.657 456.099 342.916 467.561 342.688 469.723C342.688 471.67 319.69 495.675 296.01 518.382C277.11 536.548 267.775 542.388 256.162 543.253C252.974 543.469 250.47 544.55 250.47 545.632C250.47 547.362 230.887 547.145 229.066 545.415ZM242.728 527.682C246.371 526.384 251.153 522.924 253.43 520.112C256.617 515.787 256.845 514.922 253.885 516.003C252.063 516.652 250.47 518.382 250.47 519.464C250.47 521.843 228.61 520.761 218.592 517.734C213.355 516.22 213.127 516.436 216.315 520.112C219.275 523.573 230.66 529.412 234.758 529.844C235.441 529.844 239.085 528.763 242.728 527.682ZM234.531 494.81C234.531 496.107 236.125 497.405 237.946 497.405C239.768 497.405 241.362 496.54 241.362 495.675C241.362 493.728 252.747 487.673 255.479 488.322C256.39 488.538 258.439 486.592 259.805 483.997C261.171 481.401 263.448 478.157 264.587 477.076C265.725 475.779 272.556 466.696 280.071 456.964C287.585 447.016 294.643 439.014 296.01 439.014C297.148 439.014 298.286 437.933 298.286 436.635C298.286 435.121 296.01 434.689 292.139 435.77C288.495 436.635 284.169 437.5 282.348 437.933C254.34 442.69 248.193 444.204 248.193 445.934C248.193 447.016 247.054 447.232 245.46 446.367C244.094 445.502 238.857 445.069 234.075 445.069C229.066 445.285 222.918 444.42 220.186 442.907C217.453 441.393 213.127 440.095 210.622 439.879C208.117 439.446 200.148 437.933 193.089 436.202C185.803 434.472 179.883 433.391 179.883 434.04C179.883 434.472 178.061 433.824 175.556 432.742C168.498 429.066 168.042 432.958 174.646 438.798C178.289 442.042 183.981 450.692 187.852 458.045C191.495 465.614 196.277 472.751 198.554 473.832C200.831 474.914 202.653 477.941 202.653 480.104C202.653 482.483 204.247 484.429 206.068 484.429C207.89 484.429 210.622 486.375 212.216 488.754C213.81 491.133 215.859 493.08 216.998 493.08C217.909 493.08 218.136 492.215 217.453 490.917C216.77 489.619 217.681 489.403 219.502 490.052C221.552 490.701 222.69 492.215 222.007 493.08C221.324 494.161 222.918 494.377 225.423 493.728C228.383 493.08 229.977 493.728 229.977 495.458C229.977 497.837 230.432 497.837 232.254 495.242C233.62 493.08 234.531 492.863 234.531 494.81ZM243.411 403.33C244.094 402.465 242.045 402.465 238.629 403.114C234.986 403.763 231.343 402.898 229.749 400.952C228.383 399.438 226.333 398.573 225.195 399.221C224.056 399.87 223.146 399.005 223.146 397.275C223.146 391.869 215.176 387.111 207.662 387.976C203.791 388.408 200.148 387.76 199.465 386.678C199.009 385.813 198.782 386.029 199.009 387.543C199.465 389.273 202.88 390.138 207.89 390.138C212.444 389.922 215.859 390.571 215.632 391.436C215.404 392.301 216.087 393.166 217.225 393.166C218.364 393.382 220.413 395.545 221.779 398.356C223.146 401.168 225.65 403.33 227.017 403.33C228.383 403.33 230.204 403.979 231.115 404.844C232.709 406.358 241.134 405.277 243.411 403.33ZM250.47 398.789C250.47 400.087 252.519 398.789 255.251 395.978C258.667 392.517 262.082 391.22 267.319 391.652C275.972 392.517 286.674 385.597 288.04 378.46C288.495 376.081 288.04 374.568 286.674 375.216C285.535 376.081 285.08 377.379 285.763 378.244C286.218 379.325 283.941 382.353 280.526 385.164C276.2 388.841 272.329 390.138 267.092 389.706C262.082 389.273 258.439 390.355 255.251 393.382C252.519 395.978 249.786 397.924 248.876 397.708C247.965 397.708 246.826 398.789 246.371 400.519C245.916 402.465 246.371 402.249 247.965 400.087C249.331 398.356 250.47 397.708 250.47 398.789ZM192.862 381.272C190.585 379.109 188.991 378.676 187.852 380.407C187.169 381.92 187.624 382.569 189.218 382.353C190.812 381.92 192.406 383.002 192.634 384.516C193.317 389.706 194 390.355 195.139 387.543C195.822 385.813 194.911 383.002 192.862 381.272ZM285.991 369.161C285.308 365.052 280.298 357.699 280.071 360.727C280.071 362.889 279.16 362.673 276.427 360.078C274.378 358.132 272.101 357.05 271.646 357.699C270.963 358.348 273.695 361.375 277.566 364.619C281.437 367.647 283.941 371.324 283.031 372.405C282.348 373.702 282.803 374.135 284.169 373.486C285.308 372.621 286.218 370.675 285.991 369.161ZM200.376 360.078C201.514 360.727 202.88 360.294 203.791 358.997C204.702 357.699 206.068 357.266 207.207 357.915C208.345 358.564 209.711 358.132 210.394 357.05C211.988 354.888 206.068 355.104 203.563 357.266C202.88 358.132 200.831 358.132 199.009 357.483C197.188 356.834 195.822 357.483 195.822 358.78C195.822 360.078 194 361.159 191.951 361.159C188.535 361.159 188.308 361.592 191.268 363.322C193.545 364.619 195.139 364.403 196.505 362.024C197.643 360.294 199.237 359.429 200.376 360.078ZM326.294 319.637L340.411 319.42L325.61 318.123C317.413 317.474 310.582 317.474 310.127 318.339C309.671 319.204 305.117 318.339 300.108 316.609C287.585 312.5 286.218 313.149 297.148 318.123C302.157 320.285 307.622 321.583 309.216 321.151C311.038 320.502 318.552 319.853 326.294 319.637ZM175.329 313.581C175.329 312.933 178.061 312.067 181.477 311.851C184.664 311.635 188.08 310.77 188.763 310.121C189.446 309.472 183.298 309.472 175.101 310.337C166.904 311.202 156.657 310.986 152.103 309.689C146.866 308.391 142.995 308.391 140.946 309.689C138.214 311.419 138.214 311.635 140.946 310.986C142.768 310.337 147.549 311.202 151.648 312.5C159.162 314.879 175.329 315.744 175.329 313.581ZM326.977 306.445C327.66 305.796 331.303 305.58 334.718 306.228C338.134 307.093 341.777 306.445 342.46 305.147C343.371 303.85 346.103 302.768 348.608 302.768C357.716 302.768 352.024 295.199 336.085 286.765C320.601 278.114 301.93 276.817 288.04 283.088C282.12 285.683 274.833 290.009 271.646 292.82C265.27 298.443 267.319 301.471 278.932 303.417C282.803 304.066 289.406 305.58 293.732 306.661C302.385 308.824 324.7 308.824 326.977 306.445ZM190.129 300.606C201.059 300.173 203.336 299.524 197.416 299.092C192.634 298.659 188.991 297.578 189.446 296.713C189.901 295.848 191.723 292.604 193.545 289.144L196.505 283.305L202.88 288.927C206.296 291.955 210.394 294.118 212.216 293.685C213.81 293.036 207.89 288.279 199.237 282.656C183.526 272.924 182.843 272.708 167.815 273.573C151.648 274.438 144.362 275.952 140.263 279.196C138.897 280.277 135.254 283.305 132.066 285.683L126.373 290.225L131.838 294.334C134.798 296.497 138.214 298.443 139.808 298.443C141.174 298.443 140.718 297.362 138.897 296.28C137.075 295.199 136.62 294.118 137.986 294.118C139.124 294.118 141.174 294.983 142.54 296.064C143.678 297.362 147.322 298.443 150.737 298.875C154.153 299.308 157.34 300.173 158.024 300.822C159.162 301.903 163.716 301.903 190.129 300.606ZM348.38 271.41C344.51 267.085 329.026 260.381 318.779 258.434C313.542 257.569 308.533 258.218 304.207 260.381C300.563 262.111 296.693 263.192 295.554 262.543C292.594 260.813 293.505 263.841 296.693 266.869C298.514 268.599 301.247 269.031 303.979 267.95C311.721 265.138 326.294 266.003 338.134 270.112C344.51 272.275 349.974 274.221 350.43 274.438C350.885 274.438 349.974 273.14 348.38 271.41ZM141.174 258.867C141.174 257.569 145.5 257.353 153.242 258.434C159.617 259.299 168.725 260.381 173.052 260.813C177.378 261.462 182.615 261.894 184.437 262.327C191.04 263.192 190.129 258.434 182.843 254.974C178.061 252.811 170.319 251.73 160.073 251.73C146.411 252.163 143.451 252.811 137.758 257.785C131.838 262.976 131.838 263.625 136.164 262.327C138.897 261.678 141.174 260.164 141.174 258.867Z" fill="#966631"/>
<path d="M228.838 544.766C228.155 544.118 224.967 543.685 221.552 544.118C214.493 544.983 202.653 541.306 202.653 538.279C202.653 537.197 201.969 536.548 201.059 536.765C196.049 537.63 170.775 518.815 170.775 514.057C170.775 513.192 166.904 509.083 162.35 504.974C157.796 500.865 154.836 497.405 155.746 497.405C156.885 497.405 155.519 495.675 153.014 493.296C150.282 491.133 148.005 488.322 148.005 486.808C148.005 485.51 147.094 484.429 145.728 484.429C144.589 484.429 143.451 482.915 143.451 481.185C143.451 479.455 141.401 477.076 138.897 475.779C136.392 474.481 134.343 472.102 134.343 470.372C134.343 468.642 133.432 467.128 132.293 467.128C131.155 467.128 129.106 464.317 127.967 460.64C125.462 454.152 123.641 451.557 114.533 442.258C111.573 439.446 109.296 436.202 109.296 435.121C109.296 434.04 107.702 430.147 105.653 426.254C103.603 422.578 101.782 418.253 101.554 416.739C101.326 415.225 100.415 412.846 99.5046 411.332C95.1783 404.844 92.9013 336.938 96.7722 326.99C97.4553 325.476 96.9999 324.611 95.8614 325.26C93.3567 326.773 89.9413 352.941 90.8521 363.971C91.3074 371.107 90.852 372.189 87.2089 371.756C84.9319 371.324 81.7441 371.756 80.3779 372.621C78.5563 373.702 77.4178 373.27 77.4178 371.972C77.4178 370.675 76.507 370.026 75.3685 370.675C72.8638 372.189 70.1314 365.917 72.1807 362.889C72.8638 361.375 72.4084 361.159 70.8145 362.024C68.9929 363.106 68.3098 360.078 68.7652 349.914C69.2206 339.965 70.3591 336.505 72.4084 336.938C74.23 337.154 74.9131 336.505 74.0023 335.208C73.3192 333.91 71.4976 333.478 70.3591 334.126C68.7652 335.208 67.6267 325.476 68.5375 318.772C68.5375 317.907 67.6267 316.609 66.4882 315.96C65.122 315.311 63.9835 312.284 63.7558 309.256C63.0727 300.822 63.5281 298.01 66.0328 299.524C67.399 300.173 67.6267 299.308 66.9436 297.578C66.2605 295.632 64.4389 294.766 63.0727 295.632C61.7065 296.28 61.4788 295.848 62.3896 294.55C63.3004 293.253 62.6173 290.225 61.2511 288.062C59.6572 285.467 59.2018 282.223 60.3403 279.844C61.2511 277.465 61.9342 274.005 61.7065 272.059C61.4788 269.896 62.1619 268.166 63.5281 268.166C64.8943 268.166 65.3497 266.869 64.6666 265.355C64.2112 263.841 66.9436 259.516 70.8145 255.623C76.507 250.216 78.784 249.135 81.9718 250.865C87.892 253.893 88.5751 253.676 87.2089 248.919C86.5258 246.54 87.2089 242.863 88.5751 240.701C90.6243 237.24 90.8521 237.24 91.0798 242.215C91.3074 247.189 91.5351 247.189 93.3567 243.296C94.4952 240.917 95.406 240.268 95.406 241.998C95.6337 244.161 96.3168 244.377 98.8215 242.431C101.326 240.484 102.465 240.484 103.831 242.431C107.019 247.621 109.751 234.862 110.662 209.775C111.573 187.5 112.256 183.607 118.404 171.713C124.779 159.17 125.69 158.304 137.986 154.628C145.728 152.249 154.38 151.168 160.528 152.033C166.676 152.465 171.002 152.033 171.458 150.735C172.368 148.14 181.932 147.491 239.084 146.194C259.805 145.761 281.209 146.41 286.901 147.491C297.148 149.438 301.702 150.303 316.275 152.465C320.601 153.114 325.155 154.412 326.521 155.277C327.887 156.358 333.124 157.439 338.134 157.656C343.143 157.872 351.568 160.035 357.033 162.63C365.002 166.09 367.962 169.334 372.516 178.417C377.298 188.365 377.981 193.339 378.209 216.047C378.437 230.32 379.575 241.566 380.486 240.917C381.624 240.268 382.535 241.133 382.763 242.647C382.763 244.161 383.674 243.512 384.812 241.133C385.951 238.754 386.861 238.106 386.861 239.619C387.089 241.133 388.683 242.215 390.732 241.782C393.465 241.349 394.603 243.08 395.286 247.621C396.197 256.488 393.009 267.301 389.594 266.436C388 266.22 387.317 266.869 388.228 267.95C388.911 269.247 391.643 269.464 394.603 268.382C403.256 265.138 410.998 267.95 415.324 275.735C418.739 281.791 419.195 285.683 417.829 297.794C416.918 305.796 414.641 315.96 412.819 320.069C410.77 324.178 408.948 329.152 408.721 330.882C405.76 351.86 404.622 356.834 403.256 356.834C402.345 356.834 402.117 359.862 402.573 363.538C403.484 368.945 403.028 370.026 400.523 368.728C397.791 366.998 397.791 367.431 400.296 370.458C406.444 377.379 395.742 390.355 385.951 387.976C382.08 387.111 381.397 385.381 382.307 375.649C382.535 369.377 384.129 363.106 385.268 361.592C387.089 359.645 386.861 359.213 384.357 360.078C381.624 361.159 381.169 358.348 381.852 342.561C382.307 332.18 381.852 324.178 381.169 325.043C380.258 325.692 379.347 331.964 378.892 338.884C378.437 345.805 377.753 359.645 377.07 369.81C376.387 379.974 375.476 394.031 374.793 401.168C374.11 414.36 362.953 443.123 356.122 449.827C351.113 454.801 341.777 468.858 342.915 469.939C343.371 470.372 339.5 474.697 333.807 479.671C328.343 484.429 320.829 491.998 317.413 496.54C304.662 512.76 299.653 517.085 295.326 516.003C292.594 515.355 291.683 515.787 293.049 517.517C295.099 520.329 283.714 532.656 281.437 530.277C280.526 529.628 280.07 530.709 280.07 532.872C280.07 534.818 279.16 536.116 278.021 535.467C276.883 534.602 275.516 535.251 275.061 536.332C274.606 537.63 272.784 538.927 270.962 539.144C269.141 539.576 266.181 540.441 264.814 541.306C263.221 542.388 260.944 542.604 259.805 541.739C258.667 541.09 257.073 541.523 256.162 542.82C255.251 544.118 253.657 544.55 252.519 543.901C251.38 543.036 250.469 543.685 250.469 544.983C250.469 547.578 230.432 547.362 228.838 544.766ZM242.955 527.465C247.054 525.952 249.786 526.168 252.519 528.114C255.707 530.709 255.934 530.493 252.974 527.033C250.242 523.789 250.469 522.708 254.113 518.815C257.756 515.138 257.756 514.706 254.34 516.003C252.291 516.652 250.469 518.382 250.469 519.464C250.469 521.843 229.521 520.761 218.591 517.95C212.899 516.436 213.127 516.652 219.73 522.708C227.244 529.412 233.847 530.709 242.955 527.465ZM234.53 494.81C234.53 496.107 236.124 497.405 237.946 497.405C239.768 497.405 241.361 496.54 241.361 495.675C241.361 493.728 252.746 487.673 255.479 488.322C256.39 488.538 258.439 486.592 259.805 483.997C261.171 481.401 263.448 478.157 264.587 477.076C265.725 475.779 272.556 466.696 280.07 456.964C287.584 447.016 294.643 439.014 296.009 439.014C297.148 439.014 298.286 437.933 298.286 436.635C298.286 435.121 296.009 434.689 292.138 435.77C288.495 436.635 284.169 437.5 282.347 437.933C254.34 442.69 248.192 444.204 248.192 445.934C248.192 447.016 247.054 447.232 245.46 446.367C244.094 445.502 238.857 445.069 234.075 445.069C229.066 445.285 222.918 444.42 220.185 442.907C217.453 441.393 213.127 440.095 210.622 439.879C208.117 439.446 201.969 438.365 196.96 437.068C191.951 435.986 185.347 434.472 182.16 434.04C178.972 433.391 175.101 432.526 173.279 432.093C171.685 431.877 169.636 432.742 169.181 434.256C168.498 435.554 169.181 436.851 170.547 436.851C174.873 436.851 180.793 444.204 187.852 458.261C191.495 465.614 196.277 472.751 198.554 473.832C200.831 474.914 202.653 477.941 202.653 480.104C202.653 482.483 204.246 484.429 206.068 484.429C207.89 484.429 210.622 486.375 212.216 488.754C213.81 491.133 215.859 493.08 216.998 493.08C217.908 493.08 218.136 492.215 217.453 490.917C216.77 489.619 217.681 489.403 219.502 490.052C221.552 490.701 222.69 492.215 222.007 493.08C221.324 494.161 222.918 494.377 225.422 493.728C228.383 493.08 229.976 493.728 229.976 495.458C229.976 497.837 230.432 497.837 232.253 495.242C233.62 493.08 234.53 492.863 234.53 494.81ZM240.678 405.493C243.866 402.465 243.638 402.249 238.174 403.114C234.075 403.763 231.57 403.114 230.66 400.952C229.976 399.221 228.155 398.14 226.789 398.573C225.195 399.221 222.69 396.626 221.096 393.166C218.591 387.976 216.998 386.894 212.671 387.76C209.711 388.192 207.207 387.76 207.207 386.462C207.207 385.381 205.613 385.597 203.791 387.111C201.742 388.625 200.376 388.841 200.376 387.543C200.376 384.083 189.446 378.244 187.852 380.623C186.941 381.92 187.624 382.569 189.218 382.353C190.812 381.92 192.178 382.785 192.406 384.299C192.406 387.543 195.822 390.787 195.822 387.543C195.822 386.029 197.871 386.894 200.376 389.273C204.019 392.734 206.068 393.166 209.484 391.436C214.493 388.841 216.542 388.625 215.859 391.003C215.404 391.869 216.087 392.734 217.225 392.95C218.364 393.166 220.413 395.545 221.779 398.356C223.145 401.168 225.65 403.33 227.016 403.33C228.61 403.33 231.115 404.628 232.709 406.142C236.124 409.386 236.352 409.386 240.678 405.493ZM250.469 398.789C250.469 400.087 252.746 398.573 255.251 395.978C259.122 392.085 262.082 391.22 268.23 391.869C274.378 392.517 277.338 391.652 282.12 387.327C288.268 381.488 291.455 371.972 285.535 376.514C283.714 377.811 282.803 379.758 283.486 380.623C283.941 381.488 282.12 384.083 279.387 386.246C275.744 389.273 272.329 390.138 267.547 389.273C262.538 388.192 259.577 389.057 256.162 392.517C253.43 395.112 250.242 396.843 248.648 396.194C247.054 395.761 245.915 397.275 245.915 399.438C245.915 402.682 246.371 402.898 248.192 400.087C249.331 398.356 250.469 397.708 250.469 398.789ZM188.763 375.433C190.812 373.054 190.584 372.189 187.397 371.107C185.12 370.242 184.209 370.242 185.12 371.107C186.03 371.972 185.575 373.919 184.209 375.649C182.615 377.379 182.387 378.46 183.981 378.46C185.12 378.46 187.397 377.163 188.763 375.433ZM285.991 368.296C286.446 366.35 285.08 363.538 283.258 361.808C280.981 359.429 280.07 359.429 280.07 361.375C280.07 362.889 278.704 362.241 276.883 359.862C275.061 357.699 273.012 356.401 272.101 357.266C271.19 357.915 273.695 361.375 277.566 365.052C281.437 368.512 284.169 371.972 283.486 372.621C282.803 373.486 283.03 373.702 283.941 373.054C284.852 372.405 285.763 370.242 285.991 368.296ZM200.376 360.078C201.514 360.727 202.88 360.294 203.791 359.213C204.474 357.915 206.523 357.483 208.345 358.348C210.167 358.997 211.76 358.564 211.76 357.266C211.76 355.32 207.207 355.32 202.653 356.834C201.969 357.05 199.692 357.05 197.188 356.834C194.683 356.618 193.772 357.483 194.455 358.78C195.366 360.078 194.228 361.159 191.951 361.159C188.535 361.159 188.307 361.592 191.268 363.322C193.545 364.619 195.138 364.403 196.505 362.024C197.643 360.294 199.237 359.429 200.376 360.078ZM339.045 318.772C339.5 318.339 334.946 317.907 328.798 317.69C322.65 317.69 315.819 317.258 313.77 316.825C311.493 316.393 309.671 317.042 309.671 318.123C309.671 319.42 308.077 319.42 305.8 318.339C303.523 317.258 298.742 315.744 294.871 315.095C288.723 313.798 288.723 314.014 296.692 317.69C303.296 320.718 308.988 321.367 321.739 320.502C330.847 320.069 338.589 319.204 339.045 318.772ZM175.329 313.149C175.329 312.284 177.15 312.067 179.427 312.5C181.704 312.933 185.12 312.284 186.714 311.419C188.535 310.337 182.16 309.689 171.685 309.905C161.894 310.121 150.282 309.689 146.411 308.824C138.669 307.526 133.887 309.905 140.035 312.284C141.857 312.933 143.451 312.284 143.451 310.986C143.451 309.472 144.361 309.472 146.411 310.986C150.965 314.446 175.329 316.393 175.329 313.149ZM326.749 306.661C328.115 305.796 330.62 306.012 332.441 307.093C334.263 308.175 337.451 307.958 340.183 306.445C342.915 305.147 347.014 303.849 349.291 303.417C355.894 302.336 355.894 302.119 348.38 294.118C344.509 290.009 341.549 287.63 341.549 288.495C341.549 289.36 337.906 288.062 333.352 285.251C324.244 280.061 291.455 276.384 291.455 280.709C291.455 281.791 289.178 283.305 286.218 283.953C283.486 284.818 277.793 287.846 273.695 291.09C268.002 295.632 266.864 297.578 268.913 299.74C270.279 301.471 273.922 302.768 276.655 302.768C279.615 302.768 284.397 304.066 287.584 305.58C293.732 308.607 322.422 309.256 326.749 306.661ZM204.246 299.74C205.157 299.092 201.969 298.443 197.415 298.443C192.861 298.443 188.991 298.01 188.991 297.362C188.991 296.929 190.812 293.469 193.089 289.792L197.415 283.305L202.653 288.711C208.573 294.766 214.721 296.064 212.671 290.874C211.76 289.144 210.167 287.63 209.028 287.63C207.89 287.63 201.514 284.17 194.911 280.277C183.981 273.14 182.16 272.708 167.814 273.573C150.965 274.438 143.906 276.168 139.807 279.844C138.441 281.142 135.026 283.737 132.293 285.467C129.789 287.197 127.512 289.792 127.512 291.09C127.512 294.334 137.986 298.227 148.688 298.875C153.469 299.092 157.796 299.957 158.479 300.822C159.617 302.552 202.425 301.471 204.246 299.74ZM348.38 271.41C341.094 262.976 312.176 254.758 306.256 259.516C304.434 260.813 301.93 261.462 300.563 260.597C299.425 259.948 298.286 260.381 298.286 261.678C298.286 262.976 297.376 263.408 296.009 262.76C292.822 260.813 293.277 263.625 296.692 266.869C298.514 268.599 301.246 269.031 303.979 267.95C311.721 265.138 326.293 266.003 338.134 270.112C344.509 272.275 349.974 274.221 350.43 274.438C350.885 274.438 349.974 273.14 348.38 271.41ZM283.486 270.545C282.803 269.464 283.941 266.869 285.991 265.138C287.812 263.192 288.268 261.678 286.901 261.678C285.535 261.678 283.941 263.192 283.258 264.922C282.347 266.652 280.981 268.166 279.615 268.166C278.476 268.166 278.249 267.301 278.932 266.003C281.209 262.543 278.704 263.625 275.289 267.517C273.467 269.464 273.239 270.545 274.378 269.896C275.744 269.031 278.249 269.247 280.07 270.545C284.397 272.924 285.307 272.924 283.486 270.545ZM294.871 270.329C295.554 269.247 294.643 268.166 292.822 268.166C291 268.166 288.723 269.247 288.04 270.329C287.357 271.626 288.268 272.491 290.089 272.491C291.911 272.491 294.188 271.626 294.871 270.329ZM201.514 268.166C200.831 267.085 201.286 266.003 202.425 266.003C203.791 266.003 204.93 267.085 204.93 268.599C204.93 269.896 205.613 270.545 206.296 269.68C208.8 267.301 203.791 261.894 200.603 263.625C197.871 265.355 198.782 270.329 201.742 270.329C202.425 270.329 202.197 269.464 201.514 268.166ZM190.357 258.218C190.584 256.272 190.357 255.407 189.674 256.055C188.763 256.704 186.03 256.055 183.526 254.542C180.566 252.811 172.141 251.73 161.667 251.73C146.183 251.946 143.678 252.595 137.758 257.785C131.838 262.976 131.838 263.408 136.164 262.327C138.897 261.678 141.174 260.381 141.174 259.299C141.174 256.272 153.242 256.92 163.716 260.597C170.319 262.76 173.052 262.976 173.052 261.246C173.052 259.299 173.735 259.299 175.556 261.029C176.922 262.327 179.655 262.976 181.249 262.327C183.07 261.678 184.437 262.543 184.437 264.057C184.437 267.95 189.674 262.976 190.357 258.218Z" fill="#96513E"/>
<path d="M203.108 538.279C189.674 532.439 179.655 524.438 170.775 512.543C166.676 507.137 166.448 505.839 169.408 504.758C172.141 503.676 172.141 503.028 168.953 499.784C166.904 497.621 164.171 496.324 163.26 496.972C162.122 497.405 163.26 499.135 165.31 500.432C168.27 502.595 168.498 503.676 166.448 504.758C164.854 505.839 163.488 506.055 163.033 505.839C160.073 501.081 141.857 478.59 140.035 476.86C138.669 475.779 133.66 468.426 128.878 460.64C124.096 452.855 117.948 444.204 114.988 441.176C112.256 438.149 108.157 431.012 105.88 424.957C103.603 419.118 100.643 412.846 99.2769 411.116C97.683 409.17 96.7722 391.22 96.5445 361.808C96.3168 336.289 95.6337 314.879 94.7229 314.23C93.8121 313.365 93.5844 314.663 93.8121 317.041C94.2675 319.204 93.5844 327.422 92.6736 334.991C91.3074 344.723 90.1689 348.183 88.5751 345.804C86.9812 343.426 86.5258 343.426 86.5258 346.67C86.5258 348.616 87.4366 350.346 88.5751 350.346C90.1689 350.346 90.3966 356.185 89.0304 366.349C88.8027 367.215 86.0704 366.349 82.6549 364.187C76.507 360.51 76.2793 360.51 79.6948 364.403C82.6549 367.863 82.6549 368.296 79.6948 367.215C77.8732 366.782 76.2793 363.754 76.0516 360.943C75.8239 349.913 75.3685 348.832 72.8638 352.509C71.7253 354.239 70.5868 354.888 70.5868 354.022C70.5868 353.157 72.4084 349.697 74.4577 346.67C77.6455 342.128 77.8732 341.263 75.1408 342.777C72.4084 344.291 72.1807 344.074 74.23 341.479C75.3685 339.749 76.7347 335.208 77.1901 331.099C77.6455 325.476 77.1901 324.394 74.6854 325.692C72.6361 326.773 72.6361 326.125 75.1408 323.313C77.1901 320.934 77.4178 319.853 75.8239 320.934C73.7746 322.016 72.8638 320.934 72.8638 318.123C72.8638 315.528 73.0915 313.149 73.5469 312.932C73.7746 312.5 72.4084 310.337 70.5868 308.175C68.5375 305.796 68.3098 304.715 69.9037 305.796C71.4976 306.661 72.8638 306.228 72.8638 305.147C72.8638 303.849 72.1807 302.768 71.2699 302.768C66.9436 302.768 67.399 266.003 71.7253 262.327C72.6361 261.246 72.8638 261.894 71.7253 263.625C70.5868 265.571 70.8145 266.22 72.4084 265.138C74.0023 264.273 75.1408 261.678 75.1408 259.516C75.1408 255.623 78.3286 254.974 83.5657 258.002C85.615 259.299 86.0704 258.65 85.1596 255.839C84.0211 252.595 84.2488 252.379 86.2981 255.19C87.6643 256.92 88.8027 260.381 88.8027 262.759C89.0304 266.652 89.2582 266.652 91.3074 262.111C92.4459 259.299 94.4952 257.785 95.8614 258.65C97.4553 259.516 97.4553 258.218 95.6337 254.974C92.6736 249.784 92.6736 249.784 97.4553 253.676C99.96 256.055 101.782 259.516 101.326 261.894C100.871 264.273 101.326 265.571 102.465 264.922C103.376 264.273 104.059 262.111 103.831 259.948C103.376 258.002 104.514 252.379 106.336 247.621C109.523 238.754 111.117 224.913 111.8 198.313C112.028 186.635 113.622 180.58 118.631 170.848C124.779 159.386 126.145 158.088 137.303 154.844C143.906 152.898 153.925 151.817 159.845 152.249C165.765 152.682 171.002 152.249 171.23 151.168C172.596 147.708 257.756 144.247 264.587 147.491C266.864 148.573 268.685 148.356 269.141 146.843C269.824 144.896 273.695 144.896 283.486 146.843C291 148.356 299.425 149.654 302.157 149.87C304.89 150.086 307.85 150.952 308.761 152.033C309.671 152.898 313.77 153.547 317.868 153.547C321.967 153.547 325.838 154.412 326.521 155.277C327.204 156.358 331.986 157.223 337.223 157.439C352.479 158.088 365.913 165.441 371.378 176.038C376.843 186.635 377.981 194.853 378.892 223.832C379.347 242.431 380.258 249.567 382.535 255.19C382.763 255.839 382.991 257.137 382.763 258.002C382.535 259.083 383.446 259.299 384.812 258.434C386.178 257.785 386.634 256.272 385.951 255.19C385.268 254.109 385.951 252.595 387.317 251.946C388.911 250.865 389.594 252.163 389.138 255.407C388.683 258.218 389.366 261.894 390.277 263.625C391.643 265.787 391.415 266.22 389.822 265.138C388.228 264.273 387.089 264.922 387.089 266.868C387.089 268.815 388.228 270.329 389.594 270.329C390.732 270.329 391.415 271.194 390.732 272.275C390.049 273.356 391.188 275.519 393.237 277.033C396.653 279.628 396.88 279.628 395.742 276.6C394.603 273.789 395.514 273.14 399.613 273.356C402.573 273.356 404.394 274.221 403.711 275.303C403.256 276.168 404.167 276.817 406.216 276.817C408.038 276.817 409.859 275.519 410.542 274.221C410.998 272.708 411.453 277.682 411.225 285.467C411.225 293.253 410.087 300.173 408.948 301.038C407.582 301.903 407.81 303.633 409.631 305.58C411.453 307.742 411.453 309.256 410.087 310.121C408.721 310.986 408.265 312.932 409.176 314.663C409.859 316.393 409.176 317.907 407.582 317.907C406.216 317.907 405.533 318.772 406.444 319.853C407.127 320.934 406.671 322.448 405.305 323.313C403.711 324.178 403.939 326.341 405.76 329.368C408.038 333.694 408.038 333.91 404.622 331.315C401.434 328.72 400.751 328.936 399.613 333.477C398.93 336.073 398.246 343.642 397.791 349.697C397.563 355.969 396.653 361.159 395.742 361.159C394.831 361.159 394.603 365.268 395.059 370.458C395.969 382.353 395.969 382.353 398.474 378.46C399.613 376.73 400.751 376.298 400.751 377.595C400.751 381.488 397.791 382.785 394.603 380.407C393.009 379.109 391.643 378.893 391.643 379.974C391.643 381.055 389.822 381.92 387.545 382.137C384.129 382.353 383.446 380.839 383.218 373.486C382.991 368.512 384.129 363.106 385.268 361.592C387.089 359.645 386.861 359.213 384.129 360.294C381.624 361.159 380.941 360.51 381.624 357.483C383.446 350.562 383.674 317.907 382.08 317.907C380.941 317.907 380.03 321.15 379.803 325.043C378.892 342.993 378.437 348.4 377.07 365.484C376.387 375.649 375.021 390.571 374.566 399.005C373.655 408.304 371.15 418.469 367.735 425.389C364.775 431.661 362.725 436.851 363.181 436.851C364.319 436.851 342.005 468.426 334.946 476.86C331.53 480.969 329.253 482.266 328.57 480.753C327.887 479.239 326.521 477.941 325.155 477.941C323.789 477.941 324.016 479.455 325.838 481.401C327.66 483.564 327.887 485.294 326.521 486.159C325.155 487.024 321.284 491.566 317.413 496.324C307.85 508.867 305.573 510.813 302.613 509.083C301.019 508.218 300.563 508.434 301.246 509.732C303.068 512.543 297.148 517.734 294.188 516.003C292.822 515.355 292.138 516.436 292.366 518.599C292.366 520.761 291 522.059 288.723 522.059C286.446 521.843 285.307 522.491 285.763 523.356C287.357 525.952 276.199 536.116 268.913 538.927C257.756 543.036 253.885 543.469 235.214 543.901C219.502 544.118 214.493 543.253 203.108 538.279ZM224.284 535.9C224.056 533.304 222.462 530.709 220.641 530.277C217.908 529.628 217.908 529.844 220.641 531.574C222.918 533.088 222.918 533.953 220.868 535.251C218.819 536.548 218.819 537.413 221.096 538.711C222.918 539.792 224.284 540.657 224.512 540.657C224.512 540.657 224.512 538.495 224.284 535.9ZM245.915 536.548C245.915 535.467 248.192 533.953 251.153 533.521C255.934 532.656 255.934 532.656 251.38 532.223C248.648 532.223 245.232 533.521 243.638 535.251C241.589 537.413 241.589 538.495 243.411 538.495C244.777 538.495 245.915 537.63 245.915 536.548ZM261.854 536.332C260.033 535.251 259.35 533.737 260.26 532.872C260.944 532.007 263.221 532.656 265.27 534.17C267.091 535.683 268.685 535.9 268.685 534.818C268.685 533.737 265.953 531.574 262.765 530.277C257.528 527.898 257.073 523.356 262.082 523.356C263.448 523.356 263.676 524.221 262.993 525.519C262.082 526.817 263.221 527.033 265.498 526.168C268.913 524.87 268.913 524.654 265.27 522.924C262.538 521.41 260.26 521.843 257.3 524.438C254.113 527.033 252.746 527.249 251.38 525.303C250.469 523.573 251.608 521.194 254.796 519.247C268.23 510.164 274.606 503.46 278.021 494.81C280.298 489.836 282.575 483.564 283.486 481.185C284.624 478.806 285.763 474.481 286.218 471.453C286.901 466.912 288.04 461.505 290.317 454.152C290.545 453.503 291.455 449.827 292.366 446.15C293.277 442.258 295.099 439.014 296.237 439.014C300.336 439.014 298.286 432.526 292.138 426.038C285.991 419.766 284.852 419.334 266.864 419.118C252.974 418.901 247.282 419.766 245.915 421.929C244.322 424.308 241.361 424.092 228.383 421.064C219.958 419.118 206.979 417.171 199.92 416.739C187.624 415.874 186.486 416.306 177.606 424.092C168.953 431.877 166.221 436.851 170.547 436.851C173.052 436.851 174.873 444.204 176.695 459.559C177.15 465.398 179.199 472.535 181.249 475.13C183.07 477.941 183.981 480.104 183.298 480.104C182.615 480.104 184.664 484.645 187.624 490.484C193.089 500 206.979 514.273 221.779 525.086C228.61 530.061 239.995 531.358 245.915 527.682C247.737 526.6 250.242 526.6 251.608 527.682C252.746 528.547 254.796 529.628 256.162 529.628C257.3 529.844 258.439 531.142 258.667 532.656C259.122 537.63 259.577 538.495 262.538 538.495C264.359 538.495 264.131 537.846 261.854 536.332ZM210.622 534.386C211.305 533.304 210.85 531.791 209.484 530.926C208.117 530.061 207.662 528.547 208.345 527.465C209.028 526.384 208.117 526.168 205.84 527.033C202.425 528.114 202.425 528.547 206.068 530.493C209.256 532.223 209.484 532.872 206.979 534.386C204.93 535.683 204.702 536.332 206.523 536.332C207.89 536.332 209.711 535.467 210.622 534.386ZM272.101 530.061C271.418 528.763 272.784 527.033 274.833 525.735C277.11 524.438 277.793 523.356 276.199 523.356C274.833 523.356 273.239 522.059 272.556 520.761C272.101 519.247 271.873 519.68 272.329 521.843C272.556 524.005 271.418 526.384 269.368 527.033C266.636 528.114 266.636 528.547 269.141 530.061C273.012 532.439 273.695 532.439 272.101 530.061ZM203.336 522.708C202.653 521.626 201.286 522.059 200.148 523.573C198.782 525.952 197.643 525.952 195.366 523.789C193.317 521.843 193.317 521.194 196.049 521.194C198.326 520.977 198.099 520.545 195.138 518.815C193.089 517.517 191.723 515.787 192.406 514.49C193.089 513.408 192.178 513.192 189.901 514.057C186.486 515.355 186.486 515.571 189.901 517.301C193.089 519.031 193.317 520.112 191.04 522.491C189.674 524.221 188.991 526.168 189.901 527.033C190.584 527.682 191.268 527.249 191.268 525.735C191.268 524.221 192.406 523.789 193.545 524.438C194.911 525.303 195.366 526.817 194.683 527.898C193.772 528.979 195.822 528.763 199.009 527.465C202.197 525.952 204.246 524.005 203.336 522.708ZM286.218 516.652C284.169 515.355 282.803 513.625 283.486 512.543C284.169 511.462 283.714 510.164 282.575 509.516C281.437 508.65 280.753 509.516 280.981 510.813C281.664 515.355 284.624 519.031 287.584 519.031C289.178 519.031 288.495 517.95 286.218 516.652ZM290.317 509.516C287.812 507.785 287.129 504.974 287.812 500.865C288.495 497.405 288.268 495.242 287.584 496.107C284.852 498.702 284.397 506.488 286.901 509.299C288.04 510.597 288.495 512.543 287.584 513.408C286.674 514.273 287.584 514.273 289.861 513.408C293.505 512.111 293.505 511.894 290.317 509.516ZM186.941 510.597C185.347 509.516 184.437 507.353 184.892 505.839C185.575 504.109 183.298 498.919 179.883 494.161C176.467 489.403 173.052 483.997 172.141 482.266C171.458 480.32 171.002 480.969 171.685 483.78C172.141 486.375 171.913 488.971 171.002 489.403C170.319 489.836 171.002 489.836 172.596 489.403C174.418 489.187 175.329 490.052 174.645 491.349C174.19 492.863 172.596 493.945 171.23 493.728C169.864 493.296 169.181 494.593 170.091 496.54C170.775 498.486 172.141 499.135 172.824 498.054C174.645 495.675 179.883 494.81 180.11 496.972C181.021 506.704 183.753 512.543 187.169 512.543C189.446 512.543 189.446 512.111 186.941 510.597ZM296.465 507.569C294.871 505.839 294.415 504.109 295.099 503.244C295.782 502.595 295.326 500.216 293.732 498.054C291.455 494.593 291.455 494.593 292.594 499.135C293.505 501.946 293.049 503.893 291.683 503.893C290.317 503.893 291 505.623 293.277 507.785C297.603 512.327 300.336 512.111 296.465 507.569ZM178.516 509.083C176.922 508.434 176.239 505.839 176.695 503.244C177.606 498.702 177.606 498.702 175.556 502.811C173.279 507.785 174.418 510.381 178.289 510.164C180.338 510.164 180.338 509.732 178.516 509.083ZM303.979 499.567C304.662 498.486 306.939 498.054 309.216 498.702C312.404 499.784 312.404 499.567 309.899 497.837C305.117 494.593 304.89 488.754 309.216 488.538C312.404 488.538 312.404 488.105 309.671 487.24C307.85 486.592 305.573 484.862 304.662 483.564C303.751 482.266 303.296 484.862 303.751 489.403C304.434 495.242 303.523 498.054 300.791 499.567C298.742 500.649 298.286 501.73 299.88 501.73C301.246 501.73 303.068 500.865 303.979 499.567ZM299.88 491.566C300.108 486.375 300.108 486.159 298.286 489.836C295.782 495.458 295.554 497.405 297.831 497.405C298.742 497.405 299.653 494.81 299.88 491.566ZM316.502 491.998C318.096 490.268 318.324 488.754 316.958 488.754C315.819 488.754 313.542 490.268 311.948 491.998C310.354 493.728 310.127 495.242 311.493 495.242C312.631 495.242 314.908 493.728 316.502 491.998ZM161.211 480.104C159.617 477.725 158.023 476.427 157.34 476.86C156.885 477.509 157.568 479.239 158.934 480.753C160.984 482.915 160.756 485.078 158.023 488.971L154.38 494.161L159.162 489.187C163.033 485.078 163.26 483.348 161.211 480.104ZM155.974 482.699C152.559 480.536 153.242 475.995 157.113 473.616C158.934 472.535 159.617 471.453 158.251 471.453C157.113 471.67 153.925 472.967 151.648 474.697C149.143 476.427 148.46 477.941 149.826 477.941C151.42 477.941 152.331 478.59 152.331 479.671C151.648 482.915 152.559 484.429 155.519 484.429C157.34 484.429 157.34 483.78 155.974 482.699ZM166.676 478.59C164.627 477.725 164.399 476.644 166.221 474.697C168.042 472.751 167.587 471.67 164.854 470.588C161.667 469.507 161.667 468.642 164.171 465.398C167.131 462.154 166.904 461.938 163.26 464.749C160.528 466.912 160.073 468.426 161.667 470.372C163.033 471.886 163.944 474.048 163.716 474.913C163.033 478.59 163.944 480.104 166.904 479.888C168.953 479.888 168.953 479.455 166.676 478.59ZM319.69 477.509C319.007 476.644 320.145 475.13 321.967 474.481C324.016 473.832 324.927 472.318 324.244 471.021C323.561 469.939 321.284 471.021 319.462 473.4C317.641 475.995 315.136 477.292 313.77 476.644C312.404 475.779 311.948 475.995 312.631 477.292C313.314 478.374 315.591 479.455 317.413 479.455C319.235 479.455 320.373 478.59 319.69 477.509ZM147.777 464.965C147.777 463.019 146.866 463.235 145.728 466.047C144.589 468.426 143.678 471.886 143.678 473.616C143.678 475.562 144.589 475.346 145.728 472.535C146.866 470.156 147.777 466.695 147.777 464.965ZM333.807 470.588C334.035 468.426 335.401 465.614 336.768 464.317C338.134 463.019 339.272 460.856 339.272 459.775C339.272 458.477 337.223 460.208 334.946 463.668C332.441 467.344 330.847 470.804 331.53 471.67C331.986 472.535 331.303 473.832 330.164 474.265C328.798 474.913 329.026 475.13 330.392 474.913C331.986 474.697 333.352 472.751 333.807 470.588ZM323.333 463.884C323.333 463.235 320.829 464.317 317.868 466.479C314.908 468.642 312.859 471.021 313.314 471.886C314.453 473.4 323.333 466.047 323.333 463.884ZM142.312 463.019C142.768 460.64 143.906 457.396 144.589 456.315C145.5 455.017 145.045 452.855 143.906 451.341C142.768 449.827 142.084 447.016 142.312 445.069C142.768 442.907 142.084 441.176 140.718 441.176C139.352 441.176 138.897 442.69 139.807 444.42C140.491 446.15 139.807 447.664 138.441 447.664C136.847 447.664 137.53 448.962 140.035 450.476C142.312 452.206 143.451 454.585 142.54 456.099C140.491 459.343 138.214 470.804 140.035 469.074C140.718 468.209 141.629 465.614 142.312 463.019ZM161.667 458.477C161.667 456.747 160.073 458.045 158.251 461.505C153.925 469.291 153.925 471.237 158.251 465.83C160.073 463.668 161.439 460.208 161.667 458.477ZM333.807 460.424C334.491 459.126 334.035 456.964 332.669 455.666C330.62 453.72 330.164 453.936 331.303 456.747C332.214 459.126 331.303 460.64 328.57 461.289C325.155 462.154 324.927 462.37 328.343 462.586C330.392 462.586 332.897 461.721 333.807 460.424ZM320.145 458.694C316.047 457.18 316.275 456.747 322.422 450.908C326.066 447.448 326.976 446.15 324.472 447.881C321.967 449.394 317.868 452.855 315.136 455.45L310.582 459.991L317.413 460.208C322.65 460.208 323.333 459.775 320.145 458.694ZM134.343 453.071C134.343 451.341 132.066 448.962 129.333 447.664C124.552 445.502 124.552 445.502 128.195 448.313C130.244 450.043 132.066 452.422 132.066 453.936C132.066 455.234 132.521 456.315 133.204 456.315C133.887 456.315 134.343 454.801 134.343 453.071ZM163.716 449.178C163.716 447.232 163.26 447.448 162.35 449.394C161.894 450.692 160.3 451.557 159.162 450.692C155.746 448.746 156.885 445.502 161.211 445.285C164.854 445.069 164.854 444.853 160.984 443.988C157.568 443.123 157.34 442.474 159.845 439.663C162.577 436.419 162.35 436.419 157.568 439.23C154.836 440.96 153.469 442.474 154.836 442.907C156.202 443.339 156.43 444.637 155.746 445.718C154.153 448.529 159.162 454.585 161.894 452.855C163.033 452.206 163.944 450.476 163.716 449.178ZM244.094 406.142C252.746 398.573 262.31 393.599 268.913 393.599C274.15 393.599 278.249 391.652 283.714 386.246L291.228 378.893L296.237 388.408C298.969 393.815 301.702 397.708 302.157 397.059C303.979 395.545 295.554 374.135 293.505 375.216C292.594 375.865 290.772 373.486 289.178 370.026C286.674 363.971 278.249 355.104 276.427 356.401C273.467 358.131 270.507 355.536 264.359 345.588C259.122 336.938 257.3 335.424 257.3 339.1C257.3 341.695 258.211 343.858 259.35 343.858C260.488 343.858 262.082 347.318 262.765 351.427C264.131 357.483 266.181 360.078 272.101 362.673C288.723 370.242 286.446 387.111 268.913 387.111C260.944 387.111 253.657 390.571 244.094 399.438C239.084 404.195 232.937 402.682 223.829 394.464C215.859 387.111 213.127 386.029 202.425 385.164C200.376 385.164 196.505 383.218 193.772 380.839C186.714 375 190.584 366.133 202.653 361.808C210.622 358.78 211.76 357.483 213.81 347.751C216.77 334.775 216.77 334.559 214.038 336.289C212.899 336.938 210.85 341.263 209.484 346.021C207.434 352.941 205.84 354.671 199.92 355.753C193.545 357.266 170.319 376.946 171.23 380.19C171.458 381.055 169.408 385.813 166.676 390.787C163.944 395.761 161.667 400.519 161.667 401.384C161.667 403.979 170.547 393.382 171.913 389.057C172.824 386.678 174.19 384.948 175.101 384.948C176.239 384.948 177.606 381.92 178.516 378.244C179.199 374.567 180.793 372.189 182.16 373.054C183.526 373.919 183.981 375.432 183.298 376.514C182.387 377.595 183.07 378.46 184.209 378.46C185.575 378.46 186.714 379.974 186.714 381.704C186.714 386.246 196.049 391.436 205.157 392.085C210.167 392.301 214.493 394.464 217.225 397.708C221.552 402.465 232.709 408.521 238.401 408.737C239.768 408.737 242.5 407.439 244.094 406.142ZM341.322 319.204C342.688 318.339 343.826 316.393 343.826 315.095C343.826 313.365 343.143 313.365 341.777 315.311C339.5 318.988 299.425 317.474 291.455 313.581C288.723 312.284 285.991 311.635 285.307 312.284C284.624 312.932 288.495 315.528 293.96 317.69C301.702 321.15 307.85 321.799 321.284 321.367C330.847 320.934 339.955 319.853 341.322 319.204ZM189.674 311.419C202.653 307.742 198.782 306.877 181.932 309.472C173.962 310.77 163.944 310.986 159.617 310.337C141.857 307.093 133.204 306.877 135.709 309.256C137.075 310.554 142.084 312.067 147.094 312.716C151.876 313.365 156.202 314.23 157.113 314.879C158.707 316.609 178.744 314.446 189.674 311.419ZM343.826 305.58C357.26 300.822 356.805 301.471 350.43 294.983C347.469 291.955 344.965 288.711 344.965 288.062C344.965 287.197 344.054 286.765 342.915 287.197C341.777 287.63 336.312 285.683 330.392 283.088C322.878 279.628 316.047 278.547 305.345 278.547C297.148 278.763 290.089 279.628 289.406 280.709C288.723 281.791 285.535 283.953 282.803 285.251C272.101 290.657 266.181 296.713 268.913 299.957C270.279 301.471 273.239 302.768 275.516 302.768C277.793 302.768 283.03 304.066 287.129 305.796C298.059 310.337 330.847 310.121 343.826 305.58ZM209.939 296.929C213.81 293.685 213.127 287.63 209.028 287.63C205.613 287.63 191.268 277.682 192.406 276.168C193.089 275.303 192.861 275.086 191.951 275.735C191.268 276.384 189.218 275.735 187.397 274.438C183.526 271.194 161.667 271.626 149.371 275.086C144.361 276.384 139.352 277.465 138.214 277.249C137.303 277.033 136.847 277.682 137.075 278.547C137.53 279.628 134.798 282.872 131.155 285.9L124.324 291.306L130.016 294.118C132.976 295.848 144.134 298.659 154.608 300.605C176.239 304.498 203.108 302.768 209.939 296.929ZM345.648 269.247C342.46 266.652 334.946 262.543 329.026 260.381C319.007 256.92 317.413 256.92 298.969 260.164C288.268 262.327 277.793 265.138 276.199 266.436C270.052 271.194 281.892 272.924 302.84 270.112C324.016 267.301 341.777 268.815 346.331 273.789C347.697 275.519 349.746 276.384 350.43 275.519C351.113 274.87 349.063 272.059 345.648 269.247ZM207.207 269.031C207.207 266.003 204.019 261.894 202.425 262.976C201.286 263.625 200.376 263.192 200.376 262.111C200.376 254.758 150.054 247.189 143.223 253.46C141.401 254.974 137.075 258.002 133.66 260.164C125.007 265.355 127.056 267.085 136.392 262.543C145.728 258.002 165.765 259.732 188.991 266.652C197.643 269.247 207.207 270.545 207.207 269.031Z" fill="#B1734F"/>
<path d="M245.232 446.367C244.321 445.502 239.54 444.853 234.303 445.069C229.293 445.285 222.918 444.204 220.185 442.907C217.453 441.393 213.354 440.095 211.305 439.879C203.336 439.23 202.652 439.014 202.652 437.067C202.652 435.986 208.573 435.77 215.859 436.419C222.918 437.067 237.263 437.5 247.509 437.284C267.547 436.851 274.606 439.663 259.122 442.041C253.885 442.907 248.875 444.42 248.192 445.718C247.282 446.799 246.143 447.016 245.232 446.367Z" fill="#B1734F"/>
<path d="M317.641 294.118C315.819 291.09 318.324 287.63 322.422 287.63C324.244 287.63 325.61 289.576 325.61 291.955C325.61 296.497 320.145 298.01 317.641 294.118Z" fill="#B1734F"/>
<path d="M192.861 290.874L196.732 283.304L203.108 288.927C210.85 296.064 209.484 298.443 198.099 298.443H188.991L192.861 290.874Z" fill="#B1734F"/>
<path d="M176.922 288.495C173.735 285.467 175.329 280.926 179.427 281.574C181.476 282.007 183.298 283.737 183.298 285.251C183.298 288.711 179.199 290.657 176.922 288.495Z" fill="#B1734F"/>
<path d="M219.73 442.474C214.721 439.23 214.038 439.014 207.207 439.014C204.702 439.014 202.653 438.365 202.653 437.5C202.653 436.419 206.979 435.986 212.216 436.419C217.681 436.851 231.798 437.284 244.094 437.5C256.162 437.716 266.864 438.798 268.002 439.879C269.141 440.96 267.547 441.176 264.359 440.528C261.171 439.879 257.3 440.311 255.707 441.609C250.925 445.285 224.967 445.934 219.73 442.474Z" fill="#B8A9A3"/>
<path d="M386.178 370.891C382.991 367.863 382.991 366.566 385.268 363.538C386.862 361.592 388.228 359.645 388.455 359.429C390.277 356.618 393.692 368.296 392.099 371.107C390.277 374.135 389.822 374.135 386.178 370.891Z" fill="#B8A9A3"/>
<path d="M80.8333 354.455C78.5563 347.967 82.8826 344.507 87.6643 349.048C90.8521 351.86 91.0798 353.158 88.8028 355.753C84.9319 360.294 82.6549 359.862 80.8333 354.455Z" fill="#B8A9A3"/>
<path d="M192.634 292.171C197.643 284.17 198.326 284.17 203.791 289.792C208.8 294.983 208.345 295.415 197.188 297.362L188.307 299.092L192.634 292.171Z" fill="#B8A9A3"/>
<path d="M317.413 293.902C315.136 290.225 320.373 286.116 323.561 289.144C326.294 291.739 324.472 296.28 321.056 296.28C319.918 296.28 318.324 295.199 317.413 293.902Z" fill="#B8A9A3"/>
<path d="M176.695 286.332C174.873 281.791 176.467 280.277 181.021 282.007C183.07 282.656 184.437 284.386 183.981 285.9C182.387 290.009 178.289 290.225 176.695 286.332Z" fill="#B8A9A3"/>
<path d="M222.918 442.69C219.958 441.609 214.493 439.879 210.622 439.014L203.791 437.284L210.622 437.067C214.493 437.067 224.056 437.933 232.253 439.23C242.5 440.744 247.282 440.744 247.737 439.23C248.192 437.933 252.291 436.851 256.845 436.851L265.27 437.067L257.3 440.528C247.965 444.637 230.887 445.718 222.918 442.69Z" fill="#F2EFF0"/>
<path d="M387.089 367.647C387.089 363.538 387.772 363.106 389.822 365.052C391.871 366.998 391.871 368.296 389.822 370.242C387.772 372.189 387.089 371.756 387.089 367.647Z" fill="#F2EFF0"/>
<path d="M81.9718 352.725C81.9718 349.697 83.1103 348.616 85.3873 349.697C89.2582 350.995 88.8028 355.104 84.7042 356.401C83.1103 356.834 81.9718 355.32 81.9718 352.725Z" fill="#F2EFF0"/>
<path d="M194 291.09C196.277 286.116 196.732 285.9 201.742 289.144C209.483 293.901 208.573 296.28 199.237 296.28C191.723 296.28 191.495 296.064 194 291.09Z" fill="#F2EFF0"/>
<path d="M319.918 294.118C319.007 292.82 319.235 290.657 320.601 289.36C321.967 288.062 323.333 288.062 324.472 289.792C325.383 291.09 325.155 293.253 323.789 294.55C322.423 295.848 321.056 295.848 319.918 294.118Z" fill="#F2EFF0"/>
<path d="M176.695 284.17C175.556 281.574 176.239 280.926 178.972 282.007C180.793 282.656 183.07 283.304 183.526 283.304C183.981 283.304 184.437 284.386 184.437 285.467C184.437 288.927 178.289 287.846 176.695 284.17Z" fill="#F2EFF0"/>
</svg>
