<svg width="325" height="467" viewBox="0 0 325 467" fill="none" xmlns="http://www.w3.org/2000/svg">
<g clip-path="url(#clip0)">
<path d="M153.62 465.51C151.667 464.682 146.872 463.191 142.964 462.198C134.262 460.045 119.699 447.459 109.221 433.383C105.314 427.918 101.052 422.618 99.9863 421.459C98.7432 420.134 97.6776 418.313 97.6776 417.319C97.6776 416.326 92.8825 408.045 86.8443 398.772C76.0109 382.211 64.112 360.517 60.7377 351.244C58.9618 346.772 58.429 346.441 51.6803 347.269C42.0902 348.428 38.3607 345.282 34.6311 333.027C26.9945 307.524 23.9754 300.404 14.7404 288.646C1.77596 271.754 0 268.111 0 258.672C0 249.563 4.97268 241.78 10.8333 241.78C15.0956 241.78 15.0956 243.602 9.59016 217.768C6.21585 201.539 5.15027 192.762 5.68306 181.832C6.21585 173.386 5.68306 167.259 4.79508 167.259C3.01913 167.259 4.0847 155.501 6.39344 149.871C7.28142 147.718 7.10383 147.221 5.68306 148.049C4.0847 148.877 3.55191 146.724 3.55191 140.431C3.72951 118.737 15.4508 91.5784 31.7896 76.0117C37.2951 70.7124 41.735 65.5787 41.9126 64.7507C42.0902 63.7571 42.2678 62.1011 42.4454 61.273C42.4454 60.2794 46.1749 57.4642 50.6148 54.8145C55.5874 51.8337 57.8962 49.6809 56.4754 49.184C52.7459 47.6936 58.6066 44.7128 65.3552 44.7128C70.6831 44.7128 71.0383 44.3816 71.0383 39.0823C71.0383 32.1269 79.3852 21.3628 90.2186 14.0762C96.2568 10.2674 98.2104 9.60496 99.276 11.4266C100.519 13.2482 101.94 13.0826 106.38 10.1018C114.904 4.30567 130.888 0 143.32 0C149.891 0 154.508 0.662411 154.508 1.65603C154.508 2.81525 157.705 2.98085 163.388 2.31844C171.202 1.32482 172.268 1.49043 171.202 3.97447C170.314 6.29291 171.557 6.62411 180.437 6.45851C196.066 6.12731 211.339 8.28014 211.339 10.7642C211.339 11.9234 216.667 14.4074 223.593 16.3947C245.437 22.522 264.795 37.7574 278.292 59.1202C281.489 64.4195 282.377 66.9035 280.956 68.2284C279.536 69.5532 280.068 70.878 282.91 72.8652C288.593 77.1709 293.921 86.1135 290.724 86.1135C288.948 86.1135 289.658 88.5975 293.388 95.7184C302.801 113.604 307.24 144.24 307.24 192.927V225.22H311.503C313.811 225.22 317.896 226.876 320.56 228.863C325 232.175 325.355 233.003 324.645 242.608C324.112 250.723 322.158 256.353 315.765 268.442C305.997 286.99 306.175 286.162 301.913 309.677C300.137 320.276 297.473 329.384 296.052 330.874C294.454 332.199 290.191 333.358 286.284 333.358H279.358L270.123 359.193C264.973 373.434 255.383 395.46 248.811 408.211C242.063 420.962 234.781 435.37 232.473 440.172C228.033 449.777 220.929 456.401 213.47 458.223C210.806 458.72 205.478 460.541 201.571 462.198C193.402 465.51 159.303 467.828 153.62 465.51Z" fill="#240B02"/>
<path d="M154.508 465.675C153.087 464.847 149.003 463.688 145.451 463.026C142.077 462.529 137.637 460.873 135.683 459.382C133.907 458.057 133.374 457.395 134.795 458.057C140.301 460.707 159.658 463.522 172.445 463.688C194.112 463.688 219.863 455.242 227.322 445.472L231.052 440.504H226.079C223.415 440.504 200.683 441.663 175.82 442.988C150.956 444.312 128.224 445.472 125.383 445.472C120.943 445.472 120.587 445.803 122.541 448.452C123.784 449.943 122.896 449.28 120.587 446.962C118.279 444.644 113.128 438.351 109.221 433.217C105.314 427.918 101.052 422.618 99.9863 421.459C98.7432 420.134 97.6776 418.313 97.6776 417.319C97.6776 416.326 92.8825 408.045 86.8443 398.772C76.0109 382.211 64.112 360.517 60.7377 351.244C58.9618 346.772 58.429 346.441 51.6803 347.269C42.0902 348.428 38.3607 345.282 34.6311 333.027C26.9945 307.524 23.9754 300.404 14.7404 288.646C1.77596 271.754 0 268.111 0 258.672C0 252.876 1.06557 249.232 3.72951 246.086C7.28142 241.946 8.34699 241.615 16.1612 242.608C20.9563 243.271 30.5464 243.271 37.6503 242.608L50.7924 241.449L55.0546 222.405C59.6721 202.035 60.0273 201.539 72.2814 199.551C76.5437 198.889 80.2732 197.73 80.806 197.067C81.3388 196.239 84.1803 196.405 87.1995 197.399C94.8361 199.883 105.847 197.73 119.877 191.271C126.626 188.125 132.309 185.806 132.664 186.138C133.197 186.469 130.71 188.953 127.158 191.437C123.784 193.921 121.475 196.736 121.831 197.399C122.363 198.061 128.579 198.723 135.861 198.723C151.844 198.723 165.697 194.418 173.333 186.966C177.951 182.494 179.372 181.998 185.587 182.826C197.842 184.647 209.563 180.176 219.508 170.074C224.303 165.272 229.098 159.972 230.164 158.151C231.762 155.335 232.295 155.832 234.071 162.291C235.137 166.431 238.511 172.393 241.352 175.539C246.148 180.673 246.68 181.004 246.858 177.692C247.036 168.418 249.167 168.749 254.495 179.017C259.112 187.959 260 188.953 261.954 186.634C263.73 184.316 264.44 184.647 266.749 189.284C268.347 192.265 271.011 200.214 272.609 206.838L275.806 218.927L291.612 217.768L307.24 216.609V220.914C307.24 224.392 308.128 225.22 311.503 225.22C313.811 225.22 317.896 226.876 320.56 228.863C325 232.175 325.355 233.003 324.645 242.608C324.112 250.723 322.158 256.353 315.765 268.442C305.997 286.99 306.175 286.162 301.913 309.677C300.137 320.276 297.473 329.384 296.052 330.874C294.454 332.199 290.191 333.359 286.284 333.359H279.358L270.123 359.193C264.973 373.434 255.383 395.46 248.811 408.211C242.063 420.962 234.781 435.37 232.473 440.172C228.033 449.777 220.929 456.401 213.47 458.223C210.806 458.72 205.478 460.541 201.571 462.197C193.402 465.51 158.77 467.994 154.508 465.675ZM187.719 417.319C198.019 417.319 201.393 414.669 203.525 404.402L204.768 399.103L195.178 403.574C182.746 409.536 164.809 410.033 153.265 404.733C144.918 400.759 144.208 401.587 148.47 409.536C153.798 419.306 154.331 419.472 166.94 418.313C173.333 417.816 182.746 417.319 187.719 417.319ZM192.691 375.918C197.664 373.931 200.505 371.944 199.262 371.447C197.842 370.95 195.888 371.447 194.822 372.441C193.757 373.434 191.27 374.262 189.139 374.262C187.008 374.262 184.522 375.09 183.456 376.084C180.792 378.568 147.76 378.568 145.096 376.084C144.03 375.09 141.366 374.262 139.235 374.262C136.926 374.262 134.617 373.6 134.085 372.606C133.552 371.778 132.131 370.95 130.888 370.95C127.336 370.95 136.749 376.25 144.563 378.568C155.751 382.046 181.68 380.721 192.691 375.918ZM153.798 343.46L164.809 342.301L158.77 337.499C153.62 333.193 152.377 332.862 148.825 334.683C142.432 337.83 127.691 341.142 118.989 341.142C114.549 341.142 109.044 342.467 106.557 343.791C102.473 346.11 103.716 346.276 122.541 345.282C133.73 344.785 147.937 343.957 153.798 343.46ZM226.434 338.327C241.175 336.836 234.071 334.849 214.003 334.849C205.123 334.849 195.888 334.021 193.402 333.193C189.317 331.702 188.074 332.034 183.634 336.505L178.484 341.639L197.131 340.479C207.432 339.983 220.574 338.989 226.434 338.327ZM97.3224 256.684C94.1257 252.048 96.9672 250.557 100.874 255.028C103.361 258.009 106.025 258.672 113.484 258.837C123.429 259.003 126.448 257.016 125.738 250.888C125.027 246.086 119.344 245.589 118.634 250.391C117.924 255.194 112.951 255.36 112.24 250.557C111.885 248.239 112.773 246.748 114.904 246.251C116.68 245.755 115.26 245.423 111.708 245.258C104.426 245.092 88.7978 249.563 88.7978 252.048C88.7978 255.691 92.7049 259.996 95.9016 259.996C99.0984 259.996 99.276 259.5 97.3224 256.684ZM225.191 250.888C230.342 248.735 231.052 247.907 229.098 246.748C226.967 245.423 226.79 244.595 228.743 241.78C230.697 238.634 230.519 238.468 223.77 238.468C217.199 238.468 204.235 242.111 204.235 244.099C204.235 244.595 204.945 246.748 206.011 249.067C207.964 254.2 214.891 254.863 225.191 250.888ZM240.82 247.742C241.352 245.423 241.352 242.774 240.642 241.946C238.866 239.296 234.426 239.793 235.492 242.443C236.025 243.767 235.669 246.417 234.426 248.239C232.828 251.22 233.005 251.716 236.025 251.716C238.333 251.716 240.109 250.226 240.82 247.742ZM85.7787 226.71L96.0792 224.392L95.5464 217.768C95.0137 212.137 94.3033 210.978 90.7514 210.647C82.582 209.488 73.1694 215.118 67.4863 224.392C64.4672 229.194 62.1585 233.5 62.1585 234.162C62.1585 234.659 65.1776 233.831 68.9071 232.01C72.459 230.354 80.0956 227.869 85.7787 226.71ZM264.973 218.927C256.271 205.844 250.41 202.035 239.399 202.035H232.65V209.488V216.94L241.175 217.105C245.792 217.105 253.607 218.596 258.402 220.252C263.374 221.908 267.459 223.398 267.637 223.398C267.992 223.564 266.749 221.411 264.973 218.927Z" fill="#492411"/>
<path d="M36.7622 120.228C36.0519 118.737 36.7622 118.075 38.7158 118.406C40.3142 118.572 43.1557 117.744 44.9316 116.253C46.53 114.928 47.9508 114.266 47.9508 114.928C47.9508 116.419 40.6693 122.381 38.8934 122.546C38.183 122.546 37.295 121.553 36.7622 120.228Z" fill="#492411"/>
<path d="M55.0546 107.807C55.0546 105.323 58.2514 103.999 59.4945 105.986C60.2049 106.979 61.4481 107.145 62.5137 106.648C63.7568 105.986 63.9344 106.317 63.224 107.311C61.6257 109.629 55.0546 109.96 55.0546 107.807Z" fill="#492411"/>
<path d="M64.2897 101.183C64.6448 99.8585 67.3088 98.5337 69.9727 98.2025C72.8143 97.8713 74.4126 98.2025 73.8798 99.1961C73.347 100.024 71.3935 100.521 69.6175 100.355C68.0192 100.024 65.888 100.687 65.1776 101.68C64.1121 102.839 63.9345 102.674 64.2897 101.183Z" fill="#492411"/>
<path d="M173.156 96.0496C171.913 94.0624 173.511 94.0624 178.484 96.0496C181.858 97.3745 181.858 97.5401 178.128 97.5401C175.997 97.7057 173.688 97.0432 173.156 96.0496Z" fill="#492411"/>
<path d="M182.391 91.5784L177.24 86.2791L183.279 88.1007C186.475 89.0943 190.738 90.916 192.691 92.2408C198.374 95.7184 199.44 94.7248 195.355 89.4255C190.56 83.1326 192.159 83.1326 204.235 89.7567C214.713 95.3872 214.536 95.5528 198.019 96.3809C187.896 97.0433 187.186 96.7121 182.391 91.5784Z" fill="#492411"/>
<path d="M215.779 92.2408C208.32 83.795 208.32 83.9606 218.443 87.6039C231.407 92.2408 233.361 94.3936 224.658 94.3936C220.751 94.228 216.844 93.4 215.779 92.2408Z" fill="#492411"/>
<path d="M196.421 36.5983C195.888 35.7702 187.896 34.611 179.016 33.9486C169.959 33.2862 161.79 32.4582 161.079 31.9614C159.658 31.1334 166.94 25.5029 168.716 25.9997C169.249 25.9997 170.847 25.6685 172.268 24.8405C173.689 24.178 177.24 23.1844 179.904 22.522L184.877 21.3628L182.036 26.3309C179.194 31.7958 179.194 31.7958 187.896 28.6493C190.915 27.6557 191.626 27.4901 197.131 26.3309C198.907 25.8341 199.617 26.6621 199.262 28.9805C198.907 30.8022 198.552 33.6174 198.374 35.2734C198.197 38.4199 197.842 38.7511 196.421 36.5983Z" fill="#492411"/>
<path d="M207.787 36.4326C205.301 35.7702 204.235 34.9422 205.123 34.7766C206.189 34.611 208.142 34.2798 209.563 33.9486C214.358 33.1206 219.331 32.7894 223.77 32.955L228.21 33.2862L223.77 35.6046C218.798 38.2543 214.536 38.4199 207.787 36.4326Z" fill="#492411"/>
<path d="M145.984 29.4773C146.694 27.3245 155.219 23.0188 163.21 20.7004L167.473 19.5411L162.678 24.178C160.191 26.8277 158.06 29.4773 158.06 30.1397C158.06 30.9677 155.219 31.4645 151.667 31.4645C147.404 31.4645 145.628 30.8021 145.984 29.4773Z" fill="#492411"/>
<path d="M214.003 456.07C221.995 452.261 226.79 447.459 230.874 439.344C233.005 435.204 235.137 432.223 235.669 432.72C236.202 433.217 234.249 437.523 231.407 442.491C226.434 451.102 217.022 458.72 211.516 458.72C209.918 458.72 211.161 457.561 214.003 456.07Z" fill="#392E2B"/>
<path d="M112.596 437.854C108.866 432.72 103.361 424.606 100.342 419.969C97.5 415.166 90.3962 404.071 84.7131 395.128C75.6557 381.218 63.0464 357.868 59.8497 349.091C58.9618 346.938 57.3634 346.607 51.5027 347.269C42.0902 348.428 38.3607 345.282 34.6311 333.027C26.9945 307.524 23.9754 300.404 14.7404 288.646C1.77596 271.754 0 268.111 0 258.672C0 249.232 4.97268 241.78 11.1885 241.78C15.9836 241.78 27.5273 250.391 30.9016 256.353C32.3224 258.837 36.7623 271.423 40.847 284.506C45.1093 297.423 48.8388 307.69 49.3716 307.359C49.7268 306.862 50.7924 289.474 51.5027 268.773C52.5683 237.971 53.4563 228.366 56.8306 216.774L60.7377 202.367L69.7951 200.545C74.9454 199.386 85.4235 198.392 93.2377 198.227C105.314 197.895 109.221 196.902 118.456 192.43C132.131 185.806 133.907 185.806 126.093 191.934C122.719 194.583 120.587 197.399 121.298 198.227C123.962 200.545 147.937 199.386 157.883 196.239C163.033 194.749 169.781 190.94 172.978 187.959C178.306 182.991 179.549 182.66 187.541 183.322C202.104 184.647 217.199 176.864 227.145 162.788L232.473 155.335L233.538 161.297C234.249 164.444 237.268 170.737 240.287 175.042L245.615 182.991L247.746 175.539L249.877 168.087L252.008 174.877C253.251 178.52 255.915 183.322 257.691 185.641C260.355 188.953 261.421 189.118 262.664 187.297C265.505 183.157 269.413 194.418 278.115 232.672C279.713 239.959 281.667 256.188 282.199 268.608C282.732 281.028 283.62 291.627 284.153 292.123C285.751 293.448 298.183 251.882 299.604 241.118C301.38 225.882 309.727 220.914 320.56 228.863C325 232.175 325.355 233.003 324.645 242.608C324.112 250.723 322.158 256.353 315.765 268.442C305.997 286.99 306.175 286.162 301.913 309.677C300.137 320.276 297.473 329.384 296.052 330.874C294.454 332.199 290.191 333.359 286.284 333.359H279.358L270.123 359.193C261.598 382.874 239.221 428.911 236.202 428.911C235.492 428.911 235.669 425.434 236.38 421.128C238.866 407.383 238.333 404.071 234.426 404.071C232.117 404.071 228.388 407.714 222.883 415.498C216.667 424.275 212.76 427.918 206.721 430.567C199.795 433.714 198.019 434.045 193.402 432.223C185.232 429.077 182.036 420.631 189.139 420.631C193.757 420.631 202.281 412.185 203.525 406.389C204.057 403.243 204.235 400.262 203.702 399.765C203.169 399.268 199.085 400.759 194.467 403.243C183.634 409.37 164.631 409.701 153.265 404.237C145.984 400.924 145.628 400.759 145.628 403.74C145.628 408.708 153.087 417.982 159.303 420.631C166.23 423.612 166.585 426.096 160.724 431.395C151.844 439.676 136.749 434.873 124.495 419.969C118.989 413.179 115.97 410.695 112.773 410.695C110.287 410.695 108.333 411.026 108.333 411.523C108.333 414.504 115.97 438.351 118.279 442.325C122.363 449.777 120.232 447.956 112.596 437.854ZM185.587 379.065C192.514 377.409 210.273 367.804 209.03 366.645C208.675 366.313 204.413 367.804 199.617 369.957C187.186 375.587 179.727 377.409 169.604 377.574C149.358 378.071 149.18 378.071 135.505 372.11C133.197 371.116 130.888 370.785 130.355 371.447C129.29 372.441 138.525 377.409 145.628 379.396C152.377 381.218 177.596 381.052 185.587 379.065ZM104.781 368.466C104.781 364.492 114.549 361.014 125.56 361.014C142.254 360.849 160.369 357.868 165.519 354.39C170.137 351.244 170.669 351.244 174.932 353.728C178.484 355.881 183.634 356.212 206.189 355.715L233.005 355.218L237.268 360.186L241.53 365.154V353.728C241.53 344.123 240.82 341.473 237.623 338.327C234.071 334.849 232.295 334.518 216.844 334.518C207.432 334.518 196.954 333.855 193.579 332.862C188.074 331.371 187.008 331.702 182.568 336.174C175.997 342.963 167.473 342.963 159.303 336.174C155.929 333.524 152.555 331.868 151.667 332.696C148.47 335.511 132.131 339.486 120.232 340.645C100.874 342.301 96.612 347.766 100.519 365.817C101.762 370.95 104.781 372.938 104.781 368.466ZM75.6557 258.175C76.1885 257.181 79.2076 255.028 82.2268 253.372L87.7322 250.226L90.041 255.194L92.1721 260.162L107.801 259.665C123.251 259.168 123.429 259.168 125.027 254.2C126.093 251.551 126.981 248.901 127.336 248.57C127.514 248.239 130.71 250.06 134.085 252.544C137.637 255.028 141.011 256.684 141.544 256.188C143.142 254.532 140.301 251.882 131.776 247.245C124.672 243.271 121.475 242.608 110.109 242.608C98.9208 242.774 95.3689 243.436 87.5546 247.411C78.1421 252.213 68.7295 259.996 72.459 259.996C73.5246 259.996 74.9454 259.168 75.6557 258.175ZM197.486 248.404L203.347 243.271L205.656 248.404C207.787 253.207 208.142 253.372 219.863 253.372C236.38 253.372 239.754 252.213 240.997 246.583C242.24 240.952 242.951 240.787 252.719 245.092L260.178 248.57L254.85 244.43C243.661 235.653 224.303 232.838 209.385 237.64C202.104 240.124 190.027 249.067 190.027 252.048C190.027 254.2 191.27 253.538 197.486 248.404ZM73.7022 230.85C82.7596 227.041 85.9563 226.545 101.052 226.71C110.464 226.876 121.298 227.704 125.205 228.532C135.505 230.85 136.749 230.519 136.749 226.379C136.749 219.258 133.019 217.105 114.727 213.628C85.6011 208.163 76.0109 209.819 68.0191 222.073C64.2896 227.87 61.2705 235.156 62.6913 235.156C63.224 235.156 68.0191 233.169 73.7022 230.85ZM204.413 223.729C209.74 222.073 220.751 219.755 229.098 218.761C242.951 216.774 245.082 216.94 255.738 220.086C261.954 221.908 267.281 223.233 267.637 222.901C267.992 222.736 265.861 219.093 262.842 214.787C252.186 199.055 238.866 198.227 201.216 211.309C193.934 213.793 193.579 214.29 193.579 220.417C193.579 223.895 193.934 226.876 194.112 226.876C194.467 226.876 199.085 225.551 204.413 223.729Z" fill="#392E2B"/>
<path d="M113.128 254.035C110.287 251.385 111.885 246.748 115.615 246.748C118.279 246.748 119.167 247.576 118.634 250.391C118.101 254.035 115.26 255.856 113.128 254.035Z" fill="#392E2B"/>
<path d="M227.322 244.264C227.322 241.283 231.585 239.296 234.249 240.787C237.09 242.443 234.426 246.748 230.697 246.748C228.921 246.748 227.322 245.589 227.322 244.264Z" fill="#392E2B"/>
<path d="M153.62 465.51C151.667 464.682 146.516 463.191 142.432 462.032C138.169 461.038 134.973 459.879 135.328 459.548C135.505 459.217 140.301 460.21 145.628 461.535C158.238 464.847 186.298 464.682 198.019 461.37C208.675 458.223 210.451 459.051 201.038 462.529C193.046 465.51 158.77 467.662 153.62 465.51Z" fill="#8D5739"/>
<path d="M213.47 456.401C216.311 455.077 219.508 453.421 220.574 452.924C221.817 452.261 220.929 453.421 218.62 455.242C216.311 457.229 213.115 458.72 211.516 458.72C209.74 458.72 210.628 457.726 213.47 456.401Z" fill="#8D5739"/>
<path d="M112.596 437.854C108.866 432.72 103.361 424.606 100.342 419.969C97.5 415.166 90.3962 404.071 84.7131 395.128C75.6557 381.218 63.0464 357.868 59.8497 349.091C58.9618 346.938 57.3634 346.607 51.5027 347.269C42.0902 348.428 38.3607 345.282 34.6311 333.027C26.9945 307.524 23.9754 300.404 14.7404 288.646C1.77596 271.754 0 268.111 0 258.672C0 249.232 4.97268 241.78 11.1885 241.78C15.9836 241.78 27.5273 250.391 30.9016 256.353C32.3224 258.837 36.7623 271.423 40.847 284.506C45.1093 297.423 48.8388 307.69 49.3716 307.359C49.7268 306.862 50.7924 289.474 51.5027 268.773C52.5683 237.971 53.4563 228.366 56.8306 216.774L60.7377 202.367L69.7951 200.545C74.9454 199.386 85.4235 198.392 93.2377 198.227C105.314 197.895 109.221 196.902 118.456 192.43C132.131 185.806 133.907 185.806 126.093 191.934C122.719 194.583 120.587 197.399 121.298 198.227C123.962 200.545 147.937 199.386 157.883 196.239C163.033 194.749 169.781 190.94 172.978 187.959C178.306 182.991 179.549 182.66 187.541 183.322C202.104 184.647 217.199 176.864 227.145 162.788L232.473 155.335L233.538 161.297C234.249 164.444 237.268 170.737 240.287 175.042L245.615 182.991L247.746 175.539L249.877 168.087L252.008 174.877C253.251 178.52 255.915 183.322 257.691 185.641C260.355 188.953 261.421 189.118 262.664 187.297C265.505 183.157 269.413 194.418 278.115 232.672C279.713 239.959 281.667 256.188 282.199 268.608C282.732 281.028 283.62 291.627 284.153 292.123C285.751 293.448 298.183 251.882 299.604 241.118C301.38 225.882 309.727 220.914 320.56 228.863C325 232.175 325.355 233.003 324.645 242.608C324.112 250.723 322.158 256.353 315.765 268.442C305.997 286.99 306.175 286.162 301.913 309.677C300.137 320.276 297.473 329.384 296.052 330.874C294.454 332.199 290.191 333.359 286.284 333.359H279.358L270.123 359.193C261.598 382.874 239.221 428.911 236.202 428.911C235.492 428.911 235.669 425.434 236.38 421.128C238.866 407.383 238.333 404.071 234.426 404.071C232.117 404.071 228.388 407.714 222.883 415.498C216.667 424.275 212.76 427.918 206.721 430.567C199.795 433.714 198.019 434.045 193.402 432.223C185.232 429.077 182.036 420.631 189.139 420.631C193.757 420.631 202.281 412.185 203.525 406.389C204.057 403.243 204.235 400.262 203.702 399.765C203.169 399.268 199.085 400.759 194.467 403.243C183.634 409.37 164.631 409.701 153.265 404.237C145.984 400.924 145.628 400.759 145.628 403.74C145.628 408.708 153.087 417.982 159.303 420.631C166.23 423.612 166.585 426.096 160.724 431.395C151.844 439.676 136.749 434.873 124.495 419.969C118.989 413.179 115.97 410.695 112.773 410.695C110.287 410.695 108.333 411.026 108.333 411.523C108.333 414.504 115.97 438.351 118.279 442.325C122.363 449.777 120.232 447.956 112.596 437.854ZM185.587 379.065C192.514 377.409 210.273 367.804 209.03 366.645C208.675 366.313 204.413 367.804 199.617 369.957C187.186 375.587 179.727 377.409 169.604 377.574C149.358 378.071 149.18 378.071 135.505 372.11C133.197 371.116 130.888 370.785 130.355 371.447C129.29 372.441 138.525 377.409 145.628 379.396C152.377 381.218 177.596 381.052 185.587 379.065ZM104.781 368.466C104.781 364.492 114.549 361.014 125.56 361.014C142.254 360.849 160.369 357.868 165.519 354.39C170.137 351.244 170.669 351.244 174.932 353.728C178.484 355.881 183.634 356.212 206.189 355.715L233.005 355.218L237.268 360.186L241.53 365.154V353.728C241.53 344.123 240.82 341.473 237.623 338.327C234.071 334.849 232.295 334.518 216.844 334.518C207.432 334.518 196.954 333.855 193.579 332.862C188.074 331.371 187.008 331.702 182.568 336.174C175.997 342.963 167.473 342.963 159.303 336.174C155.929 333.524 152.555 331.868 151.667 332.696C148.47 335.511 132.131 339.486 120.232 340.645C100.874 342.301 96.612 347.766 100.519 365.817C101.762 370.95 104.781 372.938 104.781 368.466ZM76.5437 257.347C77.7869 256.022 80.9836 253.704 83.8251 252.379C88.4426 250.226 88.7978 250.226 88.7978 253.207C88.7978 258.837 93.0601 260.162 108.511 259.665C123.251 259.168 123.429 259.168 125.027 254.2C126.093 251.551 126.981 248.901 127.336 248.57C127.514 248.239 130.71 250.06 134.085 252.544C137.637 255.028 141.011 256.684 141.544 256.188C143.142 254.532 140.301 251.882 131.776 247.245C124.672 243.271 121.475 242.608 110.109 242.608C98.9208 242.774 95.3689 243.436 87.5546 247.411C78.3197 252.213 68.7295 259.996 72.2814 259.996C73.347 259.996 75.123 258.837 76.5437 257.347ZM197.486 248.404L203.347 243.271L205.656 248.404C207.787 253.207 208.142 253.372 220.041 253.372C236.025 253.372 241.53 251.385 241.53 245.92C241.53 240.952 242.951 240.787 252.719 245.092L260.178 248.57L254.85 244.43C243.661 235.653 224.303 232.838 209.385 237.64C202.104 240.124 190.027 249.067 190.027 252.048C190.027 254.2 191.27 253.538 197.486 248.404ZM73.7022 230.85C82.7596 227.041 85.9563 226.545 101.052 226.71C110.464 226.876 121.298 227.704 125.205 228.532C135.505 230.85 136.749 230.519 136.749 226.379C136.749 219.258 133.019 217.105 114.727 213.628C85.6011 208.163 76.0109 209.819 68.0191 222.073C64.2896 227.87 61.2705 235.156 62.6913 235.156C63.224 235.156 68.0191 233.169 73.7022 230.85ZM204.413 223.729C209.74 222.073 220.751 219.755 229.098 218.761C242.951 216.774 245.082 216.94 255.738 220.086C261.954 221.908 267.281 223.233 267.637 222.901C267.992 222.736 265.861 219.093 262.842 214.787C252.186 199.055 238.866 198.227 201.216 211.309C193.934 213.793 193.579 214.29 193.579 220.417C193.579 223.895 193.934 226.876 194.112 226.876C194.467 226.876 199.085 225.551 204.413 223.729Z" fill="#8D5739"/>
<path d="M111.885 435.535C110.464 434.707 109.754 433.879 110.642 433.879C112.063 433.879 100.519 416.822 95.724 411.854C91.1066 407.052 71.2159 373.931 64.8224 360.021L58.6066 346.938L50.9699 347.435C40.847 348.263 38.1831 345.116 32.6776 326.734C26.6393 306.034 23.9754 300.404 14.2077 287.818C2.13115 272.417 0 267.945 0 258.672C0 249.895 4.97268 241.78 10.123 241.78C14.7404 241.78 22.9098 247.245 27.5273 253.372C29.8361 256.519 35.5191 270.429 39.959 284.009C44.3989 297.754 48.4836 310.009 49.194 311.333C49.9044 312.658 50.9699 296.263 51.5027 274.901C52.3907 241.946 53.1011 233.5 56.653 219.258L60.9153 202.698L70.8607 200.711C76.3661 199.551 82.4044 198.723 84.3579 198.723C102.473 199.22 105.314 198.723 116.68 193.921C128.046 189.118 128.402 189.118 123.429 192.927C120.587 195.08 118.811 197.564 119.699 198.227C120.41 198.889 128.046 199.551 136.393 199.551C153.798 199.386 167.473 195.08 174.577 187.297C178.128 183.488 179.549 182.991 188.429 183.488C203.702 184.316 216.311 178.023 227.322 163.616L232.295 157.323L233.361 162.953C234.781 169.577 244.372 182.66 246.858 181.335C247.923 180.838 248.634 177.857 248.811 175.042C248.811 169.909 248.989 170.074 252.896 178.023C257.691 187.794 262.842 192.762 262.842 187.794C263.197 178.851 269.235 197.564 275.451 225.717C281.311 252.71 282.377 260.328 282.377 278.875C282.377 291.627 283.087 299.576 283.975 298.085C286.817 293.448 298.361 253.538 299.959 242.608C302.623 225.882 309.904 220.914 320.56 228.863C325 232.175 325.355 233.003 324.645 242.608C324.112 250.723 322.158 256.353 315.765 268.442C305.997 286.99 306.175 286.162 301.913 309.677C300.137 320.276 297.473 329.384 296.052 330.874C294.454 332.199 290.191 333.359 286.284 333.359H279.358L270.123 359.193C262.131 381.549 238.689 430.071 236.735 428.415C236.38 428.083 236.913 422.618 237.801 416.326C239.399 406.058 240.287 391.816 239.932 386.186C239.754 385.027 235.669 391.485 230.697 400.262C225.724 409.205 219.686 418.975 217.377 421.956C208.675 432.555 195.533 435.37 188.251 428.083C183.634 423.446 183.456 423.612 191.27 420.797C199.44 417.65 202.814 413.51 203.88 404.568L204.768 396.784L199.617 399.931C184.344 409.205 168.361 410.695 153.798 404.237C149.18 402.084 144.918 400.759 144.385 401.256C143.852 401.918 145.273 405.893 147.582 410.198C150.601 415.829 153.798 418.975 158.415 421.128C164.454 423.943 164.809 424.44 163.033 428.083C160.191 433.879 152.377 436.363 144.03 434.045C136.038 431.892 128.402 424.44 115.437 406.389C110.287 399.103 105.492 392.644 104.781 391.982C102.65 389.829 106.735 410.695 110.997 424.44C113.128 431.395 114.904 437.191 114.727 437.191C114.549 437.191 113.306 436.363 111.885 435.535ZM186.653 379.065C194.112 377.243 224.303 359.358 220.041 359.358C218.443 359.358 216.134 360.352 215.068 361.677C212.582 364.492 191.093 374.594 188.962 373.931C188.074 373.766 185.765 374.428 183.811 375.422C179.727 377.574 149.891 377.906 144.74 375.918C142.787 375.256 137.281 372.938 132.486 370.95C127.869 369.129 123.607 367.638 123.251 367.97C122.896 368.301 126.981 371.116 132.309 374.097C146.516 382.046 166.585 384.033 186.653 379.065ZM108.333 365.154C110.997 363.001 117.213 362.008 134.44 360.683C150.601 359.689 159.126 358.365 164.098 356.046C169.781 353.396 171.735 353.231 174.754 354.887C177.24 356.212 186.831 356.709 204.768 356.377C234.426 356.046 237.978 356.874 237.978 364.657C237.978 368.798 238.511 369.46 240.109 367.97C245.26 363.167 240.997 327.894 235.492 327.894C233.893 327.894 233.361 329.053 233.893 331.04C234.781 334.021 233.716 334.187 214.003 333.69C192.514 333.359 185.587 331.371 195.178 328.225C198.019 327.231 201.749 324.582 203.347 322.263C207.787 316.136 204.235 308.518 195.533 305.206C186.831 301.894 183.279 298.582 182.036 292.951C180.615 287.155 177.596 286.659 177.596 292.123C177.596 299.576 180.97 304.875 187.186 307.193C200.15 312.327 202.814 319.779 192.691 322.926C189.317 323.919 184.167 327.728 180.97 331.371C177.951 335.015 174.044 337.83 171.913 337.83C169.959 337.83 164.986 335.18 160.902 332.034C156.639 328.887 151.844 326.238 150.246 326.238C140.478 326.238 137.281 318.454 144.918 313.486C155.396 306.696 158.06 303.384 158.06 296.429C158.06 292.786 157.35 289.805 156.284 289.805C155.396 289.805 154.508 291.461 154.508 293.283C154.508 295.435 150.601 300.404 144.918 305.537C129.467 319.282 129.822 326.569 146.161 330.543L153.62 332.365L141.366 335.843C134.795 337.83 125.738 339.486 121.653 339.486C117.391 339.486 111.708 340.314 109.044 341.142C103.183 343.295 102.473 342.798 104.781 337.167C106.38 333.193 106.202 332.862 103.183 334.352C97.1448 337.499 96.612 354.39 101.762 371.778L103.716 378.402L104.426 373.269C104.781 370.288 106.557 366.645 108.333 365.154ZM79.918 315.639C77.6093 313.486 73.7022 316.798 75.4781 319.613C76.3661 320.938 77.4317 320.938 79.2076 319.448C80.9836 318.123 81.3388 316.964 79.918 315.639ZM117.746 272.748C122.186 271.092 120.41 270.761 104.959 270.761C90.2186 270.761 87.9098 271.092 91.1066 272.748C96.0792 275.398 111.352 275.398 117.746 272.748ZM239.399 264.965C243.484 263.309 246.858 261.487 246.858 261.156C246.858 260.824 242.773 261.487 237.623 262.646C232.473 263.971 224.658 264.965 220.219 265.13C213.648 265.296 212.937 265.461 216.667 266.621C224.126 268.939 231.407 268.277 239.399 264.965ZM130 262.48C141.721 258.672 143.675 256.022 138.525 250.888C124.85 237.309 91.4617 239.296 75.8333 254.697L70.6831 259.665L78.4973 262.149C82.7596 263.64 87.3771 265.13 88.7978 265.627C93.7705 267.283 121.475 265.13 130 262.48ZM236.202 257.844C241.53 256.519 248.456 254.366 251.298 252.876L256.626 250.06L248.456 251.054L240.287 252.048L241.175 246.914C242.063 240.787 244.372 240.455 252.719 245.92C256.271 248.073 259.645 249.232 260.178 248.57C261.243 246.748 249.699 239.627 241.708 237.143C225.014 231.678 201.749 236.646 192.691 247.411L188.429 252.544L193.224 254.863C203.525 259.996 220.929 261.156 236.202 257.844ZM113.839 238.965C121.12 239.627 129.645 240.787 132.486 241.78L137.637 243.436L133.197 240.29C127.869 236.315 121.831 235.156 106.913 235.156C97.1448 235.156 94.1257 235.818 88.4426 239.462C84.7131 241.946 81.694 244.099 81.694 244.43C81.694 244.761 85.9563 243.436 91.1066 241.615C98.7432 238.799 102.65 238.302 113.839 238.965ZM226.079 231.844C231.23 231.844 237.978 232.506 241.175 233.334C248.989 235.487 248.279 234.328 239.399 230.022C233.716 227.373 230.164 226.71 224.126 227.538C211.516 229.194 203.169 231.678 198.552 235.156C194.467 238.302 194.645 238.302 205.656 234.99C211.872 233.334 221.107 231.844 226.079 231.844ZM76.3661 230.354C86.1339 226.213 107.268 225.717 124.317 229.36C144.03 233.666 152.732 234.328 152.732 231.347C152.732 228.698 144.563 222.405 135.861 218.099C126.981 213.959 90.3962 208.494 83.4699 210.316C74.0574 212.8 67.3087 219.921 62.1585 232.672C60.3825 237.143 60.5601 237.143 76.3661 230.354ZM195.888 227.538C217.91 219.093 243.306 216.609 258.224 221.245C262.842 222.736 267.104 223.398 267.637 222.901C269.235 221.577 259.467 208.825 253.962 205.016C245.615 199.386 238.156 199.551 216.134 206.01C200.328 210.647 193.934 213.462 186.831 218.927C177.24 226.048 174.754 231.844 181.148 231.844C183.101 231.844 189.672 229.857 195.888 227.538Z" fill="#A95D5D"/>
<path d="M79.03 260.162L73.7022 259.168L79.3852 255.36C86.4891 250.557 87.5546 250.723 90.041 256.684C91.8169 261.321 91.8169 261.652 88.265 261.487C86.1339 261.321 82.0492 260.824 79.03 260.162Z" fill="#A95D5D"/>
<path d="M125.027 256.022C125.56 254.035 126.093 251.551 126.093 250.391C126.093 248.57 127.336 248.901 131.243 251.22C138.702 255.525 138.525 257.347 130.888 258.506C124.495 259.5 124.139 259.168 125.027 256.022Z" fill="#A95D5D"/>
<path d="M112.24 250.557C112.596 248.901 114.016 247.576 115.437 247.576C116.858 247.576 118.279 248.901 118.634 250.557C118.989 252.544 118.101 253.372 115.437 253.372C112.773 253.372 111.885 252.544 112.24 250.557Z" fill="#A95D5D"/>
<path d="M196.598 253.704C193.757 252.544 193.934 252.048 198.552 247.907C203.169 243.767 203.88 243.602 204.768 246.251C205.123 247.907 206.189 250.557 206.899 252.213C207.964 254.366 207.254 255.028 204.057 254.863C201.749 254.863 198.374 254.2 196.598 253.704Z" fill="#A95D5D"/>
<path d="M228.21 245.092C226.79 242.774 228.743 240.124 231.94 240.124C233.361 240.124 234.426 241.615 234.426 243.436C234.426 246.914 230.164 248.073 228.21 245.092Z" fill="#A95D5D"/>
<path d="M106.38 426.096C102.117 419.803 97.3224 413.51 95.724 411.854C91.1066 407.052 71.3934 373.931 64.8224 360.021L58.6066 346.938L50.9699 347.435C40.847 348.263 38.1831 345.116 32.6776 326.734C26.6393 306.034 23.9754 300.404 14.2077 287.818C2.13115 272.417 0 267.945 0 258.672C0 249.895 4.97268 241.78 10.123 241.78C14.7404 241.78 22.9098 247.245 27.5273 253.372C29.8361 256.519 35.5191 270.429 39.959 284.009C44.3989 297.754 48.4836 310.009 49.194 311.333C49.9044 312.658 50.9699 296.263 51.5027 274.901C52.3907 241.946 53.1011 233.5 56.653 219.258L60.9153 202.698L70.8607 200.711C76.3661 199.551 82.4044 198.723 84.3579 198.723C102.473 199.22 105.314 198.723 116.68 193.921C128.046 189.118 128.402 189.118 123.429 192.927C120.587 195.08 118.811 197.564 119.699 198.227C120.41 198.889 128.046 199.551 136.393 199.551C153.798 199.386 167.473 195.08 174.577 187.297C178.128 183.488 179.549 182.991 188.429 183.488C203.702 184.316 216.311 178.023 227.322 163.616L232.295 157.323L233.361 162.953C234.781 169.577 244.372 182.66 246.858 181.335C247.923 180.838 248.634 177.857 248.811 175.042C248.811 169.909 248.989 170.074 252.896 178.023C257.691 187.794 262.842 192.762 262.842 187.794C263.197 178.851 269.235 197.564 275.451 225.717C281.311 252.71 282.377 260.328 282.377 278.875C282.377 291.627 283.087 299.576 283.975 298.085C286.817 293.448 298.361 253.538 299.959 242.608C302.623 225.882 309.904 220.914 320.56 228.863C325 232.175 325.355 233.003 324.645 242.608C324.112 250.723 322.158 256.353 315.765 268.442C305.997 286.99 306.175 286.162 301.913 309.677C300.137 320.276 297.473 329.384 296.052 330.874C294.454 332.199 290.191 333.359 286.284 333.359H279.358L270.123 359.193C262.131 381.549 238.689 430.071 236.735 428.415C236.38 428.083 236.913 422.618 237.801 416.326C239.399 406.058 240.287 391.816 239.932 386.186C239.754 385.027 235.669 391.485 230.697 400.262C225.724 409.205 219.686 418.975 217.377 421.956C208.675 432.555 195.533 435.37 188.251 428.083C183.634 423.446 183.456 423.612 191.27 420.797C199.44 417.65 202.814 413.51 203.88 404.568C204.413 398.937 206.366 394.963 209.918 391.154C212.76 388.007 218.443 379.065 222.527 371.282C226.612 363.333 230.164 356.709 230.342 356.377C230.519 356.046 232.295 356.543 234.249 357.702C236.913 358.861 237.978 361.18 237.978 364.657C237.978 368.798 238.511 369.46 240.109 367.97C245.26 363.167 240.997 327.894 235.492 327.894C233.893 327.894 233.361 329.053 233.893 331.04C234.781 334.021 233.716 334.187 214.003 333.69C192.514 333.359 185.587 331.371 195.178 328.225C198.019 327.231 201.749 324.582 203.347 322.263C207.787 316.136 204.235 308.518 195.533 305.206C186.831 301.894 183.279 298.582 182.036 292.951C180.615 287.155 177.596 286.659 177.596 292.123C177.596 299.576 180.97 304.875 187.186 307.193C200.15 312.327 202.814 319.779 192.691 322.926C189.317 323.919 184.167 327.728 180.97 331.371C177.951 335.015 174.044 337.83 171.913 337.83C169.959 337.83 164.986 335.18 160.902 332.034C156.639 328.887 151.844 326.238 150.246 326.238C140.478 326.238 137.281 318.454 144.918 313.486C155.396 306.696 158.06 303.384 158.06 296.429C158.06 292.786 157.35 289.805 156.284 289.805C155.396 289.805 154.508 291.461 154.508 293.283C154.508 295.435 150.601 300.404 144.918 305.537C129.467 319.282 129.822 326.569 146.161 330.543L153.62 332.365L141.366 335.843C134.795 337.83 125.738 339.486 121.653 339.486C117.391 339.486 111.708 340.314 109.044 341.142C103.183 343.295 102.473 342.798 104.781 337.167C106.38 333.193 106.202 332.862 103.183 334.518C98.5656 336.836 97.1448 346.11 99.4536 360.849C101.585 374.428 104.604 381.88 104.781 373.269C104.781 364.326 108.156 363.664 115.26 371.447C118.811 375.256 126.448 383.205 132.309 389.167C138.88 395.625 144.385 403.077 146.339 407.549C149.713 415.994 152.91 419.472 160.191 422.122C164.631 423.612 164.986 424.274 163.21 427.918C160.191 433.879 152.377 436.529 144.03 434.045C136.038 431.892 128.402 424.44 115.437 406.389C110.287 399.103 105.492 392.644 104.781 391.982C102.65 389.829 106.735 410.695 110.997 424.44C113.128 431.395 114.727 437.191 114.549 437.191C114.194 437.191 110.642 432.223 106.38 426.096ZM79.918 315.639C77.6093 313.486 73.7022 316.798 75.4781 319.613C76.3661 320.938 77.4317 320.938 79.2076 319.448C80.9836 318.123 81.3388 316.964 79.918 315.639ZM117.746 272.748C122.186 271.092 120.41 270.761 104.959 270.761C90.2186 270.761 87.9098 271.092 91.1066 272.748C96.0792 275.398 111.352 275.398 117.746 272.748ZM239.399 264.965C243.484 263.309 246.858 261.487 246.858 261.156C246.858 260.824 242.773 261.487 237.623 262.646C232.473 263.971 224.658 264.965 220.219 265.13C213.648 265.296 212.937 265.461 216.667 266.621C224.126 268.939 231.407 268.277 239.399 264.965ZM130 262.48C141.721 258.672 143.675 256.022 138.525 250.888C124.85 237.309 91.4617 239.296 75.8333 254.697L70.6831 259.665L78.4973 262.149C82.7596 263.64 87.3771 265.13 88.7978 265.627C93.7705 267.283 121.475 265.13 130 262.48ZM236.202 257.844C241.53 256.519 248.456 254.366 251.298 252.876L256.626 250.06L248.456 251.054L240.287 252.048L241.175 246.914C241.885 242.443 242.596 241.78 245.792 242.774C247.746 243.271 251.653 245.092 254.317 246.914C256.981 248.57 259.467 249.398 260 248.57C261.243 246.748 249.877 239.793 241.708 237.143C225.014 231.678 201.749 236.646 192.691 247.411L188.429 252.544L193.224 254.863C203.525 259.996 220.929 261.156 236.202 257.844ZM113.839 238.965C121.12 239.627 129.645 240.787 132.486 241.78L137.637 243.436L133.197 240.29C127.869 236.315 121.831 235.156 106.913 235.156C97.1448 235.156 94.1257 235.818 88.4426 239.462C84.7131 241.946 81.694 244.099 81.694 244.43C81.694 244.761 85.9563 243.436 91.1066 241.615C98.7432 238.799 102.65 238.302 113.839 238.965ZM226.079 231.844C231.23 231.844 237.978 232.506 241.175 233.334C248.989 235.487 248.279 234.328 239.399 230.022C233.716 227.373 230.164 226.71 224.126 227.538C211.516 229.194 203.169 231.678 198.552 235.156C194.467 238.302 194.645 238.302 205.656 234.99C211.872 233.334 221.107 231.844 226.079 231.844ZM76.3661 230.354C86.1339 226.213 107.268 225.717 124.317 229.36C144.03 233.666 152.732 234.328 152.732 231.347C152.732 228.698 144.563 222.405 135.861 218.099C126.981 213.959 90.3962 208.494 83.4699 210.316C74.0574 212.8 67.3087 219.921 62.1585 232.672C60.3825 237.143 60.5601 237.143 76.3661 230.354ZM195.888 227.538C217.91 219.093 243.306 216.609 258.224 221.245C262.842 222.736 267.104 223.398 267.637 222.901C269.235 221.577 259.467 208.825 253.962 205.016C245.615 199.386 238.156 199.551 216.134 206.01C200.328 210.647 193.934 213.462 186.831 218.927C177.24 226.048 174.754 231.844 181.148 231.844C183.101 231.844 189.672 229.857 195.888 227.538Z" fill="#C6875D"/>
<path d="M79.03 260.162L73.7022 259.168L79.3852 255.36C84.8907 251.716 88.7978 250.723 88.7978 253.041C88.7978 253.704 89.3306 255.856 89.8634 258.009C91.1065 261.984 89.5082 262.315 79.03 260.162Z" fill="#C6875D"/>
<path d="M125.205 257.181C125.738 255.856 126.093 253.207 126.093 251.385C126.093 248.073 126.093 248.073 131.243 251.219C138.702 255.525 138.525 257.347 130.888 258.506C125.56 259.334 124.317 259.003 125.205 257.181Z" fill="#C6875D"/>
<path d="M112.596 251.551C111.175 249.232 114.549 246.086 117.036 247.411C118.101 248.073 118.989 249.729 118.989 251.054C118.989 253.704 114.372 254.2 112.596 251.551Z" fill="#C6875D"/>
<path d="M196.598 253.869C193.402 253.207 193.579 252.876 197.309 249.067C199.44 246.914 201.749 245.092 202.459 245.092C203.525 245.092 207.787 252.379 207.787 254.2C207.787 255.194 201.038 254.863 196.598 253.869Z" fill="#C6875D"/>
<path d="M228.033 244.927C226.612 242.608 229.986 239.462 232.473 240.787C235.314 242.443 234.781 246.748 231.94 246.748C230.519 246.748 228.743 245.92 228.033 244.927Z" fill="#C6875D"/>
<path d="M145.628 375.753C144.208 375.09 137.992 372.772 131.954 370.619C125.738 368.466 120.765 366.313 120.765 365.817C120.765 365.32 125.027 365.485 130.178 366.148C146.339 368.301 167.118 367.638 190.027 364.326C216.844 360.352 215.779 360.352 213.115 363.498C211.872 364.823 209.385 365.982 207.609 365.982C205.833 365.982 203.88 366.81 203.347 367.638C202.104 369.46 190.56 374.428 188.607 373.931C187.896 373.766 185.41 374.428 182.924 375.422C177.596 377.409 149.358 377.74 145.628 375.753Z" fill="#C6875D"/>
<path d="M145.451 374.925C144.208 373.6 142.432 372.772 141.366 373.103C140.301 373.6 137.459 372.938 134.973 371.778C132.486 370.619 128.579 368.798 126.093 367.804C122.363 366.313 122.896 366.148 129.645 366.976C144.563 368.963 174.932 367.97 194.467 364.657C205.301 362.836 214.358 361.677 214.536 362.008C215.601 362.836 200.328 369.46 189.495 372.772C175.82 377.078 148.648 378.402 145.451 374.925Z" fill="#FEFEFD"/>
<path d="M77.2541 257.347C84.7131 252.048 87.0219 251.385 88.265 254.532C88.7978 256.188 89.6858 258.009 90.041 258.837C90.3962 259.5 87.0219 259.996 82.2268 259.996C74.235 259.831 73.8798 259.665 77.2541 257.347Z" fill="#FEFEFD"/>
<path d="M125.738 254.2C126.626 249.232 127.514 249.232 133.019 252.876C137.104 255.525 137.104 255.691 133.907 256.85C127.158 259.334 124.672 258.672 125.738 254.2Z" fill="#FEFEFD"/>
<path d="M113.128 252.379C110.82 250.226 111.885 248.404 115.615 248.404C117.568 248.404 118.989 249.232 118.634 250.391C117.746 252.71 114.727 253.869 113.128 252.379Z" fill="#FEFEFD"/>
<path d="M197.842 248.901C202.814 244.927 203.169 244.927 204.413 247.742C206.721 253.041 206.189 253.372 199.44 253.372L192.691 253.207L197.842 248.901Z" fill="#FEFEFD"/>
<path d="M241.708 249.398C241.708 248.404 242.24 246.417 242.951 244.761C244.016 242.277 244.727 242.277 250.41 245.092C256.803 248.239 256.271 249.067 246.503 250.557C243.484 250.888 241.53 250.557 241.708 249.398Z" fill="#FEFEFD"/>
<path d="M229.453 244.43C229.631 242.774 230.874 241.615 231.762 241.615C234.426 241.78 233.893 245.589 231.229 246.417C229.631 246.914 228.921 246.086 229.453 244.43Z" fill="#FEFEFD"/>
</g>
<defs>
<clipPath id="clip0">
<rect width="325" height="467" fill="white"/>
</clipPath>
</defs>
</svg>
