<svg width="378" height="479" viewBox="0 0 378 479" fill="none" xmlns="http://www.w3.org/2000/svg">
<path d="M182.426 468.403C170.687 463.104 157.07 452.507 123.026 422.622C98.8435 401.215 93.4435 395.069 86.1652 381.292C81.4696 372.603 75.6 358.19 73.2522 349.712C69.9652 338.479 67.3826 333.816 64.0957 332.545C58.2261 330.637 48.1304 319.828 42.0261 309.019C30.7565 289.096 24.4174 248.614 30.5217 234.413C33.8087 226.571 42.7304 227.207 51.887 235.897C57.287 240.984 58.6957 241.619 57.7565 238.44C53.7652 224.664 51.4174 201.985 50.2435 167.65C49.5391 146.031 48.6 127.804 47.8957 126.744C47.1913 125.896 45.7826 119.962 44.6087 114.027C42.2609 99.4031 45.5478 78.6323 52.5913 66.1274C60.3391 52.3509 94.1478 23.5261 111.522 15.6841C131.478 6.99425 155.191 6.14647 184.304 13.5646C240.887 27.5531 251.217 30.3084 267.652 36.4549C283.383 42.3894 287.843 45.5686 309.209 65.2797C348.417 101.735 355.93 120.386 353.348 172.737C352.644 189.057 350.296 210.675 348.417 221.061C346.539 231.234 345.13 240.136 345.13 240.772C345.13 241.408 347.948 239.076 351.235 235.473C355.461 231.022 359.452 228.903 363.913 228.903C369.783 228.903 371.191 229.962 373.07 236.957C376.591 247.766 376.122 261.119 372.13 278.498C366.261 303.932 348.183 332.757 338.322 332.757C335.27 332.757 333.391 335.724 331.278 345.05C327.052 361.793 316.017 385.531 306.391 397.612C295.122 412.025 241.357 456.534 224.687 465.435C208.722 473.913 196.278 474.761 182.426 468.403Z" fill="#0D0C0E"/>
<path d="M157.774 392.314C146.974 385.108 135 370.271 137.348 366.88C138.052 365.608 140.635 364.549 142.983 364.549C145.33 364.549 147.913 363.913 148.852 363.065C149.557 362.217 151.67 361.37 153.313 360.946C154.957 360.734 162.235 358.826 169.748 356.707C180.783 353.951 185.478 353.527 192.991 355.435C199.33 356.919 204.73 356.919 210.13 355.435C216.235 353.951 221.4 354.163 232.904 356.919C249.574 360.946 250.748 361.158 256.617 363.065C258.73 363.913 262.252 364.973 264.365 365.608C270 367.304 259.2 382.776 246.522 391.254C231.965 401.004 224.687 400.792 217.174 389.982C211.539 381.716 210.6 381.293 200.739 381.716C191.583 382.14 190.174 382.988 186.183 389.77C180.078 400.156 171.157 401.004 157.774 392.314Z" fill="#3C271A"/>
<path d="M104.478 370.695C100.017 367.092 96.7304 363.277 97.4348 362.429C98.1391 361.581 96.9652 360.098 94.8522 359.462C92.9739 358.826 91.8 357.342 92.5044 356.283C93.2087 355.223 92.2696 353.739 90.1565 353.104C88.2783 352.468 87.3391 350.984 88.0435 349.712C88.7478 348.653 88.2783 347.593 86.6348 347.593C84.9913 347.593 84.287 346.957 84.9913 346.321C85.6957 345.685 82.4087 337.419 77.4783 327.882C72.5478 318.344 68.087 308.595 67.3826 306.263C66.6783 303.932 66.6783 309.019 67.3826 317.496C68.3217 330.213 67.8522 332.757 65.0348 332.757C60.5739 332.757 48.3652 320.252 42.0261 309.231C30.7565 289.096 24.4174 248.614 30.5217 234.413C34.0435 225.723 43.9043 227.207 53.5304 237.804L61.0435 246.282V235.049C61.2783 216.822 64.5652 207.708 73.9565 199.866L82.1739 193.084L81.9391 165.531C81.9391 143.912 82.6435 136.494 85.6957 130.559L89.687 123.141L98.3739 126.532C117.626 134.162 129.365 137.765 134.53 137.765C137.583 137.765 148.852 135.434 159.887 132.467C183.13 126.108 189.939 126.956 179.609 134.798C167.635 143.912 150.026 150.482 137.583 150.482C128.426 150.482 126.548 151.118 128.661 153.026C132.887 156.841 152.609 155.781 164.583 150.906C170.452 148.575 184.539 140.309 196.043 132.467C225.391 112.12 233.609 109.153 259.435 109.153C283.852 109.153 290.661 111.696 309.678 127.804L321.652 137.977V166.166V194.567L330.104 200.714C338.087 206.436 338.557 207.92 341.139 225.3L343.957 243.739L350.53 236.321C355.226 230.81 358.983 228.903 363.913 228.903C369.783 228.903 370.957 229.962 373.07 236.957C380.348 260.483 368.374 305.204 348.887 325.974C337.852 337.631 334.8 335.512 336.444 316.437C337.148 307.323 337.148 301.812 336.444 304.144C335.739 306.475 334.33 309.442 333.391 310.502C332.452 311.774 330.339 316.437 328.696 321.1C324.704 332.545 314.374 352.68 311.791 353.527C310.852 353.951 309.913 355.647 309.913 357.342C309.913 359.038 308.974 360.31 307.565 360.31C306.391 360.31 305.217 361.581 305.217 363.277C305.217 366.668 287.609 378.113 284.557 376.418C283.383 375.782 281.27 370.059 279.626 363.489C275.635 346.957 270 342.506 245.348 334.664C218.348 326.398 212.009 325.338 207.783 328.518C204.73 330.637 202.383 330.849 195.339 328.73C187.357 326.186 184.539 326.61 161.296 334.028C133.122 342.718 126.313 348.017 123.261 363.489C121.617 372.179 118.33 377.265 114.809 377.265C113.635 377.265 109.174 374.298 104.478 370.695ZM179.139 234.413C174.678 225.935 171.626 224.664 138.522 217.458C109.643 211.099 99.7826 212.371 88.7478 222.968C79.3565 232.082 80.0609 236.957 89.687 230.598C100.722 223.604 117.391 224.452 146.739 233.777C159.652 238.016 173.035 241.408 176.557 241.408L183.13 241.619L179.139 234.413ZM259.435 233.142C275.635 228.479 291.365 224.664 294.417 224.664C297.235 224.664 304.748 226.995 310.617 229.75C323.53 235.473 324.47 233.989 314.374 223.604C303.104 212.159 294.417 211.099 265.07 217.246C251.687 220.213 238.304 222.968 235.252 223.604C230.557 224.664 220.696 235.685 220.696 240.136C220.696 243.103 230.322 241.408 259.435 233.142Z" fill="#3C271A"/>
<path d="M157.774 392.314C146.739 384.896 134.296 369.423 137.583 366.88C142.043 363.489 175.148 355.223 183.13 355.647C187.591 355.647 196.043 355.859 201.913 355.647C227.035 355.435 232.2 355.859 248.87 360.946C260.139 364.549 266.243 367.304 265.774 369.212C262.487 381.081 240.652 398.46 229.148 398.46C224.687 398.46 221.635 396.341 217.174 389.982C211.774 382.14 210.365 381.504 200.739 381.504C190.878 381.504 189.939 381.928 186.183 389.558C180.548 400.156 171.391 401.215 157.774 392.314Z" fill="#63412C"/>
<path d="M105.887 371.755C101.896 368.788 98.6087 364.973 98.6087 363.277C98.6087 361.581 97.6696 360.31 96.2609 360.31C95.087 360.31 93.9131 359.038 93.9131 357.342C93.9131 355.647 93.2087 353.951 92.0348 353.527C89.4522 352.468 73.0174 319.616 67.8522 305.627C64.8 296.726 63.8609 295.454 64.5652 300.965C68.3217 330.425 68.5565 332.757 65.0348 332.757C60.5739 332.757 48.3652 320.252 42.0261 309.231C30.7565 289.096 24.4174 248.614 30.5217 234.413C33.8087 226.571 43.2 226.995 51.1826 235.685C54.7043 239.288 58.2261 243.739 59.1652 245.646C60.1043 247.554 60.8087 243.315 61.0435 236.321C61.2783 216.61 64.3304 207.708 73.9565 199.866L82.1739 193.084L81.9391 165.531C81.9391 143.912 82.6435 136.494 85.6957 130.559L89.687 123.141L98.3739 126.532C117.626 134.162 129.365 137.765 134.53 137.765C137.583 137.765 148.852 135.434 159.887 132.467C183.13 126.108 189.939 126.956 179.609 134.798C166.226 144.972 148.852 150.906 135.235 150.058C120.678 149.423 120.209 151.33 134.061 154.721C147.443 158.112 164.817 152.814 185.948 139.037C194.87 133.103 207.078 125.049 212.948 121.234C227.504 111.908 245.817 107.245 265.07 108.517C284.087 109.789 293.478 113.815 309.209 127.804L321.652 138.613V166.59V194.567L330.104 200.714C338.087 206.436 338.557 207.92 341.139 225.3L343.957 243.739L350.53 236.321C355.226 230.81 358.983 228.903 363.913 228.903C369.783 228.903 370.957 229.962 373.07 236.957C380.348 260.483 368.374 305.204 348.887 325.974C337.617 337.843 335.035 335.512 336.678 315.377L338.087 297.785L334.33 307.323C324.47 332.333 317.896 345.473 309.678 356.495C300.287 369 289.722 377.901 285.73 376.63C284.322 376.206 281.504 370.059 279.157 362.641C277.043 355.223 273.287 347.381 270.939 345.262C268.357 343.142 255.209 337.843 241.357 333.392C217.878 325.974 215.53 325.762 207.548 328.306C201.443 330.213 198.391 330.425 196.513 328.73C192.287 324.915 186.183 325.974 160.357 334.028C132.887 342.93 126.078 348.229 123.496 362.641C121.852 371.543 118.565 377.265 115.043 377.265C113.87 377.265 109.878 374.722 105.887 371.755ZM150.73 267.689C155.661 263.662 156.365 254.336 152.139 250.309C147.678 246.494 161.765 251.369 167.87 256.032C170.687 257.939 169.983 257.092 166.226 253.912C152.374 241.619 127.252 241.196 114.104 253.065C109.878 256.668 108.704 258.151 111.287 256.244C114.104 254.336 118.565 251.793 121.383 250.309C126.078 248.19 126.313 248.402 125.139 256.032C124.2 261.754 124.904 264.934 127.722 266.841C131.009 269.385 131.478 269.385 130.304 266.841C129.365 264.51 131.478 263.874 139.696 263.874C150.965 263.874 152.843 265.569 146.27 268.961C143.922 270.232 142.983 271.292 144.157 271.292C145.33 271.292 148.383 269.808 150.73 267.689ZM256.852 268.113C252.626 265.146 252.861 265.146 259.904 264.934C263.896 264.934 269.061 264.298 271.409 263.45C274.696 262.39 275.165 262.814 273.991 265.993C272.583 269.173 272.817 269.385 275.87 267.053C279.861 264.086 280.33 257.939 277.043 252.005C273.757 246.494 276.809 246.918 286.435 253.277C295.591 259.423 297.704 260.059 293.244 254.972C289.017 250.521 272.817 243.951 265.539 243.739C255.678 243.739 242.296 248.402 234.313 254.76L226.565 260.907L238.07 254.336C251.922 246.706 255.209 246.282 250.278 252.641C248.165 255.184 246.522 258.575 246.522 260.059C246.522 263.45 254.974 271.292 258.73 271.292C260.139 271.292 259.435 269.808 256.852 268.113ZM179.139 234.413C174.678 225.935 171.626 224.664 138.522 217.458C109.643 211.099 99.7826 212.371 88.7478 222.968C79.3565 232.082 80.0609 236.957 89.687 230.598C100.722 223.604 117.391 224.452 146.739 233.777C159.652 238.016 173.035 241.408 176.557 241.408L183.13 241.619L179.139 234.413ZM259.435 233.142C275.635 228.479 291.365 224.664 294.417 224.664C297.235 224.664 304.748 226.995 310.617 229.75C323.53 235.473 324.47 233.989 314.374 223.604C303.104 212.159 294.417 211.099 265.07 217.246C251.687 220.213 238.304 222.968 235.252 223.604C230.557 224.664 220.696 235.685 220.696 240.136C220.696 243.103 230.322 241.408 259.435 233.142Z" fill="#63412C"/>
<path d="M131.478 256.456C131.478 253.277 132.652 252.217 135.704 252.641C137.817 253.065 139.696 254.76 139.696 256.456C139.696 258.151 137.817 259.847 135.704 260.271C132.652 260.695 131.478 259.635 131.478 256.456Z" fill="#63412C"/>
<path d="M157.774 392.314C146.504 384.896 134.296 369.423 137.583 366.88C138.757 365.82 149.791 362.641 162 359.462C180.548 354.799 185.713 354.375 192.991 356.071C199.096 357.766 204.73 357.766 211.07 356.071C218.583 354.375 223.513 354.799 240.887 359.25C252.391 362.217 263.191 365.185 264.835 365.608C270 367.304 258.496 383.412 246.522 391.254C231.965 401.004 224.687 400.792 217.174 389.982C211.774 382.14 210.365 381.504 200.739 381.504C190.878 381.504 189.939 381.928 186.183 389.558C180.548 400.156 171.391 401.216 157.774 392.314Z" fill="#90444A"/>
<path d="M108.939 374.086C98.3739 367.516 75.3652 327.882 67.8522 303.296L63.3913 289.308L64.8 306.263C65.5043 315.589 66.6783 325.338 67.3826 328.094C70.6696 340.599 52.1217 326.822 42.0261 309.231C30.7565 289.096 24.4174 248.614 30.5217 234.413C33.8087 226.571 43.2 226.995 51.1826 235.685C54.7043 239.288 58.2261 244.375 59.1652 246.706C59.8696 249.25 60.8087 245.223 60.8087 237.381C61.2783 216.61 64.3304 207.92 73.9565 199.866L82.1739 193.084L81.9391 165.531C81.9391 143.912 82.6435 136.494 85.6957 130.559L89.687 123.141L98.3739 126.532C117.626 134.162 129.365 137.765 134.53 137.765C137.583 137.765 148.852 135.434 159.887 132.467C183.13 126.108 189.939 126.956 179.609 134.798C162.235 148.151 138.991 153.662 122.791 148.363C116.687 146.243 116.452 146.455 120.913 149.423C136.409 160.444 158.713 156.841 185.948 139.037C194.87 133.103 207.078 125.049 212.948 121.234C227.504 111.908 245.817 107.245 265.07 108.517C284.087 109.789 293.478 113.815 309.209 127.804L321.652 138.613V166.59V194.567L329.87 200.714C336.913 205.8 338.557 208.556 340.435 219.365C341.844 226.359 342.783 235.897 343.017 240.56C343.017 248.402 343.252 248.614 345.365 243.739C349.122 235.261 357.104 228.903 364.148 228.903C369.783 228.903 371.191 230.174 373.07 236.957C380.348 260.483 368.374 305.204 348.887 325.974C338.791 336.572 334.8 335.088 336.678 321.1C337.383 314.741 338.557 303.932 339.261 297.362C340.2 285.916 340.2 285.704 338.087 293.546C333.157 311.562 325.409 330.213 317.191 344.414C308.035 360.522 290.896 378.325 285.965 376.842C284.322 376.206 281.504 370.059 279.861 363.065C275.87 346.745 269.765 341.446 245.348 333.816C228.913 328.518 220.461 327.458 202.617 328.518C200.27 328.518 195.104 328.094 191.113 327.458C186.183 326.398 177.496 328.094 162.939 332.545C129.6 343.142 127.017 345.05 123.261 363.489C121.617 371.755 118.565 377.265 115.278 377.265C114.339 377.265 111.522 375.782 108.939 374.086ZM187.357 320.04C192.991 319.828 193.226 319.616 189.47 317.708C184.539 315.165 173.739 316.861 173.739 320.252C173.739 321.523 175.383 321.947 177.496 321.311C179.609 320.676 184.07 320.04 187.357 320.04ZM227.739 320.252C227.739 317.285 220.461 315.589 215.061 317.285C210.835 318.556 211.304 318.98 218.348 320.252C222.809 320.888 226.8 321.735 227.27 321.947C227.504 321.947 227.739 321.311 227.739 320.252ZM151.435 267.053C154.017 264.298 155.191 260.695 154.487 256.456C153.783 253.065 153.783 250.097 154.252 250.097C156.6 250.097 165.991 255.184 170.922 259.211C173.739 261.542 176.087 262.602 176.087 261.331C176.087 260.059 171.626 256.032 166.461 252.429C148.383 240.56 124.904 241.408 111.522 254.548L104.478 261.331L112.696 256.032C126.548 247.13 126.548 247.13 125.139 255.396C124.2 260.907 124.904 264.086 127.957 267.053C133.591 272.564 145.8 272.564 151.435 267.053ZM275.87 267.053C278.922 264.086 279.626 260.907 278.687 255.396C277.513 248.826 277.748 248.19 281.27 249.885C283.617 250.945 287.374 253.912 289.722 256.244C292.304 258.787 295.357 260.695 296.53 260.695C300.757 260.695 288.783 250.521 280.565 247.13C266.243 240.984 245.348 244.375 233.139 254.76C224.452 262.178 227.035 263.874 235.957 256.668C246.522 248.402 249.574 248.19 247.696 256.244C244.644 268.961 265.774 277.015 275.87 267.053ZM179.139 234.413C174.678 225.935 171.626 224.664 138.522 217.458C109.643 211.099 99.7826 212.371 88.7478 222.968C79.3565 232.082 80.0609 236.957 89.687 230.598C100.722 223.604 117.391 224.452 146.739 233.777C159.652 238.016 173.035 241.408 176.557 241.408L183.13 241.619L179.139 234.413ZM259.435 233.142C275.635 228.479 291.365 224.664 294.417 224.664C297.235 224.664 304.748 226.995 310.617 229.75C323.53 235.473 324.47 233.989 314.374 223.604C303.104 212.159 294.417 211.099 265.07 217.246C251.687 220.213 238.304 222.968 235.252 223.604C230.557 224.664 220.696 235.685 220.696 240.136C220.696 243.103 230.322 241.408 259.435 233.142Z" fill="#90444A"/>
<path d="M157.774 392.314C146.504 384.896 134.296 369.423 137.583 366.88C138.757 365.82 149.791 362.641 162 359.462C180.548 354.799 185.713 354.375 192.991 356.071C199.096 357.766 204.73 357.766 211.07 356.071C218.583 354.375 223.513 354.799 240.887 359.25C252.391 362.217 263.191 365.185 264.835 365.608C270 367.304 258.496 383.412 246.522 391.254C231.965 401.004 224.687 400.792 217.174 389.982C211.774 382.14 210.365 381.504 200.739 381.504C190.878 381.504 189.939 381.928 186.183 389.558C180.548 400.156 171.391 401.216 157.774 392.314ZM252.861 365.396C250.983 363.701 152.609 363.913 150.73 365.608C150.026 366.244 173.035 366.668 201.913 366.668C230.791 366.668 253.565 366.032 252.861 365.396Z" fill="#B87458"/>
<path d="M108.939 374.086C97.9044 367.304 74.6609 326.61 67.6174 302.024L63.3913 287.188L64.8 306.263C65.5043 316.861 66.6783 327.034 67.1478 329.154C69.2609 339.963 51.4174 325.55 42.0261 309.231C30.7565 289.096 24.4174 248.614 30.5217 234.413C33.8087 226.571 43.2 226.995 51.1826 235.685C54.7043 239.288 58.2261 244.375 59.1652 246.706C59.8696 249.25 60.8087 245.223 60.8087 237.381C61.2783 216.61 64.3304 207.92 73.9565 199.866L82.1739 193.084L81.9391 165.531C81.9391 143.912 82.6435 136.494 85.6957 130.559L89.687 123.141L98.3739 126.532C117.626 134.162 129.365 137.765 134.53 137.765C137.583 137.765 148.852 135.434 159.887 132.467C183.13 126.108 189.939 126.956 179.609 134.798C162.235 148.151 138.991 153.662 122.791 148.363C116.687 146.243 116.452 146.455 120.913 149.423C136.409 160.444 158.713 156.841 185.948 139.037C194.87 133.103 207.078 125.049 212.948 121.234C227.504 111.908 245.817 107.245 265.07 108.517C284.087 109.789 293.478 113.815 309.209 127.804L321.652 138.613V166.59V194.567L329.87 200.714C336.913 205.8 338.557 208.556 340.435 219.153C341.609 225.935 342.078 237.381 341.609 244.587L340.435 257.515L343.722 248.19C348.183 236.321 355.93 228.903 364.148 228.903C369.783 228.903 371.191 230.174 373.07 236.957C380.348 260.483 368.374 305.204 348.887 325.974C339.026 336.148 334.8 335.088 336.444 322.795C337.383 317.073 338.557 306.051 339.026 297.785C340.2 284.645 339.965 284.009 338.087 292.275C334.096 308.807 326.113 329.154 317.191 344.414C308.035 360.522 290.896 378.325 285.965 376.842C284.322 376.206 281.504 370.059 279.861 363.065C275.87 346.745 269.765 341.446 245.348 333.816C228.913 328.518 220.461 327.458 202.617 328.518C200.27 328.518 195.104 328.094 191.113 327.458C186.183 326.398 177.496 328.094 162.939 332.545C129.6 343.142 127.017 345.05 123.261 363.489C121.617 371.755 118.565 377.265 115.278 377.265C114.339 377.265 111.522 375.782 108.939 374.086ZM187.357 320.04C192.991 319.828 193.226 319.616 189.47 317.708C184.539 315.165 173.739 316.861 173.739 320.252C173.739 321.523 175.383 321.947 177.496 321.311C179.609 320.676 184.07 320.04 187.357 320.04ZM230.087 320.252C230.087 317.073 221.4 315.377 215.53 317.073C210.13 318.768 210.835 319.192 228.444 321.947C229.383 321.947 230.087 321.311 230.087 320.252ZM151.435 267.053C154.017 264.298 155.191 260.695 154.487 256.456C153.783 253.065 153.783 250.097 154.252 250.097C156.6 250.097 165.991 255.184 170.922 259.211C173.739 261.542 176.087 262.602 176.087 261.331C176.087 260.059 171.626 256.032 166.461 252.429C148.383 240.56 124.904 241.408 111.522 254.548L104.478 261.331L112.696 256.032C126.548 247.13 126.548 247.13 125.139 255.396C124.2 260.907 124.904 264.086 127.957 267.053C133.591 272.564 145.8 272.564 151.435 267.053ZM275.87 267.053C278.922 264.086 279.626 260.907 278.687 255.396C277.513 248.826 277.748 248.19 281.27 249.885C283.617 250.945 287.374 253.912 289.722 256.244C292.304 258.787 295.357 260.695 296.53 260.695C300.757 260.695 288.783 250.521 280.565 247.13C266.243 240.984 245.348 244.375 233.139 254.76C224.452 262.178 227.035 263.874 235.957 256.668C246.522 248.402 249.574 248.19 247.696 256.244C244.644 268.961 265.774 277.015 275.87 267.053ZM179.139 234.413C174.678 225.935 171.626 224.664 138.522 217.458C109.643 211.099 99.7826 212.371 88.7478 222.968C79.3565 232.082 80.0609 236.957 89.687 230.598C100.722 223.604 117.391 224.452 146.739 233.777C159.652 238.016 173.035 241.408 176.557 241.408L183.13 241.619L179.139 234.413ZM259.435 233.142C275.635 228.479 291.365 224.664 294.417 224.664C297.235 224.664 304.748 226.995 310.617 229.75C323.53 235.473 324.47 233.989 314.374 223.604C303.104 212.159 294.417 211.099 265.07 217.246C251.687 220.213 238.304 222.968 235.252 223.604C230.557 224.664 220.696 235.685 220.696 240.136C220.696 243.103 230.322 241.408 259.435 233.142Z" fill="#B87458"/>
<path d="M157.774 392.314C147.443 385.531 134.296 369.635 137.113 367.304C137.817 366.456 164.817 366.032 196.748 366.456C228.678 366.668 254.035 366.244 253.096 365.608C252.157 364.761 228.443 364.125 200.504 364.125C172.565 364.337 150.261 363.913 150.965 363.277C154.017 360.31 184.774 354.799 190.174 356.283C193.461 357.13 203.791 357.13 213.183 356.495C225.391 355.859 230.087 356.071 230.087 357.978C230.087 359.462 231.261 359.886 232.435 359.25C233.843 358.402 240.887 359.462 248.4 361.369C255.678 363.489 263.191 365.396 264.835 365.82C270 367.304 258.261 383.412 246.522 391.254C231.965 401.004 224.687 400.792 217.174 389.982C211.774 382.14 210.365 381.504 200.739 381.504C190.878 381.504 189.939 381.928 186.183 389.558C180.548 400.156 171.391 401.215 157.774 392.314Z" fill="#BC616E"/>
<path d="M120.678 268.113C116.687 266.417 112.226 263.874 110.583 262.178C108.235 259.635 108.939 258.151 114.339 254.972C126.548 247.342 126.548 247.342 125.139 255.396C124.2 260.907 124.904 264.086 127.957 267.053C132.887 271.928 131.009 272.14 120.678 268.113Z" fill="#8C8380"/>
<path d="M151.435 267.053C154.017 264.298 155.191 260.695 154.487 256.456C153.783 253.065 154.017 250.097 154.722 250.097C158.478 250.097 171.391 258.787 171.391 261.331C171.391 264.298 157.304 271.292 150.965 271.292C147.678 271.292 147.678 270.868 151.435 267.053Z" fill="#8C8380"/>
<path d="M238.304 266.629L229.148 262.178L236.661 256.244C246.522 248.402 249.574 248.402 247.696 256.244C246.522 260.907 247.461 263.662 250.983 266.841C255.443 270.868 255.443 271.292 251.922 271.292C249.574 271.08 243.47 269.173 238.304 266.629Z" fill="#8C8380"/>
<path d="M275.87 267.053C278.922 264.086 279.626 260.907 278.687 255.396C277.278 247.342 278.687 247.13 288.313 254.972C295.357 260.907 294.887 261.966 284.087 267.053C272.583 272.352 270.47 272.352 275.87 267.053Z" fill="#8C8380"/>
<path d="M263.896 258.363C262.017 255.396 266.478 251.369 269.765 253.065C272.348 254.548 270.704 260.695 267.652 260.695C266.478 260.695 264.835 259.635 263.896 258.363Z" fill="white"/>
<path d="M184.304 373.662C181.722 373.238 177.261 372.391 174.443 371.755C161.061 369.212 171.626 367.728 201.913 367.728C219.991 367.728 234.783 368.364 234.783 369.212C234.783 373.662 200.504 376.842 184.304 373.662Z" fill="#E98693"/>
<path d="M157.774 392.314C146.974 385.108 135 370.271 137.348 366.88C139.696 363.277 144.861 364.125 162 370.907C176.322 376.63 180.548 377.266 201.678 377.266C223.043 377.266 227.27 376.63 243 370.695C252.626 367.092 262.017 364.549 264.13 365.396C274.461 369 243.704 398.248 229.617 398.46C224.452 398.46 221.87 396.553 217.174 389.982C211.774 382.14 210.365 381.504 200.739 381.504C190.878 381.504 189.939 381.928 186.183 389.558C180.548 400.156 171.391 401.216 157.774 392.314Z" fill="#EEB089"/>
<path d="M109.643 374.934C104.009 371.967 90.1565 352.044 79.5913 331.485C70.4348 313.893 67.8522 301.388 64.8 259.635C64.0957 250.309 62.9217 240.56 61.9826 238.016C61.2783 235.261 61.2783 227.843 62.2174 221.061C63.6261 210.887 65.2696 207.92 73.0174 200.926L82.1739 192.66L81.9391 165.319C81.9391 143.912 82.6435 136.494 85.6957 130.559L89.687 123.141L98.3739 126.532C117.626 134.162 129.365 137.765 134.53 137.765C137.583 137.765 148.852 135.434 159.887 132.467C183.13 126.108 189.939 126.956 179.609 134.798C161.061 148.787 137.113 154.085 121.383 147.303L113.87 143.912L119.27 148.151C135 160.656 157.774 157.477 185.948 139.037C194.87 133.103 207.078 125.049 212.948 121.234C227.504 111.908 245.817 107.245 265.07 108.517C284.087 109.789 293.478 113.815 309.209 127.804L321.652 138.613V166.802V194.779L329.635 200.29C342.313 208.98 343.017 215.126 337.148 272.352C333.391 310.714 329.87 323.219 316.487 346.109C307.8 360.946 290.661 378.113 285.965 376.842C284.322 376.206 281.739 370.695 280.33 364.337C275.87 343.778 275.635 343.566 238.774 331.697C217.409 324.915 215.061 324.491 208.017 327.246C201.678 329.577 199.565 329.577 194.4 327.246C188.765 324.703 185.713 325.127 162.235 332.545C147.678 336.996 134.061 342.294 131.478 344.414C129.13 346.321 125.843 353.527 124.2 360.098C121.617 371.331 118.565 377.265 115.278 377.265C114.574 377.265 111.991 376.206 109.643 374.934ZM223.748 323.219C245.817 323.219 248.87 313.893 232.2 296.726L224.922 289.308L232.2 298.633C236.191 303.932 239.478 310.29 239.478 313.046C239.478 318.768 233.374 321.735 229.383 318.132C225.626 314.741 215.296 315.165 209.896 318.98C204.026 323.007 198.626 323.007 194.635 318.768C191.583 315.377 181.487 315.589 169.983 318.98C161.296 321.523 161.061 314.105 169.043 302.236L176.322 291.427L169.278 298.845C160.826 307.535 158.009 316.861 162.235 321.311C164.348 323.643 168.104 324.067 178.435 323.007C187.826 322.159 192.522 322.371 193.696 324.279C194.87 325.974 197.687 326.186 202.852 325.127C206.843 324.279 216.235 323.431 223.748 323.219ZM164.348 269.173C176.087 263.874 177.496 261.331 172.096 256.032C160.591 244.163 134.296 240.348 119.739 248.19C111.991 252.641 105.887 258.151 105.652 261.119C105.652 263.238 121.852 271.716 130.07 273.623C139.93 275.955 153.548 274.047 164.348 269.173ZM276.104 272.352C282.678 270.656 290.191 267.053 293.009 264.298L298.174 259.423L291.6 253.912C288.078 250.945 282.913 247.342 280.096 246.07C272.583 242.679 254.504 243.103 245.817 247.13C237.365 250.945 227.739 258.363 227.739 261.119C227.739 264.934 251.452 275.107 260.843 275.531C262.722 275.531 269.765 274.047 276.104 272.352ZM169.278 245.011C165.757 241.196 148.383 237.381 135.704 237.592C126.783 237.804 127.487 238.228 140.4 239.712C148.617 240.56 158.713 243.315 162.704 245.435C170.922 249.885 173.504 249.673 169.278 245.011ZM240.183 244.799C243.235 243.103 252.861 240.772 261.783 239.712C276.104 238.228 276.809 237.804 267.417 237.592C255.443 237.381 232.435 242.891 232.435 245.858C232.435 248.826 234.078 248.402 240.183 244.799ZM122.087 240.984C125.139 239.924 125.139 239.712 121.852 239.712C119.974 239.5 116.217 240.984 113.635 242.891C109.174 246.07 109.174 246.07 113.87 244.163C116.452 243.103 120.209 241.619 122.087 240.984ZM179.139 234.413C174.678 225.935 171.626 224.664 138.522 217.458C109.643 211.099 99.7826 212.371 88.7478 222.968C79.3565 232.082 80.0609 236.957 89.687 230.598C100.722 223.604 117.391 224.452 146.739 233.989C159.652 238.016 173.035 241.408 176.557 241.408L183.13 241.619L179.139 234.413ZM259.435 233.142C275.635 228.479 291.365 224.664 294.417 224.664C297.235 224.664 304.748 226.995 310.617 229.75C323.53 235.473 324.47 233.989 314.374 223.604C303.104 212.159 294.417 211.099 265.07 217.246C251.687 220.213 238.304 222.968 235.252 223.604C230.557 224.664 220.696 235.685 220.696 240.136C220.696 243.103 230.322 241.408 259.435 233.142Z" fill="#EEB089"/>
<path d="M120.443 267.901C109.643 263.662 108.704 260.695 116.452 254.76L123.261 249.25L123.965 257.727C124.435 262.178 125.843 267.053 127.252 268.537C130.07 271.716 130.07 271.716 120.443 267.901Z" fill="#EEB089"/>
<path d="M152.843 266.841C154.252 264.298 154.957 259.635 154.487 256.244C153.313 248.826 153.313 248.826 163.409 254.548C173.504 260.059 173.504 263.238 163.174 267.689C151.904 272.564 149.557 272.352 152.843 266.841Z" fill="#EEB089"/>
<path d="M238.774 266.841C231.261 263.238 230.322 261.966 232.67 259.423C234.313 257.515 238.774 254.76 242.53 252.853L249.574 249.673L247.93 255.396C246.757 259.211 247.696 262.814 250.043 266.205C254.739 272.564 251.217 272.776 238.774 266.841Z" fill="#EEB089"/>
<path d="M274.696 269.385C274.696 268.325 275.87 266.629 277.278 265.781C278.687 265.146 279.391 261.119 278.922 257.304C278.452 253.277 278.687 250.097 279.626 250.097C282.209 250.097 293.478 258.787 293.478 260.907C293.478 261.966 289.252 264.722 284.087 267.053C278.922 269.385 274.696 270.444 274.696 269.385Z" fill="#EEB089"/>
<path d="M184.304 358.402C175.383 357.342 173.974 356.919 178.435 355.859C181.722 355.223 186.887 355.435 190.174 356.283C193.461 357.131 204.026 357.131 213.652 356.495C223.278 356.071 230.791 356.071 230.087 356.495C227.974 358.402 196.278 359.674 184.304 358.402Z" fill="#EEB089"/>
<path d="M55.1739 321.947C51.887 318.132 46.9565 311.35 44.3739 306.899C33.8087 288.248 29.113 247.342 36.6261 237.804C41.3217 231.446 45.313 231.87 52.3565 239.288C58.6957 246.07 60.5739 254.548 62.2174 280.83C62.687 290.155 63.8609 304.78 64.8 313.257C66.4435 330.425 64.8 332.121 55.1739 321.947Z" fill="#EEB089"/>
<path d="M336.913 324.491C337.617 322.371 339.026 305.415 340.2 286.764C342.313 250.097 345.365 240.348 355.93 235.261C364.148 231.234 368.609 235.897 370.252 250.521C372.835 273.623 361.096 309.654 345.835 324.703C340.67 329.789 335.035 329.789 336.913 324.491Z" fill="#EEB089"/>
<path d="M118.565 265.569C114.809 263.874 111.052 261.966 110.583 261.542C109.174 260.483 115.278 254.336 119.974 252.217C123.496 250.521 123.965 251.369 124.904 259.635C125.374 264.934 125.609 269.173 125.609 269.173C125.609 268.961 122.557 267.477 118.565 265.569Z" fill="#FDFDFD"/>
<path d="M153.783 259.635C153.783 254.336 154.252 250.097 154.722 250.097C157.304 250.097 171.391 259.211 171.391 260.907C171.391 262.814 159.183 269.173 155.661 269.173C154.487 269.173 153.783 264.934 153.783 259.635Z" fill="#FDFDFD"/>
<path d="M238.774 265.781C230.791 261.966 231.496 258.787 241.826 253.489L249.574 249.25L247.93 254.972C247.226 258.151 247.461 262.602 248.87 264.934C251.922 270.232 248.4 270.444 238.774 265.781Z" fill="#FDFDFD"/>
<path d="M277.044 265.993C278.687 264.298 279.391 260.059 278.922 256.456C277.748 248.826 279.391 248.614 288.078 255.184L294.417 260.271L286.435 264.722C276.809 270.02 272.817 270.444 277.044 265.993Z" fill="#FDFDFD"/>
<path d="M132.417 258.363C130.539 255.396 135 251.369 138.287 253.065C139.696 253.912 140.87 255.396 140.87 256.456C140.87 259.211 134.061 260.695 132.417 258.363Z" fill="#FDFDFD"/>
</svg>
