<svg width="444" height="563" viewBox="0 0 444 563" fill="none" xmlns="http://www.w3.org/2000/svg">
<path d="M238 554.9C238 554.6 234.7 553.7 230.8 553C222.1 551.4 223.5 551.7 218 550C215.5 549.3 212.8 548.1 211.9 547.3C211.1 546.6 210 546 209.6 546C206.3 546 188 527.3 178.7 514.3C174.8 508.9 171.3 504.4 170.8 504.2C170.4 504 170 503.4 170 502.8C170 502.3 167 498.2 163.4 493.7C159.8 489.2 156.6 484.8 156.3 484C155.9 483.2 153.1 478.7 150 474C146.9 469.3 144 464.8 143.6 464C142.1 460.7 140.1 457.7 139.3 457.1C138.1 456.3 124 435.3 124 434.4C124 434 123.4 432.9 122.6 432.1C120.6 429.8 114 417.1 114 415.5C114 414.8 113.6 414 113.2 413.8C112 413.3 106.4 399.1 105 393C104.3 390 103.3 387.2 102.8 386.9C102.3 386.6 101.8 385.3 101.7 384.2C101.6 382.5 100.9 382 98.5 382C93 382 88.5 380.1 84.1 375.8C78.8 370.6 76.6 365.9 75 356.1C74.3 352 72.5 345.9 71 342.6C60.8 319.7 55 291.9 56.5 272.5C57.2 262.9 58.8 257.9 62.2 254.3C66.6 249.6 75.3 250.4 83.8 256.1C86.2 257.7 88.7 259.2 89.3 259.3C90.7 259.6 90.2 244.8 88.8 243.9C88.3 243.6 87.7 241.3 87.4 238.9C86.6 231.7 85.8 227.6 84.8 226.4C84.3 225.7 83.3 220.1 82.4 213.9C81.6 207.6 80.7 201.6 80.3 200.5C80 199.4 79.7 196.9 79.8 195C80 192.4 79.8 191.9 79 193C78.2 194.2 78 194 78 191.9C78 190.3 77 188.6 74.9 187.1C72.3 185.2 72.1 184.6 73.2 183.3C74.6 181.5 74.4 177.9 72.8 176.9C72.1 176.4 72.3 174.5 73.5 171.3C74.9 167.4 75.1 165.2 74.4 161.4C73.4 155.3 73.5 153.9 75.9 148.7C78.8 142.4 79.4 139.2 78 137.5C77.1 136.4 77.3 135.7 78.9 134.3C80.1 133.4 81 131.8 81 130.9C81 129.9 81.6 128.9 82.3 128.7C82.9 128.4 82.5 128.1 81.3 128.1C78.3 128 78.4 127.2 81.8 123.7C83.3 122 83.9 121.1 83.1 121.5C82.1 122.1 81.9 121.9 82.4 121.1C82.9 120.4 83.8 120.1 84.6 120.4C85.4 120.7 86 120.3 86 119.5C86 118.7 86.7 117.7 87.6 117.2C88.7 116.6 88.9 116.1 88.1 115.6C86 114.3 86.9 110.4 90 108.2C91.6 106.9 93 105.3 93 104.6C93 103.8 93.3 103 93.8 102.7C94.2 102.5 93.8 102.5 93 102.7C92.2 103 91.1 103.2 90.6 103.3C90.1 103.4 89.3 102.3 88.8 100.8C88 98.4 88.3 97.6 91.3 94.6C93.4 92.5 96.3 90.9 98.4 90.5C100.5 90.1 102 89.2 102 88.4C102 87.6 102.4 87 102.8 87C103.7 87 106 81.1 106 78.8C106 76.4 109.3 71 110.8 71C111.5 71 111.8 70.5 111.5 69.9C111.1 69.3 111.5 69 112.6 69.2C113.7 69.4 114.4 69 114.3 68.3C114.1 67.6 114.8 67 115.9 67C116.9 67 118.4 66.2 119.1 65.3C120.4 63.6 120.3 63.6 118.5 65C116.2 66.7 120.4 61.7 127.5 54.4C130.3 51.5 133.6 47.8 135 46.1C138 42.3 141.6 41 149.2 41C153.4 41 154.9 40.7 154.4 39.8C154 39.1 154.1 39 154.8 39.4C155.5 39.8 157 39.4 158.2 38.6C159.4 37.7 162.3 37 164.5 37C168.3 36.9 172.6 34.9 171.4 33.8C171.1 33.5 172.2 32.6 173.9 31.9C175.5 31.2 176.7 30.3 176.5 30C176.3 29.7 177.2 29.5 178.3 29.4C179.5 29.3 183.3 29.2 186.7 29C190.1 28.8 192.7 28.4 192.5 28C192.2 27.5 192.7 26.9 193.6 26.6C194.4 26.3 194.9 26.4 194.6 26.9C194.2 27.4 194.9 27.6 196.1 27.3C197.2 27 197.7 26.4 197.2 26.1C196.7 25.8 202.6 25.4 210.4 25.3C218.1 25.2 223.9 25.4 223.2 25.9C222.3 26.4 223.9 27.1 227.6 27.8C234.5 29.2 243.2 29.4 241.1 28.1C240.2 27.5 241.6 27.4 244.6 27.6C248.3 27.9 248.9 27.7 247 27.1C243.6 25.9 258.3 26.9 263.4 28.2C265.6 28.7 268.6 30.4 270.2 32C271.7 33.6 273 34.4 273 33.9C273 33.4 275.5 33 278.5 33C283.5 33 284.3 33.3 289.1 37.6C293.8 41.8 297.6 44 300.1 44C300.7 44 300.9 43.6 300.6 43.2C300.4 42.8 303.1 42.5 306.7 42.5C313.1 42.6 313.3 42.7 317.8 47.4C322 51.8 322.7 52.2 326.2 51.7C330.5 51.1 330.8 51.4 331.2 55.9C331.4 58.4 331.8 58.9 333.2 58.4C335.2 57.8 337.4 61.9 336.3 64.5C336 65.4 336.2 66 336.7 65.8C337.2 65.6 339.5 67.4 341.8 69.8C345.3 73.4 346 74.8 346 78.1C346 80.3 346.4 81.9 346.9 81.6C347.4 81.3 348 81.6 348.3 82.3C348.6 83 350.7 84.2 353 84.9C356.6 85.9 357.5 86.8 359.2 90.7C360.8 94.2 361 95.8 360.2 97.1C359.4 98.3 359.5 99.3 360.4 100.6C361.2 101.6 361.6 102.9 361.3 103.6C360.7 105.2 365.6 110 367.8 110C370.1 110 372 114.5 372 119.9C372 123.7 372.5 124.7 375.7 127.6C379 130.6 379.4 131.5 379.8 136.9C380 140.3 380.7 143 381.2 143C381.8 143 382 143.7 381.6 144.5C381.3 145.3 381.5 146 382 146C383.6 146 383.1 150 381.5 150.6C380.5 151 380 152.8 380 156.4C379.9 166.5 379.6 168.9 378.8 168.4C378.3 168.1 378.9 169.7 380.2 172.1C382.2 176.1 382.3 176.6 380.9 182.4C380.2 185.7 379.5 191.9 379.3 196.2C379.2 200.4 378.4 205.5 377.6 207.5C376.6 209.8 376 214.4 376 219.4C375.9 223.8 375.3 230.5 374.6 234.1C373.9 237.8 373.3 243.6 373.1 247.1C373 250.6 372.6 254.4 372.3 255.5C371.8 257.3 371.8 257.4 374.1 255.7C379.9 251.6 386.1 249 390.3 249C407 249 409.4 285.2 395.6 327.2C394.2 331.5 391.7 338 390 341.6C388.4 345.3 387 350 387 352C387 357.9 383.2 368.7 379.8 372.6C375.9 377 369.8 380.2 364.8 380.4C361.2 380.5 360.9 380.8 359.9 384.5C353.2 409.2 348.7 421.6 340.6 437.7C338.1 442.6 335.4 448.8 334.5 451.5C332.9 456.2 329.8 463.1 322.1 479C316.3 491 307.8 503.1 297.6 514C295.2 516.5 292.5 519.9 291.4 521.5C290.4 523.2 287.1 527.1 284 530.3C281 533.5 278 537.1 277.3 538.3C276.7 539.5 276 540.3 275.8 540C275.5 539.6 274.2 540.6 268.2 545.8C266.7 547.1 263.6 548.6 261.3 549.2C259 549.9 257.4 550.8 257.7 551.3C258.1 551.9 257.4 552.1 256.2 551.8C255 551.4 253.6 551.8 252.9 552.6C252.3 553.4 251.1 554 250.4 554C249.6 554 249 554.5 249 555.1C249 555.7 246.9 556 243.5 555.8C240.5 555.6 238 555.2 238 554.9ZM282.3 255.8C282 252.3 281.6 249.3 281.4 249.1C280.8 248.4 267.7 255.4 267.3 256.5C267.1 257.4 278.3 261.6 281.7 261.9C282.7 262 282.8 260.4 282.3 255.8Z" fill="#372017"/>
<path d="M230 496.5C230 495.3 228.5 495 222.1 495C212.3 495 207 492.4 197.5 483.1C193.9 479.5 191.2 477.4 191.6 478.3C191.9 479.2 191.9 480 191.6 480C190.2 480 180.4 473.1 177.1 469.9L173.7 466.5L174.3 469.5C174.6 471.2 175.2 473.4 175.6 474.4C176.2 476.1 176 476.2 173.6 475.6C170.8 474.9 168.3 473.1 164.4 469L162 466.5V469L161.9 471.5L160.2 469.4C159.3 468.2 157 465.1 155.2 462.5C152.9 459.2 151.6 458.1 151.1 458.9C150 460.7 141.6 451 137.9 443.5C136.2 440.2 133.1 434.8 131 431.5C115.7 407.7 110.3 395.1 104.7 370C102.6 360.7 97.8 330.8 95.6 313C95.4 311.1 95.4 314.7 95.6 321C96.3 338.1 100.3 371.3 102.6 379.8C103.2 381.8 102.9 382 99.4 382C93 382 88.7 380.3 84.1 375.8C78.8 370.6 76.6 365.9 75 356.1C74.3 352 72.5 345.9 71 342.6C64.1 327.2 58.7 307.5 56.9 291.5C55.7 280.1 56.5 265.2 58.6 260C63 249.5 72.1 248.3 84.6 256.6C90.5 260.5 91 260.6 91.1 258.3C91.1 256.7 91.3 256.8 92 258.5C93.3 261.3 92.3 246.2 90.9 240.4C90.3 238 89.3 236 88.8 236C88.3 236 88.1 235.6 88.4 235.1C88.8 234.6 88.5 234 87.8 233.8C86.9 233.5 87 232.9 88.2 231.7C90.2 229.7 90.8 229.6 90.7 231.2C90.6 234.9 91.1 235.6 94.2 235.8C96.4 235.9 97.1 235.7 96.1 235.1C95.1 234.4 95 234.2 96.1 233.8C96.8 233.6 97.3 231.9 97.3 230.2C97.3 227.5 97.6 227.1 99.2 227.6C100.2 227.9 101 227.7 101 227.1C101 226.5 101.6 226 102.3 226C103 226 104.2 224.4 105 222.5C105.8 220.6 106.7 219 107.2 219C108.1 219 107.3 223.4 105.9 226.2C104.7 228.4 104.8 229 106 229C106.6 229 107 228.4 107 227.7C107 227 108.6 220.8 110.6 214C116.2 194.8 118.9 182.8 121 167.5C122.5 157.1 123.5 153.2 124.8 152.2C125.7 151.5 129.5 150 133.2 148.9C143 145.9 145.7 143.7 150.6 134.5C155.5 125.2 158.7 121.7 165.1 118.5C174.9 113.5 179.7 112.9 225 111.9C248.4 111.3 271.6 111.1 276.6 111.3C290.7 112.1 298.5 116.3 300.5 124.2C301.2 126.9 303.8 128.4 309.9 129.4C311.7 129.7 314.8 131.3 316.7 133C318.5 134.6 321.1 136 322.3 136C324.3 136 324.5 136.4 324.2 139.8C323.8 144.2 326.1 147 330.6 147.3C333 147.5 333.6 148.2 334.7 152C336.1 156.6 338.6 169.3 341.5 186C343.4 197.2 350.8 221 352.2 220.7C352.7 220.6 353.3 222.1 353.4 224C353.6 226 354.2 228.5 354.9 229.5C356 231.4 356.1 231.4 355.5 229.3C355.1 227.9 355.3 227 355.9 227C356.5 227 357 227.5 357 228.2C357 228.8 357.3 229 357.6 228.7C358.5 227.8 356 224.9 354.9 225.6C354.4 225.9 354 225.6 354 225.1C354 224.5 354.4 224 354.9 224C355.4 224 356.5 223.8 357.2 223.5C359 222.8 359 227.7 357.2 230.8C356.4 232.1 356.1 233.4 356.4 233.7C356.7 234 357.2 233.5 357.6 232.6C358.1 231.4 359.5 231 363.7 231C366.7 231 370 230.5 371.1 230C372.2 229.4 373 229.3 373 229.8C373 230.4 372.1 231 371 231.3C369.9 231.6 369 232.3 369 232.9C369 234.4 371.7 234.3 372.3 232.8C372.6 232 372.9 232.2 372.9 233.3C373 234.3 372.3 235.3 371.5 235.6C370.7 236 370 237 370 237.9C370 239.3 370.2 239.3 371 238C371.8 236.8 372 237.1 372 239.3C372 241.2 371.5 242 370.3 242.1C369.1 242.1 369 242.3 369.8 242.7C370.8 243.1 371 245 370.6 250.4L370 257.5L371.5 253L372.9 248.5L372.3 253L371.8 257.4L374.1 255.7C379.8 251.6 386.1 249 390.3 249C407 249 409.4 285.2 395.6 327.2C394.2 331.5 391.7 338 390 341.6C388.4 345.3 387 350 387 352C387 357.9 383.2 368.7 379.8 372.6C375.8 377.1 370 380.1 364.4 380.5C360.7 380.7 360 380.5 360.4 379.1C360.7 378.2 362.3 370.5 363.9 362C367.6 343.6 369 330.3 368.8 316L368.7 305.5L367.9 318C366.4 343.4 359.6 371.9 347.3 404C341 420.5 323.1 456.2 321.7 455.3C321.1 454.9 320.9 455.4 321.3 456.4C321.7 457.3 321.6 457.9 321.1 457.6C320.6 457.3 319.5 458.2 318.5 459.6C315.7 463.9 302.8 477 301.4 477C300.4 477 300.2 476.1 300.7 473.8L301.3 470.5L297.3 474.9C293.2 479.2 290.7 479.7 291.7 476C292.3 473.7 291.3 473.5 288.8 475.4C287.8 476.1 287.4 477.1 287.8 477.5C288.2 478 288 478 287.4 477.7C286.8 477.3 285.4 478 284.4 479.1C280 484.1 270.4 490.4 265.6 491.7C262.8 492.4 259.8 493.9 259 495C257.6 496.9 257.3 496.9 252.9 495.3C248.4 493.7 248.2 493.7 245.6 495.8C243 497.8 240 497.8 240 495.9C240 495.4 238.4 495.7 236.4 496.5C231.8 498.4 230 498.4 230 496.5ZM146 450.5C145.3 449.6 144.5 449.2 144.2 449.5C143.9 449.7 144.3 450.6 145 451.5C145.7 452.4 146.5 452.8 146.8 452.5C147.1 452.3 146.7 451.4 146 450.5ZM201.6 421.8C201.4 420 201.1 417.8 200.9 417C200.6 416.2 201.9 414.9 204 413.8C208.9 411.3 220 411.4 227.6 414.1C236.9 417.3 237.5 417.4 244.7 414.5C250.4 412.2 253.1 411.7 261.2 411.6C266.5 411.5 271.1 411.8 271.5 412.2C272.6 413.2 272.5 417.9 271.5 421.5C270.7 424.3 270.7 424.4 272.4 422.7C273.4 421.8 274.5 421 274.9 421C275.5 421 277 416.9 280.1 406.6C280.6 405.1 281.3 400.3 281.6 396.1C282.3 387.4 281.5 384.8 277.2 382.7C273.5 380.8 264.6 379.9 261.2 381.1C259.5 381.7 257.4 381.7 256 381.2C254.2 380.5 252.7 380.8 250.3 382.3C247.8 383.7 246 384.1 243.2 383.6C238.7 382.8 237.6 382.8 232.4 383.6C229.8 384 227.3 383.7 225.9 382.9C220.8 380.2 204.2 380.3 198.3 383.1C191.3 386.5 189.7 389.3 190.4 396.8C191 404.3 194.8 416.2 196.2 415.4C196.8 415 196.9 415.7 196.5 417.1C196.1 418.4 196.1 419.2 196.5 418.8C197.3 418 201 422.2 201 423.9C201 424.5 201.2 425 201.5 425C201.8 425 201.9 423.5 201.6 421.8ZM282.7 259.4C282.4 257.6 282.6 257.2 283.3 257.9C284 258.6 284.8 258.6 285.9 257.7C287.1 256.7 287.2 256.8 286.5 257.9C285.9 258.9 286.1 259.1 286.9 258.6C287.6 258.1 287.9 257.3 287.7 256.6C287.5 256 288.6 254.2 290.1 252.5C292.8 249.7 293 249.7 293 251.6C293 252.8 294 254.9 295.1 256.4C296.9 258.7 297.9 259.1 301.4 258.8C305.4 258.5 305.5 258.5 305.5 254.6C305.5 250.1 307.9 247.8 310.8 249.6C311.7 250.2 312.6 251.6 312.8 252.6C312.9 253.6 313.3 255.6 313.6 257L314.2 259.5L315.6 257C316.4 255.6 317 252.9 316.9 251C316.8 249.1 316.8 247.2 316.9 246.8C317 245.8 327.2 250.3 331.3 253.1L334.5 255.4L331.5 252.2C329.9 250.5 327.7 249 326.8 249C325.8 249 325 248.6 325 248C325 246.5 320.1 244.4 313.2 243C306.2 241.6 290.8 242.2 290.2 243.9C290 244.5 288.8 244.7 287.5 244.4C286.2 244.1 284.9 244.4 284.5 245.1C283.9 245.9 284.1 246.1 285.1 245.5C286.2 244.8 286.2 245 285 246.4C284.2 247.5 283.4 247.8 283.2 247.1C282.8 245.9 278.1 246.7 276.5 248.3C275.8 249 276.1 249.1 277.3 248.7C280.6 247.5 278 249.8 272.5 252.9C269.5 254.6 267 256.4 267 256.8C267 257.5 279.1 261.7 281.9 261.9C282.8 262 283.1 261.2 282.7 259.4ZM184.9 250.8C184.4 249 184 247.4 184 247.2C184 246.8 190.2 248 191.4 248.7C192.1 249.1 192.2 248.9 191.5 248.2C191 247.6 188.9 246.8 187 246.5C182.5 245.6 181.9 245.5 179.7 244.5C178.7 244.1 176.3 244 174.4 244.3C172.5 244.6 171.1 244.6 171.4 244.2C171.6 243.8 168.9 243.4 165.3 243.2C161.8 243.1 159.1 243.3 159.4 243.8C159.7 244.3 158.9 244.5 157.6 244.3C156.3 244 153.4 244.8 151.2 245.9C148.9 247.1 146.5 248 145.8 248C145.1 248.1 142.7 249.6 140.5 251.5L136.5 255L143.5 251.5C147.4 249.6 150.8 248 151.3 248C151.7 248 152 250.3 152 253C152 259 153.3 259.4 157.4 254.8L160.3 251.5L161.2 254C162.7 258 165.1 260 168.5 260C172.3 260 174.6 258 172.8 256.2C171.9 255.3 171.9 254.4 172.8 252.5C174.2 249.4 178.4 249.1 180 251.9C181.5 254.7 181.3 255.7 178.8 258.1L176.5 260.2L179 259C181 257.9 181.6 258 182.4 259.3C184.1 262 186.1 255 184.9 250.8ZM104.7 232.4C105 231.6 104.8 230.4 104.2 229.8C103.4 229 103.3 229.3 103.7 230.9C104 232.1 103.8 233 103.1 233C102.5 233 102 232.3 102 231.3C102 230.4 101.7 229.9 101.4 230.3C100.5 231.2 101.7 234 103 234C103.6 234 104.3 233.3 104.7 232.4ZM137.4 227.6C139.5 226.7 142 226 143 226C145.8 226 148.8 222.7 148.7 219.8C148.5 216.7 147 217.1 147 220.3C146.9 222.2 146.8 222.3 146 220.8C144.7 218.7 145.8 216 147.9 216C149.3 216 149.3 215.8 148 215C147 214.4 145.2 214.8 142.1 216.5C139.7 217.9 137.2 219 136.6 219C134.4 219 127 230.3 127 233.6C127 233.9 128.5 233.1 130.3 231.7C132.1 230.3 135.3 228.5 137.4 227.6ZM342 230.4C340.3 226 334.9 218.9 333.8 219.6C333.2 220 333 219.9 333.3 219.3C333.7 218.7 332.9 217.5 331.5 216.6C329.7 215.4 329 215.3 329 216.2C329 217.2 328.8 217.2 328.2 216.3C327.2 214.7 322.3 213.6 321.6 214.9C321.2 215.6 321.5 215.7 322.4 215.4C323.4 215 324 215.3 324 216.3C324 219.3 322.9 220.9 321.2 220.3C320.3 219.9 319.8 220 320.2 220.5C320.6 220.9 320.4 222 319.7 222.8C318.7 224.1 318.8 224.3 320.4 223.7C323.2 222.6 332.9 226 337.9 229.7C340.3 231.5 342.4 233 342.6 233C342.8 233 342.5 231.8 342 230.4Z" fill="#6B402A"/>
<path d="M87.2 224.8C86.6 222.5 86.3 220.4 86.6 220.1C86.8 219.9 87 220.2 87 220.9C87 221.6 87.5 221.8 88.1 221.4C88.9 221 89 221.4 88.5 222.9C88.1 224.1 88.3 225 88.9 225C89.5 225 90 225.9 90 227C90 230.5 88.3 229.2 87.2 224.8Z" fill="#6B402A"/>
<path d="M85.5 215.9C85.1 214.8 85.1 213.6 85.4 213.3C85.7 212.9 86 213.4 86 214.4C86 215.3 86.4 215.8 87 215.5C87.6 215.2 87.7 215.6 87.4 216.4C86.6 218.5 86.3 218.4 85.5 215.9Z" fill="#6B402A"/>
<path d="M138 109.4C138 107.8 138.9 107.6 140.8 108.9C141.8 109.5 141.7 109.9 140.1 110.3C138.7 110.6 138 110.3 138 109.4Z" fill="#6B402A"/>
<path d="M308.4 109.1C308.7 108.7 307.8 108.5 306.3 108.8C304.5 109.1 303.9 108.9 304.4 108.1C305.2 106.8 308.9 106.7 310.8 107.9C311.9 108.6 311.8 108.9 310.5 109.4C308.3 110.2 307.8 110.2 308.4 109.1Z" fill="#6B402A"/>
<path d="M140 107.3C140 106.1 145.2 104 146.3 104.7C146.9 105 147 104.8 146.6 104.2C146.2 103.5 146.5 103 147.2 103C147.9 103 149.6 102.7 151 102.3C153.2 101.7 153.3 101.8 152 103.1C149.3 105.5 146.1 107 144.6 106.4C143.8 106.1 142.9 106.3 142.5 106.9C141.8 108.2 140 108.4 140 107.3Z" fill="#6B402A"/>
<path d="M105 104C105 102.8 110.2 98.9 110.9 99.6C111.2 99.9 110.7 100.6 109.7 101.1C108.8 101.7 108.2 102.5 108.5 102.9C108.7 103.4 108.1 104 107 104.3C105.9 104.6 105 104.4 105 104Z" fill="#6B402A"/>
<path d="M239.3 92.8C241.4 90.8 243.7 90.5 246 92C247.1 92.7 246.4 93 243.5 93C241.2 93 239 93.3 238.4 93.8C237.9 94.2 238.3 93.7 239.3 92.8Z" fill="#6B402A"/>
<path d="M230.3 496C229.8 494.2 228.9 494 221.6 494C212.9 494 210.5 493.2 203.5 487.8C189.2 476.7 178 450 175 419.6C173.8 408 174.2 405.7 178.6 396.9C182.1 389.8 199.5 373.8 208.3 369.5C218.3 364.7 226.1 362.8 231.4 364C234.1 364.6 237.3 364.6 241 363.8C252 361.6 267.5 367.5 277.8 377.8C284.9 384.9 287.8 389.6 293.9 403.9C298.2 414 298.4 414.9 298.2 423C297.7 440 292.9 460.3 286.3 473.5C281.6 482.7 269.4 491.9 261.8 492C260 492 258.9 492.7 258.5 494.1C258.1 495.2 257.3 496 256.7 495.7C248 492.5 248.2 492.5 245.7 494.8C243 497.4 241.4 497.6 240.6 495.5C240.2 494.3 239.6 494.1 238.1 495C237 495.5 234.9 496.5 233.5 497C231.2 497.9 230.7 497.7 230.3 496ZM257.5 479.6C262.3 476.6 265.1 473.7 267.1 469.8C270.4 463.4 269.6 462.8 263.3 466.6C255.2 471.5 251.2 472.3 237.5 471.8C224.9 471.4 218.8 469.6 210.9 463.9C209.2 462.7 207.7 462 207.5 462.2C206.6 463 211.9 472.6 214.6 475.1C220.8 480.8 223.8 481.6 239.8 481.5C252.5 481.5 255 481.2 257.5 479.6ZM257.1 440.8C261.3 438.9 264 436.7 267.6 432.1C270.3 428.8 273.1 426 273.7 426C276.3 426 280.3 413.1 281.9 399.5C283.2 389 282.3 385.1 278.1 382.3C275.1 380.2 273.8 380.1 264.1 380.4C258.2 380.6 252.5 381.2 251.5 381.7C248.1 383.5 243.4 384.1 240.9 383.1C239.3 382.5 236.8 382.6 233.9 383.2C230.6 383.9 228.7 383.9 226.5 382.9C223.4 381.5 221.1 381.2 209.5 380.7C201.9 380.4 195.5 382.6 191.6 386.9C188.5 390.3 188.5 397.3 191.5 407.5C194.2 416.9 199.5 429 200.9 429C201.3 429 204.3 431.1 207.6 433.6C219.4 442.8 223.1 444 239 443.7C250 443.4 252.2 443.1 257.1 440.8Z" fill="#6E594E"/>
<path d="M154.3 401.8C149.1 397.7 140.3 387.9 132.6 377.7C129.4 373.4 126.5 370.2 126.2 370.4C125.9 370.7 125.1 370.5 124.3 369.9C122.4 368.3 122.7 370 124.7 372.2C126.1 373.7 126.1 374.1 125 373.8C124.2 373.6 123 372.8 122.3 371.9C121.3 370.5 120.2 370.4 115.3 371.3C112.1 371.8 109.1 372.8 108.7 373.4C108.2 374 108.1 373.1 108.4 371.3C108.7 369.4 108.5 368 108 368C107.4 368 107 369.2 107 370.7C107 375.5 106.1 372.6 103.4 359C100.2 342.5 100.6 344.9 97.9 325C95.4 306.1 95.6 300.7 99.5 274.5C103.3 248.6 106.6 232.5 112.5 210C118.5 187.3 121.5 172.5 122.6 160.8L123.3 153L128.9 151C132 149.9 136.4 148.3 138.7 147.4C144.3 145.4 146.9 142.6 152 132.9C156.7 124.3 159.7 121.3 167.2 118C178.1 113.2 183.2 112.8 237 112.7C282.3 112.5 287.9 112.7 291 114.2C295.4 116.2 297.5 118.5 299.5 123.3C301.2 127.3 302.7 128.4 308.2 129.4C310.3 129.8 313.2 131.1 314.7 132.4C318.7 135.7 321.9 137.2 323.2 136.4C323.9 135.9 324.1 136.5 323.6 138.4C322.7 142.1 325.3 146.8 328.8 147.6C330.3 147.9 332 148.3 332.6 148.5C333.7 148.8 338.1 167.9 339.9 180.8C341.7 192.6 344.6 203.6 350 219C361.3 250.7 362.3 254.9 366.5 284.9C368.7 300 368.2 323.9 365.5 337C365.2 338.4 364.5 342.2 363.9 345.5C363.4 348.8 361.9 354.7 360.8 358.5C358.9 364.7 358.4 367 358.1 370.5C358 371.1 357.5 370.8 357 370C356.2 368.8 356 369 355.9 371C355.8 372.8 355.6 373 355.3 371.7C355 370.5 354.3 370.1 353.3 370.4C352.2 370.8 352 370.6 352.4 369.5C352.8 368.2 352.6 368.1 350.9 369C349.8 369.6 346.6 370 343.7 369.8C340 369.6 338.1 369.9 337.2 371C336.1 372.3 336 372.2 336.5 370.4C336.9 368.9 336.6 368.3 335.4 368.3C333.5 368.3 329.6 376.6 330.7 378.3C331 379 331 379.2 330.5 378.8C330 378.3 328.1 380.6 326.2 383.8C319.8 394.6 313.1 399.2 306.4 397.4L302.9 396.5L302.6 388C302 374.6 300.8 371.4 293.6 364.5C285.9 357.2 256.1 339 251.8 339C248.2 339 239.9 341 238.3 342.2C237.7 342.7 237 344.4 236.8 345.8C236.4 349.4 234.6 349.1 234 345.4C233.6 343.1 232.7 342.2 229.5 341.2C221.9 338.7 217.4 338.6 213.8 340.7C178.4 362.1 170.4 368.1 167.4 375.3C166.2 378.2 165.5 383.4 165.1 392L164.5 404.5L161.5 404.8C159.4 404.9 157.3 404 154.3 401.8ZM226 333.5C222.2 329.9 217.8 326.5 216.3 325.9C212.9 324.6 209.4 325.4 208.6 327.7C207.6 330.2 210.6 332 215.4 332C218.3 332 220.1 332.7 221.9 334.4C224.7 337.1 229.8 340 231.7 340C232.4 340 229.8 337.1 226 333.5ZM245.6 336.4C248.6 334 251.7 332.6 254.4 332.3C259.1 331.8 261.4 330.1 260.5 327.8C258.7 323.1 253 325 244.6 333.1C236.9 340.5 237.5 342.6 245.6 336.4ZM180.6 264.5C183.5 263.9 185.5 258.7 185.4 252.3L185.2 247.2L189.3 248.6C191.5 249.4 195.7 251.3 198.7 252.9C201.6 254.5 204 255.4 204 255C204 253.3 191.5 245.9 185.3 244C173 240.2 155.7 241.8 144.9 247.6C140 250.3 132.7 257 134.7 257C135.4 257 136.2 256.5 136.5 256C137.3 254.6 148.5 249 150.4 249C151.4 249 151.9 250.7 152.2 255C152.7 262.4 154.7 264.8 160.4 265.2C165.1 265.5 177.5 265.1 180.6 264.5ZM312.3 263.1C315.2 262 317 257.5 317 251.3C317 247.2 317.2 246.9 319.3 247.6C322.5 248.6 329 251.9 332.5 254.4L335.5 256.5L333.2 253.6C326.9 245.5 315.8 241 302.3 241C287.4 241 275.9 244.8 267.5 252.5C264.4 255.3 264 256 265.7 255.5C267.3 255 267.8 255.2 267.5 256.2C266.9 257.7 280.9 262.4 283.3 261.5C284 261.2 285.3 261.6 286 262.5C287 263.7 289.6 264 298.6 264C304.8 264 311 263.6 312.3 263.1ZM141.7 243.1C143.5 241.5 145.1 240.5 145.4 240.8C145.7 241.1 146 240.8 146 240.2C146 238.2 144.6 238.8 140.4 242.5C138.3 244.4 137 246 137.5 246C138.1 246 140 244.7 141.7 243.1ZM195 244.5C195 243.7 184.7 238.9 184.2 239.5C183.9 239.7 186.2 241 189.1 242.4C195.5 245.3 195 245.1 195 244.5ZM288 238.5C288.4 238.8 289.9 238.6 291.2 238.1C293 237.3 292.6 237.2 288.9 237.5C286.4 237.7 282.5 238.8 280.2 240C273.6 243.5 274.3 244.2 281.1 240.9C284.4 239.3 287.5 238.2 288 238.5ZM182.6 239.1C181.8 237.9 178 237 178 238C178 238.5 179 239.1 180.3 239.3C181.5 239.5 182.6 239.8 182.8 239.9C183 239.9 182.9 239.6 182.6 239.1ZM164.3 236.6C167 236.3 169 236.4 169 237C169 238.3 174.1 238.2 176 236.9C177.3 236 177.3 235.9 175.9 236.3C175 236.6 173.9 236.5 173.4 236C172.9 235.6 169.6 234.9 166 234.6C161.3 234.2 160.2 234.3 162 235C163.9 235.7 163 235.8 158.7 235.5C155.2 235.2 153.1 235.3 153.4 235.9C153.8 236.4 153.4 237.1 152.8 237.4C151.6 237.9 153.7 237.7 164.3 236.6ZM136.9 228.7C144.2 225.4 152.7 225.9 171.1 230.8C185.9 234.8 187.2 235 201.2 235C210.7 235 216.1 234.6 216.6 233.9C217.4 232.5 212.3 226.2 208.1 223.3C202.5 219.5 194.3 217 178.6 214.4C147.4 209.1 135.9 212.5 127.6 229.5C124.1 236.8 124.3 237.8 128.7 234C130.7 232.2 134.4 229.8 136.9 228.7ZM298.5 235L300.5 234.1L298.5 234.2C297.4 234.2 295.4 234.6 294 235L291.5 235.8H294C295.4 235.8 297.4 235.5 298.5 235ZM314.9 235.1C315.9 234.5 314.9 234.3 312 234.7C308.5 235.2 307.8 235.1 308.5 233.9C309.2 232.8 309.1 232.7 307.9 233.7C307.1 234.3 305.2 235 303.5 235.3C301.9 235.5 303.4 235.8 307 235.8C310.6 235.9 314.2 235.6 314.9 235.1ZM344 233.6C336 212.4 324.3 207.9 292.5 213.4C272.4 216.9 264.3 219.9 257.9 226.1C250.8 233 251.1 233.6 263.1 234.3C275.9 235.1 285.5 233.9 301.1 229.5C317.7 224.8 326.1 224.7 334.7 229C338 230.7 341.5 232.9 342.5 234C344.9 236.6 345.1 236.5 344 233.6Z" fill="#6E594E"/>
<path d="M164 262.5C164 261.7 163.3 261 162.5 261C161.7 261 161 260.1 161 259C161 256.9 161 256.9 163.8 259C165.4 260.2 167.5 261.3 168.6 261.5C171.6 262.1 171.6 262.1 169.5 263C166.4 264.4 164 264.1 164 262.5Z" fill="#6E594E"/>
<path d="M173 256.1C171.1 252.5 174.4 249.1 178.3 250.6C182.2 252 180.7 258 176.5 258C175.1 258 173.6 257.2 173 256.1Z" fill="#6E594E"/>
<path d="M296.2 260.3C294.4 259.4 293 258.1 293 257.2C293 255.9 293.2 255.9 294.8 257.3C295.7 258.2 297.6 259.3 298.9 259.8C300.3 260.3 300.9 260.9 300.4 261.3C299.9 261.6 298 261.2 296.2 260.3Z" fill="#6E594E"/>
<path d="M306.5 256.4C304.4 254.3 304.6 251.3 307 250C310 248.4 313.2 250.4 312.8 253.7C312.4 257 308.7 258.6 306.5 256.4Z" fill="#6E594E"/>
<path d="M91.2 380.7C86.8 379.1 80 372.4 77.9 367.5C77 365.3 75.7 360.2 75 356.1C74.3 352 72.5 345.9 71 342.6C60.8 319.7 55 291.9 56.5 272.5C57.8 255.1 63.8 248.5 75.3 252C80.4 253.5 89 259 89 260.7C89 261.4 89.4 262 89.9 262C90.3 262 91 269.1 91.3 277.8C91.6 286.4 92.3 295.8 92.9 298.5C93.5 301.3 94.4 310.5 94.9 319C96.3 340.5 97.8 354.5 99.9 368C101.7 378.5 101.7 379.6 100.2 380.8C98.3 382.3 95.5 382.3 91.2 380.7Z" fill="#6E594E"/>
<path d="M230.3 496C229.8 494.2 228.9 494 221.8 494C211.5 494 208.5 492.6 199.2 483.4C193.2 477.4 191.2 474.5 187.1 465.8C181.3 453.6 176.5 435.6 175 419.6C173.8 408 174.2 405.7 178.6 396.9C182.1 389.8 199.5 373.8 208.3 369.5C218.3 364.7 226.1 362.8 231.4 364C234.1 364.6 237.3 364.6 241 363.8C252 361.6 267.5 367.5 277.8 377.8C284.9 384.9 287.8 389.6 293.9 403.9C298.2 414 298.4 414.9 298.2 423C297.7 440.1 292.9 460.3 286.2 473.6C281.7 482.6 269.3 491.9 261.8 492C260 492 258.9 492.7 258.5 494.1C258.1 495.2 257.3 496 256.7 495.7C248 492.5 248.2 492.5 245.7 494.8C243 497.4 241.4 497.6 240.6 495.5C240.2 494.3 239.6 494.1 238.1 495C237 495.5 234.9 496.5 233.5 497C231.2 497.9 230.7 497.7 230.3 496ZM257.5 479.6C262.3 476.6 265.1 473.7 267.1 469.8C270.4 463.4 269.6 462.8 263.3 466.6C255.2 471.5 251.2 472.3 237.5 471.8C224.9 471.4 218.8 469.6 210.9 463.9C209.2 462.7 207.7 462 207.5 462.2C206.6 463 211.9 472.6 214.6 475.1C220.8 480.8 223.8 481.6 239.8 481.5C252.5 481.5 255 481.2 257.5 479.6ZM254.1 442C258.8 440.6 261.6 438.9 264.5 435.9C266.7 433.6 270.1 430.1 272 428.1C277.4 422.6 279.9 415.4 281.9 399.5C283.1 389.6 282.3 385.3 278.7 382.7C275.6 380.3 264.2 378.6 262.3 380.2C261.5 380.8 259.3 381 257 380.6C254.3 380.2 252.2 380.4 250.7 381.4C248.2 383 226.3 383.5 224.5 382C223.7 381.3 221.4 381 211.5 380C205 379.3 195.5 382.6 191.6 386.9C188.5 390.3 188.5 397.3 191.5 407.5C194.3 417.1 199.5 429 201 429C201.4 429 204.2 431.1 207.2 433.6C217.2 442.2 221.7 443.8 236.6 443.9C245.1 444 249.3 443.5 254.1 442Z" fill="#B17151"/>
<path d="M226.3 439.5C219.5 437.4 210 431.1 210 428.6C210 428.4 212.6 428.4 215.8 428.6C218.9 428.8 230.3 429.2 241 429.6C251.7 429.9 261 430.2 261.7 430.3C265.5 430.5 255.2 438 248.3 439.9C243.2 441.4 231.4 441.2 226.3 439.5Z" fill="#B17151"/>
<path d="M154.3 401.8C149.1 397.7 140.3 387.9 132.6 377.7C129.4 373.4 126.5 370.2 126.2 370.4C125.9 370.7 125.1 370.5 124.3 369.9C122.4 368.3 122.7 370 124.7 372.2C126.1 373.7 126.1 374.1 125 373.8C124.2 373.6 123 372.8 122.3 371.9C121.3 370.5 120.2 370.4 115.3 371.3C112.1 371.8 109.1 372.8 108.7 373.4C108.2 374 108.1 373.1 108.4 371.3C108.7 369.4 108.5 368 108 368C107.4 368 107 369.2 107 370.7C107 375.7 106 372.3 103.1 356.9C98.2 331.1 95.7 309.6 96.4 300C97.9 277.6 104.9 238.7 112.5 210C118.5 187.3 121.5 172.5 122.6 160.8L123.3 153L128.9 151C132 149.9 136.4 148.3 138.7 147.4C144.3 145.4 146.9 142.6 152 132.9C156.7 124.3 159.7 121.3 167.2 118C178 113.2 183.2 112.8 237 112.7L287.5 112.5L292 115C295.2 116.8 297.2 118.9 299 122.3C301.8 127.6 302.8 128.4 308.1 129.4C310.1 129.8 313.5 131.4 315.6 133C317.6 134.7 320.4 136.3 321.7 136.6C323.4 137.1 323.9 137.7 323.5 139.1C322.6 141.9 325.7 146.9 328.8 147.6C330.3 147.9 332 148.3 332.6 148.5C333.7 148.8 337.8 167.3 340.6 184.5C342.6 197 345.4 206.5 353 227.5C361.1 249.9 363 258.2 367.1 288.8C369.4 306.7 366.3 340.4 360.5 359.6C359.1 364.1 358 368.6 358 369.6C358 371.2 357.8 371.3 357 370C356.2 368.8 356 369 355.9 371C355.8 372.8 355.6 373 355.3 371.7C355 370.5 354.3 370.1 353.3 370.4C352.2 370.8 352 370.6 352.4 369.5C352.8 368.2 352.6 368.1 350.9 369C349.8 369.6 346.6 370 343.7 369.8C340 369.6 338.1 369.9 337.2 371C336.1 372.3 336 372.2 336.5 370.4C336.9 368.9 336.6 368.3 335.4 368.3C333.5 368.3 329.6 376.6 330.7 378.3C331 379 331 379.2 330.5 378.8C330 378.3 328.1 380.6 326.2 383.8C319.8 394.6 313.1 399.2 306.4 397.4L302.9 396.5L302.6 388C302 374.6 300.8 371.4 293.6 364.5C285.9 357.2 256.1 339 251.8 339C248.2 339 239.9 341 238.3 342.2C237.7 342.7 237 344.4 236.8 345.8C236.4 349.4 234.6 349.1 234 345.4C233.6 343.1 232.7 342.2 229.5 341.2C221.9 338.7 217.4 338.6 213.8 340.7C178.4 362.1 170.4 368.1 167.4 375.3C166.2 378.2 165.5 383.4 165.1 392L164.5 404.5L161.5 404.8C159.4 404.9 157.3 404 154.3 401.8ZM226 333.5C222.2 329.9 217.8 326.5 216.3 325.9C212.9 324.6 209.4 325.4 208.6 327.7C207.6 330.2 210.6 332 215.4 332C218.3 332 220.1 332.7 221.9 334.4C224.7 337.1 229.8 340 231.7 340C232.4 340 229.8 337.1 226 333.5ZM245.6 336.4C248.6 334 251.7 332.6 254.4 332.3C259.1 331.8 261.4 330.1 260.5 327.8C258.7 323.1 253 325 244.6 333.1C236.9 340.5 237.5 342.6 245.6 336.4ZM182.7 263.4C185 262 186.7 253.9 185.5 250.1C185.2 248.9 185.2 248 185.7 248C187.5 248 197.1 251.9 200.5 254C206.5 257.7 204.3 254.4 197.9 250.1C189.5 244.5 180.9 242 170.1 242C155.9 242 144 246.2 136.8 253.7C133.1 257.7 133.2 257.7 141.5 253.4C144.8 251.7 148.6 249.9 149.8 249.5C151.9 248.9 152.1 249.1 151.5 251C150.7 253.5 152.7 262.7 154.4 263.7C157.9 265.9 179 265.7 182.7 263.4ZM312.5 263C315.6 261.8 317.1 258.2 317.2 251.8C317.2 249.2 317.4 247 317.6 247C318.6 247 328.9 252.1 332 254.2L335.5 256.5L333.2 253.6C326.9 245.5 315.8 241 302.3 241C287.4 241 275.9 244.8 267.5 252.5C264.4 255.3 264 256 265.7 255.5C267.4 255 267.8 255.2 267.5 256.2C267.1 257.1 269 258.1 273.7 259.5C277.5 260.6 281.5 261.5 282.8 261.6C284.1 261.7 285.6 262.2 286.3 262.9C287.7 264.3 308.8 264.4 312.5 263ZM141.7 243.1C143.5 241.5 145.1 240.5 145.4 240.8C145.7 241.1 146 240.8 146 240.2C146 238.2 144.6 238.8 140.4 242.5C138.3 244.4 137 246 137.5 246C138.1 246 140 244.7 141.7 243.1ZM195 244.5C195 243.7 184.7 238.9 184.2 239.5C183.9 239.7 186.2 241 189.1 242.4C195.5 245.3 195 245.1 195 244.5ZM288 238.5C288.4 238.8 289.9 238.6 291.2 238.1C293 237.3 292.6 237.2 288.9 237.5C286.4 237.7 282.5 238.8 280.2 240C273.6 243.5 274.3 244.2 281.1 240.9C284.4 239.3 287.5 238.2 288 238.5ZM182.6 239.1C181.8 237.9 178 237 178 238C178 238.5 179 239.1 180.3 239.3C181.5 239.5 182.6 239.8 182.8 239.9C183 239.9 182.9 239.6 182.6 239.1ZM164.3 236.6C167 236.3 169 236.4 169 237C169 238.3 174.1 238.2 176 236.9C177.3 236 177.3 235.9 175.9 236.3C175 236.6 173.9 236.5 173.4 236C172.9 235.6 169.6 234.9 166 234.6C161.3 234.2 160.2 234.3 162 235C163.9 235.7 163 235.8 158.7 235.5C155.2 235.2 153.1 235.3 153.4 235.9C153.8 236.4 153.4 237.1 152.8 237.4C151.6 237.9 153.7 237.7 164.3 236.6ZM136.9 228.7C144.2 225.4 152.7 225.9 171.1 230.8C185.9 234.8 187.2 235 201.2 235C210.7 235 216.1 234.6 216.6 233.9C217.4 232.5 212.3 226.2 208.1 223.3C202.5 219.5 194.3 217 178.6 214.4C147.4 209.1 135.9 212.5 127.6 229.5C124.1 236.8 124.3 237.8 128.7 234C130.7 232.2 134.4 229.8 136.9 228.7ZM298.5 235L300.5 234.1L298.5 234.2C297.4 234.2 295.4 234.6 294 235L291.5 235.8H294C295.4 235.8 297.4 235.5 298.5 235ZM314.9 235.1C315.9 234.5 314.9 234.3 312 234.7C308.5 235.2 307.8 235.1 308.5 233.9C309.2 232.8 309.1 232.7 307.9 233.7C307.1 234.3 305.2 235 303.5 235.3C301.9 235.5 303.4 235.8 307 235.8C310.6 235.9 314.2 235.6 314.9 235.1ZM344 233.6C336 212.4 324.3 207.9 292.5 213.4C272.4 216.9 264.3 219.9 257.9 226.1C250.8 233 251.1 233.6 263.1 234.3C275.9 235.1 285.5 233.9 301.1 229.5C317.7 224.8 326.1 224.7 334.7 229C338 230.7 341.5 232.9 342.5 234C344.9 236.6 345.1 236.5 344 233.6Z" fill="#B17151"/>
<path d="M174.3 257.3C172.4 256.6 172.7 252.2 174.7 251.1C177.2 249.8 180 251.5 180 254.4C180 257.3 177.5 258.6 174.3 257.3Z" fill="#B17151"/>
<path d="M306.1 255.6C304.2 253.4 305.7 250 308.4 250C311.6 250 313.7 252.6 312.3 254.8C310.9 257.1 307.6 257.5 306.1 255.6Z" fill="#B17151"/>
<path d="M91.2 380.7C86.8 379.1 80 372.4 77.9 367.5C77 365.3 75.7 360.2 75 356.1C74.3 352 72.5 345.9 71 342.6C60.8 319.7 55 291.9 56.5 272.5C57.8 255.1 63.8 248.5 75.3 252C80.4 253.5 89 259 89 260.7C89 261.4 89.5 262 90 262C90.6 262 91 266.3 91.1 272.8C91.1 278.7 91.5 286.7 92 290.5C92.5 294.4 93.4 303.1 94 310C97.1 346.5 98.2 357.5 99.9 368C101.7 378.5 101.7 379.6 100.2 380.8C98.3 382.3 95.5 382.3 91.2 380.7Z" fill="#B17151"/>
<path d="M362.2 379.8C361.5 378.9 361.8 375.2 363.6 366.5C368.9 340.6 370.6 320.2 369.2 300.5C368.6 292.1 368.8 288.6 369.8 285.5C370.6 283.3 371.4 276.8 371.7 271C371.9 265.2 372.3 260.1 372.5 259.5C372.6 259 372.8 258.1 372.8 257.7C373.1 254.8 384.8 249 390.3 249C393.9 249 395.1 249.6 397.7 252.3C403.6 258.5 405.9 271.8 404 289C402.1 306.3 396.5 327.2 390 341.6C388.4 345.3 387 350 387 352C387 357.9 383.2 368.7 379.8 372.6C374.8 378.3 364.5 382.5 362.2 379.8Z" fill="#B17151"/>
<path d="M231.2 495.4C230.4 494 228.5 493.7 221.3 493.6C213.1 493.5 211.9 493.2 208.1 490.6C194.6 481.2 185.4 466.1 179.9 444.4C176 428.6 174.2 411.4 175.9 405.1C177.1 400.6 183.8 389.1 185.3 389C185.7 389 186 392.7 186 397.3C186 411.7 190.4 430.1 196.8 442.5L199.9 448.5L200 444.9C200 442.7 200.6 441 201.4 440.7C202.3 440.3 202.6 439.3 202.3 437.9C201.7 435.9 201.6 435.9 200.5 437.4C199.8 438.3 198.6 438.8 197.6 438.4C195.7 437.7 195.5 435.9 197.3 434.1C198.3 433.1 198.2 433 196.8 433.5C195.4 434.1 194.8 433.1 193.4 428.3C192.5 425.1 191.5 422.1 191.2 421.5C190.2 419.9 190.1 415.9 191 416.5C191.4 416.8 191.6 416.1 191.3 415C191 413.9 190.3 413.3 189.7 413.7C189.1 414 189 413.8 189.4 413.1C189.8 412.5 189.5 410.8 188.6 409.5C186.7 406.7 186.3 391.5 188 390.5C188.8 390 188.7 389.4 187.9 388.4C186.2 386.3 191.4 381 195.2 381C198.6 381 198.9 382.7 195.7 383.5C194.5 383.8 192.4 385.6 191.1 387.5C189.1 390.5 188.9 391.7 189.4 396.7C190.1 404.5 190.5 406.3 191.4 407.8C191.8 408.4 191.6 409 191.1 409C190.5 409 190 409.5 190 410.1C190 410.6 190.5 410.8 191.2 410.4C191.9 410 192 410.1 191.6 410.8C191.2 411.5 191.4 412 191.9 412C192.5 412 192.9 412.3 192.8 412.8C192.7 413.2 193.1 414.5 193.8 415.8C194.5 417 194.8 418 194.5 418C194.1 418 194.8 419.6 196 421.5C197.2 423.4 197.8 425 197.3 425C196.9 425 197.4 425.7 198.5 426.6C200.7 428.3 200.8 428.9 198.8 430.2C197.9 430.8 198.2 430.9 199.8 430.5C201.5 430 203.2 430.8 206.8 433.7C215 440.4 217.6 441.8 223.8 443.4C234.5 446.2 250.6 444.9 259 440.6C261.5 439.3 265.5 435.9 267.9 432.9C272.5 427.2 274.8 425.5 273.6 428.5C273.2 429.7 273.4 430.1 274.4 429.7C275.2 429.4 276 429.9 276.3 431.1C276.7 432.5 276.2 433.4 274.6 434C272.2 434.9 272.2 434.5 273.4 445.4C273.8 449 273.5 449.7 268.9 454.2C266.2 456.8 263.3 459 262.5 459C261.7 459 261.1 459.6 261.2 460.3C261.4 461 260.3 461.6 258.8 461.8C257.2 462 256 462.6 256 463.1C256 463.7 255.3 463.7 254.1 463C253 462.5 249.4 462 246.1 462C241.2 462 240 461.7 240 460.4C240 459.4 239.4 459 238.3 459.3C237.3 459.6 234.4 460.1 231.8 460.5C227.7 461 227.1 460.9 226.5 459C225.8 456.8 224.9 456.5 223.5 457.9C222.9 458.4 220.2 459 217.3 459.4L212.2 460L212.9 457.3C213.5 455.1 214.3 454.4 216.9 454.2C218.7 454 220.8 454.4 221.5 455C222.5 455.8 225.2 455.9 230.7 455.4L238.5 454.6L232.5 453.3C228.4 452.3 226.4 452.2 226.2 452.9C226 453.5 225.1 454 224.2 454C222.7 454 222.7 453.8 224 452.9C225.3 452 225.2 451.9 223.8 452.4C221.7 453 216.2 450.4 218.2 449.8C218.9 449.5 220.8 449.7 222.5 450.2C224.1 450.6 226.6 451 228 450.9C229.4 450.9 228 450.3 225 449.6C219.2 448.3 215.7 446.8 212.7 444.2C211.1 442.7 211 442.8 211.6 444.6C212.2 446.1 212 446.3 211 445.3C210 444.4 209.3 444.3 208.3 445.1C207.3 446 207 445.8 207 444.1C207 442.9 206.3 441.7 205.5 441.4C204.7 441 204.3 440.3 204.6 439.6C205 439 204.5 439.3 203.4 440.2C201.7 441.9 201.7 442 203.8 444.3C205 445.6 205.7 446.9 205.4 447.3C205 447.7 205.8 448.4 207.2 448.9C210 450 211.6 452.8 210.1 454.3C208.8 455.6 204.7 453.2 205.4 451.5C206.1 449.7 203.8 447.9 202.1 449C199.8 450.4 210.9 461.2 217.9 464.4C225.7 467.9 235.9 469.2 245.6 468C259.5 466.2 269.2 459.9 274.9 449C278 443.1 278.9 439.3 277 440.5C275.7 441.3 275.7 438.8 277.2 435.3L278.3 432.5L279 436L279.6 439.5L281.2 434.3C282.1 431.4 283.2 427 283.5 424.5C284.1 420.6 284 420.1 282.6 420.6C281.1 421.2 280.6 423.7 280.9 428.7C281.2 431.8 279.4 432.4 277.1 429.8C274.7 427.3 274.4 425.5 276.5 426.3C277.6 426.8 277.7 426.4 277.1 424.6C276.5 423.2 276.6 421.7 277.3 420.4C277.9 419.4 278.6 417.6 278.7 416.5C278.9 415.4 279.5 414.1 280 413.6C280.5 413.1 280.7 413.7 280.4 415.1C280.1 417 280.2 416.9 281.1 414.6C282 412.4 282 411.6 281 411C280.3 410.5 280.1 409.7 280.5 408.9C281 408.2 281.5 404.7 281.8 401.1C282.2 394.5 282.5 393.2 283.5 394.2C284.3 395 284.2 406.8 283.4 411.7C283.1 414 283.1 416.7 283.5 417.7C284.7 420.2 285.8 411.9 285.9 400.3C286 395.2 286.4 391 286.8 391C287.3 391 288.4 392.7 289.3 394.8C299.3 418.2 299.1 417.1 296.6 436C293.8 456.7 286.8 475.5 279.5 481.9C273.4 487.2 266.9 491 263.8 491C262.3 491 260 492 258.9 493.1C257 495 256.3 495.2 253.5 494.1C249 492.5 247.3 492.7 244.9 495.1C243 497 242.7 497.1 241 495.5C239.3 494 238.9 494 236.1 495.4C232.4 497.4 232.3 497.4 231.2 495.4ZM255.2 481.6C258.3 480.1 262.2 477.4 263.8 475.6C266.8 472.1 270.7 463.4 269.7 462.4C269.4 462.1 267.6 463 265.8 464.4C260.1 468.7 253.5 471 245.2 471.7C232.1 472.7 220.4 469.7 210.1 462.9L206.7 460.6L207.3 463.9C208.9 471.9 219.6 481.6 229.4 483.9C236.9 485.7 248.8 484.7 255.2 481.6ZM251.3 459.3C250 459.1 247.8 459.1 246.3 459.3C244.7 459.5 245.8 459.7 248.5 459.7C251.3 459.7 252.5 459.5 251.3 459.3ZM255.3 455.6C255.8 454.3 252.2 452.5 251.1 453.5C250.9 453.8 251.2 454 251.8 454C252.5 454 253 454.7 253 455.5C253 457.4 254.6 457.5 255.3 455.6ZM249 453.5C250 452.3 249.5 452.2 245.8 452.6C240 453.3 238.4 455 243.7 455C246 455 248.3 454.4 249 453.5ZM267.1 451C270.4 449.2 268.9 446.1 264.5 445.5C264 445.5 263.6 444.8 263.8 444.1C263.9 443.3 263.2 443.5 261.6 444.7C260.3 445.7 259.4 446.7 259.6 446.9C259.8 447.1 260.6 446.7 261.5 446C262.8 444.9 263 445.2 263 448.4C263 452.2 263.8 452.7 267.1 451ZM205.4 436.3C200.8 430.2 200.8 430.2 201.6 432.5C202.2 434.2 207.9 441 208.7 441C208.9 441 207.4 438.9 205.4 436.3Z" fill="#BE665E"/>
<path d="M229.5 465.7C226.2 465.1 223.2 464.2 222.9 463.7C222.5 463.1 221.4 463 220.4 463.4C219.4 463.8 218.9 463.8 219.3 463.4C219.7 463 219.2 462.1 218.2 461.4C216.7 460.2 216.8 460.1 219.7 460C221.4 460 223.2 460.5 223.5 461C223.8 461.6 227.7 462 232.1 462C236.7 462 240 462.4 240 463C240 463.6 241.5 464 243.4 464C245.3 464 247.1 464.4 247.4 464.9C247.7 465.4 249 465.6 250.3 465.3C252.1 464.9 252.2 465 251 465.9C249.2 467.2 237.7 467.1 229.5 465.7Z" fill="#BE665E"/>
<path d="M214 448.4C213 447.3 213 447 214.1 447C214.9 447 216.1 447.4 216.8 447.9C217.9 448.6 217.9 448.8 216.7 449.3C215.8 449.6 214.6 449.2 214 448.4Z" fill="#BE665E"/>
<path d="M227.5 439.6C221.2 438 216.9 435.8 213 432C211.4 430.4 210 428.9 210 428.7C210 428.4 212.6 428.4 215.8 428.6C218.9 428.8 230.3 429.2 241 429.6C251.7 429.9 261 430.2 261.7 430.3C263.2 430.4 261.1 433.7 259 434.4C257.3 435 253.7 437.2 253 438.1C250.9 440.9 236.1 441.7 227.5 439.6Z" fill="#BE665E"/>
<path d="M155.9 402C147.1 396.2 128.4 372.6 121.3 358.5C115.1 346.2 114.5 345.1 108.6 336.5C95.9 318.1 94.8 313.2 98.1 288.7C102.4 255.9 106.7 233.4 113 210C115.1 202 117.6 192.4 118.5 188.5C119.9 182.2 124 157.1 124 154.4C124 153.8 128.1 151.8 133.1 150C138.1 148.2 143.5 145.6 145.1 144.1C146.7 142.7 149.9 137.9 152.3 133.5C157.5 123.8 162 120.1 173.3 116.4C181.4 113.8 181.9 113.7 224.5 112.8C267.6 111.9 282.4 112.2 289.1 114C293.3 115.2 296.7 118.6 299.5 124.3C301.3 128.1 302 128.6 306.7 129.6C309.7 130.3 313.6 132.1 315.9 133.9C318 135.6 320.5 137 321.4 137C322.5 137 323 137.9 323 139.6C323 142.4 324.6 146.1 326.4 147.2C327 147.6 328.7 148 330.3 148C331.8 148 333 148.2 333 148.4C333 148.6 334.3 154.6 335.9 161.6C337.5 168.7 339.1 177.2 339.5 180.5C340.8 192.7 345 207.3 354.5 233.2C359.1 245.5 361.7 256.4 364.5 274.5C366.4 286.7 368 314.2 366.9 315C366.5 315.3 365.8 317.3 365.4 319.5L364.6 323.5L363.4 319C362.4 315.4 362.2 315 362.1 317.3C362 318.8 361.4 320.3 360.6 320.6C358.4 321.5 344.5 342.8 340.2 352C338 356.7 334.2 365 331.9 370.5C324.3 388.1 316.8 397 309.4 397C303.4 397 303 396.5 303 388.4C303 384.4 302.5 378.7 301.9 375.8C301 371.2 300 369.7 294.5 364.5C291 361.2 283.3 355.6 277.3 352.1C271.4 348.6 264 344.1 261 342.2C255.4 338.5 251.4 337.8 245.5 339.3L242.5 340L245.3 338.5C246.8 337.6 247.8 336.5 247.6 336.1C247.3 335.6 250.9 335.2 255.7 335.1C260.4 335 265.8 334.3 267.5 333.6C274.8 330.5 277.3 319.3 272.7 310C271.1 306.7 269.1 304.7 265.1 302.3C259.8 299.1 259.6 298.9 256.5 289.8C251.8 276.2 250.1 272.5 248.8 273.8C248.1 274.5 248.6 277.6 250.4 283.7C251.8 288.5 253.3 294.6 253.6 297.1C254.4 303 254.5 303.2 260.3 305.9C263.1 307.3 265.7 309.4 266.5 311.1C268.7 315.2 269.5 322.3 268.1 324.8C266.5 327.7 262.5 328.7 260.5 326.6C257.9 324.1 254.7 324.7 246.8 329.2C237.1 334.7 233.9 334.7 223.7 329.2C215.5 324.8 211.1 324 209 326.5C205.2 331.1 200 324.3 201.9 317.2C203.3 312.3 205.4 309.4 209.7 306.7C213 304.6 213.4 303.7 216.2 293C219.9 278.6 220.9 273.1 219.8 272.4C219.4 272.1 219 272.6 219 273.4C219 274.2 218.2 276.4 217.1 278.2C216.1 280 213.8 285.8 212 291.1C209 300 208.5 301 203.9 304.4C195.7 310.5 193.2 318.3 196.6 327C199 333 203 335 212.7 335C219 335 221.2 335.4 223.1 336.9C224.4 337.9 226.2 338.9 227 339.2C227.8 339.5 225.6 339.5 222 339.3C216.3 338.9 215.1 339.1 211.8 341.3C209.8 342.7 202.2 347.4 194.8 351.9C181.1 360.2 171.9 367.3 168.7 371.9C166 376 164.8 381.6 164.1 393.5C163.4 406.2 162.9 406.7 155.9 402ZM173.6 274.2C173.1 273.3 158.2 273.5 157.3 274.4C156.9 274.7 160.6 275 165.4 275C170.2 275 173.9 274.6 173.6 274.2ZM189 272.1C189.8 272 191.6 271.1 192.9 270.1C194.7 268.7 195 268.1 194 267.5C193.2 267 192.9 267.1 193.3 267.7C193.7 268.3 191.2 269.2 187.2 269.9C174.5 272.3 175.1 273 189 272.1ZM285 271C285 270.5 283.8 270 282.3 270C280.1 270 279.8 270.2 281 271C283 272.3 285 272.3 285 271ZM189 264.7L192.5 263.1L189 263.3L185.5 263.5V255.8C185.5 248.5 185.6 248.1 187.5 248.6C190.5 249.5 201.2 254.7 203.8 256.6C207.5 259.4 206.3 256.5 202 252.7C194.3 245.6 181.2 241 169.2 241C162.9 241 150.9 244 144.9 247C140 249.6 134 254.8 134 256.6C134 258.6 134.8 258.4 138.1 255.6C140.9 253.2 149.7 249.3 150.4 250.1C150.6 250.3 151.1 253.5 151.4 257.2L151.9 263.9L148.4 263.3C143.5 262.5 144.2 263.7 149.8 265.5C156.3 267.6 183.9 267 189 264.7ZM306 266.1C306 265.8 308.3 265.4 311.2 265.2C314.1 265 317.1 264.4 318 263.9C319.2 263.1 319 263 317.3 263.3C314.9 263.8 314.2 262.2 316.1 260.3C316.6 259.8 317.4 256.7 317.7 253.6C318 250.5 318.7 248 319.2 248C320.4 248 327.9 251.9 331.3 254.2C332.9 255.3 334.4 255.9 334.8 255.5C335.9 254.4 326.7 246.6 321.7 244.2C307.6 237.6 285.7 239.6 271.4 248.8C263.4 254 262.1 255.6 264.6 257.6C267.6 260 270.4 260.8 273.6 260.4C276 260 276.2 260.1 274.5 260.9C272.6 261.8 272.6 261.9 274.8 261.9C276 262 277.3 262 277.6 261.9C278 261.9 278.6 262.3 279 262.9C279.8 264.2 283 265.1 288.2 265.4C290.3 265.5 292.2 265.8 292.4 266.1C293.1 266.8 306 266.8 306 266.1ZM146.2 241.3C151.1 238.7 152.3 238.5 163 238.5C176.3 238.5 184.6 240.6 197 247.1L204.5 251L200.5 247.4C196.4 243.7 180.3 235.3 179.3 236.4C178.9 236.7 178 236.4 177.2 235.8C176.3 235 171.6 234.4 164.6 234.3C154.6 234.1 153 234.3 148 236.6C141.7 239.5 139.8 241 135.9 246.4C131.8 251.9 132.3 252.7 137 248C139.1 245.9 143.3 242.8 146.2 241.3ZM209.4 249.3C208 248.8 209.9 244 211.4 244C211.9 244 214.1 243.2 216.2 242.3C219.1 241 220.2 239.8 221 237.1C222.2 232.6 222.2 228.9 221 227C220.2 225.7 220 225.8 220 227.3C220 230.9 217 230.3 212.2 225.8C205.9 219.9 199.7 217.7 178.7 213.9C153.7 209.4 142.6 210.7 134.2 219.3C130.4 223.2 126.1 230.5 124.5 235.8C123.9 237.8 124.5 237.6 129.2 234C138.6 226.8 147.8 225.4 161.6 229.1C165.9 230.3 172.7 232 176.5 232.9C181.7 234.2 186.1 236.4 193.8 241.3C199.4 245 204.3 248.1 204.8 248.1C205.2 248.2 206.1 249.1 206.9 250.2C207.9 251.7 208.5 251.9 209.4 251C210.2 250.1 210.2 249.6 209.4 249.3ZM259.5 250C259.8 249.5 259.2 249 258.1 249C256.9 249 256 249.5 256 250C256 250.6 256.6 251 257.4 251C258.2 251 259.2 250.6 259.5 250ZM334.5 247.3C328.5 237.9 321.2 233.9 308.5 233.2C298.1 232.7 290 234.4 280.5 239.1C274.2 242.2 264.5 248.9 265.2 249.6C265.5 249.8 268.2 248.6 271.3 246.9C284.9 239.6 297.7 236.4 310.1 237.2C318.8 237.8 325.4 240.7 331.5 246.8C336 251.2 337.1 251.4 334.5 247.3ZM266 246.5C266.8 245.9 271 243.2 275.3 240.6C279.5 238 283 235.6 283 235.4C283 235.1 282.6 235.1 282.1 235.5C281.6 235.8 280.9 235.6 280.5 235.1C280.2 234.5 281.1 234.1 282.7 234.2C286 234.2 298.1 231.6 300.7 230.2C301.7 229.6 306.3 228.4 311 227.5C324.6 224.7 333.1 226.5 341.1 233.7L345.3 237.5L344.6 234.6C343.5 230.1 340.2 223.7 337 219.8C330.5 211.9 318.2 209.1 301 211.6C273.6 215.6 262.9 219.2 256 226.6C253.8 229 251.6 231 251.1 231C250.6 231 249.1 229.8 247.9 228.3C246.6 226.6 245.9 226.2 246.3 227.3C246.7 228.3 247 230.6 247 232.4C247 236.1 251.3 241.4 256.4 244C258 244.8 259.8 246.2 260.3 247.1C261.4 248.8 263.3 248.6 266 246.5Z" fill="#BE665E"/>
<path d="M282.7 390.5C282.3 389.6 282 388 282 387C282 386 280.5 384 278.8 382.6C275.8 380.3 275.7 380.1 277.9 380.5C280.7 381 284 383.8 284 385.6C284 386.3 284.4 387 284.9 387.2C285.4 387.4 285.3 388.5 284.6 389.9C283.5 391.9 283.2 392 282.7 390.5Z" fill="#BE665E"/>
<path d="M225.1 381.8C223.6 380.2 207.7 379.4 201.9 380.6C200 380.9 199.3 380.7 199.3 379.5C199.3 378.7 200.2 378 201.4 378C202.9 378 203.1 377.7 202.2 377.1C201.4 376.6 203.2 376.1 207.1 375.6C211.3 375.2 213.6 375.4 214.1 376.1C214.6 376.9 215.3 376.9 216.9 376.1C218.1 375.4 219.6 375 220.3 375.1C220.9 375.2 222.8 375.2 224.5 375.1C228.9 374.9 226.2 373 221.2 372.8C219 372.7 217.3 372.3 217.6 371.8C217.9 371.4 217.2 371 216 371C214.8 371 214.2 370.6 214.5 370C214.9 369.4 215.9 369 216.8 369.1C222.3 369.6 226.8 368.9 227.4 367.4C228 365.9 227.4 365.8 222.8 366.4C217.5 367.1 210.1 369.9 210 371.2C210 371.6 210.8 371.7 211.8 371.3C212.7 371 213.1 371.1 212.7 371.6C211.8 372.5 204 372.9 204 372C204 371.1 214.4 367 220.1 365.6C223.6 364.7 230.9 364.3 240.5 364.4C255.4 364.5 255.6 364.5 263.2 368C267.5 369.9 271.2 372.1 271.4 372.8C271.7 373.5 270 372.9 267.5 371.6C263.8 369.5 262.2 369.2 258 369.7C254.6 370.1 253 369.9 253 369.1C253 368.5 252 368 250.8 368H248.6L250.8 370C253.5 372.5 253.6 373.7 251.3 374.3C250.3 374.5 250.6 374.5 252 374.3C261.7 372.8 264 372.8 264 374.3C264 375.3 265.1 376 266.8 376.2C269.3 376.5 269.1 376.7 264.5 378.8C261.1 380.4 258.5 380.9 256.4 380.5C254.5 380.2 252.2 380.6 250.4 381.5C247 383.2 240.9 383.5 239.3 381.9C238.5 381.1 237.6 381.1 236.2 381.9C233.4 383.4 226.7 383.3 225.1 381.8ZM245.5 367.1C245.2 366.6 246.2 365.9 247.7 365.7L250.5 365.3L247.5 365.2C245.9 365.2 242.9 365.8 241 366.5L237.5 367.8L241.8 367.9C244.2 368 245.9 367.6 245.5 367.1ZM256 366.4C250.4 364.7 250.5 364.7 252 366.5C252.7 367.4 254.8 368 256.9 367.9H260.5L256 366.4Z" fill="#BE665E"/>
<path d="M195.3 378.3C196.2 377.4 197.3 377 197.7 377.4C198.1 377.8 197.8 378.5 197 379C194.5 380.6 193.5 380.1 195.3 378.3Z" fill="#BE665E"/>
<path d="M271.5 378.8C271.8 378 272.9 376.9 273.9 376.3C275.5 375.3 276.1 375.5 277.6 377.1C278.5 378.1 279.1 379 278.9 379.1C273.6 380 271.1 379.9 271.5 378.8Z" fill="#BE665E"/>
<path d="M91.4 373.4C86.8 371.1 82.9 363.3 82.2 355.2C81.9 350.8 80.6 346.3 78.4 341.6C69.2 321.4 63.8 298.3 63.9 279.5C63.9 265.3 65.3 260 69.1 258.6C72.7 257.4 79.9 260.9 86.2 267L91 271.6L91.1 281.1C91.1 286.3 91.5 292.8 92.1 295.5C92.9 300 93.6 308 95.5 335.5C96.1 343.4 98.1 359.8 99.4 367C100.7 374.2 100.7 374.5 97.5 374.8C95.9 374.9 93.1 374.3 91.4 373.4Z" fill="#BE665E"/>
<path d="M231.2 495.4C230.4 494 228.5 493.7 221.3 493.6C213.1 493.5 211.9 493.2 208.1 490.6C205.8 489 201.5 485.2 198.4 482.1C187.3 470.9 178.3 446.7 175.8 420.9C174.4 406.9 175.3 402.7 181.4 394.2L185.5 388.5L186.2 400.5C187.5 424.2 194.4 443.4 206.2 455.6C216.1 465.9 229.3 470.1 245.6 468C261.1 466 269.9 459.7 276.6 445.5C282.4 433.4 285 421.7 285.7 404.8C286 397.2 286.6 391 287 391C287.4 391 288.4 392.7 289.3 394.8C299.3 418.2 299.1 417.1 296.6 436C293.8 456.7 286.8 475.5 279.5 481.9C273.4 487.2 266.9 491 263.8 491C262.3 491 260 492 258.9 493.1C257 495 256.3 495.2 253.5 494.1C249 492.5 247.3 492.7 244.9 495.1C243 497 242.7 497.1 241 495.5C239.3 494 238.9 494 236.1 495.4C232.4 497.4 232.3 497.4 231.2 495.4ZM255.2 481.6C258.3 480.1 262.2 477.4 263.8 475.6C266.8 472.1 270.7 463.4 269.7 462.4C269.4 462.1 267.6 463 265.8 464.4C260.1 468.7 253.5 471 245.2 471.7C232.1 472.7 220.4 469.7 210.1 462.9L206.7 460.6L207.3 463.9C208.9 471.9 219.6 481.6 229.4 483.9C236.9 485.7 248.8 484.7 255.2 481.6Z" fill="#E8A577"/>
<path d="M226.2 449.8C219.3 448.8 214.4 446.2 209.4 440.8C204.9 436 200.5 430 201.5 430C201.9 430 204.3 431.7 206.9 433.8C215 440.4 217.6 441.9 223.8 443.4C230.8 445.3 238.8 445.4 248 443.9C258.7 442.2 263.8 438.9 270.7 429.5C274.5 424.2 274.4 427.7 270.5 434.3C266 442 261.7 445.6 253.5 448.6C247 451 236.9 451.4 226.2 449.8Z" fill="#E8A577"/>
<path d="M155.9 402C147.1 396.2 128.4 372.6 121.3 358.5C115.1 346.2 114.5 345.1 108.6 336.5C95.9 318.1 94.8 313.2 98.1 288.7C102.4 255.9 106.7 233.4 113 210C115.1 202 117.6 192.4 118.5 188.5C119.9 182.2 124 157.1 124 154.4C124 153.8 128.1 151.8 133.1 150C138.1 148.2 143.5 145.6 145.1 144.1C146.7 142.7 149.9 137.9 152.3 133.5C157.5 123.8 162 120.1 173.3 116.4C181.4 113.8 181.9 113.7 224.5 112.8C267.6 111.9 282.4 112.2 289.1 114C293.3 115.2 296.7 118.6 299.5 124.3C301.3 128.1 302 128.6 306.7 129.6C309.7 130.3 313.6 132.1 315.9 133.9C318 135.6 320.5 137 321.4 137C322.5 137 323 137.9 323 139.6C323 142.4 324.6 146.1 326.4 147.2C327 147.6 328.7 148 330.3 148C331.8 148 333 148.2 333 148.4C333 148.6 334.3 154.6 335.9 161.6C337.5 168.7 339.1 177.2 339.5 180.5C340.9 192.9 343.6 202.4 356.3 238.5C364.2 260.9 369.2 301.9 365.9 317.2L364.6 323.5L363.4 319C362.4 315.4 362.2 315 362.1 317.3C362 318.8 361.4 320.3 360.6 320.6C358.4 321.5 344.5 342.8 340.2 352C338 356.7 334.2 365 331.9 370.5C324.3 388.1 316.8 397 309.4 397C303.4 397 303 396.5 303 388.4C303 384.4 302.5 378.7 301.9 375.8C301 371.2 300 369.7 294.5 364.5C291 361.2 283.3 355.6 277.3 352.1C271.4 348.6 264 344.1 261 342.2C255.3 338.5 251.3 337.7 245.5 339.3C242.6 340.1 242.6 340.1 246.3 337.6C249.5 335.4 251.2 335 257.1 335C260.9 335 265.6 334.4 267.4 333.6C272.2 331.6 275 326.5 275 319.9C274.9 311.8 271.8 306.3 265.1 302.3C259.8 299.1 259.6 298.9 256.5 289.8C251.8 276.2 250.1 272.5 248.8 273.8C248.1 274.5 248.6 277.6 250.4 283.7C251.8 288.5 253.3 294.6 253.6 297.1C254.4 303 254.5 303.2 260.3 305.9C263.1 307.3 265.7 309.4 266.5 311.1C268.7 315.2 269.5 322.3 268.1 324.8C266.5 327.7 262.5 328.7 260.5 326.6C257.9 324.1 254.7 324.7 246.8 329.2C237.1 334.7 233.9 334.7 223.7 329.2C215.5 324.8 211.1 324 209 326.5C205.2 331.1 200 324.3 201.9 317.2C203.3 312.3 205.4 309.4 209.7 306.7C213 304.6 213.4 303.7 216.2 293C219.9 278.6 220.9 273.1 219.8 272.4C219.4 272.1 219 272.6 219 273.4C219 274.2 218.2 276.4 217.1 278.2C216.1 280 213.8 285.8 212 291.1C209 300 208.5 301 203.9 304.4C195.7 310.5 193.2 318.3 196.6 327C199 333 203 335 212.7 335C219 335 221.2 335.4 223.1 336.9C224.4 337.9 226.2 338.9 227 339.2C227.8 339.5 225.6 339.5 222 339.3C216.3 338.9 215.1 339.1 211.8 341.3C209.8 342.7 202.2 347.4 194.8 351.9C181.1 360.2 171.9 367.3 168.7 371.9C166 376 164.8 381.6 164.1 393.5C163.4 406.2 162.9 406.7 155.9 402ZM173.6 274.2C173.1 273.3 158.2 273.5 157.3 274.4C156.9 274.7 160.6 275 165.4 275C170.2 275 173.9 274.6 173.6 274.2ZM189 272.1C189.8 272 191.6 271.1 192.9 270.1C194.7 268.7 195 268.1 194 267.5C193.2 267 192.9 267.1 193.3 267.7C193.7 268.3 191.2 269.2 187.2 269.9C174.5 272.3 175.1 273 189 272.1ZM285 271C285 270.5 283.8 270 282.3 270C280.1 270 279.8 270.2 281 271C283 272.3 285 272.3 285 271ZM189 264.7L192.5 263.1L189 263.3L185.5 263.5V255.8C185.5 248.5 185.6 248.1 187.5 248.6C190.5 249.5 201.2 254.7 203.8 256.6C207.5 259.4 206.3 256.5 202 252.7C194.3 245.6 181.2 241 169.2 241C162.9 241 150.9 244 144.9 247C140 249.6 134 254.8 134 256.6C134 258.6 134.8 258.4 138.1 255.6C140.9 253.2 149.7 249.3 150.4 250.1C150.6 250.3 151.1 253.5 151.4 257.2L151.9 263.9L148.4 263.3C143.5 262.5 144.2 263.7 149.8 265.5C156.3 267.6 183.9 267 189 264.7ZM306 266.1C306 265.8 308.3 265.4 311.2 265.2C314.1 265 317.1 264.4 318 263.9C319.2 263.1 319 263 317.3 263.3C314.9 263.8 314.2 262.2 316.1 260.3C316.6 259.8 317.4 256.7 317.7 253.6C318 250.5 318.7 248 319.2 248C320.4 248 327.9 251.9 331.3 254.2C332.9 255.3 334.4 255.9 334.8 255.5C335.9 254.4 326.7 246.6 321.7 244.2C307.6 237.6 285.7 239.6 271.4 248.8C263.4 254 262.1 255.6 264.6 257.6C267.6 260 270.4 260.8 273.6 260.4C276 260 276.2 260.1 274.5 260.9C272.6 261.8 272.6 261.9 274.8 261.9C276 262 277.3 262 277.6 261.9C278 261.9 278.6 262.3 279 262.9C279.8 264.2 283 265.1 288.2 265.4C290.3 265.5 292.2 265.8 292.4 266.1C293.1 266.8 306 266.8 306 266.1ZM146.2 241.3C151.1 238.7 152.3 238.5 163 238.5C176.3 238.5 184.6 240.6 197 247.1L204.5 251L200.5 247.4C195.7 243 182.6 236.6 175.2 235.1C172.3 234.5 166.2 234 161.7 234C149.6 234 141 238.5 134.7 248C131.9 252.2 132.8 252.2 137 248C139.1 245.9 143.3 242.8 146.2 241.3ZM209.4 249.3C208 248.8 209.9 244 211.4 244C211.9 244 214.1 243.2 216.2 242.3C219.1 241 220.2 239.8 221 237.1C222.2 232.6 222.2 228.9 221 227C220.2 225.7 220 225.8 220 227.3C220 230.9 217 230.3 212.2 225.8C205.9 219.9 199.7 217.7 178.7 213.9C153.7 209.4 142.6 210.7 134.2 219.3C130.4 223.2 126.1 230.5 124.5 235.8C123.9 237.8 124.5 237.6 129.2 234C138.6 226.8 147.8 225.4 161.6 229.1C165.9 230.3 172.7 232 176.5 232.9C181.7 234.2 186.1 236.4 193.8 241.3C199.4 245 204.3 248.1 204.8 248.1C205.2 248.2 206.1 249.1 206.9 250.2C207.9 251.7 208.5 251.9 209.4 251C210.2 250.1 210.2 249.6 209.4 249.3ZM259.5 250C259.8 249.5 259.2 249 258.1 249C256.9 249 256 249.5 256 250C256 250.6 256.6 251 257.4 251C258.2 251 259.2 250.6 259.5 250ZM334.5 247.3C328.5 237.9 321.2 233.9 308.5 233.2C298.1 232.7 290 234.4 280.5 239.1C274.2 242.2 264.5 248.9 265.2 249.6C265.5 249.8 268.2 248.6 271.3 246.9C284.9 239.6 297.7 236.4 310.1 237.2C318.8 237.8 325.4 240.7 331.5 246.8C336 251.2 337.1 251.4 334.5 247.3ZM265.7 246.8C270.8 242.8 287.9 233 289.7 233C290.9 233 295.2 231.9 299.2 230.6C319.8 224 331.2 224.8 341.1 233.7L345.3 237.5L344.6 234.6C343.5 230.1 340.2 223.7 337 219.8C330.5 211.9 318.2 209.1 301 211.6C273.6 215.6 262.9 219.2 256 226.6C253.8 229 251.6 231 251.1 231C250.6 231 249.1 229.8 247.9 228.3C246.6 226.6 245.9 226.2 246.3 227.3C246.7 228.3 247 230.6 247 232.4C247 236.1 251.3 241.4 256.4 244C258 244.8 259.8 246.2 260.3 247.1C261.3 248.8 263.3 248.6 265.7 246.8Z" fill="#E8A577"/>
<path d="M225.1 381.8C224 380.6 221 380.3 208.5 380L203.5 379.9L211.7 377.6C227.1 373.3 250.5 373.3 264 377.7C266.9 378.6 260.1 381.2 256.5 380.6C254.5 380.2 252.2 380.5 250.4 381.5C247 383.2 240.9 383.5 239.3 381.9C238.5 381.1 237.6 381.1 236.2 381.9C233.4 383.4 226.7 383.3 225.1 381.8Z" fill="#E8A577"/>
<path d="M91.4 373.4C86.8 371.1 82.9 363.3 82.2 355.2C81.9 350.8 80.6 346.3 78.4 341.6C69.2 321.4 63.8 298.3 63.9 279.5C63.9 265.3 65.3 260 69.1 258.6C72.7 257.4 79.9 260.9 86.2 267L91 271.6V280.5C91 285.4 91.6 293.7 92.4 299C93.2 304.2 94.4 316.6 95 326.5C95.9 340.6 98.4 363.4 100.3 373.4C100.6 375.1 94.8 375.2 91.4 373.4Z" fill="#E8A577"/>
<path d="M266 370.5C258.7 366.6 251.1 364.7 246 365.5C243.5 365.9 236.1 366.2 229.5 366.3C220.6 366.5 216.7 366.9 214.5 368.1C212.9 369 210.4 370 209 370.4C207.2 370.9 207.5 370.5 210 369.1C216.7 365.4 224.6 364.2 240.5 364.4L255.5 364.5L263.3 368.2C267.5 370.2 271 372.1 271 372.5C271 373.2 271.1 373.2 266 370.5Z" fill="#E8A577"/>
<path d="M363 371.2C363 370.3 363.5 367.9 364 366C364.6 364.1 366 357.1 367.2 350.5C368.9 340.7 369.4 333.9 369.6 313C369.7 299 370.3 285.7 370.9 283.5C371.5 281.3 372 276.7 372 273.4C372 267.5 372.2 267.1 376 263.7C380.8 259.3 387 256 390.5 256C392.5 256 393.5 256.8 394.8 259.8C396.2 262.8 396.5 266.5 396.4 279.5C396.3 293.2 395.9 297.2 393.6 307.3C390.8 319.4 385.6 334.9 382 342C380.9 344.1 380 347.6 380 349.7C380 354.5 377.8 362.9 375.5 366.8C372.5 371.7 363 375.2 363 371.2Z" fill="#E8A577"/>
<path d="M234.5 346C233.1 340.8 233.2 340.5 236.2 340.5C238.3 340.4 238.7 340.7 237.8 341.7C237.2 342.4 236.4 344.5 236 346.3L235.3 349.5L234.5 346Z" fill="#E8A577"/>
<path d="M226.2 449.9C219.3 448.7 214.4 446.1 209.4 440.8C204.9 436 200.5 430 201.5 430C201.9 430 204.3 431.7 206.9 433.8C215 440.4 217.6 441.9 223.8 443.4C230.8 445.3 238.8 445.4 248 443.9C258.7 442.2 263.8 438.9 270.7 429.5C274 424.9 274.6 427.3 271.5 432.7C267.2 440.2 261.3 445.8 255 448.1C248.9 450.5 235.3 451.3 226.2 449.9Z" fill="#F6F4F0"/>
<path d="M225.1 381.8C224 380.6 219.4 380.1 209 380.1C203.4 380.1 203.9 379.6 211.5 377.6C227.1 373.6 250.3 373.4 261.4 377.3L265.3 378.6L262.2 379.9C260.5 380.6 257.8 380.9 256.3 380.6C254.5 380.2 252.3 380.5 250.4 381.5C247 383.2 240.9 383.5 239.3 381.9C238.5 381.1 237.6 381.1 236.2 381.9C233.4 383.4 226.7 383.3 225.1 381.8Z" fill="#F6F4F0"/>
<path d="M142 261.2C136.1 258.9 136 256.4 141.5 253.3C143.7 252.1 146.7 250.9 148.1 250.5C150.6 249.9 150.7 250 151.2 255.2C151.5 258.1 151.5 261 151.3 261.7C150.6 263.4 147.4 263.2 142 261.2Z" fill="#F6F4F0"/>
<path d="M186.4 262.2C185.9 261.8 185.4 258.5 185.4 254.8C185.5 248.5 185.6 248.1 187.5 248.6C192.2 250 201 254.4 202.6 256.1C204.5 258.2 204.8 258 194.7 261.4C189.4 263.2 188 263.3 186.4 262.2Z" fill="#F6F4F0"/>
<path d="M315 262.2C315 261.8 315.5 260.9 316.1 260.3C316.6 259.8 317.4 256.7 317.7 253.6C318 250.5 318.7 248 319.2 248C320.6 248 329.3 252.6 332 254.8L334.4 256.8L330.5 258.8C328.3 259.9 324.1 261.3 321.2 261.9C314.9 263.2 315 263.2 315 262.2Z" fill="#F6F4F0"/>
<path d="M174 256.5C172 254 173.2 251.5 176.5 251.5C178.6 251.5 179.6 252 179.8 253.3C180.2 255.4 178.4 258 176.5 258C175.8 258 174.7 257.3 174 256.5Z" fill="#F6F4F0"/>
<path d="M306 255.5C304.2 253.3 305.9 250.5 309.1 250.5C311.1 250.5 311.5 251 311.5 253.5C311.5 255.8 311 256.6 309.4 256.8C308.3 257 306.7 256.4 306 255.5Z" fill="#F6F4F0"/>
</svg>
