<svg width="446" height="528" viewBox="0 0 446 528" fill="none" xmlns="http://www.w3.org/2000/svg">
<path d="M235.351 519.757C215.681 518.643 193.267 508.172 169.023 488.567C146.151 469.853 108.184 422.177 106.354 409.478C105.896 406.582 104.524 399.453 103.38 393.215C102.008 387.2 101.093 376.284 100.865 368.932C100.865 361.803 100.178 355.342 99.4923 354.673C99.0348 354.005 96.2902 355.342 93.5456 357.57C87.3702 363.362 81.4236 359.575 80.5087 349.549C80.0513 344.648 77.0779 339.301 72.5036 334.623C65.1846 327.271 65.1846 327.271 65.1846 302.987C65.1846 282.268 64.4984 278.258 60.839 274.248C54.4348 267.342 52.8338 235.261 58.5518 229.246C62.6687 224.79 74.3333 223.676 80.0513 227.241C85.5405 230.582 86.6841 225.458 82.7959 211.868C77.7641 193.6 77.9928 147.706 83.0246 129.215C85.3118 121.418 87.8277 114.289 88.9713 113.62C89.8861 112.952 93.5456 107.382 96.9764 101.144C100.407 94.9063 105.439 87.7772 108.184 85.1038C146.608 50.1266 152.097 45.8937 178.4 33.1949C201.272 22.0557 241.069 19.1595 268.744 26.7342C292.073 32.9722 298.248 34.7544 303.28 37.4279C305.567 38.7646 314.258 42.9975 322.492 46.7848C330.726 50.7949 338.96 55.2506 340.79 57.0329C342.619 58.8152 350.625 64.6076 358.172 69.9544C366.177 75.5241 374.64 83.9899 378.071 89.5595C396.368 119.635 397.054 122.977 393.166 181.124C391.794 202.957 391.108 221.225 391.794 221.894C392.48 222.785 395.453 221.671 398.427 219.666C405.517 214.765 408.719 215.21 415.123 221.671C422.442 228.577 422.671 243.281 416.267 261.549C412.15 273.803 411.921 275.139 415.581 289.175C418.783 302.987 418.783 304.77 415.352 312.567C413.293 317.468 409.634 321.701 407.118 322.37C402.315 323.706 402.086 324.152 401.629 335.291C401.4 340.861 400.028 342.42 394.31 343.98L386.991 346.208L385.847 366.258C384.246 394.552 380.587 413.934 375.097 424.405C372.582 429.084 370.523 434.876 370.523 437.327C370.523 441.337 346.965 464.952 324.322 483.443C317.689 489.013 306.711 498.37 300.078 504.385C293.445 510.4 287.498 514.633 286.812 513.965C285.897 513.296 282.695 513.965 279.265 515.524C271.946 519.311 255.249 520.871 235.351 519.757Z" fill="#1A0602"/>
<path d="M244.728 514.41C241.526 513.073 235.351 510.4 231.005 508.618C226.659 506.835 213.165 496.587 201.272 485.671C189.378 474.754 179.315 466.289 178.857 466.734C178.4 467.18 179.772 470.522 181.831 474.309C185.49 481.438 183.432 483.443 177.943 478.096C176.113 476.537 171.767 473.641 168.108 471.635C158.273 466.734 139.289 450.025 140.89 447.575C141.576 446.461 140.89 445.57 139.747 445.57C138.374 445.57 137.231 444.456 137.231 443.119C137.231 442.005 132.885 434.653 127.625 427.078C117.332 412.597 109.098 396.557 110.7 394.997C111.157 394.329 113.673 394.997 116.189 396.334C127.167 401.904 128.311 399.008 119.62 387.646C115.045 381.63 110.928 374.501 110.471 371.605C110.013 368.932 108.184 361.134 106.583 354.451C103.152 341.084 102.008 329.944 102.008 308.111C101.78 297.863 101.093 294.967 99.0349 296.749C97.2051 298.309 96.7477 306.552 97.4339 325.934C98.5774 351.777 98.3487 353.337 93.7744 357.57C87.3703 363.362 81.4236 359.797 80.5087 349.549C80.0513 344.648 77.078 339.301 72.5036 334.623C65.1846 327.271 65.1846 327.271 65.1846 302.987C65.1846 282.268 64.4985 278.258 60.839 274.248C57.4082 270.461 56.2646 265.337 55.5785 251.524C54.4349 230.582 57.4082 225.013 69.5303 225.013C76.8492 225.013 86.9128 230.137 86.9128 233.924C86.9128 235.038 89.8862 240.608 93.5457 246.177C99.721 255.534 100.178 258.208 99.721 273.134C99.4923 282.491 100.178 290.289 101.093 290.957C102.008 291.625 102.923 289.397 103.152 285.833C103.152 282.491 103.838 277.59 104.295 275.139C106.811 264.446 105.21 251.747 100.636 242.835C97.8913 237.711 96.2903 232.142 96.9764 230.359C97.6626 228.577 97.4339 227.241 96.519 227.241C95.6041 227.241 94.918 217.438 95.1467 205.408C95.6041 147.706 103.609 130.997 140.204 111.838C147.981 107.828 156.901 102.258 160.103 99.362C169.937 90.4506 182.288 82.2076 186.863 81.5392C189.378 81.0937 196.926 79.0886 203.559 77.0835C217.968 72.8506 258.451 72.1823 262.339 75.9696C263.941 77.5291 270.573 78.4202 277.664 78.1975C284.525 78.1975 290.929 79.0886 291.615 80.2025C292.53 81.5392 290.243 82.4304 286.584 82.4304L280.179 82.6532L287.041 85.5494C290.929 87.3316 297.333 91.7873 301.679 95.5747C306.025 99.362 311.285 102.481 313.344 102.481C315.402 102.481 319.062 104.486 321.577 107.159C327.753 113.843 342.619 120.304 351.539 120.304C371.895 120.304 381.73 135.008 384.475 169.316C386.305 192.709 383.331 230.582 379.443 235.261C376.927 238.38 377.842 278.927 380.815 289.62C385.161 305.661 382.874 372.942 377.613 382.522C376.47 384.749 374.183 392.77 372.582 400.567C370.981 408.365 368.693 415.939 367.321 417.276C365.949 418.835 362.747 424.405 360.231 429.975C355.656 440.223 330.04 468.516 326.838 466.511C325.923 466.066 325.923 462.501 327.067 458.937C328.21 454.927 328.21 452.253 327.067 452.253C323.407 452.253 317.689 462.501 314.487 474.309C310.142 490.572 297.333 504.385 281.552 509.954C265.084 515.747 252.047 517.306 244.728 514.41ZM268.286 463.17C273.318 460.496 276.749 456.932 276.749 454.035C276.749 453.144 272.632 453.813 267.829 455.595C262.111 457.6 252.276 458.268 240.383 457.823C225.745 457.154 221.856 457.6 221.856 460.051C221.856 462.278 225.973 463.392 237.409 464.061C245.872 464.506 255.021 464.952 257.994 465.175C260.967 465.397 265.542 464.506 268.286 463.17ZM195.554 421.509C212.25 413.266 214.309 413.043 268.744 411.929H280.179L271.259 408.587C266.228 406.805 260.51 405.914 258.223 406.582C255.935 407.251 253.648 406.805 252.962 405.691C251.361 403.241 268.057 403.909 275.605 406.582C280.179 408.142 280.179 407.919 275.834 404.577C273.318 402.572 267.143 401.013 262.111 401.013C255.478 401.013 253.648 400.344 256.164 399.008C257.994 397.671 262.568 397.448 266.456 397.894C271.717 398.785 272.632 398.562 269.887 396.78C268.057 395.443 267.371 394.329 268.515 394.329C269.658 394.329 274.004 396.78 278.121 399.899C282.238 403.018 286.584 405.468 287.727 405.468C289.099 405.468 290.701 407.028 291.387 409.033C292.302 411.261 291.844 411.929 289.786 410.815C287.956 409.701 287.727 409.924 289.328 411.484C293.445 415.271 315.631 419.281 324.322 417.722C339.189 415.271 340.79 414.38 340.79 408.142C340.79 402.795 340.561 402.795 337.816 406.36C334.843 410.37 334.386 410.37 329.811 405.468C321.349 396.557 312.429 392.101 303.509 392.101C298.934 392.101 288.871 390.542 281.552 388.537C273.318 386.309 265.542 385.418 261.653 386.309C257.994 387.2 254.563 388.091 253.877 387.868C253.191 387.868 251.818 390.096 250.904 392.547L249.074 397.448L245.643 392.324C240.611 385.418 232.377 382.744 224.83 385.641C221.17 386.977 216.596 388.314 214.309 388.76C212.022 389.205 207.676 391.656 204.474 394.106C197.155 399.676 183.889 403.463 177.256 401.904C174.054 401.235 166.964 403.463 158.044 407.919C146.151 413.934 143.177 414.603 138.603 412.597L132.885 410.147L137.688 417.944C140.204 422.177 145.007 427.078 148.438 428.861C157.587 433.985 176.342 431.089 195.554 421.509ZM160.331 280.709C161.475 280.709 162.39 281.823 162.39 282.937C162.39 284.273 163.076 284.942 164.22 284.719C165.134 284.273 166.049 285.165 166.278 286.278C166.278 287.615 165.592 288.284 164.22 287.838C163.076 287.615 162.618 288.284 163.533 289.62C164.448 290.957 169.251 291.625 174.512 291.18C182.059 290.511 184.347 289.397 184.804 285.61C185.262 282.491 183.889 280.709 180.687 279.595C174.054 277.59 136.773 280.709 142.72 282.937C147.066 284.273 147.066 284.496 142.949 286.056C139.289 287.392 139.061 288.061 141.805 289.62C143.864 290.957 147.066 289.843 151.64 286.056C155.3 283.16 159.188 280.709 160.331 280.709ZM206.99 289.62C206.304 288.506 203.559 286.278 201.043 284.942C196.926 282.937 196.697 282.937 199.442 287.17C201.043 289.843 203.788 291.848 205.389 291.848C206.99 291.848 207.676 290.957 206.99 289.62ZM293.903 276.253C295.504 276.253 297.333 278.258 298.019 280.932C299.163 284.719 300.764 285.387 309.227 284.719C317.461 284.273 319.29 283.16 319.748 279.149C320.663 272.911 328.21 272.243 334.386 277.813C336.673 279.818 339.189 280.709 340.104 279.818C341.018 278.927 340.332 277.367 338.731 276.253C336.215 274.916 336.444 274.248 339.875 273.58C342.619 272.911 340.332 272.02 334.614 270.906C328.896 270.015 319.748 270.238 312.2 271.797C293.674 275.585 294.36 273.134 313.801 266.896C325.008 263.332 336.902 261.327 349.938 260.881C360.688 260.658 369.608 259.99 370.066 259.544C370.523 259.099 365.263 255.089 358.401 250.633C343.306 241.053 339.875 241.053 314.945 252.415C305.11 257.094 295.504 260.658 293.445 260.658C291.387 260.658 284.754 265.782 278.578 271.797C266.914 283.382 267.143 285.61 279.493 279.372L286.355 275.808L282.695 280.932C276.977 289.175 278.35 290.734 284.983 283.16C288.185 279.372 292.302 276.253 293.903 276.253ZM195.554 272.689C185.719 267.342 176.799 262.886 175.655 262.886C174.512 262.886 165.592 260.435 156.214 257.316L138.832 251.524L130.827 257.762C126.481 261.327 121.221 266.451 119.391 269.124L116.189 274.025L125.795 270.684C133.8 268.01 139.061 267.787 154.842 269.57C172.453 271.797 189.836 277.367 189.836 280.709C189.836 281.377 195.096 282.268 201.501 282.268L213.165 282.491L195.554 272.689Z" fill="#5D1211"/>
<path d="M389.507 342.643C386.762 294.299 385.847 284.942 382.874 280.486C380.587 276.699 386.533 238.825 390.879 230.137C398.427 215.433 406.203 212.76 415.123 221.671C422.442 228.577 422.671 243.281 416.267 261.549C412.15 273.803 411.921 275.139 415.581 289.175C418.783 302.765 418.783 304.77 415.581 312.567C413.522 317.023 410.091 321.478 407.804 322.37C401.857 324.375 400.485 327.494 401.857 334.4C402.772 339.078 401.857 341.084 398.427 342.866C392.251 345.985 389.507 345.985 389.507 342.643Z" fill="#5D1211"/>
<path d="M244.728 514.41C241.526 513.073 235.351 510.4 231.005 508.618C226.66 506.835 213.165 496.587 201.272 485.671C189.378 474.754 179.315 466.289 178.857 466.734C178.4 467.18 179.772 470.522 181.831 474.309C185.49 481.438 183.432 483.443 177.943 478.096C176.113 476.537 171.767 473.641 168.108 471.635C158.273 466.734 139.289 450.025 140.89 447.575C141.576 446.461 140.89 445.57 139.747 445.57C138.374 445.57 137.231 444.456 137.231 443.119C137.231 442.005 132.885 434.653 127.625 427.078C117.332 412.597 109.098 396.557 110.7 394.997C111.157 394.329 113.673 394.997 116.189 396.334C127.167 401.904 128.311 399.008 119.62 387.646C115.045 381.63 110.928 374.501 110.471 371.605C110.013 368.932 108.184 361.134 106.583 354.451C103.152 341.084 102.008 329.944 102.008 308.111C101.78 297.641 101.093 294.967 99.0349 296.749C96.9764 298.309 96.519 306.329 97.4339 326.157C98.5775 351.777 98.3487 353.559 93.7744 357.57C87.3703 363.362 81.4236 359.797 80.5087 349.549C80.0513 344.648 77.078 339.301 72.5036 334.623C65.1846 327.271 65.1846 327.271 65.1846 302.987C65.1846 282.268 64.4985 278.258 60.839 274.248C57.4082 270.461 56.2646 265.337 55.5785 251.524C54.4349 230.582 57.4082 225.013 69.759 225.013C78.9077 225.013 82.3385 227.686 92.1734 243.949C99.721 256.425 100.407 258.43 99.721 273.58C99.4923 282.491 100.178 290.511 101.093 290.957C102.008 291.625 102.923 289.397 103.152 285.833C103.152 282.491 103.838 277.59 104.295 275.139C106.811 264.446 105.21 251.747 100.636 242.835C97.8913 237.711 96.2903 232.142 96.9764 230.36C97.6626 228.577 97.4339 227.241 96.519 227.241C95.6041 227.241 94.918 217.438 95.1467 205.408C95.6041 147.706 103.609 130.997 140.204 111.838C147.981 107.828 156.901 102.258 160.103 99.362C169.937 90.4506 182.288 82.2076 186.863 81.5392C189.378 81.0937 196.926 79.0886 203.559 77.0835C217.968 72.8506 258.451 72.1823 262.34 75.9696C263.941 77.5291 270.573 78.4202 277.664 78.1975C284.525 78.1975 290.929 79.0886 291.615 80.2025C292.53 81.5392 290.243 82.4304 286.584 82.4304L280.18 82.6532L287.041 85.5494C290.929 87.3316 297.333 91.7873 301.679 95.5747C306.025 99.362 311.285 102.481 313.344 102.481C315.402 102.481 319.062 104.486 321.577 107.159C327.753 113.843 342.62 120.304 351.54 120.304C371.895 120.304 381.73 135.008 384.475 169.316C386.305 192.709 383.331 230.582 379.443 235.261C376.927 238.38 377.842 278.481 380.815 289.62C385.161 306.775 383.103 372.719 377.613 382.522C376.47 384.749 374.183 392.77 372.582 400.567C370.981 408.365 368.693 415.939 367.321 417.276C365.949 418.835 362.747 424.405 360.231 429.975C355.656 440.223 330.04 468.516 326.838 466.511C325.923 466.066 325.923 462.501 327.067 458.937C328.21 454.927 328.21 452.253 327.067 452.253C323.407 452.253 318.833 459.828 315.631 471.635C311.285 487.899 297.333 504.385 281.552 509.954C265.084 515.747 252.047 517.306 244.728 514.41ZM268.515 463.17C273.775 460.719 278.121 454.927 276.063 452.922C275.605 452.476 272.174 453.367 268.515 454.704C264.855 456.263 253.191 457.154 241.984 456.932C225.287 456.486 221.856 457.154 221.856 459.828C221.856 462.501 225.516 463.392 237.409 464.061C245.872 464.506 255.021 464.952 257.765 465.175C260.51 465.397 265.313 464.506 268.515 463.17ZM268.057 429.752C274.69 427.078 286.355 424.182 293.903 423.068C306.94 421.286 324.322 418.167 335.758 415.494C339.417 414.603 340.79 412.597 340.79 408.365C340.79 402.795 340.561 402.795 337.816 406.36C334.843 410.37 334.386 410.37 329.811 405.468C321.349 396.557 312.429 392.101 303.051 391.878C298.02 391.878 286.812 390.096 278.121 387.868C260.738 383.413 252.962 384.972 250.446 393.215C249.303 397.448 249.074 397.225 245.414 391.656C240.84 384.527 231.234 381.853 224.144 385.418C221.399 386.754 217.282 388.314 214.766 388.759C212.25 389.205 207.676 391.656 204.474 394.106C197.155 399.676 183.889 403.463 177.256 401.904C174.054 401.235 166.964 403.463 158.044 407.919C146.151 413.934 143.177 414.603 138.603 412.597L132.885 410.147L137.688 417.944C144.55 429.306 153.012 432.871 168.794 430.866C175.884 429.975 183.203 429.306 185.033 429.752C186.634 429.975 187.549 429.306 186.863 428.192C186.176 427.301 191.437 423.514 198.527 419.949C211.793 413.489 217.282 412.82 268.744 411.929H280.18L271.26 408.587C266.228 406.805 260.51 405.914 258.223 406.582C255.935 407.251 253.648 406.805 252.962 405.691C251.361 403.241 268.057 403.909 275.605 406.582C280.18 408.142 280.18 407.919 275.834 404.577C273.318 402.572 267.143 401.013 262.111 401.013C255.478 401.013 253.648 400.344 256.164 399.008C257.994 397.671 262.568 397.448 266.456 397.894C271.717 398.785 272.632 398.562 269.887 396.78C268.057 395.443 267.371 394.329 268.515 394.329C269.658 394.329 274.004 396.78 278.121 399.899C282.238 403.018 286.584 405.468 287.727 405.468C289.1 405.468 290.701 407.028 291.387 409.033C292.302 411.261 291.844 411.929 290.014 410.815C288.642 409.924 288.185 410.147 288.871 411.484C289.786 412.82 294.817 414.38 300.078 415.271C312.657 417.276 307.626 421.063 292.759 420.841C287.041 420.841 276.291 422.623 268.744 424.851C256.85 428.638 251.59 429.084 227.803 427.301C212.708 426.41 199.213 426.41 197.155 427.524C194.868 428.861 201.043 429.975 215.224 430.866C237.181 432.203 251.361 433.539 254.334 433.985C255.249 434.208 261.425 432.425 268.057 429.752ZM182.06 291.848C183.889 291.848 185.262 289.62 185.262 286.278C185.262 282.268 183.661 280.486 179.544 279.372C171.767 277.59 137.002 280.709 142.72 282.937C147.066 284.273 147.066 284.496 142.949 286.056C139.289 287.392 139.061 288.061 141.805 289.62C143.864 290.957 147.066 289.843 151.64 286.056C158.502 280.486 162.39 279.372 162.39 282.937C162.39 284.273 163.305 284.942 164.448 284.719C165.592 284.273 166.278 285.165 166.278 286.278C166.049 287.615 165.134 288.284 164.22 288.061C163.305 287.615 163.076 288.952 163.991 290.957C164.906 293.63 167.193 294.076 172.225 293.185C175.884 292.516 180.458 291.848 182.06 291.848ZM204.703 287.392C202.415 284.942 199.671 282.937 198.527 282.937C197.612 282.937 197.841 284.942 199.442 287.392C201.043 289.843 203.788 291.848 205.617 291.848C208.133 291.848 207.905 290.734 204.703 287.392ZM285.211 282.937C292.073 274.694 296.419 274.471 298.248 281.823C299.392 286.056 301.222 287.392 306.253 287.392C316.546 287.392 320.205 285.165 320.205 279.372C320.205 275.139 321.349 274.025 325.694 274.025C328.896 274.025 332.785 276.03 334.614 278.704C337.13 281.823 338.503 282.491 339.646 280.709C340.561 279.149 340.104 277.144 338.503 276.253C336.444 274.916 336.673 274.248 339.875 273.58C342.62 272.911 340.332 272.02 334.614 270.906C328.896 270.015 319.748 270.238 312.2 271.797C293.674 275.585 294.36 273.134 313.801 266.896C325.008 263.332 336.902 261.327 349.939 260.881C360.688 260.658 369.608 259.99 370.066 259.544C370.523 259.099 365.263 255.089 358.401 250.633C343.534 241.053 339.875 241.053 315.631 252.192C306.253 256.425 295.961 260.658 292.759 261.327C289.557 261.995 282.467 267.342 276.749 273.134C266.685 283.159 267.371 284.496 279.951 279.595C284.068 277.813 284.068 278.035 280.18 283.605C274.919 291.625 277.892 291.18 285.211 282.937ZM200.128 275.139C191.894 270.906 183.432 266.451 181.145 265.337C179.086 264.223 168.565 260.658 158.044 257.539L138.832 251.524L130.827 257.762C126.481 261.327 121.221 266.451 119.391 269.124L116.189 274.025L125.795 270.684C139.289 266.005 171.31 269.57 182.974 277.144C188.464 280.709 194.639 282.268 202.873 282.491L214.995 282.714L200.128 275.139Z" fill="#45291F"/>
<path d="M190.522 417.276C188.921 416.608 187.549 415.271 187.549 414.157C187.549 413.043 188.921 412.152 190.522 412.152C191.894 412.152 197.384 408.142 202.415 403.24C212.936 393.215 215.681 392.101 212.708 399.676C210.878 404.8 211.107 405.023 217.968 404.132C223.457 403.24 224.372 403.686 221.856 405.246C220.027 406.582 216.596 407.696 214.309 407.696C212.25 407.696 206.532 410.147 201.729 412.82C197.155 415.716 191.894 417.722 190.522 417.276Z" fill="#45291F"/>
<path d="M219.569 397.894C225.973 394.106 237.409 393.438 242.441 396.557C244.957 398.117 243.127 398.785 235.58 398.785C229.862 398.785 222.771 399.453 219.569 400.122L213.851 401.236L219.569 397.894Z" fill="#45291F"/>
<path d="M159.874 481.215C157.815 480.101 154.385 476.314 152.097 472.972C148.438 467.403 148.895 467.403 156.443 474.309C166.507 483.666 167.422 485.448 159.874 481.215Z" fill="#45291F"/>
<path d="M389.507 342.643C386.762 294.299 385.847 284.942 382.874 280.486C380.587 276.699 386.533 238.825 391.108 230.582C399.113 215.21 405.974 212.537 415.123 221.671C422.442 228.577 422.671 243.281 416.267 261.549C412.15 273.802 411.921 275.139 415.581 289.175C418.783 302.987 418.783 304.77 415.352 312.567C413.293 317.468 409.634 321.701 407.118 322.37C404.602 323.038 402.544 324.597 402.544 325.711C402.544 326.825 401.629 327.271 400.485 326.602C399.342 325.711 399.57 328.385 400.943 332.172C403.459 338.187 403.23 339.301 399.342 342.197C393.852 345.985 389.735 346.208 389.507 342.643Z" fill="#45291F"/>
<path d="M82.7959 358.238C81.1949 356.678 80.0513 352.223 80.0513 348.213C80.0513 342.643 78.2216 339.078 72.7323 334.4L65.1846 327.939V303.433C65.1846 282.268 64.4985 278.258 60.839 274.248C57.4082 270.461 56.2646 265.337 55.5785 251.524C54.4349 230.582 57.4082 225.013 69.759 225.013C78.9077 225.013 82.1098 227.686 92.1734 243.949C100.178 256.871 100.178 257.762 99.0349 275.139C98.3487 284.942 97.6626 306.552 97.6626 323.261C97.2052 345.316 96.2903 354.451 94.0031 357.124C90.3436 361.58 86.6841 362.025 82.7959 358.238Z" fill="#333130"/>
<path d="M389.278 330.39C388.134 304.77 386.533 290.066 384.246 284.051C381.044 275.585 385.161 241.499 391.108 230.582C399.113 215.21 405.974 212.537 415.123 221.671C422.442 228.577 422.671 243.281 416.267 261.549C412.15 273.802 411.921 275.139 415.58 289.175C418.783 302.987 418.783 304.77 415.352 312.567C413.293 317.468 409.634 321.701 407.118 322.37C404.602 323.038 402.544 324.597 402.544 325.711C402.544 326.825 401.629 327.271 400.485 326.602C399.342 325.711 399.57 328.385 400.943 332.172C403.458 338.187 403.23 339.301 399.342 342.197C391.336 347.767 389.964 345.985 389.278 330.39Z" fill="#333130"/>
<path d="M241.755 504.83C231.234 501.043 225.516 496.142 222.085 488.344C220.713 485.003 214.309 478.765 207.676 474.532C193.953 465.397 187.091 456.709 183.432 444.233C179.772 431.534 180.001 429.975 185.948 429.752C188.692 429.752 189.607 429.084 187.778 428.415C185.948 427.747 190.293 424.405 198.07 420.395C211.107 413.934 212.936 413.711 247.015 412.82C269.43 412.152 287.499 412.82 295.732 414.603C310.828 417.722 309.227 421.063 292.759 420.841C287.041 420.841 276.291 422.623 268.744 424.851C256.85 428.638 251.59 429.084 227.803 427.301C211.335 426.41 199.213 426.41 196.926 427.747C193.953 429.306 194.639 429.975 200.128 429.975C204.016 430.197 218.426 431.089 232.149 431.98C255.478 433.539 258.451 433.316 271.717 428.415C279.493 425.742 289.557 423.291 293.903 423.291C298.02 423.291 304.424 422.177 307.626 421.063L313.801 418.835L312.886 434.876C312.429 444.678 310.828 451.139 309.227 451.808C307.626 452.253 306.482 453.59 306.482 454.927C306.482 456.263 303.966 460.496 301.222 464.284C298.248 468.071 294.36 475.2 292.759 480.101C288.413 493.246 282.467 500.375 272.174 504.385C260.967 508.618 253.42 508.841 241.755 504.83ZM268.057 462.947C273.318 460.942 278.121 455.149 276.063 453.144C275.834 452.699 270.802 453.813 265.313 455.372C258.68 457.154 249.074 457.6 238.553 456.932C223.686 455.595 221.856 456.041 221.856 459.382C221.856 463.17 226.431 464.729 244.728 466.289C253.648 467.18 258.909 466.511 268.057 462.947Z" fill="#962521"/>
<path d="M328.21 439.332C327.295 433.539 325.694 427.079 324.322 424.851C321.577 419.727 322.492 419.058 330.726 417.499C338.503 416.162 343.306 411.038 341.247 405.914C340.332 403.686 339.646 403.241 338.96 405.023C337.816 408.81 330.04 408.365 328.668 404.577C326.381 398.785 315.173 393.438 302.136 391.879C295.046 390.987 283.382 388.76 276.063 386.977C262.111 383.635 251.59 385.418 251.59 391.656C251.59 395.666 247.473 394.775 244.957 390.096C239.696 380.739 220.713 383.19 202.415 395.22C196.011 399.453 190.751 401.013 182.517 401.013C174.512 401.013 167.65 403.018 157.587 407.919C145.693 413.934 142.949 414.603 137.917 412.375L132.199 409.924L137.231 417.499C140.662 423.291 141.805 428.192 141.348 435.767L140.662 446.015L129.226 428.415C116.875 409.924 109.785 397.894 109.785 395.666C109.785 394.775 111.843 395.22 114.13 396.557C119.62 399.23 128.082 399.453 128.082 396.78C128.082 395.666 127.167 394.329 126.252 393.884C117.104 390.319 104.295 355.342 102.694 329.722C101.093 306.329 103.152 267.787 106.354 262.886C107.04 261.772 104.982 253.752 102.008 245.286C96.0616 228.354 96.7477 226.127 107.497 226.795C117.79 227.463 119.62 224.344 120.763 205.408C121.678 191.149 120.763 184.911 116.646 172.658C110.013 153.053 110.928 132.78 118.705 126.765C124.423 122.086 136.316 121.418 147.294 124.76C163.991 129.884 215.91 138.795 229.862 138.795C244.5 139.018 271.488 135.676 283.61 132.334C290.472 130.329 298.934 128.324 302.136 128.101C305.567 127.656 313.801 125.651 320.891 123.646C331.184 120.749 335.301 120.527 343.763 122.754C353.141 124.982 354.284 125.873 356.343 134.339C361.146 152.162 361.603 156.395 359.545 158.846C358.401 160.405 356.571 170.653 355.885 181.792C354.055 204.071 355.656 207.858 367.321 210.754C370.294 211.423 372.81 212.982 372.81 213.873C372.81 214.765 374.869 216.101 377.385 216.77C380.815 217.661 381.959 219.889 381.959 225.458C381.959 229.691 381.044 233.924 379.672 235.261C376.012 238.825 376.241 270.461 380.129 287.392C384.246 304.547 382.416 337.742 376.241 358.461C373.268 368.709 370.066 377.843 368.922 378.511C365.263 380.962 349.939 407.251 349.939 410.815C349.939 412.82 349.024 416.162 347.651 418.39C346.508 420.395 343.077 427.747 339.875 434.876C336.673 441.782 333.242 448.02 332.099 448.689C330.726 449.357 329.125 445.124 328.21 439.332ZM159.874 280.709C161.246 280.709 162.39 281.823 162.39 282.937C162.39 284.273 163.076 284.942 164.22 284.719C165.134 284.273 165.821 285.165 165.821 286.279C165.821 287.615 165.134 288.284 164.22 288.061C163.305 287.615 163.076 288.952 163.991 290.957C164.906 293.63 167.193 294.076 172.225 293.185C175.884 292.516 180.23 291.848 181.831 291.848C183.432 291.848 185.262 289.398 185.719 286.501C187.091 280.041 182.974 278.481 166.964 278.704C156.901 278.704 135.172 282.268 141.805 282.714C144.092 282.937 144.321 283.605 142.491 285.387C140.662 287.17 140.662 288.729 142.263 290.511C144.092 292.294 146.38 291.403 151.183 286.947C154.613 283.382 158.502 280.709 159.874 280.709ZM204.016 286.724L198.985 281.6L207.676 282.491C216.596 283.605 216.596 283.605 181.145 265.337C179.086 264.223 168.565 260.658 158.044 257.316C140.662 251.97 138.603 251.747 134.029 254.866C124.651 261.327 121.907 264 118.933 269.347C116.417 274.248 116.417 274.471 120.306 272.911C137.46 266.228 169.023 268.456 183.432 277.59C188.235 280.486 193.038 282.937 194.41 282.937C195.554 282.937 197.841 284.942 199.442 287.392C201.043 289.843 203.788 291.848 205.617 291.848C207.905 291.848 207.447 290.511 204.016 286.724ZM282.924 288.061C281.094 286.501 290.014 276.253 293.216 276.253C294.36 276.253 296.419 278.704 297.791 281.823C302.136 290.957 320.205 289.175 320.205 279.372C320.205 275.139 321.349 274.025 325.694 274.025C328.896 274.025 332.785 276.03 334.843 278.704C336.673 281.377 339.189 282.714 340.79 281.823C342.62 280.709 342.62 279.595 340.79 277.367C338.96 275.139 339.189 274.248 341.247 273.357C347.88 271.129 322.492 269.347 311.285 271.352C295.961 274.025 298.934 271.129 316.774 266.228C331.87 261.995 335.072 261.549 356.571 261.104C369.38 260.658 370.752 260.213 368.236 257.094C362.518 250.633 345.822 242.613 339.189 243.281C335.758 243.727 325.923 247.291 317.232 251.301C308.769 255.311 299.849 258.653 297.562 259.099C291.844 259.99 283.839 265.337 274.004 274.916C265.77 282.937 266.914 284.719 277.664 280.709C283.61 278.704 283.61 278.704 279.951 284.051C276.52 289.175 276.52 289.62 280.408 289.62C282.467 289.62 283.61 288.952 282.924 288.061Z" fill="#962521"/>
<path d="M82.7959 356.01C79.1364 352.446 79.3651 342.643 83.0246 338.856C85.3118 336.405 84.8544 336.182 80.9662 337.296C77.7641 338.187 74.7908 337.073 70.6739 332.84C65.6421 327.494 65.1846 325.489 65.1846 302.987C65.1846 282.268 64.4985 278.258 60.839 274.248C57.4082 270.461 56.2646 265.337 55.5785 251.524C54.4349 230.582 57.4082 225.013 69.759 225.013C78.9077 225.013 82.1098 227.686 92.1733 243.949C100.407 257.539 100.407 257.539 99.0349 277.367C98.12 288.506 97.6626 309.671 97.6626 324.597C97.6626 346.43 96.9764 352 94.4605 352.891C87.1416 355.787 86.2267 351.554 90.801 339.301C91.4872 337.742 91.0298 336.405 89.6575 336.405C88.2851 336.405 86.4554 339.524 85.7692 343.534C84.3969 349.327 85.0831 351.332 89.2 354.673C93.7744 358.461 94.0031 358.684 89.8862 358.684C87.599 358.684 84.3969 357.57 82.7959 356.01Z" fill="#962521"/>
<path d="M388.592 319.473C388.363 304.77 386.762 291.625 384.475 284.273C381.044 274.471 385.161 241.721 391.108 230.582C399.113 215.21 405.974 212.537 415.123 221.671C422.442 228.577 422.671 243.281 416.267 261.549C412.15 273.802 411.921 275.139 415.581 289.175C418.783 302.987 418.783 304.77 415.352 312.567C413.293 317.468 409.634 321.701 407.118 322.37C404.602 323.038 402.544 324.597 402.544 325.711C402.544 327.048 400.943 326.825 399.113 325.266C396.368 323.038 394.996 323.038 392.251 325.266C389.278 327.716 388.821 326.825 388.592 319.473Z" fill="#962521"/>
<path d="M241.755 504.83C231.234 501.043 225.516 496.142 222.085 488.344C220.713 485.002 214.309 478.765 207.676 474.532C193.953 465.397 187.091 456.709 183.432 444.233C179.772 431.534 180.001 429.975 185.948 429.752C188.692 429.752 189.607 429.084 187.778 428.415C185.948 427.747 190.293 424.405 198.07 420.395C211.335 413.934 212.479 413.711 249.303 413.043C276.291 412.375 290.243 413.043 298.477 415.271C309.455 418.167 309.684 418.39 303.509 419.949C299.392 421.063 295.046 420.618 291.615 418.835C288.642 417.276 281.094 415.939 275.148 415.939C259.366 415.939 221.628 418.167 214.995 419.504C208.362 420.618 192.123 427.97 192.123 429.752C192.123 430.42 197.612 431.311 204.016 431.534C210.649 431.534 225.516 432.871 236.952 434.43C257.765 437.104 257.765 437.104 272.403 430.643C280.408 427.078 290.243 423.959 294.36 423.737C298.477 423.514 304.424 422.177 307.854 421.063L313.801 418.835L312.886 434.876C312.429 444.678 310.828 451.139 309.227 451.808C307.626 452.253 306.482 453.59 306.482 454.927C306.482 456.263 303.966 460.496 301.222 464.284C298.248 468.071 294.36 475.2 292.759 480.101C288.413 493.246 282.467 500.375 272.174 504.385C260.967 508.618 253.42 508.84 241.755 504.83ZM268.057 462.947C273.318 460.942 278.121 455.149 276.063 453.144C275.834 452.699 270.345 453.59 264.169 455.149C257.536 456.709 246.101 457.377 237.181 456.709C223.915 455.818 221.856 456.04 221.856 459.382C221.856 463.17 226.431 464.729 244.728 466.289C253.648 467.18 258.909 466.511 268.057 462.947Z" fill="#6D4F46"/>
<path d="M328.21 439.332C327.295 433.539 325.694 427.078 324.322 424.851C321.577 419.727 322.492 419.058 330.726 417.499C338.503 416.162 343.306 411.038 341.247 405.914C340.332 403.686 339.646 403.24 338.96 405.023C337.816 408.81 330.04 408.365 328.668 404.577C326.381 398.785 315.173 393.438 302.136 391.656C283.382 389.428 265.313 385.195 265.313 382.967C265.313 381.853 265.542 380.962 265.999 380.962C266.228 380.962 270.573 379.402 275.605 377.62C280.866 375.838 282.924 374.501 280.18 374.278C277.664 374.278 271.26 376.506 265.77 379.402C256.85 384.081 254.563 384.304 237.181 382.521C212.25 379.848 206.99 377.843 206.304 370.491C206.075 367.149 205.389 364.03 204.703 363.362C204.016 362.694 203.788 365.59 204.016 369.6C204.703 377.397 208.591 380.516 220.713 383.19L227.574 384.749L219.569 386.977C215.224 388.314 207.447 391.878 202.644 395.22C196.011 399.453 190.98 401.013 182.517 401.013C174.512 401.013 167.65 403.018 157.587 407.919C145.693 413.934 142.949 414.602 137.917 412.375L132.199 409.924L137.231 417.499C140.662 423.291 141.805 428.192 141.348 435.767L140.662 446.015L129.226 428.415C116.875 409.924 109.785 397.894 109.785 395.666C109.785 394.775 111.843 395.22 114.13 396.557C119.62 399.23 128.082 399.453 128.082 396.78C128.082 395.666 127.167 394.329 126.252 393.883C117.104 390.319 104.295 355.342 102.694 329.721C101.093 306.329 103.152 267.787 106.354 262.886C107.04 261.772 104.982 253.752 102.008 245.286C96.0616 228.354 96.7477 226.127 107.497 226.795C117.79 227.463 119.62 224.344 120.763 205.408C121.678 191.149 120.763 184.911 116.646 172.658C110.013 153.053 110.928 132.78 118.705 126.765C124.423 122.086 136.316 121.418 147.294 124.759C163.991 129.883 215.91 138.795 229.862 138.795C244.5 139.018 271.488 135.676 283.61 132.334C290.472 130.329 298.934 128.324 302.136 128.101C305.567 127.656 313.801 125.651 320.891 123.646C331.184 120.749 335.301 120.527 343.763 122.754C353.141 124.982 354.284 125.873 356.343 134.339C361.146 152.162 361.603 156.395 359.545 158.846C358.401 160.405 356.571 170.653 355.885 181.792C354.055 204.071 355.656 207.858 367.321 210.754C370.294 211.423 372.81 212.982 372.81 213.873C372.81 214.765 374.869 216.101 377.385 216.77C380.815 217.661 381.959 219.889 381.959 225.458C381.959 229.691 381.044 233.924 379.672 235.261C376.012 238.825 376.241 270.461 380.129 287.392C384.246 304.547 382.416 337.742 376.241 358.461C373.268 368.709 370.066 377.843 368.922 378.511C365.263 380.962 349.939 407.251 349.939 410.815C349.939 412.82 349.024 416.162 347.651 418.39C346.508 420.395 343.077 427.747 339.875 434.876C336.673 441.782 333.242 448.02 332.099 448.689C330.726 449.357 329.125 445.124 328.21 439.332ZM176.113 309.671C178.4 308.334 176.57 308.111 170.395 309.002C159.188 310.562 157.129 311.899 166.049 311.899C169.709 311.899 174.283 310.785 176.113 309.671ZM154.385 292.071L145.236 290.734L151.869 285.833C158.959 280.263 162.39 279.372 162.39 282.937C162.39 284.273 163.076 284.942 164.22 284.719C165.134 284.273 165.821 285.165 165.821 286.278C165.821 287.615 165.134 288.283 164.22 288.061C163.305 287.615 163.076 288.952 163.762 290.734C164.677 293.185 168.108 294.076 174.969 293.63C183.889 293.408 185.033 292.739 185.719 287.17C186.863 280.04 183.432 278.481 166.964 278.704C156.901 278.704 135.172 282.268 141.805 282.714C144.092 282.937 144.321 283.605 142.491 285.387C138.146 289.62 144.321 293.853 154.385 293.63L163.533 293.408L154.385 292.071ZM204.016 286.724L198.985 281.6L207.676 282.491C216.596 283.605 216.596 283.605 181.145 265.337C179.086 264.223 168.565 260.658 158.044 257.316C140.662 251.97 138.603 251.747 134.029 254.866C124.651 261.327 121.907 264 118.933 269.347C116.417 274.248 116.417 274.471 120.306 272.911C137.46 266.228 169.023 268.456 183.432 277.59C188.235 280.486 193.038 282.937 194.182 282.937C195.325 282.937 197.384 284.273 198.756 286.056C201.043 288.729 200.357 289.397 193.953 290.289C188.235 290.957 189.15 291.18 197.612 291.402L208.82 291.848L204.016 286.724ZM287.041 287.17C291.158 285.165 291.158 285.165 286.126 286.056L280.866 287.17L286.126 281.6C292.759 274.916 294.589 274.916 297.791 282.046C300.307 287.615 301.222 287.838 313.344 286.724C337.13 284.496 344.678 282.046 340.79 277.367C338.96 275.139 339.189 274.248 341.247 273.357C347.88 271.129 322.492 269.347 311.285 271.352C295.961 274.025 298.934 271.129 316.774 266.228C331.87 261.995 335.072 261.549 356.571 261.104C369.38 260.658 370.752 260.213 368.236 257.094C362.518 250.633 345.822 242.613 339.189 243.281C335.758 243.727 325.923 247.291 317.232 251.301C308.769 255.311 299.849 258.653 297.562 259.099C291.844 259.99 283.839 265.337 274.004 274.916C265.77 282.937 266.914 284.719 277.664 280.709C283.61 278.704 283.61 278.704 279.951 284.051C275.834 290.066 278.35 291.18 287.041 287.17Z" fill="#6D4F46"/>
<path d="M244.728 389.873C242.67 386.086 242.898 385.418 247.015 385.418C249.989 385.418 251.59 386.977 251.59 389.873C251.59 392.324 250.675 394.329 249.303 394.329C248.159 394.329 246.1 392.324 244.728 389.873Z" fill="#6D4F46"/>
<path d="M82.7959 356.01C79.1364 352.446 79.3651 342.643 83.0246 338.856C85.3118 336.405 85.0831 335.959 82.3385 336.851C80.5087 337.296 76.1631 334.846 72.5036 331.281C66.3282 325.043 66.0995 324.597 66.7857 302.319C67.4718 281.6 67.0144 278.927 62.44 273.134C58.0944 267.787 57.1795 264 57.1795 249.519C57.1795 228.132 60.6103 223.899 74.1046 227.463C80.9662 229.246 84.3969 232.364 91.4872 243.504L100.407 257.094L99.0349 277.367C98.12 288.283 97.4339 309.225 97.6626 323.706C97.6626 337.965 96.7477 349.772 96.0616 349.772C92.6308 349.772 89.2 343.534 90.5723 339.97C91.2585 337.965 91.0298 336.405 89.6575 336.405C88.2851 336.405 86.4554 339.524 85.7693 343.534C84.3969 349.327 85.0831 351.332 89.2 354.673C93.7744 358.461 94.0031 358.684 89.8862 358.684C87.599 358.684 84.3969 357.57 82.7959 356.01ZM77.078 308.111C76.6205 303.433 76.6205 297.195 77.5354 294.299C78.9077 289.62 79.3651 289.843 83.2534 298.532C88.2851 309.894 90.801 309.002 85.998 297.418C79.3651 282.268 83.2534 266.896 92.8595 270.461C96.0616 271.575 96.519 271.352 94.6893 269.57C89.8862 264.891 83.7108 268.01 81.1949 276.253C80.0513 280.486 78.2216 285.165 77.5354 286.278C74.7908 290.511 72.961 304.992 74.5621 310.562C76.6205 319.251 78.4503 317.468 77.078 308.111ZM73.1898 276.253C69.5303 269.347 67.9292 272.243 71.36 279.595C72.961 282.937 74.5621 284.719 75.0195 283.382C75.4769 282.046 74.5621 278.704 73.1898 276.253ZM65.6421 254.42C64.4985 246.846 64.041 239.939 64.7272 239.271C66.3282 237.489 76.1631 243.504 89.6575 253.975C95.1467 258.208 97.8913 259.767 96.0616 257.539C91.7159 252.192 67.2431 233.924 64.2698 233.924C59.0092 233.924 59.0092 237.934 65.4134 264.891C67.7005 275.139 67.9292 268.233 65.6421 254.42Z" fill="#6D4F46"/>
<path d="M390.422 339.97C389.507 337.965 391.108 337.073 395.682 337.296C399.57 337.519 401.629 338.41 400.943 340.415C399.342 343.98 391.794 343.757 390.422 339.97Z" fill="#6D4F46"/>
<path d="M388.592 319.473C388.363 304.77 386.762 291.625 384.475 284.273C380.587 272.911 384.932 240.608 392.023 229.914C395.225 225.013 400.028 220.334 402.544 219.443C408.49 217.661 418.554 223.453 418.783 229.023C419.469 239.939 417.639 251.078 413.979 261.772C409.863 273.357 409.863 274.471 413.751 290.734C416.038 299.868 417.182 307.443 416.267 307.443C415.352 307.443 413.751 309.894 413.065 313.013C411.692 318.359 402.086 324.375 397.054 323.261C396.14 323.038 393.852 324.152 392.023 325.489C389.278 327.494 388.821 326.602 388.592 319.473ZM402.544 288.506C402.544 288.061 399.57 284.051 395.682 280.04L388.821 272.466L394.538 256.202C401.171 237.266 400.714 232.142 393.852 249.964C385.618 271.575 385.618 272.911 393.852 281.823C401.4 289.62 402.544 290.511 402.544 288.506ZM406.432 277.813C403.23 270.683 403.458 269.347 407.347 262.886C409.863 258.876 411.464 255.311 410.777 254.643C410.32 253.975 407.804 257.316 405.288 262.218C401.171 270.015 400.943 271.352 404.145 279.149C406.203 283.828 408.033 287.17 408.719 286.724C409.176 286.056 408.262 282.046 406.432 277.813Z" fill="#6D4F46"/>
<path d="M249.76 118.521C245.643 118.076 242.898 116.739 243.585 115.625C245.414 112.952 255.478 113.175 257.308 116.071C259.366 119.19 258.68 119.413 249.76 118.521Z" fill="#6D4F46"/>
<path d="M217.739 114.289C213.623 113.62 210.42 112.283 210.878 110.947C212.25 106.937 218.654 107.159 225.516 111.615C229.175 113.843 230.548 115.625 228.718 115.402C226.888 115.18 221.856 114.734 217.739 114.289Z" fill="#6D4F46"/>
<path d="M268.744 111.392C270.345 108.719 281.323 108.273 281.323 110.947C281.323 111.838 278.121 112.952 274.233 113.175C269.887 113.62 267.829 112.729 268.744 111.392Z" fill="#6D4F46"/>
<path d="M283.61 109.833C283.61 108.051 286.355 106.937 290.243 106.937C300.078 106.937 300.993 110.724 291.615 111.838C286.126 112.506 283.61 111.838 283.61 109.833Z" fill="#6D4F46"/>
<path d="M239.01 108.051C231.691 105.823 231.005 105.154 235.58 104.932C238.782 104.932 243.813 106.268 247.015 108.051C254.106 112.061 251.132 112.061 239.01 108.051Z" fill="#6D4F46"/>
<path d="M316.774 108.051C313.115 106.491 309.227 105.6 308.312 106.268C307.168 106.714 306.482 106.046 306.482 104.709C306.482 101.59 317.918 104.263 322.492 108.273C326.381 112.061 325.694 111.838 316.774 108.051Z" fill="#6D4F46"/>
<path d="M257.308 102.481L250.446 100.699L256.622 100.476C260.052 100.476 263.483 101.367 264.169 102.481C264.855 103.818 265.313 104.486 264.855 104.486C264.398 104.263 261.196 103.372 257.308 102.481Z" fill="#6D4F46"/>
<path d="M275.605 102.704C268.972 101.813 267.6 100.921 270.573 99.8075C274.233 98.2481 285.897 101.144 285.897 103.595C285.897 104.263 285.669 104.486 285.44 104.486C284.983 104.263 280.637 103.372 275.605 102.704Z" fill="#6D4F46"/>
<path d="M193.267 100.253C195.096 97.3569 203.559 97.3569 208.133 100.253C210.649 101.813 208.819 102.481 201.729 102.481C195.783 102.481 192.352 101.59 193.267 100.253Z" fill="#6D4F46"/>
<path d="M224.144 98.0253C224.144 96.9114 220.942 95.7974 217.053 95.7974C213.394 95.7974 210.649 94.9063 211.564 93.7924C212.25 92.4557 214.995 92.0101 217.74 92.4557C223.457 93.5696 231.463 100.253 226.888 100.253C225.287 100.253 224.144 99.362 224.144 98.0253Z" fill="#6D4F46"/>
<path d="M239.01 96.0202C239.696 94.6835 242.441 94.238 245.186 94.6835C252.962 96.243 252.962 98.0253 244.957 98.0253C240.84 98.0253 238.095 97.1342 239.01 96.0202Z" fill="#6D4F46"/>
<path d="M298.477 95.7974C297.791 94.6835 293.216 93.5696 288.642 93.5696C282.695 93.5696 281.094 92.9012 283.381 91.5645C287.727 88.8911 295.046 90.4506 299.392 94.6835C301.222 96.4658 302.136 98.0253 301.45 98.0253C300.535 98.0253 299.163 97.1341 298.477 95.7974Z" fill="#6D4F46"/>
<path d="M261.882 90.005L255.021 86.6632L261.882 87.9999C265.77 88.8911 269.658 90.4506 271.031 91.5645C274.004 94.4607 269.887 93.7924 261.882 90.005Z" fill="#6D4F46"/>
<path d="M241.984 88C241.297 87.3316 237.867 86.2177 234.207 85.5494C225.745 83.9899 224.144 82.4304 231.234 82.4304C236.037 82.4304 248.845 88.8911 244.5 89.1139C243.813 89.1139 242.67 88.6684 241.984 88Z" fill="#6D4F46"/>
<path d="M256.164 80.2025C251.818 79.3113 248.616 78.4202 249.303 78.1974C253.877 76.1924 258.909 76.6379 262.339 79.3113C264.627 80.8708 265.999 82.2076 265.313 81.9848C264.627 81.9848 260.51 81.0936 256.164 80.2025Z" fill="#6D4F46"/>
<path d="M273.318 80.2025C274.004 79.0886 277.435 77.9746 280.866 78.1974C286.355 78.1974 286.584 78.4202 282.467 80.2025C276.063 82.8759 271.717 82.8759 273.318 80.2025Z" fill="#6D4F46"/>
<path d="M241.755 504.83C231.234 501.043 225.516 496.142 222.085 488.344C220.713 485.003 214.309 478.765 207.905 474.532C193.953 465.398 188.464 458.268 184.118 444.01C179.772 429.975 179.772 429.306 185.719 431.089C189.378 432.425 190.293 431.98 189.15 429.529C188.464 427.301 191.894 424.405 200.814 420.172C212.936 414.38 215.91 413.934 252.047 413.043C277.435 412.375 290.472 412.82 290.472 414.38C290.472 415.494 294.817 416.608 300.307 416.83L309.913 417.053L302.365 419.058C296.876 420.618 293.674 420.618 291.615 418.835C287.27 415.271 235.122 415.716 214.995 419.504C208.362 420.618 192.123 427.97 192.123 429.752C192.123 430.42 197.612 431.311 204.016 431.534C210.649 431.534 225.516 432.871 236.952 434.43C257.536 437.104 257.994 436.881 271.26 430.866C278.35 427.524 286.812 424.628 289.786 424.182C292.759 423.96 299.392 423.068 304.424 422.177L314.03 420.618L312.886 435.544C312.2 443.787 310.599 451.139 309.455 452.03C305.338 454.927 292.759 476.314 291.387 482.998C290.472 487.008 289.1 490.127 288.185 490.127C287.27 490.127 285.897 492.132 285.211 494.582C283.839 499.929 267.143 507.949 257.308 507.727C253.648 507.727 246.558 506.39 241.755 504.83ZM271.717 462.056C274.462 460.273 276.749 457.377 276.749 455.595C276.749 451.585 277.435 451.585 267.6 454.704C259.366 457.154 230.776 457.6 223.686 455.372C219.112 454.035 218.426 456.041 221.856 461.165C223.229 463.17 229.404 464.952 238.324 465.843C255.249 467.403 264.627 466.289 271.717 462.056Z" fill="#C0534A"/>
<path d="M328.21 437.327C327.295 431.311 325.694 424.851 324.551 422.846C323.407 420.618 323.178 418.835 324.093 418.613C325.008 418.613 328.21 418.167 331.184 417.944C338.731 417.053 343.992 411.261 341.933 406.137C340.79 403.463 339.875 403.018 339.189 405.023C337.359 409.701 332.327 407.919 324.093 399.899C316.774 392.77 314.945 392.101 303.509 392.101C296.418 392.101 290.014 391.21 289.328 389.873C288.642 388.759 282.924 387.2 276.749 386.309C270.345 385.418 265.313 384.081 265.313 382.967C265.313 381.853 265.542 380.962 265.999 380.962C266.228 380.962 270.573 379.403 275.605 377.62C280.866 375.838 282.924 374.501 280.18 374.278C277.664 374.278 271.26 376.506 265.77 379.403C256.85 384.081 254.563 384.304 237.181 382.521C212.25 379.848 206.99 377.843 206.304 370.491C206.075 367.149 205.389 364.03 204.703 363.362C204.016 362.694 203.788 365.59 204.016 369.6C204.474 376.952 207.905 380.071 219.341 383.19L225.287 384.749L218.426 386.532C214.766 387.423 209.963 389.428 208.133 390.987C200.357 397.225 189.607 401.013 180.23 400.567C173.14 400.344 167.879 401.681 161.246 405.691C149.81 412.82 142.263 414.825 136.773 411.929C131.513 409.033 131.513 410.815 137.46 418.613C140.89 423.291 141.805 427.301 141.348 435.767C140.662 444.456 140.204 445.792 138.374 442.228C137.231 439.777 133.114 433.316 128.997 427.747C124.88 422.177 119.162 413.043 115.96 407.251L110.242 396.78L120.763 398.116L131.513 399.453L122.135 389.428C114.816 381.185 112.072 375.615 109.098 362.471C106.811 353.559 104.524 341.084 104.067 335.068C103.381 329.053 102.466 319.696 101.78 314.127C101.093 308.557 102.008 293.63 103.838 280.709C106.583 260.213 106.583 256.203 103.609 248.405C101.78 243.504 99.7211 236.82 99.0349 233.478C97.8913 227.686 98.3487 227.24 105.896 227.24C116.875 227.24 121.221 222.562 121.449 209.863C121.678 204.071 121.907 196.942 122.135 193.823C122.364 190.704 120.077 181.57 117.332 173.327C111.843 157.286 111.386 138.572 116.417 129.661C118.705 125.651 120.992 124.759 131.055 124.759C144.092 124.759 179.544 130.552 185.49 133.671C192.581 137.235 233.978 140.354 247.015 138.349C253.877 137.235 260.281 136.79 261.196 137.458C262.111 137.904 271.031 136.344 280.637 133.894C329.354 121.64 335.758 120.527 344.221 122.754C350.625 124.537 353.369 126.987 356.114 133.225C359.316 140.577 359.316 144.365 356.343 170.43C354.284 188.253 353.827 200.952 354.97 203.403C356.114 205.63 362.747 209.863 369.608 212.982C380.129 217.661 381.959 219.22 381.959 224.567C381.959 228.132 380.815 231.919 379.214 233.478C375.555 237.043 376.241 270.461 380.129 289.62C382.188 299.2 382.645 310.785 381.73 324.152C380.358 345.316 372.353 375.615 367.321 379.625C364.348 381.853 353.369 402.127 348.109 414.38C338.731 436.213 333.013 447.797 331.641 447.797C330.726 447.797 329.125 443.119 328.21 437.327ZM176.113 309.671C178.4 308.334 176.57 308.111 170.395 309.003C159.188 310.562 157.129 311.899 166.049 311.899C169.709 311.899 174.283 310.785 176.113 309.671ZM154.842 292.516C146.151 291.625 146.151 291.403 150.039 287.17C155.528 281.154 161.704 281.823 163.305 288.506C164.677 293.63 165.821 294.076 174.969 293.63C184.118 293.408 185.262 292.739 185.262 288.061C185.262 282.268 189.607 281.377 197.384 285.61C202.187 288.284 202.187 288.506 194.41 289.843C186.863 291.18 187.091 291.18 197.612 291.625L208.82 291.848L204.474 287.17L200.128 282.491L210.878 283.159C216.596 283.605 220.942 283.382 220.255 282.491C219.798 281.377 217.74 280.709 215.91 280.709C214.08 280.709 203.559 276.253 192.581 270.906C181.602 265.337 165.134 258.876 155.986 256.203C137.46 250.856 136.087 251.301 123.05 264C114.816 272.02 114.13 277.813 122.135 272.911C126.938 269.792 131.284 269.57 153.241 271.352C167.422 272.466 179.544 274.471 180.23 275.585C181.145 276.921 183.432 278.481 185.262 279.149C187.091 279.818 184.347 279.818 179.086 279.149C166.964 277.59 137.688 280.486 141.805 282.937C143.635 284.051 143.864 285.165 142.034 286.056C137.002 289.175 145.007 293.853 154.385 293.63L163.533 293.408L154.842 292.516ZM287.041 287.392C291.387 285.61 291.387 285.387 287.27 285.387C283.153 285.165 283.153 284.942 287.041 280.709C292.53 274.694 294.817 275.139 297.333 282.046C299.621 287.615 300.307 287.838 312.886 286.724C337.13 284.496 344.678 282.046 340.79 277.367C338.96 275.139 339.189 274.248 341.247 273.357C347.194 271.575 324.093 269.124 313.801 270.684C300.078 272.689 301.908 270.684 319.062 265.782C327.753 263.109 339.646 261.549 351.54 261.772C362.518 261.772 370.294 260.881 369.837 259.767C369.38 258.43 365.491 254.643 360.917 251.078C350.167 242.613 336.673 240.83 326.609 246.623C322.492 248.851 314.03 252.638 307.626 255.089C296.418 259.321 294.817 259.767 290.929 260.435C289.786 260.435 283.61 265.782 277.206 271.797C265.77 282.714 265.77 285.165 277.664 280.709C283.61 278.704 283.61 278.704 279.951 284.051C275.834 290.066 278.121 291.18 287.041 287.392Z" fill="#C0534A"/>
<path d="M320.205 279.372C320.205 275.139 321.349 274.025 325.694 274.025C328.668 274.025 332.327 275.362 333.7 276.922C335.529 279.372 334.386 280.486 328.21 282.268C320.663 284.719 320.205 284.496 320.205 279.372Z" fill="#C0534A"/>
<path d="M245.186 389.651C242.67 386.086 243.127 385.418 247.015 385.418C249.531 385.418 251.59 386.754 251.59 388.537C251.59 393.884 248.159 394.329 245.186 389.651Z" fill="#C0534A"/>
<path d="M91.9446 346.876C90.5723 345.316 89.8862 341.752 90.801 339.078C91.7159 335.291 91.0298 334.177 87.3703 334.177C84.6257 334.177 81.881 335.068 81.1949 336.405C80.5087 337.519 76.8493 335.514 72.961 331.726C66.0995 325.043 66.0995 324.82 66.7857 302.319C67.4718 281.6 67.0144 278.927 62.44 273.134C58.0944 267.787 57.1795 264 57.1795 249.519C57.1795 235.706 58.0944 231.696 61.5251 228.577C65.1846 225.458 66.7857 225.235 74.3334 227.686C81.1949 229.914 84.6257 233.478 91.4872 244.395C99.9498 257.985 99.9498 258.208 98.8062 277.813C98.12 288.506 97.4339 309.225 97.4339 323.706C97.2052 337.964 96.519 349.772 95.8328 349.772C94.918 349.772 93.3169 348.435 91.9446 346.876ZM77.078 308.111C76.6205 303.433 76.6205 297.195 77.5354 294.299C78.9077 289.62 79.3651 289.843 83.2534 298.532C88.2852 309.894 90.801 309.002 85.998 297.418C79.3651 282.268 83.2534 266.896 92.8595 270.461C96.0616 271.575 96.519 271.352 94.6893 269.57C89.8862 264.891 83.7108 268.01 81.1949 276.253C80.0513 280.486 78.2216 285.164 77.5354 286.278C74.7908 290.511 72.961 304.992 74.5621 310.562C76.6205 319.251 78.4503 317.468 77.078 308.111ZM73.1898 276.253C69.5303 269.347 67.9292 272.243 71.36 279.595C72.961 282.937 74.5621 284.719 75.0195 283.382C75.4769 282.045 74.5621 278.704 73.1898 276.253ZM65.6421 254.42C64.4985 246.846 64.041 239.939 64.7272 239.271C66.3282 237.489 76.1631 243.504 89.6575 253.975C95.1467 258.208 97.8913 259.767 96.0616 257.539C91.7159 252.192 67.2431 233.924 64.2698 233.924C59.0092 233.924 59.0092 237.934 65.4134 264.891C67.7005 275.139 67.9292 268.233 65.6421 254.42Z" fill="#C0534A"/>
<path d="M388.592 316.354C388.363 312.121 388.363 307.443 388.592 305.883C388.821 304.324 387.448 296.972 385.618 289.175C379.443 262.886 387.677 226.127 401.4 220.111C405.746 218.106 408.033 218.552 412.836 221.448C416.038 223.453 418.554 226.795 418.783 229.023C419.469 239.939 417.639 251.078 413.979 261.772C409.863 273.357 409.863 274.471 413.751 290.734C416.038 299.868 417.182 307.443 416.267 307.443C415.352 307.443 413.751 309.894 413.065 313.013C411.464 318.805 403.687 323.261 394.081 323.929C389.507 324.152 388.821 323.038 388.592 316.354ZM402.544 288.506C402.544 288.061 399.57 284.051 395.682 280.04L388.821 272.466L394.538 256.202C401.171 237.266 400.714 232.142 393.852 249.964C385.618 271.575 385.618 272.911 393.852 281.823C401.4 289.62 402.544 290.511 402.544 288.506ZM406.432 277.813C403.23 270.683 403.458 269.347 407.347 262.886C409.863 258.876 411.464 255.311 410.777 254.643C410.32 253.975 407.804 257.316 405.288 262.218C401.171 270.015 400.943 271.352 404.145 279.149C406.203 283.828 408.033 287.17 408.719 286.724C409.176 286.056 408.262 282.046 406.432 277.813Z" fill="#C0534A"/>
<path d="M241.755 504.83C231.463 501.043 224.83 495.696 222.771 489.235C220.942 483.666 213.851 476.982 204.931 472.304C198.299 468.962 187.549 456.932 186.634 451.808C186.405 450.248 184.804 445.124 183.203 440.446C181.602 435.767 180.687 431.534 181.145 431.089C181.602 430.643 185.948 431.089 190.751 432.203C201.043 434.43 208.133 440.446 217.968 455.149L224.83 465.62L238.782 466.066C259.137 466.734 265.77 465.843 271.488 462.056C274.462 460.273 276.749 457.154 276.749 455.372C276.749 453.367 279.265 449.803 282.467 447.352C285.669 444.901 290.472 438.886 292.988 434.208C297.105 426.187 304.424 421.063 311.514 421.063C314.258 421.063 312.429 450.025 309.455 452.03C303.051 456.709 290.472 479.21 290.472 485.671C290.472 488.344 289.557 489.904 288.413 489.235C287.27 488.567 285.669 490.572 284.983 493.691C283.839 497.478 280.408 500.597 273.775 503.494C262.568 508.618 253.648 508.841 241.755 504.83Z" fill="#E9866D"/>
<path d="M228.718 449.803C217.74 445.57 217.74 438.886 228.718 438.886C242.898 438.886 253.191 447.352 243.356 450.916C238.553 452.699 235.58 452.476 228.718 449.803Z" fill="#E9866D"/>
<path d="M256.164 447.797C256.164 444.901 272.403 434.43 277.206 434.43C283.153 434.43 282.238 440.223 275.376 445.347C269.201 450.025 256.164 451.808 256.164 447.797Z" fill="#E9866D"/>
<path d="M329.354 441.782C329.125 438.218 327.753 431.757 326.152 427.301C323.179 419.058 323.179 418.835 328.21 418.835C336.215 418.835 344.221 411.484 342.162 406.359C340.79 403.686 339.875 403.018 339.189 405.023C337.359 409.701 332.327 407.919 324.093 399.899C317.003 392.992 314.716 392.101 303.737 392.101C296.876 392.101 290.472 391.21 289.1 390.096C287.956 388.759 282.009 386.977 275.605 385.863L264.169 383.858L276.977 378.066C293.674 370.714 296.876 363.808 288.185 354.005L283.61 348.658L287.041 355.342C288.871 359.129 290.472 363.139 290.472 364.476C290.472 368.486 282.924 373.61 274.462 375.17C270.116 376.061 263.941 378.511 260.967 380.739C256.164 384.304 254.106 384.527 243.813 382.299C237.409 380.739 228.261 379.848 223.686 379.848C218.883 380.071 214.995 379.403 214.995 378.289C214.995 377.397 213.394 376.506 211.564 376.506C207.447 376.506 204.931 367.595 206.99 360.466C208.133 356.456 207.905 356.01 206.075 358.684C204.703 360.466 203.559 365.144 203.559 369.154C203.559 376.729 207.219 379.848 219.341 383.19L225.287 384.749L218.426 386.532C214.766 387.423 209.963 389.428 208.133 390.987C200.357 397.225 188.921 401.458 182.06 400.344C177.028 399.453 170.166 401.458 158.273 407.028C144.779 413.489 141.119 414.38 138.374 412.152C133.114 407.919 131.284 411.484 136.087 416.608C138.832 419.504 140.204 424.851 140.433 433.094C140.433 439.777 139.975 444.678 139.061 444.01C137.917 443.565 137.231 442.228 137.231 441.114C137.231 440 132.428 432.425 126.71 424.405C120.992 416.385 116.875 409.924 117.79 409.924C118.476 409.924 116.875 406.805 114.13 402.795L108.87 395.889L115.731 397.448C119.391 398.339 124.194 399.453 126.481 400.122C131.284 401.681 131.513 398.116 126.939 394.329C118.705 387.646 113.215 376.952 108.412 358.015C105.439 346.876 103.609 337.296 104.067 336.405C104.524 335.514 104.067 328.385 102.694 320.587C101.093 310.116 101.322 300.091 103.838 281.823C106.811 260.213 106.583 256.203 103.609 248.405C101.78 243.504 99.7211 236.597 99.0349 233.033C97.8913 226.795 98.12 226.572 104.524 227.909C114.588 229.914 120.306 223.676 121.907 208.972C123.736 194.714 123.05 189.144 117.79 174.886C113.215 162.41 112.758 136.344 116.875 128.992C118.933 124.982 120.992 124.537 134.486 125.428C154.842 126.765 183.889 131.666 185.49 133.894C187.091 136.567 232.377 140.577 243.585 139.241C248.616 138.572 256.393 137.681 260.739 137.235C268.972 136.79 294.131 131.22 315.402 125.428C353.369 114.734 362.061 124.76 356.114 172.435C354.055 189.59 353.598 200.729 354.97 203.403C356.114 205.63 362.747 209.863 369.837 212.982C383.789 219.22 383.331 217.884 377.613 240.162C374.869 250.41 375.784 269.347 379.901 286.724C382.874 299.2 382.874 339.301 379.901 344.871C378.757 346.876 376.012 355.342 373.954 363.808C371.667 372.051 369.151 378.734 368.236 378.734C365.491 378.734 351.997 402.572 347.194 415.494C341.247 431.98 333.471 447.797 331.184 447.797C330.269 447.797 329.354 445.124 329.354 441.782ZM268.972 340.415C267.6 330.167 264.398 306.997 264.169 302.987C263.483 297.641 260.51 289.175 259.366 290.289C258.909 290.734 259.824 298.977 261.653 308.78C263.483 318.36 265.542 330.835 266.228 336.405C266.914 341.975 267.371 346.653 267.371 347.099C267.6 347.322 268.057 347.544 268.744 347.544C269.43 347.544 269.43 344.203 268.972 340.415ZM187.32 306.106C189.379 304.101 189.607 302.987 188.006 303.878C182.974 306.775 172.911 308.334 162.619 308.111C155.986 308.111 153.699 308.557 155.757 310.116C160.789 313.235 183.203 310.562 187.32 306.106ZM192.809 292.516C207.676 291.18 208.133 290.957 204.474 287.17C200.586 283.16 201.043 282.937 211.564 284.496C219.569 285.387 222.085 285.165 220.942 283.382C220.027 281.823 217.74 280.709 215.91 280.709C214.08 280.709 203.559 276.253 192.581 270.906C181.602 265.337 164.677 258.653 154.842 255.98L137.231 250.856L129.683 257.539C119.62 266.451 116.646 270.015 116.646 273.134C116.646 275.362 118.247 275.139 123.05 272.689C127.625 270.238 133.8 269.792 147.523 270.684C168.108 272.243 181.602 274.025 180.459 275.139C180.001 275.585 170.852 277.144 160.103 278.481C149.582 279.818 139.289 282.046 137.231 283.16C134.715 284.942 135.172 285.165 139.518 284.273C144.321 283.382 144.779 283.605 141.576 285.833C131.742 292.962 154.613 296.081 192.809 292.516ZM282.467 289.397C283.382 288.061 288.413 287.615 295.732 288.506C305.796 289.62 314.945 288.506 330.497 284.273C331.87 284.051 336.215 282.937 340.561 282.046L348.566 280.263L342.848 277.144C337.816 274.471 337.816 274.248 341.933 273.803C344.449 273.803 342.391 272.689 337.359 271.352C332.327 270.238 322.492 269.792 315.631 270.461L303.051 271.575L315.631 267.119C324.093 264.223 335.301 262.663 349.252 262.218C361.374 261.995 370.294 260.881 369.837 259.767C368.007 254.643 351.997 244.618 343.992 243.504C336.902 242.835 331.184 244.172 317.003 250.633C307.168 255.089 297.105 259.099 294.589 259.544C289.557 260.658 285.669 263.554 271.488 277.144C263.483 284.719 263.026 285.61 267.829 284.719C270.802 284.051 275.376 282.714 277.892 281.823C281.552 280.263 282.009 280.486 279.722 283.16C276.291 286.501 275.834 291.848 278.807 291.848C280.18 291.848 281.781 290.734 282.467 289.397Z" fill="#E9866D"/>
<path d="M149.81 287.392C152.097 284.942 155.757 282.937 157.815 282.937C160.103 282.937 162.39 284.942 163.076 287.392C163.991 291.403 163.076 291.848 155.071 291.848C145.922 291.848 145.693 291.848 149.81 287.392Z" fill="#E9866D"/>
<path d="M289.557 285.387C283.153 284.051 283.153 284.051 287.727 280.041C290.472 277.59 293.445 276.476 294.589 277.144C297.105 278.704 299.849 287.615 297.791 287.17C296.876 286.947 293.216 286.278 289.557 285.387Z" fill="#E9866D"/>
<path d="M320.205 279.372C320.205 275.139 321.349 274.025 325.694 274.025C328.668 274.025 332.098 275.362 333.471 276.922C335.301 278.927 334.157 280.263 327.982 282.046C320.663 284.273 320.205 284.273 320.205 279.372Z" fill="#E9866D"/>
<path d="M197.841 421.732C212.022 414.603 212.708 414.38 255.707 413.266C278.121 412.597 290.472 413.043 290.472 414.38C290.472 415.494 294.817 416.608 300.307 416.83C309.227 417.053 309.455 417.053 303.509 418.835C299.163 420.172 294.36 419.727 288.642 417.276C282.924 415.048 276.52 414.38 268.744 415.271C262.568 415.939 247.473 416.83 235.58 417.276C219.798 417.944 211.107 419.504 203.559 423.068C188.921 429.752 184.118 428.638 197.841 421.732Z" fill="#E9866D"/>
<path d="M246.101 390.987C245.414 388.982 246.101 387.646 248.159 387.646C251.819 387.646 252.733 391.21 249.531 392.992C248.388 393.661 247.015 392.77 246.101 390.987Z" fill="#E9866D"/>
<path d="M91.9446 346.876C90.5723 345.316 90.1149 341.529 90.801 338.633C92.1734 333.954 91.7159 333.509 85.3118 334.846C80.0513 335.96 77.078 334.846 72.0462 330.39C65.6421 324.598 65.6421 324.375 67.2431 304.324C68.3867 285.833 68.158 283.16 63.3549 274.025C59.0093 266.005 57.8657 260.881 58.0944 247.514C58.3231 233.701 59.0093 230.582 62.8975 228.132C69.9877 223.676 81.6523 230.137 91.0298 243.727C100.865 257.985 100.407 261.104 89.8862 251.524C71.36 234.37 59.4667 229.468 59.4667 239.048C59.4667 244.841 64.2698 261.549 70.6739 278.704C74.1046 287.838 75.0195 294.299 74.1046 302.096C73.1898 310.339 73.6472 314.127 76.6205 317.468L80.28 321.924L79.1364 317.468C77.9928 312.567 77.078 302.096 77.5354 295.635C77.9928 288.506 81.4236 293.408 85.7693 306.775C91.0298 323.706 94.0031 326.603 90.3436 311.453C86.9128 296.304 86.6841 296.081 83.9395 290.289C81.6523 285.387 82.7959 277.813 86.9128 271.798C88.7426 269.124 89.8862 268.901 93.5457 271.129C97.4339 273.58 97.8913 273.357 96.9764 270.906C95.3754 267.119 89.6575 264.668 86.4554 266.451C85.3118 267.342 82.3385 272.02 80.0513 277.144C77.7641 282.046 75.7057 284.496 75.7057 282.268C75.4769 280.041 73.8759 276.03 72.0462 273.134C69.9877 270.238 68.158 265.114 67.7005 261.549C67.2431 257.985 66.0995 251.301 65.1846 246.846C63.1262 236.82 64.4985 236.598 76.6205 244.618C90.3436 253.975 100.865 268.679 99.0349 275.808C98.3487 278.927 97.6626 296.749 97.4339 315.686C97.2051 334.4 96.519 349.772 95.8328 349.772C94.918 349.772 93.3169 348.435 91.9446 346.876Z" fill="#E9866D"/>
<path d="M388.592 316.354C388.363 312.122 388.363 306.775 388.592 304.77C388.821 302.765 387.448 295.19 385.618 288.061C379.214 263.332 386.533 231.473 400.943 221.671C407.347 217.438 408.49 217.438 413.98 222.785C419.926 228.577 419.926 241.053 413.751 260.658C409.405 274.917 409.405 276.253 412.836 289.398C414.666 296.749 415.809 305.438 414.894 308.557C413.293 315.241 401.857 323.706 394.081 324.152C389.507 324.375 388.821 323.261 388.592 316.354ZM396.14 280.041L389.278 272.911L394.767 256.203C397.969 247.068 402.772 237.266 405.517 234.147L410.549 228.8L404.373 232.587C397.969 236.598 390.879 251.97 387.906 267.565C386.762 274.248 387.448 276.253 393.166 281.6C398.884 286.947 399.57 288.729 397.741 293.408C394.081 302.542 395.682 304.547 399.57 295.635C403.23 287.17 403.23 287.17 396.14 280.041ZM410.777 293.63C409.863 288.284 408.033 280.932 406.661 277.144C404.602 271.798 405.06 268.901 408.262 261.995C410.549 257.539 411.692 253.306 411.235 252.638C410.549 251.97 407.804 256.203 405.06 261.772C400.714 270.906 400.485 272.466 403.458 278.035C405.06 281.377 407.347 288.284 408.262 293.63C409.176 298.754 410.32 302.987 411.006 302.987C411.692 302.987 411.692 298.754 410.777 293.63Z" fill="#E9866D"/>
<path d="M295.961 284.942C295.275 283.605 292.073 283.159 288.413 284.051L282.467 285.387L287.27 280.486C292.759 275.139 296.19 276.03 298.019 282.937C299.392 287.838 298.477 288.729 295.961 284.942Z" fill="#CECCCA"/>
<path d="M320.205 278.704C320.205 275.362 321.577 274.025 325.694 274.025C331.412 274.025 338.503 279.818 333.242 280.263C331.87 280.263 328.21 281.154 325.466 281.823C321.12 283.159 320.205 282.491 320.205 278.704Z" fill="#CECCCA"/>
<path d="M148.667 290.066C148.667 286.947 153.927 282.937 158.044 282.937C160.103 282.937 162.39 284.942 163.076 287.392C163.991 291.18 163.076 291.848 156.443 291.848C152.097 291.848 148.667 290.957 148.667 290.066Z" fill="#CECCCA"/>
<path d="M185.262 286.278C185.262 282.046 192.123 282.046 198.07 286.278C202.187 289.175 201.958 289.397 193.953 289.62C187.777 289.62 185.262 288.729 185.262 286.278Z" fill="#CECCCA"/>
<path d="M82.3384 354.228C79.8225 349.772 81.4236 338.633 84.6256 338.633C85.5405 338.633 85.7692 341.084 85.0831 344.203C84.3969 347.767 85.5405 351.554 88.0564 354.228C91.7159 358.238 91.7159 358.684 88.5138 358.684C86.4554 358.684 83.7107 356.678 82.3384 354.228Z" fill="#CECCCA"/>
<path d="M241.755 504.83C233.292 501.711 221.856 491.463 221.856 486.562C221.856 483.666 213.623 476.76 204.931 472.304C197.612 468.739 188.006 457.377 186.405 450.916C185.948 448.466 184.347 443.342 183.203 439.109C181.831 434.876 181.145 431.089 181.373 430.643C181.831 430.42 185.719 431.089 190.293 432.203C197.612 434.208 215.91 450.916 223 462.056C224.83 464.952 229.862 465.843 246.329 466.066C263.941 466.289 268.286 465.843 272.174 462.278C274.69 460.051 276.749 456.486 276.749 454.258C276.749 452.03 278.807 449.58 281.323 448.911C284.068 448.02 289.1 442.228 292.988 435.544C298.934 425.073 304.195 421.286 311.971 421.063C314.716 421.063 311.743 450.471 308.998 452.03C305.11 454.481 290.472 479.656 290.472 483.889C290.472 486.116 289.557 487.899 288.413 487.899C287.27 487.899 285.669 490.572 284.983 493.691C283.839 497.478 280.408 500.597 273.775 503.494C262.568 508.618 253.648 508.841 241.755 504.83Z" fill="#FEC1A9"/>
<path d="M330.955 446.461C330.04 445.57 329.354 442.673 329.354 440.223C329.125 437.549 327.753 431.757 326.152 427.301C323.178 419.058 323.178 418.835 328.21 418.835C336.215 418.835 344.221 411.484 342.162 406.36C340.79 403.686 339.875 403.018 339.189 405.023C337.359 409.701 332.327 407.919 324.093 399.899C317.918 393.884 314.258 392.101 307.854 392.101C303.28 392.101 292.53 390.096 283.839 387.868C275.148 385.418 267.143 384.304 266.228 384.972C265.313 385.863 265.313 385.195 266.228 383.858C267.143 382.299 271.946 379.848 276.977 378.289C292.073 374.056 297.562 361.357 287.956 352.891L282.924 348.658L286.812 356.01C291.615 365.144 289.099 368.932 276.977 371.16C272.403 372.051 266.685 374.056 264.169 375.615C258.909 379.403 238.782 379.848 236.723 376.284C235.808 374.947 231.234 374.056 226.659 374.501C207.447 375.615 203.33 372.273 208.133 359.575C210.192 353.56 210.192 353.337 206.99 357.347C205.16 359.797 203.559 365.59 203.559 370.268C203.559 378.289 204.016 378.734 214.537 381.63L225.287 384.749L217.968 386.309C213.851 387.2 209.963 388.982 209.048 390.096C206.075 394.997 188.921 401.458 182.059 400.344C177.028 399.453 170.166 401.458 158.273 407.028C142.263 414.603 141.348 414.825 137.231 411.038C133.114 407.473 132.656 407.473 132.656 410.592C132.656 412.597 133.8 414.825 135.172 415.494C139.289 418.167 141.348 426.633 139.975 433.985L138.374 441.114L128.768 427.301C123.279 419.504 119.162 412.82 119.391 412.152C119.848 411.484 117.561 407.696 114.588 403.463L108.87 395.889L115.045 397.225C118.476 398.116 123.965 399.453 127.625 400.344L133.8 401.681L125.337 392.77C120.763 387.646 115.96 381.63 114.816 379.403C110.928 372.051 105.439 346.653 104.067 329.722C103.381 320.587 102.466 311.453 101.779 309.671C101.093 307.666 102.008 295.19 103.838 281.823C106.811 260.435 106.811 256.648 103.609 248.628C101.779 243.504 99.721 236.597 99.0349 233.033C97.8913 226.795 98.12 226.572 104.295 227.909C108.87 228.8 112.758 227.909 116.417 225.235C121.449 221.448 121.907 219.443 121.907 202.511C121.907 189.59 120.763 180.678 117.79 173.772C113.215 162.633 112.529 136.567 116.875 128.992C118.933 124.982 120.992 124.537 134.486 125.428C155.299 126.765 183.889 131.666 185.49 134.116C187.32 137.013 231.92 140.8 243.585 139.018C248.616 138.349 256.85 137.681 261.882 137.235C270.573 136.567 289.328 132.557 315.173 125.428C329.583 121.418 339.875 121.195 348.109 124.314C358.172 128.324 360.231 140.132 356.114 172.435C354.055 189.59 353.598 200.729 354.97 203.403C356.114 205.63 362.747 209.863 369.837 212.982C383.789 219.22 383.331 217.884 377.385 240.385C374.64 250.856 375.784 271.797 379.901 289.175C382.874 301.873 382.645 341.752 379.672 342.643C378.299 343.089 377.385 345.539 377.385 348.213C377.385 357.347 369.837 378.734 366.864 378.734C365.034 378.734 363.662 380.071 363.662 381.853C363.662 383.413 361.146 388.537 357.944 392.992C354.742 397.671 349.71 408.142 346.736 416.162C339.875 435.322 333.013 448.466 330.955 446.461ZM273.775 332.841C273.089 309.003 273.547 301.873 276.063 299.423C279.722 295.858 295.046 295.19 295.046 298.532C295.046 302.319 319.29 300.982 329.811 296.527C341.476 291.625 351.082 282.268 349.252 277.59C346.736 271.575 332.556 267.342 321.349 269.347C315.631 270.461 311.056 270.461 311.056 269.792C311.056 266.451 331.87 262.663 350.625 262.44C361.603 262.44 370.523 261.549 370.523 260.881C370.523 257.539 357.486 247.514 349.024 244.172C340.332 240.608 340.104 240.608 319.29 249.742C307.854 254.866 296.876 259.099 295.046 259.099C293.216 259.099 287.041 262.886 281.323 267.342C268.515 277.59 261.196 281.377 257.308 279.818C255.021 278.927 254.792 280.263 256.622 285.833C257.765 289.843 260.738 304.992 263.026 319.696C266.685 342.866 271.717 363.139 274.004 363.139C274.233 363.139 274.233 349.549 273.775 332.841ZM177.714 310.562C181.602 309.894 188.006 306.329 192.352 302.765C196.697 299.2 201.272 296.304 202.873 296.304C204.245 296.304 208.362 295.19 212.022 293.63C215.452 292.294 219.798 290.957 221.628 290.511C223.457 290.289 226.202 288.506 228.032 286.724C231.005 283.828 230.09 283.382 221.399 282.046C215.91 281.154 203.33 276.03 193.495 270.684C183.661 265.114 173.826 260.658 171.538 260.658C169.48 260.658 161.704 258.653 154.385 256.203C147.066 253.752 139.975 251.747 138.603 251.747C134.486 251.747 116.646 269.124 116.646 272.911C116.646 276.03 117.332 276.03 123.736 272.911C130.369 269.347 143.635 269.57 171.31 273.134C182.517 274.471 182.974 276.253 172.453 276.253C163.305 276.476 139.518 281.154 135.172 284.051C131.284 286.278 132.199 289.62 137.002 289.62C139.975 289.62 142.491 292.516 145.007 298.309C146.837 303.21 150.268 308.111 152.555 309.448C157.129 312.122 167.65 312.567 177.714 310.562Z" fill="#FEC1A9"/>
<path d="M289.328 289.843C285.211 288.952 290.243 288.284 302.136 288.284C313.115 288.506 320.891 289.175 319.29 290.066C316.317 292.071 298.934 291.848 289.328 289.843Z" fill="#FEC1A9"/>
<path d="M154.156 296.972C152.555 295.858 160.103 295.19 170.852 294.967C181.602 294.744 188.921 295.413 187.549 296.304C183.889 298.532 157.358 298.977 154.156 296.972Z" fill="#FEC1A9"/>
<path d="M197.841 421.732C204.245 418.613 211.793 415.716 214.995 415.271C226.888 413.934 258.68 413.934 260.052 415.271C260.967 415.939 260.052 416.608 258.222 416.608C256.393 416.83 245.872 416.83 234.436 417.053C217.739 417.276 211.793 418.167 203.101 422.4C197.155 425.296 190.979 427.747 189.378 427.747C187.777 427.524 191.666 424.851 197.841 421.732Z" fill="#FEC1A9"/>
<path d="M289.786 417.276C288.871 416.608 288.185 414.825 288.185 413.489C288.185 411.929 288.871 411.929 290.014 413.711C290.929 415.048 294.817 416.608 298.477 417.276L305.338 418.167L298.248 418.613C294.36 418.613 290.472 418.167 289.786 417.276Z" fill="#FEC1A9"/>
<path d="M91.9446 346.876C90.3436 345.094 90.3436 342.866 91.4872 340.861C95.3754 335.068 94.0031 333.509 85.7692 334.846C78.9077 335.959 77.078 335.068 71.8175 329.053C65.8708 322.147 65.8708 321.478 67.2431 301.428C68.8441 282.046 68.6154 280.486 63.1262 272.466C58.3231 265.337 57.8657 262.663 59.4667 256.202C60.839 250.187 61.5251 249.519 61.7539 253.529C62.6687 260.881 62.44 260.881 68.3867 274.471C72.7323 285.165 73.1898 288.506 71.1313 294.299C67.2431 305.215 68.158 311.008 74.3334 317.914L80.28 324.152L78.679 313.681C77.9928 307.889 77.9928 301.428 78.679 299.2C80.0513 296.081 80.7375 296.527 83.4821 301.651C85.3118 305.215 86.9128 310.339 86.9128 313.235C86.9128 315.909 89.2 319.919 91.7159 321.701C95.8328 324.375 96.519 327.048 96.2903 336.628C96.0616 349.772 95.3754 351.109 91.9446 346.876Z" fill="#FEC1A9"/>
<path d="M389.049 312.79C389.049 305.438 387.448 293.853 385.618 286.724C383.56 279.595 382.416 271.575 383.103 268.901C383.56 266.228 384.704 258.43 385.39 251.747C386.076 244.172 388.821 236.375 392.48 231.028C408.262 207.635 425.187 225.235 415.123 254.866C413.522 259.99 411.464 267.342 410.549 271.575C409.176 277.813 408.49 278.481 406.661 275.585C405.288 272.911 405.746 269.347 408.262 264.223C412.836 254.643 416.267 231.919 413.293 230.137C409.405 227.909 399.799 234.815 395.453 243.281C392.937 247.959 389.964 257.094 388.821 263.332C386.533 274.248 386.762 275.139 392.48 280.932C397.969 286.501 398.198 287.615 396.139 298.309C393.852 310.562 395.453 312.121 402.544 305.215C406.661 301.205 408.262 301.205 407.347 305.884C407.118 306.997 408.033 307.22 409.405 306.329C410.549 305.661 411.692 301.651 411.921 297.863L412.15 290.734L414.208 297.418C415.581 301.873 415.352 306.106 413.751 310.116C411.006 316.8 401.4 323.929 397.741 321.924C396.597 321.033 394.081 321.701 392.023 323.038C389.278 325.489 388.821 323.929 389.049 312.79Z" fill="#FEC1A9"/>
<path d="M92.8595 313.013C91.9446 309.448 90.5723 301.873 89.8862 296.304C89.2 288.061 89.8862 285.387 93.5457 282.046C98.3487 277.813 98.3487 277.813 98.12 286.501C97.8913 291.18 97.2051 300.76 96.2903 307.443C94.918 318.805 94.6892 319.251 92.8595 313.013Z" fill="#FEC1A9"/>
<path d="M76.1631 272.466C73.4185 261.995 74.7908 249.519 78.9077 249.519C83.4821 249.519 92.1733 257.316 96.9764 265.337C101.322 272.911 101.322 272.911 96.7477 269.124C89.8862 263.109 85.5405 264.223 81.881 273.134L78.4503 281.377L76.1631 272.466Z" fill="#FEC1A9"/>
<path d="M398.427 266.896C396.826 265.337 395.682 261.995 395.682 259.322C395.682 251.97 400.485 240.385 403.23 241.276C408.033 242.835 408.719 250.856 405.06 260.213C402.086 267.565 400.714 269.124 398.427 266.896Z" fill="#FEC1A9"/>
<path d="M90.3436 250.41C86.6841 247.291 78.9077 241.722 73.4185 238.157C63.8123 231.696 62.8975 231.473 60.1528 235.261C58.5518 237.489 57.1795 238.157 57.1795 237.043C57.1795 230.805 63.1262 227.241 71.36 228.577C80.28 230.137 85.3118 234.37 93.5457 247.959C99.721 257.762 99.4923 257.762 90.3436 250.41Z" fill="#FEC1A9"/>
</svg>
