<svg width="409" height="484" viewBox="0 0 409 484" fill="none" xmlns="http://www.w3.org/2000/svg">
<path d="M179.459 472.151C159.009 464.52 148.158 455.482 128.543 429.776C115.396 412.705 103.085 389.208 95.9898 368.523C92.8597 358.883 89.3122 353.059 85.1387 349.846C76.3745 343.017 71.7836 332.373 70.3229 316.307C69.6969 308.676 66.5668 295.019 63.8541 286.183C57.1765 265.899 56.5505 246.82 62.602 237.582C64.8974 233.766 68.4449 230.954 70.7403 230.954C78.2525 230.954 79.2959 213.683 73.0357 190.989C70.7403 182.755 68.8622 169.5 68.8622 161.668V147.409L55.0898 144.798L41.3173 142.188L49.6643 137.368C56.9678 133.15 58.0112 131.544 59.0546 123.109C61.976 99.0091 78.4612 74.7087 99.9546 62.8598C105.171 59.8473 113.101 54.4249 117.692 51.0108C129.586 41.1701 141.272 38.1577 166.104 38.1577H187.597L182.172 32.9361C175.703 26.7104 176.746 25.1037 184.885 28.9195C188.223 30.5261 194.066 32.3336 197.822 33.1369C204.5 34.5427 204.709 34.3419 202.413 30.1245C201.161 27.7145 200.327 25.5054 200.744 24.9029C201.161 24.5012 206.378 25.9071 212.221 28.1162C218.064 30.1245 232.254 33.7394 243.731 35.9486C266.476 40.3668 276.492 43.7809 286.091 50.2075C292.769 55.0274 293.812 53.4208 288.804 46.5925C284.631 40.7685 285.883 40.9693 301.324 48.1992C320.105 57.0357 332.625 66.6755 337.634 76.3154L342.016 84.7502L342.642 78.1228L343.477 71.2946L347.024 78.7253C348.902 82.9427 350.571 90.1726 350.571 94.9925C350.571 101.017 351.823 104.833 354.536 107.243C356.832 109.251 360.588 115.477 363.3 121.1C367.474 130.138 368.309 135.761 368.935 162.07C369.352 178.939 368.726 202.035 367.265 213.281C365.179 231.758 365.179 233.766 368.309 235.573C373.108 238.184 377.699 249.431 377.699 259.071C377.699 263.489 374.986 275.338 371.647 285.58C368.1 295.822 364.344 311.487 363.092 320.324C361.422 332.173 359.336 338.398 355.162 344.222C347.441 355.067 347.859 354.264 337.425 375.552C332.208 385.995 326.365 396.639 324.07 399.049C319.688 404.271 311.132 416.12 296.108 438.412C281.083 460.704 273.154 465.524 238.931 473.959C225.159 477.373 190.31 476.369 179.459 472.151Z" fill="#1E0D08"/>
<path d="M242.687 418.529C243.522 416.32 244.565 412.103 245.4 408.89C246.652 403.467 246.443 403.066 241.853 404.471C219.942 410.898 204.5 410.898 192.188 405.074C188.223 403.266 184.676 401.66 184.05 401.66C183.215 401.66 184.467 408.287 186.971 416.32C187.806 418.931 186.763 419.734 182.589 419.734C172.573 419.734 158.592 410.095 158.592 403.066C158.592 396.438 166.73 387.401 171.738 388.606C174.242 389.007 181.963 388.204 188.85 386.598L201.37 383.786L186.763 384.79L172.156 385.794L177.372 381.577C189.058 372.138 194.484 370.732 215.977 370.33C236.218 370.129 237.053 370.33 247.487 376.556C261.885 385.393 273.571 402.865 270.65 410.496C268.98 414.312 259.59 418.931 249.573 420.739C242.479 422.144 241.644 421.944 242.687 418.529ZM255.625 385.593C253.33 384.589 246.861 383.987 241.018 383.987L230.584 384.188L241.018 385.593C246.861 386.397 253.33 386.999 255.625 387.2L259.798 387.401L255.625 385.593Z" fill="black"/>
<path d="M281.709 419.734C279.622 418.529 279.414 417.726 281.083 417.726C282.753 417.726 283.379 415.517 282.753 411.3C281.709 404.873 281.709 404.873 283.587 410.295C284.631 413.509 286.717 417.324 288.178 418.931C290.056 421.14 290.056 421.743 287.761 421.743C286.091 421.743 283.379 420.739 281.709 419.734Z" fill="black"/>
<path d="M140.437 396.438C138.977 394.229 137.307 387.602 136.472 381.978C135.22 372.941 134.177 371.134 126.665 366.314C89.9383 343.017 79.5046 312.692 91.399 264.091C95.1551 248.427 95.7811 240.594 95.5725 204.846C95.1551 169.3 95.5725 162.471 98.9112 155.241C103.711 144.196 108.928 143.192 147.115 146.405C202.622 150.823 229.958 149.016 272.945 138.372C302.159 131.142 306.75 131.142 315.097 137.769C326.574 147.208 331.999 162.873 335.964 198.822C337.216 210.47 340.764 233.967 343.685 251.037C353.076 307.069 349.319 320.725 313.845 354.866C298.403 369.728 292.352 377.159 291.308 381.978C290.473 385.593 288.595 391.417 286.926 394.631C284.005 400.656 284.005 400.656 285.048 391.417C287.135 375.351 278.37 364.707 258.129 358.481C252.078 356.473 243.522 352.657 238.931 349.846L230.584 344.423L238.722 343.419C249.365 342.013 251.452 337.394 241.018 338.198C236.218 338.599 231.419 340.808 227.663 344.222C220.568 350.85 215.56 350.85 208.465 344.222C202.622 338.8 183.633 334.783 183.633 339.001C183.633 341.21 190.519 343.419 198.24 343.419H203.457L198.24 346.432C190.519 350.85 177.581 356.473 166.313 360.289C152.749 365.109 145.445 374.749 143.985 389.409C142.941 399.25 142.524 400.254 140.437 396.438ZM165.687 261.882C167.565 260.276 169.026 257.866 169.026 256.861C169.026 254.05 174.451 254.652 177.372 258.066C179.459 260.476 179.251 261.079 176.329 261.079C170.695 261.079 173.199 262.284 181.546 263.69L188.849 264.895L180.711 258.066C176.329 254.251 169.652 250.636 166.104 250.234C156.922 248.828 134.177 247.422 137.098 248.427C138.768 249.029 137.307 251.238 133.342 254.451C125.621 260.878 126.873 263.087 135.22 257.263C141.898 252.644 146.071 251.841 146.071 255.054C146.071 258.468 154.21 265.095 158.383 265.095C160.679 265.095 164.017 263.69 165.687 261.882ZM260.007 260.075C263.763 257.263 267.311 255.054 267.937 255.054C270.441 255.054 269.189 262.685 266.685 263.69C265.224 264.292 270.023 264.895 277.536 264.895C286.926 265.095 290.056 264.493 287.969 263.087C285.883 261.882 285.674 261.079 287.552 261.079C288.804 261.079 290.056 259.271 290.056 257.062C290.056 252.242 292.769 251.841 296.525 256.259C298.612 258.87 298.612 259.673 296.108 261.28C294.021 262.886 294.647 262.886 298.403 261.882C305.915 260.075 305.915 259.673 300.49 254.05C296.525 250.033 293.604 249.029 285.465 249.029C279.831 249.029 271.902 250.435 267.728 252.042C258.755 255.656 258.129 255.656 260.007 252.644C261.051 250.837 260.424 251.037 258.129 252.845C256.042 254.451 254.999 256.058 255.625 256.661C256.251 257.263 255.208 259.472 253.121 261.481C248.321 266.702 252.078 265.899 260.007 260.075ZM179.668 251.037C176.955 248.828 173.199 247.021 171.53 247.021C169.652 247.021 171.321 248.828 175.286 250.837C184.676 255.857 185.928 255.857 179.668 251.037ZM145.654 240.996C165.895 240.996 173.825 241.799 184.05 245.213C190.936 247.422 199.909 249.029 204.083 248.627L211.386 248.025L200.535 240.996C177.372 226.134 179.668 226.737 148.576 225.532C119.57 224.327 119.361 224.327 116.231 229.147C114.353 231.758 112.058 237.983 110.806 242.803L108.928 251.439L114.562 246.217C119.987 241.197 121.031 240.996 145.654 240.996ZM290.056 247.422C302.159 247.824 304.246 247.623 301.116 245.615C299.238 244.209 294.438 243.004 290.682 243.004C282.127 243.004 265.433 246.82 263.763 249.23C263.346 250.033 265.641 250.033 268.98 248.828C272.528 247.623 281.918 247.021 290.056 247.422ZM276.701 239.992C292.56 235.172 304.663 232.963 313.428 232.963L326.574 232.762L319.479 226.536C312.384 220.511 312.176 220.31 295.482 221.515C286.091 222.118 273.154 224.327 266.685 226.536C251.66 231.758 226.411 246.217 229.958 247.824C234.966 249.832 252.704 246.82 276.701 239.992ZM163.391 245.615C160.679 245.213 156.505 245.213 154.001 245.615C151.288 246.017 153.375 246.418 158.592 246.418C163.809 246.418 165.895 246.017 163.391 245.615Z" fill="black"/>
<path d="M349.319 348.038C353.284 335.185 354.954 322.934 355.997 297.228C357.04 268.911 361.84 238.988 365.179 238.988C368.309 238.988 371.647 244.812 373.108 252.443L374.36 260.075L375.821 254.05C377.073 248.828 377.282 249.431 377.49 257.464C377.699 263.087 375.195 274.735 371.647 285.58C368.1 295.822 364.344 311.487 363.092 320.324C361.631 331.369 359.336 338.599 355.788 343.821C350.154 352.055 347.441 353.661 349.319 348.038ZM362.049 275.137C361.214 269.514 360.17 265.296 359.544 265.899C358.918 266.3 359.127 271.522 359.962 277.145C360.796 282.768 361.84 286.986 362.466 286.383C363.092 285.982 362.883 280.76 362.049 275.137ZM367.891 249.431C368.935 248.025 369.352 246.418 368.726 245.615C367.057 244.209 361.005 257.464 361.214 261.48C361.214 262.886 362.257 261.48 363.509 258.066C364.761 254.853 366.639 250.837 367.891 249.431Z" fill="black"/>
<path d="M81.174 346.03C78.6699 343.218 78.6699 342.817 81.174 344.222C83.0521 345.427 83.6781 345.227 83.0521 343.218C82.426 341.612 80.7566 340.607 79.5046 341.009C78.0439 341.21 77.4179 340.808 78.0439 339.804C78.6699 338.8 77.8352 334.583 76.3745 330.365C74.0791 324.34 73.2444 323.336 72.4097 326.549C71.9924 328.558 71.3663 326.349 71.1577 321.328C70.949 313.495 67.8189 298.232 63.4367 284.375C62.6021 281.965 63.0194 281.162 64.4801 281.965C67.4015 283.773 67.4015 282.768 63.4367 269.715C58.4286 253.046 63.0194 234.971 72.4097 234.971C75.1225 234.971 77.2092 236.176 77.2092 237.783C77.2092 239.389 77.6265 241.799 78.2526 243.406C79.0873 245.213 77.4179 246.017 72.6184 246.017C66.3582 246.017 65.7322 246.619 65.5235 252.041C65.3148 257.665 65.3148 257.665 66.1495 252.644C67.1929 246.017 72.8271 245.213 78.0439 250.837C80.9653 254.05 81.3827 258.87 81.174 285.379C80.7566 316.106 81.3827 323.939 85.9735 337.394C87.6429 342.415 87.6429 344.423 85.7648 345.026C84.5128 345.427 83.8867 346.632 84.7214 347.636C86.5995 350.649 84.0954 349.645 81.174 346.03Z" fill="black"/>
<path d="M196.153 466.528C193.649 463.515 191.145 458.294 190.519 455.08C189.267 449.457 189.058 449.256 187.389 453.675C186.554 456.085 186.137 460.704 186.971 463.515C187.806 468.335 187.597 468.134 183.841 461.909C178.416 453.072 178.416 444.637 183.841 435.801L188.015 428.772L186.763 434.797L185.719 440.822L189.267 434.797L193.023 428.772L193.649 434.395C194.275 440.018 196.988 441.625 199.074 437.407C199.909 436.002 199.909 437.608 199.283 441.223C198.866 444.637 199.283 452.671 200.327 459.097C201.37 465.524 201.996 470.946 201.579 471.348C201.161 471.749 198.657 469.741 196.153 466.528Z" fill="#674337"/>
<path d="M214.516 451.867C213.89 441.424 213.682 432.387 214.099 432.186C214.308 431.784 216.186 434.194 217.855 437.608C221.82 444.838 222.029 456.687 218.272 464.921C215.768 470.544 215.56 469.741 214.516 451.867Z" fill="#674337"/>
<path d="M233.714 462.712C236.636 455.281 236.218 443.633 232.671 436.805L229.541 430.78L235.175 436.805L240.6 442.83L239.557 436.805C238.305 431.383 238.514 431.182 241.226 434.797C242.896 436.805 244.357 441.826 244.565 445.641C244.774 452.47 244.774 452.47 246.235 443.834L247.695 434.797L247.904 443.231C248.321 451.867 244.983 461.909 241.644 461.909C240.809 461.909 239.974 460.704 239.974 459.499C239.766 458.093 238.305 459.298 236.636 462.511C232.671 469.339 231.001 469.54 233.714 462.712Z" fill="#674337"/>
<path d="M251.452 462.913C255.625 454.88 255.416 438.01 251.243 431.784L247.695 426.763L252.495 431.182C256.042 434.395 257.503 438.412 258.338 446.445C259.172 455.884 258.546 457.892 253.747 463.114L248.321 468.938L251.452 462.913Z" fill="#674337"/>
<path d="M163.183 457.49C158.383 452.871 160.47 443.232 168.191 434.797C173.408 429.173 174.868 428.169 172.99 431.784C171.738 434.596 169.234 438.412 167.565 440.219C165.478 442.428 164.643 446.445 165.269 451.867C165.687 456.285 165.895 459.9 165.895 459.9C165.687 459.9 164.643 458.896 163.183 457.49Z" fill="#674337"/>
<path d="M265.641 455.884C270.232 449.457 270.232 439.215 265.641 432.186L262.094 426.763L267.728 431.583C275.449 438.412 275.449 449.256 267.728 456.085L262.303 460.905L265.641 455.884Z" fill="#674337"/>
<path d="M145.445 417.927C146.071 415.517 147.323 413.71 148.367 413.71C151.288 413.71 150.662 416.923 147.323 419.534C144.819 421.542 144.611 421.14 145.445 417.927Z" fill="#674337"/>
<path d="M242.687 418.53C243.522 416.32 244.565 412.103 245.4 408.89C246.652 403.467 246.443 403.066 241.853 404.471C219.942 410.898 204.5 410.898 192.188 405.074C188.223 403.266 184.676 401.66 184.05 401.66C183.215 401.66 184.467 408.287 186.971 416.32C189.267 423.349 173.408 419.935 163.391 411.099C157.548 406.078 157.34 400.254 162.557 393.827C167.147 388.003 171.947 387.602 223.698 386.999C242.896 386.798 256.668 385.995 254.373 385.192C252.078 384.388 232.671 383.987 211.386 384.388C172.99 384.991 172.782 384.991 177.581 381.175C189.476 372.138 194.692 370.732 215.977 370.33C236.218 370.13 237.053 370.33 247.487 376.556C261.885 385.393 273.571 402.865 270.65 410.496C268.98 414.312 259.59 418.931 249.573 420.739C242.479 422.144 241.644 421.944 242.687 418.53Z" fill="#674337"/>
<path d="M140.437 396.438C138.977 394.229 137.307 387.602 136.472 381.978C135.22 372.941 134.177 371.134 126.665 366.314C89.9383 343.017 79.5046 312.692 91.399 264.091C95.1551 248.427 95.7811 240.594 95.5725 204.846C95.1551 169.3 95.5725 162.471 98.9112 155.241C103.711 144.196 108.928 143.192 147.115 146.405C202.622 150.823 229.958 149.016 272.945 138.372C302.159 131.142 306.75 131.142 315.097 137.769C326.574 147.208 331.999 162.873 335.964 198.822C337.216 210.47 340.764 233.967 343.685 251.037C353.076 307.069 349.319 320.725 313.845 354.866C298.403 369.728 292.352 377.159 291.308 381.978C290.473 385.593 288.595 391.417 286.926 394.631C284.005 400.656 284.005 400.656 285.048 391.417C287.135 375.351 278.37 364.707 258.129 358.481C252.078 356.473 243.522 352.657 238.931 349.846L230.584 344.423L238.722 343.419C249.365 342.013 251.452 337.394 241.018 338.198C236.218 338.599 231.419 340.808 227.663 344.222C220.568 350.85 215.56 350.85 208.465 344.222C202.622 338.8 183.633 334.783 183.633 339.001C183.633 341.21 190.519 343.419 198.24 343.419H203.457L198.24 346.432C190.519 350.85 177.581 356.473 166.313 360.289C152.749 365.109 145.445 374.749 143.985 389.409C142.941 399.25 142.524 400.254 140.437 396.438ZM233.088 281.764C232.462 279.756 232.045 281.363 232.045 285.178C232.045 288.994 232.462 290.601 233.088 288.793C233.506 286.785 233.506 283.572 233.088 281.764ZM289.639 279.756C287.552 279.354 284.213 279.354 282.335 279.756C280.248 280.359 281.918 280.76 285.883 280.76C289.847 280.76 291.517 280.359 289.639 279.756ZM160.261 275.739C158.174 275.338 154.836 275.338 152.958 275.739C150.871 276.342 152.54 276.744 156.505 276.744C160.47 276.744 162.139 276.342 160.261 275.739ZM147.949 274.534C147.532 274.133 144.402 272.325 140.855 270.317L134.594 266.903L139.603 270.92C142.315 273.329 145.445 275.137 146.697 275.137C147.949 275.137 148.367 274.936 147.949 274.534ZM165.687 261.882C167.565 260.276 169.026 257.866 169.026 256.861C169.026 254.05 174.451 254.652 177.372 258.066C179.459 260.476 179.251 261.079 176.329 261.079C170.904 261.079 173.199 262.284 181.337 263.89L188.641 265.095L183.841 260.276C176.329 252.443 166.521 249.029 152.54 249.029C141.272 249.029 139.185 249.632 133.134 255.255C127.917 259.874 127.291 261.079 130.421 260.276C132.716 259.673 136.89 260.476 139.811 262.083C146.906 265.899 161.722 265.899 165.687 261.882ZM260.007 260.075C263.763 257.263 267.311 255.054 267.937 255.054C270.441 255.054 269.189 262.685 266.685 263.69C265.224 264.292 270.023 264.895 277.536 264.895C286.926 265.095 290.056 264.493 287.969 263.087C285.883 261.882 285.674 261.079 287.552 261.079C288.804 261.079 290.056 259.271 290.056 257.062C290.056 252.242 292.769 251.841 296.525 256.259C298.612 258.87 298.612 259.673 296.108 261.481C293.812 263.087 294.021 263.288 296.942 262.284C299.029 261.681 302.368 261.079 304.246 261.079C306.75 261.079 305.915 259.472 301.533 255.054C296.525 250.033 294.021 249.029 285.465 249.029C279.831 249.029 271.902 250.435 267.728 252.042C258.755 255.656 258.129 255.656 260.007 252.644C261.051 250.837 260.424 251.037 258.129 252.845C256.042 254.451 254.999 256.058 255.625 256.661C256.251 257.263 255.208 259.472 253.121 261.481C248.321 266.702 252.078 265.899 260.007 260.075ZM150.662 247.021L167.982 245.615L152.332 245.213C135.429 245.012 129.378 247.222 124.995 255.656C123.326 259.071 123.952 258.669 128.126 254.251C132.925 249.029 135.22 248.427 150.662 247.021ZM179.668 251.037C176.955 248.828 173.199 247.021 171.53 247.021C169.652 247.021 171.321 248.828 175.286 250.837C184.676 255.857 185.928 255.857 179.668 251.037ZM145.654 240.996C165.895 240.996 173.825 241.799 184.05 245.213C190.936 247.422 199.909 249.029 204.083 248.627L211.386 248.025L200.535 240.996C177.372 226.134 179.668 226.737 148.576 225.532C119.57 224.327 119.361 224.327 116.231 229.147C114.353 231.758 112.058 237.983 110.806 242.803L108.928 251.439L114.562 246.217C119.987 241.197 121.031 240.996 145.654 240.996ZM290.056 247.422C302.159 247.824 304.246 247.623 301.116 245.615C299.238 244.209 294.438 243.004 290.682 243.004C282.127 243.004 265.433 246.82 263.763 249.23C263.346 250.033 265.641 250.033 268.98 248.828C272.528 247.623 281.918 247.021 290.056 247.422ZM276.701 239.992C292.56 235.172 304.663 232.963 313.428 232.963L326.574 232.762L319.479 226.536C312.384 220.511 312.176 220.31 295.482 221.515C286.091 222.118 273.154 224.327 266.685 226.536C251.66 231.758 226.411 246.217 229.958 247.824C234.966 249.832 252.704 246.82 276.701 239.992Z" fill="#674337"/>
<path d="M154.836 379.167C155.253 376.355 157.34 374.146 160.679 373.544C163.6 372.74 165.687 370.933 165.269 369.527C164.643 367.318 165.269 367.318 167.982 369.527C171.112 372.138 171.112 372.539 167.356 373.744C165.061 374.548 162.557 377.158 161.722 379.368C159.844 385.192 154.001 384.991 154.836 379.167Z" fill="#674337"/>
<path d="M261.885 373.544C261.259 372.539 258.338 371.535 255.416 371.535C252.286 371.535 250.408 370.33 250.408 368.523C250.408 363.904 257.294 365.109 261.468 370.531C263.555 373.343 264.807 375.552 264.181 375.552C263.555 375.552 262.511 374.749 261.885 373.544Z" fill="#674337"/>
<path d="M351.406 342.415C354.954 326.349 356.623 308.274 356.832 288.793C356.832 270.719 361.214 242.201 364.344 239.188C366.431 236.979 371.647 244.41 372.899 251.841C374.36 260.075 374.36 260.075 375.821 254.05C377.073 248.427 377.282 248.627 377.49 256.259C377.699 267.907 375.612 277.145 372.482 277.145C368.935 277.145 366.848 285.58 369.978 287.588C371.856 288.793 371.856 289.195 369.978 289.195C368.726 289.195 367.474 290.802 367.683 292.81C367.683 294.617 366.639 300.843 365.387 306.266C363.927 311.889 362.674 319.119 362.257 322.332C361.422 329.562 358.084 338.198 353.493 344.022C350.154 348.44 350.154 348.239 351.406 342.415ZM362.048 275.137C361.214 269.514 360.17 265.296 359.544 265.899C358.918 266.3 359.127 271.522 359.962 277.145C360.796 282.768 361.84 286.986 362.466 286.383C363.092 285.982 362.883 280.76 362.048 275.137ZM367.891 249.431C368.935 248.025 369.352 246.418 368.726 245.615C367.057 244.209 361.005 257.464 361.214 261.481C361.214 262.886 362.257 261.481 363.509 258.066C364.761 254.853 366.639 250.837 367.891 249.431Z" fill="#674337"/>
<path d="M80.9653 339.804C76.3745 332.373 70.323 315.303 71.7837 313.897C72.4097 313.295 71.9924 311.286 70.949 309.278C69.0709 305.864 66.3582 291.806 66.3582 284.174C66.3582 281.965 64.8975 275.338 63.2281 269.514C58.4286 253.046 63.2281 234.971 72.4097 234.971C75.1225 234.971 77.2092 236.176 77.2092 237.783C77.2092 239.389 77.6265 241.799 78.2526 243.406C79.0873 245.213 77.4179 246.017 72.6184 246.017C66.3582 246.017 65.7322 246.619 65.5235 252.041C65.3148 257.665 65.3148 257.665 66.1495 252.644C67.1929 246.017 72.6184 245.213 77.8352 250.636C80.7566 253.849 81.3827 259.271 81.174 288.392C80.9653 314.5 81.5913 324.541 84.3041 332.373C86.1821 337.997 87.6429 343.017 87.6429 344.022C87.6429 347.235 84.0954 345.026 80.9653 339.804Z" fill="#674337"/>
<path d="M345.981 200.83C345.146 191.391 343.268 178.739 341.598 172.714C339.929 166.689 338.051 158.053 337.425 153.635C336.799 149.217 335.756 143.794 334.921 141.585C333.669 138.171 334.295 138.372 338.468 142.589C340.972 145.401 344.937 150.02 347.024 152.631C349.111 155.442 347.441 151.426 343.268 143.995C339.303 136.363 337.008 130.941 338.468 131.744C339.929 132.548 343.685 134.958 347.024 136.966L352.658 140.782L350.571 135.56C347.65 128.129 348.067 126.924 351.823 132.146C358.501 141.384 363.092 158.856 362.883 174.521L362.466 189.784L361.005 176.529C359.962 169.099 357.666 160.463 355.788 157.451C353.91 154.237 353.076 153.434 353.91 155.643C354.745 157.852 355.58 169.099 355.997 180.747C356.623 199.424 356.414 200.629 354.536 190.989C351.823 176.128 350.571 175.726 350.363 189.985C350.363 196.412 349.528 205.449 348.693 209.867C347.441 217.097 347.024 216.093 345.981 200.83Z" fill="#674337"/>
<path d="M79.7133 186.772C80.7566 173.115 80.548 172.312 78.0439 177.734C75.9571 182.153 75.3311 182.755 75.3311 179.743C75.3311 177.534 76.1658 173.919 77.0005 171.71C78.4612 168.095 78.6699 168.095 82.0087 172.714C84.7214 176.931 84.9301 179.743 83.052 188.78C80.1306 204.846 78.6699 204.043 79.7133 186.772Z" fill="#674337"/>
<path d="M81.3827 165.685C81.3827 164.078 82.8434 162.672 84.5128 162.672C86.1822 162.672 87.6429 164.078 87.6429 165.685C87.6429 167.291 86.1822 168.697 84.5128 168.697C82.8434 168.697 81.3827 167.291 81.3827 165.685Z" fill="#674337"/>
<path d="M140.229 122.506C127.708 113.469 120.196 111.661 101.207 112.866C93.6944 113.268 88.8949 112.866 90.3556 112.063C91.6077 111.26 95.1551 110.456 98.0765 110.456C102.041 110.456 102.667 110.055 100.163 108.448C96.8245 106.44 97.8679 105.837 107.467 103.829C109.971 103.227 108.719 102.825 104.337 102.423L97.0332 102.022L104.337 99.4108C122.283 92.7834 135.429 96.5992 144.193 111.26C146.28 114.674 146.071 114.674 140.855 110.858C137.724 108.448 133.968 106.44 132.716 106.44C131.464 106.44 132.508 107.846 135.22 109.452C139.185 112.264 153.792 130.539 151.914 130.539C151.497 130.539 146.28 126.924 140.229 122.506Z" fill="#674337"/>
<path d="M176.12 114.272C165.895 107.645 155.253 100.214 152.54 97.8041L147.323 93.3859L151.497 98.6075C153.584 101.62 158.801 107.846 162.765 112.666L170.069 121.502L163.6 117.084C160.053 114.674 152.332 108.448 146.28 103.227C136.681 94.9925 134.177 93.7875 122.491 92.3817C113.936 91.3776 106.006 91.7792 99.3286 93.3859L89.3122 95.9967L95.1551 91.1768C98.4939 88.566 106.841 84.5494 113.727 82.5411L126.247 78.5245H114.144C107.467 78.3236 98.7025 79.7295 94.5291 81.3361C84.0954 85.5535 83.8867 85.1519 92.8597 78.3236C105.171 68.8846 119.57 65.6714 136.89 68.2822C172.573 73.7046 206.169 86.7585 216.186 99.4108C222.863 108.046 222.655 109.854 215.56 103.227C209.299 97.6033 186.763 86.3568 181.546 86.3568C179.877 86.3568 182.172 88.1643 186.763 90.1726C196.57 94.39 207.63 104.432 209.299 110.256C210.76 115.879 209.717 115.678 200.118 107.846C191.354 100.616 173.616 91.5784 163.809 89.3693C158.383 88.1643 160.261 90.5743 177.372 107.243C188.223 117.887 196.57 126.523 195.944 126.523C195.318 126.523 186.554 121.1 176.12 114.272Z" fill="#674337"/>
<path d="M116.857 121.502C112.892 120.096 103.502 118.69 95.9898 118.49C85.9735 118.088 83.6781 117.686 87.6429 116.481C100.372 112.666 122.074 116.08 126.456 122.707C127.917 125.117 125.621 124.715 116.857 121.502Z" fill="#674337"/>
<path d="M233.923 110.858C233.714 105.034 232.462 97.2017 230.793 93.5867C226.202 82.9427 213.89 71.2946 201.787 66.073C191.98 61.6548 188.223 61.2531 161.722 61.4539L132.508 61.6548L145.863 56.8349C177.79 45.3875 205.961 46.1909 232.462 59.2448C246.235 65.8722 246.652 66.073 241.853 61.0523C236.844 55.8307 226.411 50.0066 213.056 44.9859L205.543 42.1743L217.229 42.9776C240.392 44.5842 260.216 57.4373 268.354 75.7129C272.945 86.156 271.484 103.427 265.224 113.268C262.511 117.285 260.007 120.498 259.798 120.096C259.381 119.695 260.424 114.272 262.303 107.846C264.598 99.21 264.807 93.9884 263.346 88.7668L261.259 81.3361L261.05 88.1643L260.842 94.9925L256.46 89.5701C252.912 85.1519 238.514 76.3153 234.966 76.3153C234.549 76.3153 236.01 79.7295 238.305 83.9469C242.896 92.3817 242.479 103.026 237.262 114.473L234.132 121.502L233.923 110.858Z" fill="#674337"/>
<path d="M324.905 106.841C325.531 99.21 325.113 98.2058 323.444 102.022C322.401 104.432 321.148 106.44 320.731 106.44C320.522 106.44 320.105 101.62 320.105 95.595C320.105 87.7627 318.436 81.7378 313.845 72.4996C306.333 57.839 308.837 56.4332 320.731 68.8847C332.208 80.7336 337.216 93.7876 334.086 103.026C332.626 106.841 330.121 111.461 328.035 113.067C324.696 116.08 324.487 115.477 324.905 106.841Z" fill="#674337"/>
<path d="M277.327 101.821C282.335 89.1685 279.205 75.1104 267.728 59.4456L260.424 49.8058L268.145 55.429C272.319 58.4415 278.162 64.2656 280.874 68.0813C285.048 73.9054 285.883 74.5079 285.883 71.0938C285.883 68.6838 283.587 63.4622 280.666 59.2448L275.24 51.8141L280.666 55.8307C289.013 62.0564 293.604 68.483 296.316 77.7212C298.612 84.951 298.612 87.5618 295.482 95.3942C293.395 100.214 290.891 105.034 289.639 105.637C288.387 106.44 288.595 105.034 290.056 102.624C291.308 100.214 292.143 95.7958 291.725 92.7834L290.891 87.361L288.595 92.3817C287.343 95.1934 283.796 99.6116 280.666 102.423L275.24 107.444L277.327 101.821Z" fill="#674337"/>
<path d="M242.687 418.529C243.522 416.32 244.565 412.103 245.4 408.89C246.652 403.467 246.443 403.066 241.853 404.471C219.942 410.898 204.5 410.898 192.188 405.074C188.223 403.266 184.676 401.66 184.05 401.66C183.215 401.66 184.467 408.287 186.971 416.32C189.267 423.349 173.408 419.935 163.391 411.099C157.548 406.078 157.34 400.254 162.557 393.827C167.147 388.003 171.947 387.602 223.698 386.999C242.896 386.798 256.668 385.995 254.373 385.192C252.078 384.388 232.671 383.987 211.386 384.388C172.99 384.991 172.782 384.991 177.581 381.175C190.102 371.736 196.362 369.929 217.02 370.33C234.549 370.531 238.096 371.134 246.652 376.154C260.633 383.987 273.78 402.664 270.65 410.496C268.98 414.312 259.59 418.931 249.573 420.739C242.479 422.144 241.644 421.944 242.687 418.529Z" fill="#A94A43"/>
<path d="M140.437 396.438C138.977 394.229 137.307 387.803 136.472 382.179C135.22 372.539 134.386 371.334 123.952 364.506C106.423 352.858 96.8245 341.612 92.2337 326.951C85.1388 305.261 84.7214 294.417 89.9383 275.137C93.903 260.075 94.5291 252.242 94.9464 210.871C95.3638 171.107 95.9898 162.271 98.9112 155.241C103.711 144.196 108.928 143.192 147.115 146.405C202.622 150.823 229.958 149.016 272.945 138.372C302.159 131.142 306.75 131.142 315.097 137.769C326.574 147.208 331.999 162.873 335.964 198.822C337.216 210.47 340.764 233.967 343.685 251.037C353.076 307.069 349.319 320.725 314.262 354.666C296.734 371.535 292.769 376.556 290.265 384.79L287.343 394.631L285.883 386.397C283.587 371.134 276.492 364.305 256.042 357.678C249.365 355.469 241.018 351.653 237.262 349.042L230.584 344.423L238.722 343.419C249.365 342.013 251.452 337.394 241.018 338.198C236.218 338.599 231.419 340.808 227.663 344.222C220.568 350.85 215.56 350.85 208.465 344.222C202.622 338.8 183.633 334.783 183.633 339.001C183.633 341.21 190.519 343.419 198.24 343.419H203.457L198.24 346.432C190.519 350.85 177.581 356.473 166.313 360.289C152.749 365.109 145.445 374.749 143.985 389.409C142.941 399.25 142.524 400.254 140.437 396.438ZM233.088 281.764C232.462 279.756 232.045 281.363 232.045 285.178C232.045 288.994 232.462 290.601 233.088 288.793C233.506 286.785 233.506 283.572 233.088 281.764ZM289.639 279.756C287.552 279.354 284.213 279.354 282.335 279.756C280.248 280.359 281.918 280.76 285.883 280.76C289.847 280.76 291.517 280.359 289.639 279.756ZM160.261 275.739C158.174 275.338 154.836 275.338 152.958 275.739C150.871 276.342 152.54 276.744 156.505 276.744C160.47 276.744 162.139 276.342 160.261 275.739ZM147.949 274.534C147.532 274.133 144.402 272.325 140.855 270.317L134.594 266.903L139.603 270.92C142.315 273.329 145.445 275.137 146.697 275.137C147.949 275.137 148.367 274.936 147.949 274.534ZM165.687 261.882C167.565 260.276 169.025 257.866 169.025 256.861C169.025 254.05 174.451 254.652 177.372 258.066C179.459 260.476 179.25 261.079 176.329 261.079C170.904 261.079 173.199 262.284 181.337 263.89L188.641 265.095L183.841 260.276C176.329 252.443 166.521 249.029 152.54 249.029C141.272 249.029 139.185 249.632 133.134 255.255C127.917 259.874 127.291 261.079 130.421 260.276C132.716 259.673 136.89 260.476 139.811 262.083C146.906 265.899 161.722 265.899 165.687 261.882ZM260.007 260.075C263.763 257.263 267.311 255.054 267.937 255.054C270.441 255.054 269.189 262.685 266.685 263.69C265.224 264.292 270.023 264.895 277.536 264.895C286.926 265.095 290.056 264.493 287.969 263.087C285.883 261.882 285.674 261.079 287.552 261.079C288.804 261.079 290.056 259.271 290.056 257.062C290.056 252.242 292.769 251.841 296.525 256.259C298.612 258.87 298.612 259.673 296.108 261.481C293.812 263.087 294.021 263.288 296.942 262.284C299.029 261.681 302.368 261.079 304.246 261.079C306.75 261.079 305.915 259.472 301.533 255.054C296.525 250.033 294.021 249.029 285.465 249.029C279.831 249.029 271.902 250.435 267.728 252.042C258.755 255.656 258.129 255.656 260.007 252.644C261.05 250.837 260.424 251.037 258.129 252.845C256.042 254.451 254.999 256.058 255.625 256.661C256.251 257.263 255.208 259.472 253.121 261.481C248.321 266.702 252.078 265.899 260.007 260.075ZM150.662 247.021L167.982 245.615L152.332 245.213C135.429 245.012 129.378 247.222 124.995 255.656C123.326 259.071 123.952 258.669 128.125 254.251C132.925 249.029 135.22 248.427 150.662 247.021ZM179.668 251.037C176.955 248.828 173.199 247.021 171.53 247.021C169.652 247.021 171.321 248.828 175.286 250.837C184.676 255.857 185.928 255.857 179.668 251.037ZM145.654 240.996C165.895 240.996 173.825 241.799 184.05 245.213C190.936 247.422 199.909 249.029 204.083 248.627L211.386 248.025L200.535 240.996C177.372 226.134 179.668 226.737 148.575 225.532C119.57 224.327 119.361 224.327 116.231 229.147C114.353 231.758 112.058 237.983 110.806 242.803L108.928 251.439L114.562 246.217C119.987 241.197 121.031 240.996 145.654 240.996ZM290.056 247.422C302.159 247.824 304.246 247.623 301.116 245.615C299.238 244.209 294.438 243.004 290.682 243.004C282.127 243.004 265.433 246.82 263.763 249.23C263.346 250.033 265.641 250.033 268.98 248.828C272.528 247.623 281.918 247.021 290.056 247.422ZM276.701 239.992C292.56 235.172 304.663 232.963 313.428 232.963L326.574 232.762L319.479 226.536C312.384 220.511 312.175 220.31 295.482 221.515C286.091 222.118 273.154 224.327 266.685 226.536C251.66 231.758 226.411 246.217 229.958 247.824C234.966 249.832 252.704 246.82 276.701 239.992Z" fill="#A94A43"/>
<path d="M142.315 260.677C137.307 258.267 137.099 254.451 142.315 253.447C143.985 253.246 146.489 255.255 147.741 258.066C150.454 263.489 149.619 263.89 142.315 260.677Z" fill="#A94A43"/>
<path d="M351.615 342.415C354.745 329.763 356.623 309.479 356.832 288.793C356.832 270.719 361.214 242.201 364.344 239.188C366.431 236.979 371.647 244.41 372.899 251.841C374.36 260.075 374.36 260.075 375.821 254.05C377.073 248.427 377.282 248.627 377.49 256.259C377.699 267.907 375.612 277.145 372.482 277.145C368.935 277.145 366.848 285.58 369.978 287.588C371.856 288.793 371.856 289.195 369.978 289.195C368.726 289.195 367.474 290.802 367.683 292.81C367.683 294.617 366.639 300.843 365.387 306.266C363.927 311.889 362.674 319.119 362.257 322.332C361.422 329.562 358.084 338.198 353.493 344.022C350.154 348.44 350.154 348.239 351.615 342.415ZM362.048 275.137C361.214 269.514 360.17 265.296 359.544 265.899C358.918 266.3 359.127 271.522 359.962 277.145C360.796 282.768 361.84 286.986 362.466 286.383C363.092 285.982 362.883 280.76 362.048 275.137ZM367.891 249.431C368.935 248.025 369.352 246.418 368.726 245.615C367.057 244.209 361.005 257.464 361.214 261.481C361.214 262.886 362.257 261.481 363.509 258.066C364.761 254.853 366.639 250.837 367.891 249.431Z" fill="#A94A43"/>
<path d="M80.9653 339.804C76.3745 332.373 70.323 315.303 71.7837 313.897C72.4097 313.295 71.9924 311.286 70.949 309.278C69.0709 305.864 66.3582 291.806 66.3582 284.174C66.3582 281.965 64.8975 275.338 63.2281 269.514C58.4286 253.046 63.2281 234.971 72.4097 234.971C75.1225 234.971 77.2092 236.176 77.2092 237.783C77.2092 239.389 77.6265 241.799 78.2526 243.406C79.0872 245.213 77.4179 246.017 72.6184 246.017C66.3582 246.017 65.7322 246.619 65.5235 252.041C65.3148 257.665 65.3148 257.665 66.1495 252.644C67.1929 245.816 72.827 245.213 78.2526 251.037C81.5913 254.652 81.8 257.665 80.548 281.563C79.0872 307.27 80.3393 320.123 86.8082 341.009C88.6862 347.235 85.1388 346.632 80.9653 339.804Z" fill="#A94A43"/>
<path d="M242.687 418.529C243.522 416.32 244.565 412.103 245.4 408.89C246.652 403.467 246.443 403.066 241.853 404.471C219.942 410.898 204.5 410.898 192.188 405.074C188.223 403.266 184.676 401.66 184.05 401.66C183.215 401.66 184.467 408.287 186.971 416.32C189.267 423.349 173.408 419.935 163.391 411.099C157.34 405.877 157.34 400.856 162.974 393.426C166.313 388.807 168.399 387.802 171.738 388.807C174.242 389.61 180.294 390.012 185.302 389.811C190.101 389.61 194.066 390.212 194.066 391.217C194.066 396.438 233.506 395.032 235.384 389.811C235.801 388.606 241.435 387.602 247.904 387.401C257.086 387.401 258.755 386.999 255.208 385.593C252.495 384.589 250.408 382.983 250.408 381.978C250.408 380.974 246.861 378.363 242.479 375.954C235.592 372.339 233.506 371.937 225.785 373.945C219.524 375.351 215.351 375.351 210.343 373.744C204.083 371.535 201.996 371.937 189.058 378.564C172.782 386.397 169.234 386.798 180.92 379.167C192.814 371.334 203.457 368.322 210.134 370.732C213.89 371.937 219.107 371.937 224.533 370.933C232.045 369.125 234.549 369.728 244.148 374.749C250.199 377.761 257.503 383.384 260.842 387.2C267.311 394.631 272.528 408.086 270.441 411.5C268.145 414.915 258.546 419.132 249.573 420.739C242.479 422.144 241.644 421.944 242.687 418.529Z" fill="#D15A5A"/>
<path d="M140.437 396.438C138.977 394.229 137.307 387.803 136.472 382.179C135.22 372.539 134.386 371.334 123.952 364.506C106.423 352.858 96.8245 341.612 92.2337 326.951C85.1388 305.261 84.7214 294.417 89.9383 275.137C93.903 260.075 94.5291 252.242 94.9464 210.871C95.3638 171.107 95.9898 162.271 98.9112 155.241C103.711 144.196 108.928 143.192 147.115 146.405C202.622 150.823 229.958 149.016 272.945 138.372C302.159 131.142 306.75 131.142 315.097 137.769C326.574 147.208 331.999 162.873 335.964 198.822C337.216 210.47 340.764 233.967 343.685 251.037C353.076 307.069 349.319 320.725 314.262 354.666C296.734 371.535 292.769 376.556 290.265 384.79L287.343 394.631L285.883 386.397C283.587 371.134 276.492 364.305 256.042 357.678C249.365 355.469 241.018 351.653 237.262 349.042L230.584 344.423L238.722 343.419C249.365 342.013 251.452 337.394 241.018 338.198C236.218 338.599 231.419 340.808 227.663 344.222C220.568 350.85 215.56 350.85 208.465 344.222C202.622 338.8 183.633 334.783 183.633 339.001C183.633 341.21 190.519 343.419 198.24 343.419H203.457L198.24 346.432C190.519 350.85 177.581 356.473 166.313 360.289C152.749 365.109 145.445 374.749 143.985 389.409C142.941 399.25 142.524 400.254 140.437 396.438ZM257.503 340.206C259.59 334.984 258.964 331.972 254.373 327.152L250.199 322.332L253.747 327.955C256.46 332.373 256.877 334.583 254.999 338.398C253.538 341.21 253.33 343.419 254.373 343.419C255.416 343.419 256.877 342.013 257.503 340.206ZM232.462 275.137C230.376 262.485 228.289 253.849 227.871 255.857C227.454 257.866 228.08 264.694 229.123 270.92C230.376 277.145 232.045 289.396 233.088 298.232C234.34 310.483 234.966 312.29 235.384 306.266C235.801 301.847 234.549 287.789 232.462 275.137ZM297.568 277.949C301.533 276.141 304.455 274.334 304.037 273.932C303.62 273.53 300.281 274.534 296.525 276.342C291.934 278.551 286.509 279.354 280.248 278.551C274.406 277.949 271.902 278.35 273.571 279.354C278.162 282.166 289.847 281.363 297.568 277.949ZM170.069 274.133L176.329 271.321L170.069 272.727C160.053 274.936 146.489 273.932 140.855 270.317C137.933 268.51 135.638 267.505 135.638 268.108C135.638 268.71 138.768 270.92 142.524 273.129C150.245 277.748 161.096 278.149 170.069 274.133ZM165.687 261.882C167.565 260.276 169.025 257.866 169.025 256.861C169.025 254.05 174.451 254.652 177.372 258.066C179.459 260.476 179.25 261.079 176.329 261.079C170.904 261.079 173.199 262.284 181.337 263.89L188.641 265.095L183.841 260.276C176.329 252.443 166.521 249.029 152.54 249.029C141.272 249.029 139.185 249.632 133.134 255.255C127.917 259.874 127.291 261.079 130.421 260.276C132.716 259.673 136.89 260.476 139.811 262.083C146.906 265.899 161.722 265.899 165.687 261.882ZM260.007 260.075C263.763 257.263 267.311 255.054 267.937 255.054C270.441 255.054 269.189 262.685 266.685 263.69C265.224 264.292 270.023 264.895 277.536 264.895C286.926 265.095 290.056 264.493 287.969 263.087C285.883 261.882 285.674 261.079 287.552 261.079C288.804 261.079 290.056 259.271 290.056 257.062C290.056 252.242 292.769 251.841 296.525 256.259C298.612 258.87 298.612 259.673 296.108 261.481C293.812 263.087 294.021 263.288 296.942 262.284C299.029 261.681 302.577 261.079 304.872 261.079C308.211 261.079 307.793 260.075 301.951 255.054C296.108 250.234 292.769 249.029 285.048 249.029C279.622 249.029 271.902 250.435 267.728 252.042C258.755 255.656 258.129 255.656 260.007 252.644C261.05 250.837 260.424 251.037 258.129 252.845C256.042 254.451 254.999 256.058 255.625 256.661C256.251 257.263 255.208 259.472 253.121 261.481C248.321 266.702 252.078 265.899 260.007 260.075ZM126.665 256.661C130.63 250.636 137.098 248.025 152.123 246.82L167.982 245.615L151.706 245.414C136.055 245.012 135.429 245.213 127.708 252.042C123.535 255.857 121.031 259.071 122.491 259.071C123.952 259.071 125.83 257.866 126.665 256.661ZM179.668 251.037C176.955 248.828 173.199 247.021 171.53 247.021C169.652 247.021 171.321 248.828 175.286 250.837C184.676 255.857 185.928 255.857 179.668 251.037ZM145.654 240.996C165.895 240.996 173.825 241.799 184.05 245.213C190.936 247.422 199.909 249.029 204.083 248.627L211.386 248.025L200.535 240.996C177.372 226.134 179.668 226.737 148.575 225.532C119.57 224.327 119.361 224.327 116.231 229.147C114.353 231.758 112.058 237.983 110.806 242.803L108.928 251.439L114.562 246.217C119.987 241.197 121.031 240.996 145.654 240.996ZM287.135 247.021C294.647 247.021 302.577 248.025 304.872 249.029C306.959 250.234 308.837 250.636 308.837 250.234C308.837 247.824 296.108 243.004 290.056 243.004C281.918 243.004 265.224 247.021 263.763 249.23C263.137 250.234 265.224 250.033 268.145 249.029C271.275 247.824 279.831 247.021 287.135 247.021ZM276.701 239.992C292.56 235.172 304.663 232.963 313.428 232.963L326.574 232.762L319.479 226.536C312.384 220.511 312.175 220.31 295.482 221.515C286.091 222.118 273.154 224.327 266.685 226.536C251.66 231.758 226.411 246.217 229.958 247.824C234.966 249.832 252.704 246.82 276.701 239.992Z" fill="#D15A5A"/>
<path d="M353.702 336.39C354.536 334.181 355.58 317.914 356.206 300.241C357.04 266.702 361.631 238.184 366.013 239.59C374.778 242.402 375.195 265.095 366.639 287.187C363.718 294.417 360.379 307.671 359.127 316.91C357.875 326.148 355.788 335.185 354.536 336.992C352.658 340.005 352.449 339.804 353.702 336.39ZM362.048 276.141C361.422 269.915 360.17 265.296 359.544 265.698C359.127 266.3 359.336 271.924 359.962 278.149C360.796 284.375 362.048 288.994 362.466 288.392C363.092 287.789 362.883 282.367 362.048 276.141ZM367.891 249.431C368.935 248.025 369.352 246.418 368.726 245.615C367.057 244.209 361.005 257.464 361.214 261.48C361.214 262.886 362.257 261.48 363.509 258.066C364.761 254.853 366.639 250.836 367.891 249.431Z" fill="#D15A5A"/>
<path d="M140.437 396.438C138.977 394.229 137.307 387.803 136.472 382.179C135.22 372.539 134.386 371.334 123.952 364.506C106.423 352.858 96.8245 341.612 92.2337 326.951C85.1388 305.261 84.7214 294.417 89.9383 275.137C93.903 260.075 94.5291 252.242 94.9464 210.871C95.3638 171.107 95.9898 162.271 98.9112 155.241C103.711 144.196 108.928 143.192 147.115 146.405C202.622 150.823 229.958 149.016 272.945 138.372C302.159 131.142 306.75 131.142 315.097 137.769C326.574 147.208 331.999 162.873 335.964 198.822C337.216 210.47 340.764 233.967 343.685 251.037C353.076 307.069 349.319 320.725 314.262 354.666C296.734 371.535 292.769 376.556 290.265 384.79L287.343 394.631L285.883 386.397C283.587 371.134 276.492 364.305 256.042 357.678C249.365 355.469 241.018 351.653 237.262 349.042L230.584 344.423L238.722 343.419C249.365 342.013 251.452 337.394 241.018 338.198C236.218 338.599 231.419 340.808 227.663 344.222C220.568 350.85 215.56 350.85 208.465 344.222C202.622 338.8 183.633 334.783 183.633 339.001C183.633 341.21 190.519 343.419 198.24 343.419H203.457L198.24 346.432C190.519 350.85 177.581 356.473 166.313 360.289C152.749 365.109 145.445 374.749 143.985 389.409C142.941 399.25 142.524 400.254 140.437 396.438ZM258.338 336.993C258.755 334.181 257.086 329.964 254.79 327.152L250.408 322.332L253.747 328.759C256.251 333.779 256.46 336.189 254.582 339.603C252.495 343.017 252.704 343.62 254.999 343.017C256.46 342.415 257.92 339.804 258.338 336.993ZM231.628 270.116C227.245 250.435 227.454 255.656 232.045 293.212C234.758 314.098 234.758 314.098 235.175 301.245C235.592 294.015 233.923 280.158 231.628 270.116ZM298.612 277.748C301.951 275.739 304.663 273.53 304.663 272.727C304.663 271.924 301.324 273.129 297.36 275.338C290.265 279.354 281.5 279.555 267.311 275.94C265.433 275.539 266.893 276.342 270.232 277.949C278.788 281.965 291.308 281.965 298.612 277.748ZM169.86 274.534C175.286 272.124 174.451 272.124 161.096 272.727C149.619 273.329 144.819 272.727 140.855 270.317C137.933 268.51 135.638 267.505 135.638 268.108C135.638 268.71 138.768 270.92 142.524 273.129C150.036 277.748 160.887 278.149 169.86 274.534ZM165.687 261.882C167.565 260.276 169.025 257.866 169.025 256.861C169.025 254.05 174.451 254.652 177.372 258.066C179.459 260.476 179.25 261.079 176.329 261.079C170.904 261.079 173.199 262.284 181.337 263.89L188.641 265.095L183.841 260.276C176.329 252.443 166.521 249.029 152.54 249.029C141.272 249.029 139.185 249.632 133.134 255.255C127.917 259.874 127.291 261.079 130.421 260.276C132.716 259.673 136.89 260.476 139.811 262.083C146.906 265.899 161.722 265.899 165.687 261.882ZM260.007 260.075C263.763 257.263 267.311 255.054 267.937 255.054C270.441 255.054 269.189 262.685 266.685 263.69C265.224 264.292 270.023 264.895 277.536 264.895C286.926 265.095 290.056 264.493 287.969 263.087C285.883 261.882 285.674 261.079 287.552 261.079C288.804 261.079 290.056 259.271 290.056 257.062C290.056 252.242 292.769 251.841 296.525 256.259C298.612 258.87 298.612 259.673 296.108 261.481C293.812 263.087 294.021 263.288 296.942 262.284C299.029 261.681 302.577 261.079 304.872 261.079C308.211 261.079 307.793 260.075 301.951 255.054C296.108 250.234 292.769 249.029 285.048 249.029C279.622 249.029 271.902 250.435 267.728 252.042C258.755 255.656 258.129 255.656 260.007 252.644C261.05 250.837 260.424 251.037 258.129 252.845C256.042 254.451 254.999 256.058 255.625 256.661C256.251 257.263 255.208 259.472 253.121 261.481C248.321 266.702 252.078 265.899 260.007 260.075ZM126.665 256.661C130.63 250.636 137.098 248.025 152.123 246.82L167.982 245.615L151.706 245.414C136.055 245.012 135.429 245.213 127.708 252.042C123.535 255.857 121.031 259.071 122.491 259.071C123.952 259.071 125.83 257.866 126.665 256.661ZM179.668 251.037C176.955 248.828 173.199 247.021 171.53 247.021C169.652 247.021 171.321 248.828 175.286 250.837C184.676 255.857 185.928 255.857 179.668 251.037ZM145.654 240.996C165.895 240.996 173.825 241.799 184.05 245.213C190.936 247.422 199.909 249.029 204.083 248.627L211.386 248.025L200.535 240.996C177.372 226.134 179.668 226.737 148.575 225.532C119.57 224.327 119.361 224.327 116.231 229.147C114.353 231.758 112.058 237.983 110.806 242.803L108.928 251.439L114.562 246.217C119.987 241.197 121.031 240.996 145.654 240.996ZM287.135 247.021C294.647 247.021 302.577 248.025 304.872 249.029C306.959 250.234 308.837 250.636 308.837 250.234C308.837 247.824 296.108 243.004 290.056 243.004C281.918 243.004 265.224 247.021 263.763 249.23C263.137 250.234 265.224 250.033 268.145 249.029C271.275 247.824 279.831 247.021 287.135 247.021ZM276.701 239.992C292.56 235.172 304.663 232.963 313.428 232.963L326.574 232.762L319.479 226.536C312.384 220.511 312.175 220.31 295.482 221.515C286.091 222.118 273.154 224.327 266.685 226.536C251.66 231.758 226.411 246.217 229.958 247.824C234.966 249.832 252.704 246.82 276.701 239.992Z" fill="#EC785A"/>
<path d="M176.329 382.581C185.928 374.949 200.953 369.125 207.421 370.33C216.603 372.138 217.229 372.138 226.411 370.732C233.297 369.527 236.636 370.33 245.817 375.552C251.66 378.966 256.668 382.581 256.668 383.585C256.668 384.589 251.869 382.179 245.817 378.363C239.974 374.548 233.923 371.736 232.462 372.339C225.159 374.949 215.351 375.552 209.926 373.544C204.5 371.535 201.996 372.138 190.102 377.962C173.408 385.995 170.904 386.798 176.329 382.581Z" fill="#EC785A"/>
<path d="M79.9219 337.997C77.2092 333.177 75.1225 324.943 74.4964 315.303C73.6617 307.069 70.323 291.203 66.7755 280.158C60.098 259.673 59.6806 251.238 65.1061 239.992C67.6102 234.569 77.2092 232.762 77.2092 237.783C77.2092 239.389 77.6265 241.799 78.2526 243.406C79.0873 245.213 77.4179 246.017 72.6184 246.017C66.3582 246.017 65.7321 246.619 65.5235 252.041C65.3148 257.665 65.3148 257.665 66.1495 252.644C67.1929 245.816 72.827 245.213 78.2526 251.037C81.5913 254.652 81.8 257.665 80.548 281.563C79.0873 307.27 80.3393 320.123 86.8082 341.009C88.8949 348.038 84.7214 346.231 79.9219 337.997Z" fill="#EC785A"/>
<path d="M353.702 336.39C354.536 334.181 355.58 317.914 356.206 300.241C357.04 266.702 361.631 238.184 366.013 239.59C374.778 242.402 375.195 265.095 366.639 287.187C363.718 294.417 360.379 307.671 359.127 316.91C357.875 326.148 355.788 335.185 354.536 336.992C352.658 340.005 352.449 339.804 353.702 336.39ZM362.048 275.739C361.214 269.714 360.17 265.095 359.753 265.698C359.127 266.3 359.336 272.325 360.17 279.354C361.005 286.383 362.048 291.002 362.674 289.597C363.092 288.191 362.883 281.965 362.048 275.739ZM367.891 249.431C368.935 248.025 369.352 246.418 368.726 245.615C367.057 244.209 361.005 257.464 361.214 261.48C361.214 262.886 362.257 261.48 363.509 258.066C364.761 254.853 366.639 250.836 367.891 249.431Z" fill="#EC785A"/>
<path d="M242.687 419.132C243.313 417.324 244.565 412.505 245.4 408.287C246.235 404.07 248.53 398.446 250.617 395.836C252.704 393.225 253.956 390.413 253.33 389.409C252.704 388.405 254.582 387.602 257.294 387.602C261.468 387.602 263.346 389.61 266.893 396.84C269.397 401.861 271.276 407.484 270.858 409.291C270.023 413.509 259.798 419.132 249.573 420.939C242.687 422.144 241.644 421.743 242.687 419.132Z" fill="#FEBEAA"/>
<path d="M172.156 417.324C164.435 413.308 158.592 407.082 158.592 402.865C158.592 400.455 160.679 396.037 163.391 392.823C168.191 387.2 168.399 387.2 174.451 390.212C177.79 392.02 179.668 393.426 178.624 393.627C177.581 393.627 178.207 395.233 179.876 397.242C181.546 399.049 183.633 403.467 184.467 406.681C185.302 410.095 186.345 414.312 186.971 416.32C187.806 418.931 186.763 419.734 182.172 419.734C179.042 419.734 174.451 418.529 172.156 417.324Z" fill="#FEBEAA"/>
<path d="M198.24 407.082C194.692 405.475 193.232 403.266 193.649 400.455C194.484 395.434 198.866 394.43 218.064 394.631C224.95 394.631 231.21 393.827 232.045 392.622C234.132 389.811 238.096 394.028 236.218 396.84C235.384 398.045 232.88 400.053 230.584 401.459C227.454 403.266 227.245 403.668 230.167 402.865C232.254 402.262 233.714 402.865 233.714 404.471C233.714 409.492 207.839 411.3 198.24 407.082Z" fill="#FEBEAA"/>
<path d="M140.437 396.438C138.977 394.229 137.307 387.802 136.472 382.179C135.22 372.539 134.386 371.334 123.952 364.506C106.423 352.858 96.8245 341.612 92.2337 326.951C85.1388 305.261 84.7214 294.417 89.9383 275.137C93.903 260.075 94.5291 252.242 94.9464 210.871C95.3638 171.107 95.9898 162.271 98.9112 155.241C103.711 144.196 108.928 143.192 147.115 146.405C202.622 150.823 229.958 149.016 272.945 138.372C302.159 131.142 306.75 131.142 315.097 137.769C326.574 147.208 331.999 162.873 335.964 198.822C337.216 210.47 340.764 233.967 343.685 251.037C353.076 307.069 349.319 320.725 314.262 354.666C296.734 371.535 292.769 376.556 290.265 384.79L287.343 394.631L285.883 386.597C283.379 370.933 276.284 364.105 256.042 357.678C248.947 355.268 240.392 351.051 236.844 348.239L230.584 343.218L243.105 344.423C252.912 345.227 256.46 346.632 260.842 351.051C263.763 354.063 265.015 355.268 263.555 353.661C261.468 351.452 261.677 350.247 263.972 348.641C266.685 346.833 266.059 344.624 260.424 334.382C256.877 327.754 252.078 318.717 249.573 314.5C245.191 306.266 242.687 286.986 244.983 278.551C245.609 275.94 247.904 271.924 249.991 269.514C253.747 265.497 255.834 265.095 273.571 265.497L293.186 265.899L275.449 266.501C265.641 266.903 256.877 268.108 256.042 268.911C254.999 269.915 256.668 270.116 259.59 269.715C263.137 268.911 265.015 269.514 265.015 271.12C265.015 272.526 263.555 273.129 261.677 272.325C259.798 271.522 258.964 271.924 260.007 273.329C262.511 277.346 275.24 281.162 286.091 281.162C295.69 281.162 297.568 280.358 303.829 273.932C316.14 261.48 311.967 245.213 295.69 242.602C292.56 242 284.213 242.602 277.327 244.008C264.181 246.619 262.929 245.213 275.24 241.197C278.996 239.992 282.961 239.59 284.005 240.193C285.048 240.795 285.883 240.393 285.883 239.389C285.883 235.975 298.403 232.963 312.802 232.963L326.574 232.762L319.479 226.536C312.384 220.511 312.175 220.31 295.482 221.515C275.449 222.72 260.007 227.741 240.809 238.787C233.088 243.205 225.993 246.418 225.159 245.816C224.115 245.414 222.237 246.619 220.777 249.029C217.855 253.447 209.925 254.652 211.386 250.636C211.804 249.23 209.091 246.217 205.335 244.008C201.37 241.799 194.484 237.381 189.684 233.967C179.877 227.339 168.817 225.331 138.35 225.13C116.44 224.929 114.77 225.934 110.806 242.803L108.928 251.439L114.562 246.217C119.779 241.397 121.657 240.996 137.933 240.996C150.036 240.996 154.418 241.598 152.332 243.004C150.662 244.008 146.28 245.012 142.524 245.012C137.933 245.012 133.342 247.021 128.334 251.238C124.161 254.853 121.448 258.066 122.074 258.669C122.491 259.271 125.621 257.263 128.543 254.451C133.76 249.23 146.906 245.213 149.619 247.824C150.454 248.427 148.367 249.029 145.445 249.029C142.107 249.029 137.098 251.439 133.134 255.255C128.752 259.071 127.708 261.079 130.004 260.276C132.09 259.673 135.846 260.276 138.35 261.48C143.359 264.292 173.408 266.903 171.738 264.694C170.486 262.485 173.616 262.685 177.164 264.895C179.459 266.3 178.624 267.505 173.616 269.915C165.269 274.133 146.28 274.133 140.229 269.915C137.724 268.309 135.638 267.305 135.638 268.108C135.638 268.71 138.768 270.919 142.524 273.129C150.454 277.748 163.6 278.35 171.112 274.133C174.034 272.526 176.955 271.321 177.998 271.12C180.711 271.12 179.459 275.739 175.912 279.756C172.156 283.572 172.156 283.773 178.624 280.559C188.223 275.739 198.031 267.505 201.579 260.677C204.5 255.255 205.543 254.853 215.768 255.255C222.029 255.456 226.828 256.661 226.828 257.866C226.828 259.071 228.706 272.325 230.793 287.187C232.88 302.048 234.549 317.311 234.549 320.926C234.549 326.549 234.758 326.951 236.427 323.939C241.018 315.905 245.609 316.307 251.034 325.144C255.416 332.373 255.625 338.197 251.243 341.411C248.739 343.62 248.113 343.62 248.739 341.411C249.156 339.804 247.695 338.197 245.609 337.796C240.809 336.792 223.281 341.612 224.533 343.62C224.95 344.423 224.533 345.628 223.281 346.432C222.237 347.034 221.194 346.632 221.194 345.628C221.194 344.423 219.733 343.419 218.064 343.419C216.394 343.419 214.934 344.423 214.934 345.628C214.934 346.833 213.682 347.436 212.43 346.833C210.969 346.432 209.925 344.825 210.343 343.62C210.552 342.415 210.134 341.612 209.299 341.812C208.256 342.013 204.917 341.009 201.787 339.804C194.484 336.792 183.633 336.591 183.633 339.402C183.633 340.407 187.389 342.013 191.98 342.616L200.327 344.022L193.858 348.641C190.102 351.251 182.381 354.866 176.538 356.674C153.166 364.105 145.654 371.535 143.985 389.61C142.941 399.451 142.524 400.254 140.437 396.438ZM165.895 347.235C171.53 342.415 174.034 341.411 175.912 343.218C180.085 347.235 181.337 345.628 178.416 340.005C175.912 335.587 175.912 333.98 178.624 328.959C180.294 325.947 180.711 323.336 179.668 323.336C178.416 323.336 176.538 325.144 175.286 327.353C174.034 329.562 172.156 331.369 170.904 331.369C169.652 331.369 169.443 330.164 170.278 328.959C171.321 327.152 171.112 326.951 169.443 328.357C166.939 330.566 156.088 353.461 157.548 353.461C157.966 353.461 161.722 350.649 165.895 347.235ZM184.467 318.115C186.554 313.094 184.676 312.692 180.503 317.311C177.372 320.725 177.164 321.328 179.877 321.328C181.755 321.328 183.841 319.922 184.467 318.115Z" fill="#FEBEAA"/>
<path d="M176.329 382.38C186.554 374.749 200.953 369.125 207.421 370.33C216.603 372.138 217.229 372.138 226.411 370.732C233.297 369.527 236.636 370.33 245.817 375.552C251.66 378.966 256.668 382.581 256.668 383.786C256.668 384.79 253.538 383.585 249.991 380.974C238.096 372.339 234.549 371.334 225.367 373.343C219.942 374.548 214.308 374.347 209.926 373.142C203.457 371.134 201.37 371.736 189.058 378.363C174.451 385.995 169.234 387.602 176.329 382.38Z" fill="#FEBEAA"/>
<path d="M79.7133 337.595C76.3745 331.972 75.1224 326.349 75.1224 317.512C75.1224 309.479 73.0357 298.835 68.8622 286.584C65.1061 274.936 62.602 263.89 62.8107 257.866L63.2281 248.025L64.4801 256.058C65.3148 260.476 67.6102 266.903 69.6969 270.116C71.575 273.53 72.6184 274.334 71.7837 272.124C69.2796 264.895 68.8622 257.062 70.949 257.062C73.8704 257.062 73.4531 251.439 70.5316 250.435C68.8622 250.033 68.6536 248.828 69.6969 247.824C70.7403 246.82 71.9923 247.021 72.4097 248.627C73.0357 249.832 74.7051 251.037 76.1658 251.037C80.3393 251.037 81.8 263.087 80.3393 286.785C78.8786 307.069 80.548 320.524 86.8082 341.009C88.8949 348.038 84.7214 346.231 79.7133 337.595Z" fill="#FEBEAA"/>
<path d="M357.04 297.027C357.249 282.166 357.875 272.928 358.71 276.141C360.17 282.768 359.544 321.328 357.875 322.934C357.249 323.537 357.04 311.889 357.04 297.027Z" fill="#FEBEAA"/>
<path d="M142.315 259.874C139.811 258.267 138.142 255.857 138.768 254.853C141.063 251.439 145.445 253.046 147.741 258.066C150.454 263.89 148.993 264.493 142.315 259.874Z" fill="#FEBEAA"/>
<path d="M167.773 259.673C168.399 258.066 169.026 256.259 169.026 255.857C169.026 253.648 175.077 255.456 175.912 257.866C176.746 259.673 175.286 261.079 171.947 261.681C167.982 262.284 166.939 261.882 167.773 259.673Z" fill="#FEBEAA"/>
<path d="M263.972 261.079C262.511 258.669 264.389 255.054 267.311 255.054C268.354 255.054 269.189 256.861 269.189 259.071C269.189 263.288 266.059 264.493 263.972 261.079Z" fill="#FEBEAA"/>
<path d="M290.056 258.066C290.056 252.443 292.56 251.64 296.108 255.857C298.194 258.267 297.777 259.271 294.438 261.079C290.473 262.886 290.056 262.685 290.056 258.066Z" fill="#FEBEAA"/>
<path d="M300.49 252.042C298.403 249.632 298.403 249.029 301.324 249.029C303.203 249.029 304.663 250.435 304.663 252.042C304.663 253.648 304.246 255.054 303.829 255.054C303.411 255.054 301.951 253.648 300.49 252.042Z" fill="#FEBEAA"/>
<path d="M362.048 249.23C363.3 240.795 364.553 239.59 367.683 242.603C369.352 244.209 369.561 245.012 367.891 245.012C366.639 245.012 364.553 247.422 363.3 250.636C361.005 255.857 361.005 255.857 362.048 249.23Z" fill="#FEBEAA"/>
<path d="M283.379 247.623C285.883 247.222 289.639 247.222 291.726 247.623C293.604 248.226 291.517 248.627 286.926 248.427C282.335 248.427 280.666 248.025 283.379 247.623Z" fill="#FEBEAA"/>
<path d="M64.6888 244.611C64.6888 240.795 68.8623 236.979 73.4531 236.979C75.7485 236.979 77.2092 238.385 77.2092 240.996C77.2092 243.607 76.1658 244.611 74.0791 243.807C72.4097 243.004 69.4883 243.607 67.8189 245.012C65.3148 247.021 64.6888 247.021 64.6888 244.611Z" fill="#FEBEAA"/>
<path d="M140.855 258.468C137.307 255.857 137.307 255.656 141.481 254.652C144.402 253.849 146.071 254.652 146.697 257.263C147.949 261.681 146.28 262.083 140.855 258.468Z" fill="#E8E5E6"/>
<path d="M170.278 258.066C171.112 256.46 172.364 255.656 173.408 256.259C176.329 257.866 175.494 261.079 172.156 261.079C170.278 261.079 169.652 259.874 170.278 258.066Z" fill="#E8E5E6"/>
<path d="M290.056 257.062C290.056 253.447 290.682 253.246 294.23 255.054C298.82 257.464 297.986 261.079 292.978 261.079C291.308 261.079 290.056 259.271 290.056 257.062Z" fill="#E8E5E6"/>
</svg>
